<svg xmlns="http://www.w3.org/2000/svg" width="35" height="30" fill="#faeef1" xmlns:v="https://vecta.io/nano"><path d="M12.926.108c-.417.2-.526.433-.547 1.2l-.027.687H9.686c-2.946 0-2.981.007-3.288.427-.144.2-.15.273-.171 1.887l-.021 1.687h14.397H35l-.02-1.687c-.027-2.487.226-2.314-3.466-2.314h-2.673v-.607c0-.974-.294-1.36-1.025-1.36s-1.025.387-1.025 1.36v.607h-2.598-2.598v-.607c0-.974-.294-1.36-1.026-1.36s-1.025.387-1.025 1.36v.607H16.98h-2.564v-.62c0-.513-.027-.653-.157-.873-.267-.46-.841-.633-1.333-.393zM6.117 8.836C5.851 13.797 3.752 18.865.71 21.892c-.321.327-.622.667-.656.753a1.05 1.05 0 0 0 .485 1.227c.226.12.725.127 13.864.127l13.877-.127c.137-.073.472-.347.738-.62 1.887-1.887 3.575-4.701 4.566-7.608a26.35 26.35 0 0 0 1.319-6.768l.041-.88h-14.39-14.39l-.048.84zm28.678 9.402c-.93 2.214-2.68 4.814-4.32 6.421-.745.72-1.08.967-1.62 1.167l-.39.14-11.129.02-11.122.013v1.607c0 1.474.014 1.62.137 1.86.089.173.232.313.41.4.267.133.376.133 13.843.133l13.843-.133c.178-.087.321-.227.41-.4.137-.26.137-.36.123-5.941l-.021-5.681-.164.393z"/></svg>