<svg xmlns="http://www.w3.org/2000/svg" xmlns:xlink="http://www.w3.org/1999/xlink" viewBox="0 0 690.3 719.96" xmlns:v="https://vecta.io/nano"><style><![CDATA[.h{fill:none}.i{opacity:.39}.j{fill:#cc4e6f}.k{fill:#f6acc7}.l{stroke-miterlimit:10}.m{fill:#fff}.n{fill:#fbd9e2}.o{fill:#fbd8e2}.p{fill:#f68c6a}.q{fill:#a63558}.r{fill:#7f3737}.s{fill:#f9fcfd}.t{stroke-width:.67}.u{stroke-width:1.11}]]></style><defs><linearGradient id="A" x1="199.35" y1="320.8" x2="708.18" y2="320.8" gradientUnits="userSpaceOnUse"><stop offset="0" stop-color="#fff" stop-opacity=".2"/><stop offset="1" stop-color="#fff" stop-opacity=".7"/></linearGradient><clipPath id="B" transform="translate(-17.88 -17.2)"><ellipse cx="552.21" cy="349" rx="51" ry="34.14" transform="matrix(.773951 -.633246 .633246 .773951 -96.18 428.57)" class="h"/></clipPath><clipPath id="C" transform="translate(-17.88 -17.2)"><ellipse cx="493.83" cy="488.01" rx="52.12" ry="34.89" transform="matrix(.773951 -.633246 .633246 .773951 -197.4 423.02)" class="h"/></clipPath><path id="D" d="M244.12 535.46h-6.8c-1.21 0-1.79-1-1.3-2.18l2.75-6.8a3.61 3.61 0 0 1 3.06-2.17h6.79c1.21 0 1.79 1 1.3 2.17l-2.74 6.8a3.63 3.63 0 0 1-3.06 2.18z"/></defs><g stroke="#fbd9e2" class="h u"><path d="M134.12 300.65c22.58-99.23 125.75-158.78 222.63-127.63q2.93.94 5.89 2c126.67 43.5 85.12 172.12 148.48 211.69s108.83 97 81.13 172.15-195.9 146.43-328.48 65.3c-104.26-63.77-158.34-197.24-129.65-323.51z" class="l"/><circle cx="100.55" cy="187.24" r="82.12" transform="matrix(.157986 -.987441 .987441 .157986 -118.09 239.75)"/></g><path d="M495.47 558.26H208.26a8.91 8.91 0 0 1-8.13-12.54L403.92 88.63a8.91 8.91 0 0 1 8.13-5.28h287.21a8.91 8.91 0 0 1 8.14 12.53L503.61 553a8.91 8.91 0 0 1-8.14 5.26z" transform="translate(-17.88 -17.2)" fill="url(#A)"/><path d="M564.64 218.63l92.69-207.9a7.62 7.62 0 0 0-7-10.73H390.3a24.46 24.46 0 0 0-22.33 14.49l-94.1 211.06a7.63 7.63 0 0 0 7 10.73h256.58a29.76 29.76 0 0 0 27.19-17.65z" class="m"/><g class="h l"><path d="M531 361.1l92.69-207.9a7.62 7.62 0 0 0-7-10.73H356.66a24.45 24.45 0 0 0-22.33 14.5l-94.1 211.05a7.63 7.63 0 0 0 7 10.73h256.58A29.76 29.76 0 0 0 531 361.1z" stroke="#fff" class="u"/><path d="M413.13 287.65H425l-31.91 62.33H200.16l7.79-15.22" stroke="#fbd9e2" stroke-width=".55" class="i"/></g><g transform="matrix(.755625 -.655005 .655005 .755625 21.09 285.15)"><ellipse cx="424.68" cy="98.96" rx="58.57" ry="44.01" class="o"/><ellipse cx="424.68" cy="98.96" rx="51.68" ry="38.83" class="k"/></g><path d="M407.62 90.72s-23.54 3.89-33.59 7.86c-6.82 4.11-7.91 7.37-9.54 12.28v.05c5.47 9.56 15.88 15.64 29.48 15.64 17.57 0 35.64-10.14 47.2-24.86-6.31-9.24-33.55-10.97-33.55-10.97z" class="j"/><g class="p"><path d="M399.34 80.71l-4.06 17.14a3.25 3.25 0 0 0 2.59 4.27 19.25 19.25 0 0 0 13.64-3 6.12 6.12 0 0 0 2.84-4.48c.57-8 2.19-24.4 2.19-24.4z"/><path d="M395.68 62.53s-11.05 22.39-8.9 28.4c2.49 4.1 24.71-5.13 28.34-11.13s12-16.87 5.49-23.66-16.57-4.48-24.93 6.39z"/></g><path d="M395.68 62.53s-1.95-7.9 4.75-12.56 15.27-3.73 18.36.93a52.38 52.38 0 0 1 3.33 5.36 6.28 6.28 0 0 1 4.39 4.19c1.09 3.49-5.87 12.34-8.7 14.91s-2.25 2.63-2.25 2.63l-1-1.24s.54-6.75 1.91-10.71c.37-2.1-2-5.13-6.25-5.82s-5.7 3.23-14.54 2.31z" class="r"/><path d="M417.23 72.72s1.54-2.86 4.28-2-2.71 9.46-5.59 8.87 1.31-6.87 1.31-6.87z" class="p"/><path d="M414.55 91.43s-5.91 6.52-11.72 8.38c-1 .31-2.54 2.33-2.54 2.33l-1.06-2.79s-4-2.33-2.83-6.37l-.8.62-2.13 5.28s-1.58 5-1.5 6.84l5.35-3a10.44 10.44 0 0 0 5.86.16s1.1 3.73 2.1 4 9.08-7.3 10.3-9.94a9.91 9.91 0 0 0 1.05-5.28z" class="m"/><g class="o"><path d="M585.12 101.28H472.47c-3.46 0-5.24-2.8-4-6.26l15.94-43.81c1.26-3.46 5.08-6.26 8.54-6.26h112.68c3.46 0 5.24 2.8 4 6.26l-15.94 43.81c-1.28 3.46-5.11 6.26-8.57 6.26z" class="i"/><path d="M591.64 64.77h-97.02l1.71-4.7h97.02l-1.71 4.7zm-42.59 10.95h-58.41l1.71-4.7h58.41l-1.71 4.7zm-46.89 9.91h-15.13l1.71-4.7h15.13l-1.71 4.7zm-24.48 35.8c-1.57 3.89-6 7.05-9.89 7.05s-5.78-3.16-4.2-7.05 6-7 9.89-7 5.78 3.11 4.2 7zm24.49 0c-1.57 3.89-6 7.05-9.9 7.05s-5.77-3.16-4.2-7.05 6-7 9.9-7 5.77 3.11 4.2 7zm24.49 0c-1.57 3.89-6 7.05-9.9 7.05s-5.77-3.16-4.2-7.05 6-7 9.9-7 5.77 3.11 4.2 7z"/></g><path d="M551.12 121.43c-1.58 3.89-6 7.05-9.9 7.05s-5.78-3.16-4.2-7.05 6-7 9.9-7 5.8 3.11 4.2 7z" class="j"/><path d="M575.63 121.43c-1.57 3.89-6 7.05-9.89 7.05s-5.78-3.16-4.2-7.05 6-7 9.89-7 5.78 3.11 4.2 7zm-58.18 21.42l-31.08 32.31-32.21 12.77 36.51 26.8 36.69-31.3-9.91-40.58z" class="i o"/><path d="M510.09 161.62l-23.72 13.54-20.06 12.68 27.21 19.54 25.72-23.5-9.15-22.26z" class="k"/><path d="M517.45 142.85l-31.08 32.31-32.21 12.77 36.41 27.05 36.79-31.55-9.91-40.58z" stroke="#cc4e6f" stroke-width=".28" class="h l"/><path d="M502.85 186.43a3.75 3.75 0 0 1-3.16 2.26c-1.25 0-1.85-1-1.35-2.26a3.77 3.77 0 0 1 3.17-2.25c1.24 0 1.84 1.01 1.34 2.25z" class="j"/><path d="M472.29 164.14l27.51 21.79-49.1 2.51m37.83 34.06l12.27-36.57 32.37-3.25m-13.9-44.33l-18.47 47.58" stroke="#cc4e6f" stroke-width=".28" class="h l"/><path d="M474.79 163.73a6.3 6.3 0 0 1-5.31 3.78c-2.09 0-3.1-1.69-2.26-3.78a6.32 6.32 0 0 1 5.31-3.79c2.09 0 3.1 1.7 2.26 3.79z" class="k"/><path d="M452.53 188.46a6.31 6.31 0 0 1-5.31 3.79c-2.09 0-3.1-1.7-2.26-3.79a6.3 6.3 0 0 1 5.31-3.78c2.09 0 3.1 1.69 2.26 3.78z" class="j"/><path d="M492.12 223.09a6.29 6.29 0 0 1-5.31 3.78c-2.09 0-3.1-1.69-2.25-3.78a6.29 6.29 0 0 1 5.31-3.78c2.07 0 3.08 1.69 2.25 3.78zm45.45-40.37a6.3 6.3 0 0 1-5.31 3.79c-2.09 0-3.1-1.7-2.26-3.79a6.31 6.31 0 0 1 5.32-3.78c2.09 0 3.1 1.69 2.25 3.78z" class="k"/><path d="M523.47 137.09a6.29 6.29 0 0 1-5.31 3.78c-2.09 0-3.1-1.69-2.25-3.78a6.3 6.3 0 0 1 5.31-3.79c2.09 0 3.1 1.7 2.25 3.79zm-85.89 31.56h-94.31l7.21-17.84h94.31l-7.21 17.84z" class="j"/><path d="M380.79 208.8h-53.74l3.09-7.65h53.74l-3.09 7.65zm-8.05-15.3h-39.51l7.21-17.84h39.51l-7.21 17.84z" class="i o"/><path d="M582.19 383.86l46.15-103.51a3.8 3.8 0 0 0-3.47-5.34H495.39a12.18 12.18 0 0 0-11.12 7.21l-46.85 105.09a3.8 3.8 0 0 0 3.47 5.34h127.76a14.83 14.83 0 0 0 13.54-8.79z" class="m"/><ellipse cx="552.21" cy="349" rx="51" ry="34.14" transform="matrix(.773951 -.633246 .633246 .773951 -114.06 411.37)" class="o"/><g clip-path="url(#B)"><path d="M537.79 336.15s21 10.43 23.21 20-7.09 34.77-7.09 34.77h-83.46s13.67-29.56 24.32-36.52 31.16-12.26 31.16-12.26z" class="j"/><g class="k"><path d="M529.18 329.36l-6.55 14.15c-.82 1.77-.33 3.38 1.19 3.85a15.14 15.14 0 0 0 11.29-1.3 6.16 6.16 0 0 0 3.1-3.53c2-6.72 6.51-20.46 6.51-20.46z"/><path d="M529.88 313.65s-13.07 18-12.56 23.24c1.15 3.69 20.39-2.12 24.42-6.87s12.73-13.2 9-19.54-12.17-5.28-20.86 3.17z"/></g><path d="M530.43 311.01l-.47.71c-.76 1.28-1.88 3.85 1.26 4l4.18.23s6.73-3.83 9.37.22c2 4.05-4.44 6.53-3.91 8.55s.27 1.58-.64 2.71-1.63 2.92-4.65 4.27-5.41 1.13-8.3 2.7-8.46-.22-9-1.57c-1.35-1.13-2.12 1.35-3 2.92s-3.52 2-1 4.06 4.45 2.92 8.92.22 4.6-2.48 9.11-3.6 7.85-3.4 9.57-6.2 2.27-6.41 3.72-7.76 2.25 0 1.61 1.58 5.5-1.35 7-6.08-1.11-4.5-1.37-7.2 2.82-5.85-.46-8.33-6.35.68-7.51-.9-6.25-1.8-10.32 1.58a12.31 12.31 0 0 0-4.29 8.16" class="q"/><path d="M544.83 322.86s1.77-2.28 3.75-1.35-4 7.76-6.12 7 2.37-5.65 2.37-5.65z" class="k"/><path d="M516.83 333.52s1.92-7 6.79-7.88 7.06 2 6.73 4.51a4.14 4.14 0 0 0 1.83 3.82c0 0-12.27 5.83-15.35-.45z" class="q"/></g><path d="M524.12 523.6l46.15-103.51a3.8 3.8 0 0 0-3.45-5.29H437.34a12.17 12.17 0 0 0-11.12 7.21l-46.85 105.03a3.8 3.8 0 0 0 3.47 5.34H510.6a14.82 14.82 0 0 0 13.52-8.78z" class="m"/><ellipse cx="493.83" cy="488.01" rx="52.12" ry="34.89" transform="matrix(.773951 -.633246 .633246 .773951 -215.28 405.82)" class="o"/><g clip-path="url(#C)"><g class="q"><path d="M487.79 458.69s6.36-3 7.21.65a7 7 0 0 1-1.95 6.28s5.74-1.58 7.27 3.33-3.08 7.24-1.17 9 5.87 5.49.33 11.7-13.64 13.33-23 8.75-6.4-26.93-6.4-26.93l2.3-6.52zm-6.13-18.74s-14.15 1.2-18.62 11.11 4.42 10.61 4.42 10.61z"/></g><path d="M389.68 507.35l.91 1.65s10.91 13 20.62 21.33h20.21c10.54-9.6 24.93-26.35 25-27 .09-1 12.67-14.65 9.9-20.23s-6.38-4.69-6.38-4.69-4.09.56-8.7 5.33-27.32 40-27.32 40a33 33 0 0 0-8.28-9.28c-5.37-4-21.08-12.47-21.08-12.47s1-6.8.87-8.1-4-7.23-5.18-6 1.58 6.85 1.58 6.85-3.06 10.97-2.15 12.61z" class="k"/><path d="M440.25 520.47s.6 4.33 1.76 9.86h40.11c.89-9 2.77-27.26 3.89-31.58 1.51-5.81.17-18.18.65-21.58s-9.22-2.15-9.22-2.15l-12.64.21-2 .88a16 16 0 0 0-7 5.84l-7 10.46c-5 3.79-16 10.37-15.19 18.66s6.64 9.4 6.64 9.4z" class="j"/><g class="k"><path d="M469.06 467.53s-11.21 13.88-14.3 31.34c3.66-1.12 14.79-11.33 21.35-17.56 2.77-2.62 3-4.06 2.51-6.75-.25-1.33.92-5 2.47-9.2 1.03-5.82-12.03 2.17-12.03 2.17zm35.21 56.78l4.63 6h18l-7.07-9.58c-2.93-4.45-23.46-49.21-36-43.64-2.31 1-10.66 8-7.25 15.91s27.69 31.31 27.69 31.31z"/><path d="M468.56 449.22a93.37 93.37 0 0 0-8.83 13.15c-2.31 4.48-.73 8.58 3.56 9 6.17.66 15.59-.87 18.68-4.41 4.59-5.25 14.45-14.55 10.45-21.77-3.88-7-12.73-6.29-22.26 2.28a14.29 14.29 0 0 0-1.6 1.75z"/></g><path d="M472.73 444.64s-6.2 10.16 11.39 16.59l2.21 1s7.68-6.1 7.8-12.56-3.22-8.82-6.58-10.22-12.43 2.77-14.82 5.19z" class="q"/><path d="M483.64 462.69s4.46-3.07 4.41-.24-6.31 5.87-7 4.69 2.59-4.45 2.59-4.45z" class="k"/></g><path d="M383.43 437.8H240.81c-4.37 0-6.49-3.55-4.72-7.93l10.14-25.07c1.77-4.37 6.75-7.92 11.12-7.92h142.62c4.38 0 6.49 3.55 4.73 7.92l-10.14 25.09c-1.77 4.38-6.75 7.91-11.13 7.91z" class="j"/><path d="M382.32 419.32H259.51l2.4-5.94h122.81l-2.4 5.94z" class="m"/><path d="M268.12 24.6h-4.82c-.86 0-1.27-.7-.93-1.55l1.95-4.82a2.58 2.58 0 0 1 2.17-1.55h4.83c.85 0 1.26.69.92 1.55l-1.95 4.82a2.58 2.58 0 0 1-2.17 1.55z" class="s"/><path d="M317.56 24.6h-4.82c-.86 0-1.27-.7-.93-1.55l1.95-4.82a2.58 2.58 0 0 1 2.17-1.55h4.83c.85 0 1.26.69.92 1.55l-1.95 4.82a2.6 2.6 0 0 1-2.17 1.55zM258.9 47.35h-4.78c-.85 0-1.26-.69-.92-1.54l2-4.83a2.57 2.57 0 0 1 2.17-1.54h4.75c.86 0 1.27.69.92 1.54l-1.92 4.82a2.59 2.59 0 0 1-2.22 1.55z" class="i n"/><path d="M283.63 47.35h-4.82c-.86 0-1.27-.69-.92-1.54l1.94-4.83a2.59 2.59 0 0 1 2.17-1.54h4.83c.85 0 1.26.69.92 1.54l-1.95 4.82a2.57 2.57 0 0 1-2.17 1.55zm24.73 0h-4.82c-.85 0-1.26-.69-.92-1.54l1.95-4.83a2.57 2.57 0 0 1 2.17-1.54h4.82c.86 0 1.27.69.92 1.54l-1.94 4.82a2.59 2.59 0 0 1-2.18 1.55zm19.76 0h-4.82c-.85 0-1.27-.69-.92-1.54l1.95-4.83a2.56 2.56 0 0 1 2.17-1.54h4.82c.85 0 1.27.69.92 1.54l-1.92 4.82a2.56 2.56 0 0 1-2.2 1.55zM249.7 70.11h-4.82c-.86 0-1.27-.69-.92-1.55l2-4.82a2.55 2.55 0 0 1 2.16-1.55h4.82c.85 0 1.27.69.92 1.55l-1.95 4.82a2.55 2.55 0 0 1-2.21 1.55zm-19.79 0h-4.79c-.85 0-1.27-.69-.92-1.55l1.92-4.82a2.55 2.55 0 0 1 2.17-1.55h4.83c.86 0 1.27.69.92 1.55l-1.92 4.82a2.55 2.55 0 0 1-2.21 1.55zm44.53 0h-4.83c-.85 0-1.26-.69-.92-1.55l1.95-4.82a2.58 2.58 0 0 1 2.17-1.55h4.82c.86 0 1.27.69.93 1.55l-1.95 4.82a2.58 2.58 0 0 1-2.17 1.55z" class="s"/><path d="M299.17 70.11h-4.82c-.86 0-1.27-.69-.92-1.55l1.95-4.82a2.55 2.55 0 0 1 2.17-1.55h4.82c.85 0 1.27.69.92 1.55l-1.95 4.82a2.57 2.57 0 0 1-2.17 1.55z" class="i n"/><path d="M240.51 92.86h-4.83c-.85 0-1.26-.69-.92-1.54l2-4.83a2.59 2.59 0 0 1 2.17-1.54h4.83c.85 0 1.26.69.92 1.54l-1.95 4.83a2.59 2.59 0 0 1-2.22 1.54z" class="s"/><path d="M270.05 471.31h-6.79c-1.21 0-1.79-1-1.3-2.17l2.74-6.8a3.63 3.63 0 0 1 3.06-2.18h6.8c1.2 0 1.79 1 1.3 2.18l-2.75 6.8a3.61 3.61 0 0 1-3.06 2.17zm69.73 0h-6.8c-1.2 0-1.78-1-1.3-2.17l2.75-6.8a3.63 3.63 0 0 1 3.06-2.18h6.8c1.2 0 1.78 1 1.3 2.18l-2.75 6.8a3.63 3.63 0 0 1-3.06 2.17z" class="j"/><path d="M257.12 503.39h-6.8c-1.21 0-1.79-1-1.3-2.18l2.75-6.8a3.62 3.62 0 0 1 3.05-2.18h6.8c1.21 0 1.79 1 1.3 2.18l-2.75 6.8a3.62 3.62 0 0 1-3.05 2.18z" class="i n"/><path d="M291.96 503.39h-6.84c-1.2 0-1.78-1-1.3-2.18l2.75-6.8a3.62 3.62 0 0 1 3.06-2.18h6.8c1.2 0 1.78 1 1.29 2.18l-2.74 6.8a3.65 3.65 0 0 1-3.02 2.18z" class="j"/><g class="n"><path d="M326.82 503.39h-6.8c-1.2 0-1.78-1-1.3-2.18l2.75-6.8a3.65 3.65 0 0 1 3.06-2.18h6.8c1.2 0 1.78 1 1.3 2.18l-2.75 6.8a3.65 3.65 0 0 1-3.06 2.18zm27.89 0h-6.8c-1.2 0-1.78-1-1.3-2.18l2.75-6.8a3.65 3.65 0 0 1 3.06-2.18h6.8c1.2 0 1.78 1 1.3 2.18l-2.75 6.8a3.63 3.63 0 0 1-3.06 2.18z" class="i"/><use xlink:href="#D" class="i"/></g><use xlink:href="#D" x="-27.87" fill="#c2d8f0"/><path d="M279 535.46h-6.8c-1.2 0-1.78-1-1.3-2.18l2.75-6.8a3.63 3.63 0 0 1 3.06-2.17h6.8c1.2 0 1.78 1 1.3 2.17l-2.75 6.8a3.63 3.63 0 0 1-3.06 2.18z" class="i n"/><path d="M313.86 535.46h-6.8c-1.2 0-1.78-1-1.29-2.18l2.74-6.8a3.63 3.63 0 0 1 3.06-2.17h6.8c1.2 0 1.78 1 1.3 2.17l-2.75 6.8a3.6 3.6 0 0 1-3.06 2.18zm-82.68 32.08h-6.8c-1.2 0-1.79-1-1.3-2.18l2.75-6.8a3.62 3.62 0 0 1 3.06-2.18h6.8c1.2 0 1.78 1 1.29 2.18l-2.74 6.8a3.65 3.65 0 0 1-3.06 2.18z" class="j"/><path d="M388.64 336.25H195.71l31.91-62.33h192.93l-31.91 62.33z" class="i n"/><ellipse cx="375.52" cy="322.03" rx="28.7" ry="22.38" transform="matrix(.749534 -.661966 .661966 .749534 -137 312.01)" class="k"/><path d="M351.12 317.71a2.4 2.4 0 0 1-2-.91l-6.55-8.73c-.91-1.21-.42-3.19 1.1-4.4s3.49-1.22 4.41 0l4.9 6.52 17.49-14c1.52-1.22 3.49-1.22 4.41 0s.42 3.19-1.1 4.41l-20.25 16.2a3.93 3.93 0 0 1-2.41.91z" class="m"/><path d="M205.58 155.32c0 4.89-3.58 8.86-8 8.86s-8-4-8-8.86 3.58-8.86 8-8.86 8 3.97 8 8.86z" stroke="#505f84" stroke-width=".52" class="h l"/><path d="M121.71 203.2s-12.77.86-22.31 13.74 4.29 60.13 45.33 79.22c26.73 10.49 28.64-13.37 22-30.07s-26.06-58.97-45.02-62.89z" class="m"/><path d="M304.12 708.99c0 6.06-58.53 11-130.73 11s-130.73-4.91-130.73-11 58.53-11 130.73-11 130.73 4.93 130.73 11z" class="n"/><g fill="#18152b"><path d="M125.63 673.46s2.77-5.94 13.07-4.36 11.49 3.57 12.68 8.72 4.75 10.7 7.13 11.88 11.09 7.14 18.23 8.32 7.92 5.55 6.34 7.53-28.53 3.57-34.47 2.78c0 0-20.21-.4-25-2s1.62-30.89 2.02-32.87z"/><path d="M177.25 673.46s2.77-5.94 13.07-4.36 11.49 3.57 12.68 8.72 4.75 10.7 7.13 11.88 11.1 7.14 18.23 8.32 7.92 5.55 6.34 7.53-28.53 3.57-34.47 2.78c0 0-20.21-.4-25-2s1.62-30.89 2.02-32.87z"/></g><path d="M116.12 525.94s-3-16.41 14.31-21.92 20.61 2.5 25.86 17.47-4.47 156.31-4.47 156.31-21.11.48-26.23-2.54c0 0-14.11-93.78-13.06-116.62s3.59-32.7 3.59-32.7z" fill="#2b3654"/><path d="M197.23 161.34s4 5.49 4 8.36-5.48 2.86-5.48 2.86z" fill="#f3775b"/><g class="p"><path d="M177.7 105.46s11.72 3 18.36 21 2.21 56.25-2.21 60.75-17.88 2.78-36.53-3.38c-19.7-6.5-26.36-27-29.88-40.5-6.74-25.87 15.76-52.53 50.26-37.87z"/><path d="M135.65 204.8l9.47-34.06s19-5.55 30.91 7.13l4 5.55v22.18a126.74 126.74 0 0 1-44.38-.8z"/></g><path d="M109.12 388.26a313.51 313.51 0 0 0 0 89.15c7.13 47.54 21.39 52.3 34.47 52.3s16.64-38 19-54.68 11.89-73.7-5.94-86.77-38.04-14.27-47.53 0z" fill="#2b3654"/><path d="M159.03 444.12s-14.27-38 10.7-54.67 44-14.27 49.92 13.07 7.13 121.28-1.19 140.28-38.04-10.72-59.43-98.68z" fill="#2c4064"/><path d="M130.62 204.63s2.65-9.33 5-10.12 31.7-4 47.55 5.55c7.13 5.54 6.34 9.51 6.34 9.51s-47.28-9.08-58.89-4.94z" class="m"/><path d="M217.75 388.26s2.38 5.72 1 7.63c-1.91 1.91-55.83 21-112.62 7.16-.95 0 1.43-9.54 1.43-9.54z" fill="#5f63ad"/><path d="M105.54 302.28c-1.59-11.09-6.34-65.77-4.75-73.69 1.48-7.41 7.8-21 20.92-25.39a24.75 24.75 0 0 1 2.85-.76c0 0 49.13-3.17 84 11.88 0 0 11.94 9.92 14.15 60.43 0 0-.66 8.52-2.57 26.66s1 31.49 3.82 49.62 8.59 36.27-12.41 40.09c-20 3.82-75.4 13.36-107.85 3.82-6.68-4.77 2.87-26.73 2.87-43.91s-1.03-48.75-1.03-48.75z" fill="#7d7fbd"/><path d="M181.61 528.52s-1.19-16.64 16.64-20.21 20.21 4.75 23.78 20.21-17.58 150.21-17.58 150.21-23.33 1.34-28.08-2.22c0 0-5.46-93.32-1.89-115.9s7.13-32.09 7.13-32.09z" fill="#2c4064"/><g class="h l t"><path d="M154.27 435.21s16.64 53.49 29.13 79.64m4.72 10.69s10.1-5.94 20.21 0m-21.96 6.54s8.32-4.75 22.58 5.35m-84.99-19.02s6.54-5.94 21.4.6m-16.64 5.35a17.86 17.86 0 0 1 18.4 2.37m3.59 7.13l-3.57 121.24m52.7-222.86s13.47 7.92 19-4.76m-5.53 6.32s6.34 49.13 4.75 81.62" stroke="#2b2f59"/><path d="M172.4 179.36s4.16 10.69 18.13 8.91" stroke="#e76658"/></g><path d="M190.33 113.33s6.77 9.31 7.19 14.81-8.46 11-9.73 14.38 1.64 7.64.37 9.76-1.67 6.44-1.67 6.44l.44 4.79a3.45 3.45 0 0 1-2.76 3.69l-1 .2a3.08 3.08 0 0 1-3.47-1.87c-1.52-3.82-4.66-11-7.13-11.58-3.39-.85-6.77 5.08-8 8-.72 1.67-2.52 6.18-4 9.8a8.86 8.86 0 0 1-7.61 5.56c-3.66.26-8 .44-9.66 0-3-.84-18.13-28.88-18.56-42.42s8.89-27.08 18.62-31.31 28.76-8.02 46.97 9.75z" class="r"/><path d="M121.78 230.96c0 3.81 16 61.24 13.41 71.4s-9.54 81.12-9.54 81.12" stroke="#5f63ad" class="h l t"/><path d="M165.97 94.89s9.31.36 12.53-4.29 13.6-5.73 21.11 1.79 7.16 21.47.72 26.48c0 0 7.51-1.43 8.59 3.94s-8.23 13.6-19.33 16.11c0 0-17.89-5-23.26-1.79s-41.52-.36-41.52-.36-7.87-7.16-5.73-13.6 4.3.36 4.3.36-1.79-8.95 10-21.84 28.29-5.72 32.59-6.8z" class="r"/><path d="M341.7 286.73l25.42 1.07s-.71 2.51-4.65 3.23-18.61 2.5-18.61 2.5z" fill="#eb7754"/><g class="p"><path d="M344.92 292.1s8.59-1.43 10.38-1.07 3.58 10.77 3.58 10.77l-6.8 7.16s-2.51-1.07 0-5l1.43-2.5-10.39-3.99z"/><path d="M320.23 298.18l10.73-1.38s9-8.95 10.74-10 10.74 12.89 11.81 14.68c0 1.43-5.37 6.08-10.74 6.8s-7.15-.72-7.15-.72l-11.81 4.65z"/></g><path d="M208.55 214.32s-24-.24-23.25 29.1 50.82 77.31 64.42 83 71.58-10 76.59-12.89 3.58-15-4.29-17.89l-59.42-2.84s-37.23-76.09-54.05-78.48z" class="m"/><g class="h l"><path d="M263.56 297.59s7.16 7.63 5.25 17.65m-1.43-19.08s11.93 3.81 12.88 16.7" stroke="#a7cfee" stroke-width=".53"/><path d="M205.58 155.32h-24.82" stroke="#505f84" stroke-width=".52"/></g><path d="M183.7 158.27s-1.69-7.31-7.88-3.93 1.13 20.81 6.19 19.68 2.81-12.93 1.69-15.75z" fill="#f3775b"/><path d="M131.97 123.88s17.15-3.93 29.35 8.92m-27.08-11.54s7.39-7.87 20-4.53m-21.67 10.49s5.24.48 8.82 6.45m43.19-40.57s17.18 5.37 13.24 21.12" stroke-width=".53" stroke="#673237" class="h l"/></svg>