<svg xmlns="http://www.w3.org/2000/svg" width="30" height="30" fill="none" xmlns:v="https://vecta.io/nano"><path fill-rule="evenodd" d="M15 30c8.284 0 15-6.716 15-15S23.284 0 15 0 0 6.716 0 15s6.716 15 15 15zM11.105 9.306c0 .998-.807 1.806-1.802 1.806S7.5 10.303 7.5 9.306c0-.15.019-.296.053-.436.086-.349.274-.658.53-.894a1.79 1.79 0 0 1 .672-.391c.173-.055.357-.085.548-.085.375 0 .722.115 1.009.311.477.325.793.873.793 1.495zm1.704 13.194V12.48h2.981v1.37h.041c.227-.43.634-.874 1.204-1.188.154-.085.319-.16.498-.223.066-.024.135-.046.205-.066.312-.089.658-.141 1.033-.141 3.149 0 3.73 2.074 3.73 4.773V22.5h-3.107v-4.873c0-1.161-.021-2.656-1.616-2.656-1.619 0-1.863 1.266-1.863 2.573v4.955h-3.105zM10.857 12.48h-3.11v10.019h3.11V12.48z" fill="#0e76a8"/></svg>