<svg xmlns="http://www.w3.org/2000/svg" width="292" height="29" fill="none" xmlns:v="https://vecta.io/nano"><path d="M145.274 27.878h-10.026V1.091h10.026v26.787zm-9.047-.979h8.067V2.069h-8.067v24.83zm22.996.979h-9.824V1.091h20.524a12.32 12.32 0 0 1 8.252 2.325c1.025.938 1.821 2.1 2.323 3.396a9.03 9.03 0 0 1 .573 4.074 9.51 9.51 0 0 1-2.133 6.605c-1.795 2.059-4.783 3.119-8.88 3.157-1.031.027-8.764 0-10.829 0l-.006 7.231zm-8.851-.979h7.872v-7.241h.491 11.3c3.816-.033 6.559-.979 8.163-2.824 1.351-1.678 2.022-3.802 1.88-5.951a8.12 8.12 0 0 0-2.546-6.718 11.41 11.41 0 0 0-7.622-2.098h-19.532l-.006 24.832zm17.472-12.27h-9.667V7.337h9.732a4.13 4.13 0 0 1 3.72 1.423 3.91 3.91 0 0 1 .552 2.256 4.15 4.15 0 0 1-.46 2.117 4.24 4.24 0 0 1-3.877 1.487v.008zm-8.688-.979h8.688c1.606 0 2.6-.335 3.041-1.023a3.26 3.26 0 0 0 .319-1.611 3.04 3.04 0 0 0-.364-1.679l-.012-.018c-.466-.685-1.392-1.004-2.919-1.004h-8.753v5.335zm39.782 14.623c-8.792 0-14.039-2.182-16.039-6.669a11.59 11.59 0 0 1-.661-2.689l-.087-.564h10.46l.069.411c.08.417.258.81.517 1.147.413.499 1.791 1.337 6.365 1.337 5.499 0 5.499-.965 5.499-1.483 0-.875-.637-1.174-5.121-1.652l-.851-.08-4.798-.444c-8.224-.744-11.895-3.297-11.895-8.278 0-5.231 6.248-8.611 15.919-8.611 7.889 0 12.972 2.078 15.104 6.182a9.52 9.52 0 0 1 1.005 3.057l.068.55h-10.471l-.043-.442c-.041-.346-.188-.67-.423-.928-.392-.524-1.629-1.391-5.471-1.391-4.717 0-5.367.603-5.367 1.252 0 .867 1.49 1.174 6.266 1.685 1.991.162 5.193.491 6.289.624 6.894.748 9.97 3.239 9.97 8.08.002 4.061-2.827 8.906-16.304 8.906zm-15.643-8.943c.098.646.267 1.278.503 1.887 1.821 4.088 6.775 6.078 15.14 6.078 6.994 0 15.333-1.37 15.333-7.928 0-4.292-2.721-6.417-9.103-7.108-1.096-.133-4.278-.46-6.265-.624-5.091-.552-7.161-.845-7.161-2.658 0-1.875 2.23-2.231 6.346-2.231 3.252 0 5.353.587 6.244 1.771.243.292.427.628.541.99h8.486a8.83 8.83 0 0 0-.803-2.174c-1.958-3.755-6.742-5.658-14.237-5.658-9.076 0-14.94 2.996-14.94 7.632 0 4.423 3.292 6.607 11.002 7.303l4.803.446.858.08c4.165.438 6.002.712 6.002 2.624 0 2.059-2.376 2.462-6.478 2.462-3.794 0-6.191-.57-7.117-1.691-.286-.358-.501-.766-.635-1.204h-8.519zm50.549 8.91c-10.221 0-15.86-4.131-15.86-11.634V1.091h9.892v15.515c0 2.573 2.304 4.049 6.32 4.049 3.838 0 6.221-1.54 6.221-4.016V1.091h9.79v16.337c.01 6.871-5.96 10.812-16.369 10.812h.006zM218.963 2.069v14.536c0 9.272 9.316 10.656 14.881 10.656 5.753 0 15.4-1.278 15.4-9.834V2.069h-7.832v14.57c0 3.033-2.828 4.994-7.2 4.994-4.57 0-7.3-1.879-7.3-5.027V2.069h-7.949zm72.731 25.809h-9.336V15.784l-5.294 12.094h-8.144l-5.239-12.071v12.071h-9.37V1.091h12.324l6.403 14.769 6.712-14.769h11.956l-.012 26.787zm-8.357-.979h7.378V2.069h-10.342l-7.366 16.202-7.022-16.202h-10.702v24.83h7.411V11.099l6.853 15.807h6.853l6.926-15.783.011 15.777zM8.917 1.58H0v25.809h24.64v-6.871H8.917V1.58zM42.639.993C31.256.993 25.271 6.384 25.271 14.3c0 8.943 6.283 13.48 17.368 13.48 12.203 0 17.335-5.26 17.335-13.48 0-8.346-5.79-13.311-17.335-13.311v.004zm-.033 6.707c.775-.004 1.549.041 2.318.135l-9.968 9.963c-.472-1.066-.702-2.224-.674-3.389 0-4.049 2.04-6.712 8.324-6.712v.004zm.033 13.48c-.747.003-1.493-.039-2.234-.125l9.986-9.98a7.77 7.77 0 0 1 .636 3.327c0 3.939-1.88 6.775-8.388 6.775v.004zm35.002-3.523h9.177a4.19 4.19 0 0 1-.822 1.742 9.51 9.51 0 0 1-6.777 2.104c-1.231.132-2.476-.003-3.651-.394a8.64 8.64 0 0 1-3.157-1.874 7.3 7.3 0 0 1-1.251-4.636c-.15-1.721.329-3.437 1.349-4.832 1.282-1.448 3.454-2.072 6.646-2.072a9.06 9.06 0 0 1 5.757 1.479c.535.425.935.996 1.151 1.644h8.512c-.062-1.068-.319-2.115-.758-3.09-2.038-4.143-6.777-6.609-14.834-6.609-7.008 0-11.711 2.137-14.309 5.36a12.85 12.85 0 0 0-2.5 8.055 13.56 13.56 0 0 0 2.444 8.288c2.567 3.327 7.139 4.963 12.633 4.963 3.653.255 7.281-.768 10.262-2.892l.231 2.497h7.071V12.101H77.641v5.556zM114.881.987c-11.381 0-17.368 5.391-17.368 13.307 0 8.943 6.281 13.48 17.368 13.48 12.204 0 17.336-5.26 17.336-13.48 0-8.341-5.79-13.305-17.336-13.305V.987zm-.032 6.707a18.82 18.82 0 0 1 2.258.129l-9.929 9.93c-.457-1.055-.68-2.196-.652-3.345-.008-4.049 2.04-6.712 8.323-6.712v-.002zm.032 13.48c-.767.003-1.532-.041-2.293-.133l10.019-10.016c.471 1.063.697 2.218.66 3.38.004 3.936-1.868 6.771-8.386 6.771v-.002z" fill="#889098"/></svg>