<svg xmlns="http://www.w3.org/2000/svg" width="247" height="65" fill="#889098" xmlns:v="https://vecta.io/nano"><path d="M40.073 15.46h3.911v27.485h11.734v3.949H40.073V15.46zm27.829 0c2.321 0 4.589.695 6.519 1.997a11.82 11.82 0 0 1 4.322 5.317 11.96 11.96 0 0 1 .668 6.845 11.88 11.88 0 0 1-3.211 6.066 11.7 11.7 0 0 1-6.008 3.242 11.63 11.63 0 0 1-6.779-.674 11.76 11.76 0 0 1-5.266-4.363 11.93 11.93 0 0 1-1.978-6.582c0-1.556.304-3.096.893-4.534a11.85 11.85 0 0 1 2.544-3.843 11.72 11.72 0 0 1 3.807-2.568c1.424-.595 2.95-.902 4.49-.902zm0 19.745a7.77 7.77 0 0 0 4.346-1.331 7.88 7.88 0 0 0 2.881-3.545 7.97 7.97 0 0 0 .445-4.563 7.92 7.92 0 0 0-2.141-4.044 7.8 7.8 0 0 0-4.005-2.161 7.75 7.75 0 0 0-4.52.449 7.84 7.84 0 0 0-3.511 2.909 7.95 7.95 0 0 0-1.318 4.388c.01 2.088.839 4.087 2.305 5.559s3.45 2.299 5.518 2.299v.039zm-7.823 7.779h15.645v3.949H60.079v-3.949zm50.065 3.949h-3.912V44.11a14.94 14.94 0 0 1-8.605 2.745 15.53 15.53 0 0 1-7.525-1.889c-2.312-1.257-4.272-3.082-5.702-5.305s-2.282-4.774-2.479-7.418a15.92 15.92 0 0 1 1.353-7.708 15.77 15.77 0 0 1 4.852-6.106 15.57 15.57 0 0 1 7.16-3.004 15.5 15.5 0 0 1 7.709.836c2.46.927 4.649 2.465 6.365 4.471l-2.874 2.587a11.73 11.73 0 0 0-4.8-3.259 11.63 11.63 0 0 0-5.759-.548 11.68 11.68 0 0 0-5.318 2.297 11.83 11.83 0 0 0-3.585 4.583 11.94 11.94 0 0 0-.981 5.755 11.92 11.92 0 0 0 1.861 5.529 11.78 11.78 0 0 0 4.251 3.96c1.722.941 3.65 1.432 5.609 1.428 1.625.003 3.232-.348 4.711-1.029a11.3 11.3 0 0 0 3.855-2.92H95.77v-3.949h14.413l-.039 11.768zm14.393-31.394c2.321 0 4.589.695 6.519 1.997a11.82 11.82 0 0 1 4.322 5.317 11.96 11.96 0 0 1 .668 6.845c-.453 2.298-1.571 4.409-3.212 6.066a11.7 11.7 0 0 1-6.008 3.242 11.63 11.63 0 0 1-6.779-.674 11.76 11.76 0 0 1-5.266-4.363c-1.29-1.948-1.978-4.239-1.978-6.582-.01-1.566.287-3.118.875-4.567a11.84 11.84 0 0 1 2.548-3.875c1.095-1.109 2.397-1.988 3.83-2.586a11.63 11.63 0 0 1 4.52-.898l-.039.079zm0 19.745a7.77 7.77 0 0 0 4.346-1.331 7.88 7.88 0 0 0 2.881-3.545 7.97 7.97 0 0 0 .445-4.563 7.92 7.92 0 0 0-2.141-4.044c-1.094-1.105-2.487-1.857-4.005-2.161a7.75 7.75 0 0 0-4.519.449c-1.43.598-2.652 1.61-3.511 2.909a7.95 7.95 0 0 0-1.318 4.388 7.93 7.93 0 0 0 2.346 5.522 7.78 7.78 0 0 0 5.515 2.257l-.039.118zm-7.822 7.779h15.645v3.949h-15.645v-3.949zm23.722-27.603h3.911v31.394h-3.911V15.46zm9.328 0h3.911a2.92 2.92 0 0 1 .606 0 11.63 11.63 0 0 1 4.864.502 11.71 11.71 0 0 1 4.239 2.459 11.84 11.84 0 0 1 2.878 3.99c.672 1.519 1.019 3.164 1.019 4.828a11.94 11.94 0 0 1-1.019 4.828 11.84 11.84 0 0 1-2.878 3.99 11.71 11.71 0 0 1-4.239 2.459 11.63 11.63 0 0 1-4.864.502h-.606v7.898h-3.911V15.46zm3.911 3.949v15.618h.606c1.105.149 2.229.057 3.296-.268a7.8 7.8 0 0 0 2.89-1.618 7.88 7.88 0 0 0 1.971-2.68 7.97 7.97 0 0 0 0-6.524 7.88 7.88 0 0 0-1.971-2.68 7.8 7.8 0 0 0-2.89-1.619c-1.067-.325-2.191-.417-3.296-.268a2.84 2.84 0 0 0-.625.138l.019-.099zm28.181-1.678l-2.894 2.31a3.79 3.79 0 0 0-1.839-1.072c-.702-.173-1.437-.141-2.121.093a3.79 3.79 0 0 0-1.74 1.229c-.452.569-.734 1.256-.813 1.981v.316c0 1.738 1.193 2.903 3.521 3.06 8.956.553 13.063 4.798 13.063 10.406v.355a11.71 11.71 0 0 1-2.471 6.066c-1.382 1.741-3.231 3.045-5.326 3.757a11.43 11.43 0 0 1-6.492.256 11.52 11.52 0 0 1-5.6-3.326l2.992-2.33a7.04 7.04 0 0 0 2.493 1.734c.945.389 1.963.565 2.983.517 1.884.1 3.733-.538 5.161-1.782a7.41 7.41 0 0 0 2.505-4.892v-.276c0-5.272-5.123-6.239-9.563-6.674-4.107-.395-7.06-2.982-7.06-6.713v-.158c.145-1.943 1.023-3.756 2.454-5.063s3.303-2.012 5.232-1.966a7.25 7.25 0 0 1 2.986.547 7.3 7.3 0 0 1 2.509 1.724l.02-.099zm22.49 25.115c4.869 0 8.722-5.311 8.722-11.847V15.204h3.911V31c0 8.688-5.632 15.697-12.555 15.697S191.87 39.688 191.87 31V15.204h3.911V31c-.156 6.634 3.696 11.946 8.546 11.946l.02-.099zm42.652 3.949h-3.911V27.248l-9.015 11.847-9.016-11.847v19.607h-3.911V15.46l12.907 17.158L246.96 15.46l.039 31.335zm-225.7-36.054c0-2.849-1.121-5.581-3.116-7.595A10.59 10.59 0 0 0 10.66 0a10.59 10.59 0 0 0-7.523 3.146 10.79 10.79 0 0 0-3.116 7.595v32.48l8.761 6.338V65h3.755V49.56l8.761-6.338v-32.48zm-3.755 18.165l-5.006 5.055v-4.739l5.006-5.055v4.739zM3.855 24.168l5.006 5.055v4.739l-5.006-5.055v-4.739zm13.689-5.371l-6.884 6.95-6.884-7.108V13.9l6.884 6.95 6.884-6.95v4.897zM10.66 3.791a6.88 6.88 0 0 1 4.185 1.445 6.99 6.99 0 0 1 2.464 3.708l-6.649 6.693-6.649-6.693c.383-1.49 1.243-2.81 2.445-3.756a6.88 6.88 0 0 1 4.204-1.477v.079zM3.776 41.306v-7.108l5.006 5.055V44.9l-5.006-3.594zm8.761 3.613v-5.667l5.006-5.055v7.088l-5.006 3.633z"/></svg>