<svg xmlns="http://www.w3.org/2000/svg" width="265" height="55" fill="#889098" xmlns:v="https://vecta.io/nano"><path d="M39.723 24.249a7.3 7.3 0 0 0-1.657 2.688 7.45 7.45 0 0 0-.382 3.154l-.035-.036c.104 1.256-.062 2.52-.485 3.704s-1.094 2.259-1.965 3.151a8.45 8.45 0 0 1-3.08 2.01 8.29 8.29 0 0 1-3.621.496l.035.036a7.04 7.04 0 0 0-4.225.936c-1.281.749-2.304 1.884-2.931 3.251s-.827 2.897-.572 4.383.952 2.856 1.995 3.923a7.12 7.12 0 0 0 3.837 2.037 7.03 7.03 0 0 0 4.285-.589 7.23 7.23 0 0 0 3.175-3.001 7.48 7.48 0 0 0 .912-4.323l.037.036c-.104-1.256.062-2.52.485-3.704a8.69 8.69 0 0 1 1.966-3.151 8.45 8.45 0 0 1 3.08-2.01c1.158-.433 2.393-.602 3.622-.496l-.037-.036c1.2.11 2.408-.091 3.512-.585a7.17 7.17 0 0 0 2.802-2.242c.734-.977 1.217-2.127 1.401-3.345a7.48 7.48 0 0 0-.347-3.622 7.33 7.33 0 0 0-2.009-3.003c-.906-.812-1.998-1.378-3.175-1.643s-2.4-.223-3.556.123a7.13 7.13 0 0 0-3.059 1.859h-.006zM25.339 34.75l-.037-.036c1.044.108 2.098-.023 3.086-.384s1.886-.94 2.628-1.699a7.27 7.27 0 0 0 1.663-2.687 7.4 7.4 0 0 0 .378-3.156l.037.036a8.85 8.85 0 0 1 .485-3.704c.423-1.184 1.094-2.259 1.966-3.151a8.45 8.45 0 0 1 3.08-2.01c1.158-.433 2.393-.602 3.621-.496l-.037-.036a7.04 7.04 0 0 0 4.226-.933 7.27 7.27 0 0 0 2.934-3.249c.628-1.366.828-2.897.575-4.383a7.39 7.39 0 0 0-1.993-3.925 7.12 7.12 0 0 0-3.837-2.039c-1.453-.26-2.95-.054-4.285.588s-2.445 1.69-3.176 3.001a7.47 7.47 0 0 0-.912 4.323l-.035-.038a8.85 8.85 0 0 1-.484 3.705 8.69 8.69 0 0 1-1.965 3.151 8.45 8.45 0 0 1-3.081 2.01 8.3 8.3 0 0 1-3.622.496l.035.038a6.94 6.94 0 0 0-3.086.384 7.06 7.06 0 0 0-2.628 1.699 7.26 7.26 0 0 0-1.663 2.687 7.4 7.4 0 0 0-.377 3.156l-.035-.036a8.85 8.85 0 0 1-.486 3.704c-.424 1.184-1.094 2.259-1.966 3.15a8.47 8.47 0 0 1-3.08 2.011 8.3 8.3 0 0 1-3.621.497l.035.036a7.04 7.04 0 0 0-4.226.933 7.28 7.28 0 0 0-2.934 3.249c-.628 1.366-.829 2.897-.575 4.383s.95 2.857 1.993 3.925 2.383 1.779 3.837 2.039a7.03 7.03 0 0 0 4.285-.588c1.335-.642 2.444-1.69 3.176-3.001a7.47 7.47 0 0 0 .912-4.323l.037.036c-.104-1.256.062-2.52.485-3.704a8.69 8.69 0 0 1 1.965-3.151 8.45 8.45 0 0 1 3.08-2.01c1.158-.433 2.393-.602 3.622-.496zm-13.067-4.003a7.31 7.31 0 0 0 1.657-2.688 7.44 7.44 0 0 0 .38-3.154l.037.036a8.85 8.85 0 0 1 .486-3.705 8.69 8.69 0 0 1 1.967-3.151 8.45 8.45 0 0 1 3.081-2.01c1.158-.433 2.394-.602 3.623-.495l-.037-.036a7.03 7.03 0 0 0 4.225-.934c1.281-.749 2.305-1.883 2.932-3.248a7.49 7.49 0 0 0 .574-4.382c-.254-1.486-.95-2.856-1.993-3.923s-2.383-1.779-3.835-2.038a7.03 7.03 0 0 0-4.284.587 7.23 7.23 0 0 0-3.175 2.999 7.47 7.47 0 0 0-.913 4.321l-.035-.036c.104 1.256-.062 2.52-.485 3.704a8.69 8.69 0 0 1-1.965 3.15 8.45 8.45 0 0 1-3.08 2.01c-1.158.433-2.393.602-3.622.496l.035.036a7.01 7.01 0 0 0-3.511.586c-1.103.495-2.067 1.266-2.802 2.243a7.4 7.4 0 0 0-1.4 3.345 7.48 7.48 0 0 0 .347 3.622 7.33 7.33 0 0 0 2.009 3.003c.906.812 1.998 1.377 3.174 1.643s2.399.223 3.556-.123a7.13 7.13 0 0 0 3.058-1.859h-.004zm60.399-19.892h5.791V39.68h-5.791V10.855zM81.74 29.81a10.64 10.64 0 0 1 1.704-5.825c1.119-1.726 2.714-3.074 4.583-3.872s3.927-1.012 5.914-.613a10.16 10.16 0 0 1 5.249 2.854 10.54 10.54 0 0 1 2.811 5.357 10.69 10.69 0 0 1-.575 6.052c-.773 1.914-2.085 3.551-3.768 4.703a10.07 10.07 0 0 1-5.688 1.767 9.91 9.91 0 0 1-3.924-.761 10.1 10.1 0 0 1-3.33-2.254c-.953-.971-1.706-2.125-2.218-3.397a10.55 10.55 0 0 1-.76-4.01zm14.67 0c-.024-.893-.305-1.759-.808-2.489a4.46 4.46 0 0 0-2.018-1.618 4.34 4.34 0 0 0-2.556-.207c-.853.19-1.633.632-2.242 1.272a4.58 4.58 0 0 0-1.181 2.328c-.162.878-.067 1.785.273 2.608a4.52 4.52 0 0 0 1.637 2.019 4.37 4.37 0 0 0 2.455.757 4.24 4.24 0 0 0 1.747-.325 4.33 4.33 0 0 0 1.473-1.014 4.45 4.45 0 0 0 .951-1.534 4.52 4.52 0 0 0 .269-1.795zm28.871-9.873v18.747c0 6.633-5.057 9.437-10.191 9.437a9.69 9.69 0 0 1-5.232-1.079c-1.614-.844-2.969-2.127-3.917-3.707l4.941-2.922c.399.824 1.034 1.503 1.82 1.948a4.33 4.33 0 0 0 2.581.539 3.75 3.75 0 0 0 1.702-.151 3.84 3.84 0 0 0 1.471-.89 3.94 3.94 0 0 0 .949-1.454 4.01 4.01 0 0 0 .239-1.73V36.87c-.678.849-1.541 1.523-2.52 1.969a6.72 6.72 0 0 1-3.116.598 9.71 9.71 0 0 1-6.736-3.047c-1.773-1.872-2.765-4.376-2.765-6.982s.992-5.11 2.765-6.982a9.71 9.71 0 0 1 6.736-3.047c1.07-.052 2.137.152 3.116.598s1.842 1.12 2.52 1.969v-2.014l5.637.004zm-5.635 9.475a4.87 4.87 0 0 0-.692-2.712 4.72 4.72 0 0 0-2.059-1.85c-.852-.393-1.799-.516-2.719-.354s-1.773.603-2.446 1.265-1.139 1.515-1.335 2.449a4.9 4.9 0 0 0 .236 2.793 4.77 4.77 0 0 0 1.724 2.179 4.61 4.61 0 0 0 2.622.818 4.29 4.29 0 0 0 1.792-.256c.573-.212 1.097-.546 1.537-.978s.786-.954 1.017-1.531a4.55 4.55 0 0 0 .323-1.821zm8.914.398a10.63 10.63 0 0 1 1.705-5.825 10.29 10.29 0 0 1 4.582-3.872 10.02 10.02 0 0 1 5.914-.613 10.16 10.16 0 0 1 5.249 2.854 10.54 10.54 0 0 1 2.812 5.357 10.68 10.68 0 0 1-.576 6.052c-.773 1.914-2.084 3.551-3.767 4.703a10.07 10.07 0 0 1-5.688 1.767 9.92 9.92 0 0 1-3.924-.761 10.12 10.12 0 0 1-3.33-2.254 10.35 10.35 0 0 1-2.217-3.397c-.511-1.272-.77-2.635-.76-4.01zm14.67 0c-.024-.893-.305-1.759-.807-2.489s-1.205-1.293-2.018-1.618a4.34 4.34 0 0 0-2.556-.207 4.41 4.41 0 0 0-2.242 1.272c-.609.64-1.02 1.45-1.182 2.328a4.64 4.64 0 0 0 .274 2.608 4.52 4.52 0 0 0 1.637 2.019 4.37 4.37 0 0 0 2.455.757 4.24 4.24 0 0 0 1.747-.325 4.33 4.33 0 0 0 1.473-1.014 4.43 4.43 0 0 0 .95-1.534 4.51 4.51 0 0 0 .269-1.795zm8.493-15.164a3.61 3.61 0 0 1 .586-1.974 3.49 3.49 0 0 1 1.559-1.309c.635-.269 1.334-.339 2.008-.202a3.45 3.45 0 0 1 1.779.973c.486.497.816 1.13.951 1.82a3.63 3.63 0 0 1-.198 2.053 3.54 3.54 0 0 1-1.28 1.595 3.42 3.42 0 0 1-1.93.599 3.47 3.47 0 0 1-2.447-1.051c-.649-.665-1.019-1.563-1.028-2.503zm.585 5.291h5.793v19.744H152.3l.008-19.744zm30.796 9.872a10.12 10.12 0 0 1-.547 3.842 9.97 9.97 0 0 1-1.947 3.332c-.858.969-1.894 1.754-3.049 2.312a9.51 9.51 0 0 1-3.684.937 7.1 7.1 0 0 1-3.14-.542c-.994-.417-1.886-1.055-2.609-1.867v9.755h-5.791v-27.64h5.791v1.855c.724-.812 1.615-1.449 2.61-1.866a7.1 7.1 0 0 1 3.139-.541 9.51 9.51 0 0 1 3.684.937 9.71 9.71 0 0 1 3.05 2.312 9.97 9.97 0 0 1 1.947 3.333c.428 1.231.613 2.537.546 3.842zm-5.791 0a4.77 4.77 0 0 0-.83-2.578c-.518-.757-1.243-1.341-2.084-1.678a4.5 4.5 0 0 0-2.645-.219 4.57 4.57 0 0 0-2.322 1.313c-.631.662-1.057 1.499-1.225 2.408a4.8 4.8 0 0 0 .281 2.699 4.68 4.68 0 0 0 1.693 2.09 4.52 4.52 0 0 0 2.54.783 4.31 4.31 0 0 0 1.817-.312 4.39 4.39 0 0 0 1.534-1.044 4.52 4.52 0 0 0 .982-1.594c.214-.596.302-1.232.259-1.866zm23.662 3.947c0 4.541-3.859 6.476-8.028 6.476-1.684.156-3.375-.208-4.855-1.046a8.56 8.56 0 0 1-3.445-3.653l5.017-2.922c.203.713.639 1.333 1.235 1.757a3.12 3.12 0 0 0 2.04.572c1.389 0 2.085-.435 2.085-1.223 0-2.174-9.498-1.027-9.498-7.858 0-4.306 3.553-6.476 7.567-6.476 1.51-.049 3.003.317 4.327 1.06a8.54 8.54 0 0 1 3.2 3.164l-4.941 2.724a2.85 2.85 0 0 0-1.037-1.267 2.76 2.76 0 0 0-1.549-.471c-1.004 0-1.622.399-1.622 1.105.008 2.252 9.504.75 9.504 8.055zm21.152-13.818v19.744h-5.791v-1.857a6.62 6.62 0 0 1-2.476 1.884 6.46 6.46 0 0 1-3.042.526c-3.899 0-7.214-2.842-7.214-8.177v-12.12h5.791V31.19c-.049.47.004.946.154 1.393a3.28 3.28 0 0 0 .712 1.198c.32.342.707.608 1.138.78a3.11 3.11 0 0 0 1.354.218c2.123 0 3.589-1.262 3.589-4.067v-10.77l5.785-.006zm33.206 7.621V39.68h-5.791V28.071c0-1.974-.926-3.237-2.778-3.237-1.93 0-3.012 1.382-3.012 3.712V39.68h-5.789V28.071c0-1.974-.927-3.237-2.781-3.237-1.93 0-3.01 1.382-3.01 3.712V39.68h-5.791V19.936h5.791v1.815a5.95 5.95 0 0 1 2.291-1.857 5.81 5.81 0 0 1 2.882-.51 5.64 5.64 0 0 1 2.864.621 5.79 5.79 0 0 1 2.191 1.984c.642-.883 1.492-1.585 2.471-2.04s2.055-.65 3.127-.564c4.432.002 7.335 3.239 7.335 8.175zm4.897-7.743c2.373 0 4.297-1.968 4.297-4.395s-1.924-4.396-4.297-4.396-4.298 1.968-4.298 4.396 1.925 4.395 4.298 4.395z"/></svg>