<svg xmlns="http://www.w3.org/2000/svg" width="254" height="61" fill="#889098" xmlns:v="https://vecta.io/nano"><path d="M26.995 9.54V.939H.869V60.03h26.125V51.43c-5.352 0-10.484-2.207-14.269-6.135s-5.91-9.255-5.91-14.81 2.126-10.882 5.91-14.81S21.643 9.54 26.995 9.54z"/><path d="M26.995 9.54v41.89c5.352 0 10.485-2.207 14.269-6.135s5.91-9.255 5.91-14.81-2.126-10.882-5.91-14.81S32.346 9.54 26.995 9.54zm34.84 5.262h5.849v29.242h-5.849V14.802zm9.124 19.224c0-2.104.602-4.16 1.729-5.909s2.729-3.11 4.603-3.912a9.89 9.89 0 0 1 5.922-.594c1.987.415 3.811 1.433 5.24 2.925a10.76 10.76 0 0 1 2.788 5.456 11 11 0 0 1-.607 6.143c-.784 1.94-2.105 3.595-3.796 4.755a9.97 9.97 0 0 1-5.703 1.761 9.78 9.78 0 0 1-3.921-.788c-1.244-.531-2.372-1.314-3.32-2.303s-1.696-2.166-2.2-3.459-.755-2.679-.736-4.074zm14.661 0a4.73 4.73 0 0 0-.805-2.529c-.502-.743-1.204-1.315-2.018-1.646a4.29 4.29 0 0 0-2.558-.213 4.4 4.4 0 0 0-2.246 1.29c-.61.65-1.022 1.472-1.184 2.363s-.068 1.813.272 2.649a4.58 4.58 0 0 0 1.638 2.051 4.33 4.33 0 0 0 2.457.77c.595.012 1.186-.103 1.737-.339a4.32 4.32 0 0 0 1.461-1.031 4.52 4.52 0 0 0 .942-1.552c.208-.579.299-1.196.266-1.813h.039zm28.836-10.017v19.043c0 6.719-5.069 9.572-10.197 9.572a9.45 9.45 0 0 1-5.238-1.077c-1.616-.858-2.968-2.167-3.906-3.78l4.932-2.955c.4.837 1.036 1.527 1.823 1.979a4.29 4.29 0 0 0 2.583.551c.571.073 1.149.014 1.695-.172a3.87 3.87 0 0 0 1.462-.905 4.05 4.05 0 0 0 .952-1.466c.209-.555.297-1.152.259-1.747V41.21a6.92 6.92 0 0 1-2.523 1.986 6.66 6.66 0 0 1-3.112.604c-2.585 0-5.065-1.066-6.893-2.964s-2.855-4.471-2.855-7.155 1.027-5.257 2.855-7.155 4.308-2.964 6.893-2.964a6.66 6.66 0 0 1 3.112.604 6.92 6.92 0 0 1 2.523 1.986v-2.024l5.634-.121zm-5.634 9.612c.038-.968-.203-1.926-.692-2.751a4.74 4.74 0 0 0-2.058-1.878 4.52 4.52 0 0 0-2.717-.36 4.62 4.62 0 0 0-2.446 1.28 4.91 4.91 0 0 0-1.336 2.482 5.03 5.03 0 0 0 .231 2.833 4.83 4.83 0 0 0 1.72 2.213 4.56 4.56 0 0 0 2.618.835 4.23 4.23 0 0 0 1.796-.257 4.35 4.35 0 0 0 1.54-.992 4.55 4.55 0 0 0 1.02-1.555 4.69 4.69 0 0 0 .324-1.851zm8.929.405a10.91 10.91 0 0 1 1.727-5.905c1.125-1.748 2.725-3.109 4.596-3.913a9.89 9.89 0 0 1 5.917-.601 10.13 10.13 0 0 1 5.241 2.913c1.43 1.488 2.403 3.383 2.796 5.445s.187 4.199-.59 6.14-2.093 3.599-3.779 4.764a9.97 9.97 0 0 1-5.692 1.781 9.79 9.79 0 0 1-3.929-.782c-1.247-.529-2.379-1.312-3.331-2.301s-1.703-2.166-2.211-3.461a10.86 10.86 0 0 1-.745-4.08zm14.661 0c-.023-.908-.303-1.788-.806-2.532a4.47 4.47 0 0 0-2.022-1.645 4.29 4.29 0 0 0-2.561-.21c-.854.193-1.636.644-2.245 1.296s-1.019 1.476-1.179 2.369a4.78 4.78 0 0 0 .279 2.65 4.58 4.58 0 0 0 1.647 2.047 4.33 4.33 0 0 0 2.462.76c.595.012 1.186-.103 1.736-.339a4.31 4.31 0 0 0 1.461-1.031 4.51 4.51 0 0 0 .943-1.552 4.65 4.65 0 0 0 .266-1.813h.019zm8.482-15.379a3.7 3.7 0 0 1 .584-2.001c.381-.592.924-1.054 1.558-1.327a3.35 3.35 0 0 1 2.005-.205c.673.139 1.291.482 1.777.986a3.65 3.65 0 0 1 .95 1.844c.134.699.065 1.423-.198 2.081a3.58 3.58 0 0 1-1.278 1.617 3.38 3.38 0 0 1-1.928.607c-.917-.011-1.794-.393-2.443-1.067a3.71 3.71 0 0 1-1.027-2.535zm.565 5.363h5.849v20.034h-5.849V24.009zm30.882 10.016a10.46 10.46 0 0 1-.556 3.922 10.21 10.21 0 0 1-1.964 3.399 9.78 9.78 0 0 1-3.072 2.355c-1.163.567-2.423.89-3.707.949a7.02 7.02 0 0 1-3.195-.53 7.25 7.25 0 0 1-2.654-1.919v9.896h-5.849V24.009h5.849v1.882a7.23 7.23 0 0 1 2.656-1.91 6.99 6.99 0 0 1 3.193-.519c1.279.06 2.534.38 3.693.944s2.201 1.358 3.064 2.339a10.21 10.21 0 0 1 1.969 3.378c.436 1.249.631 2.575.573 3.903zm-5.849 0a4.89 4.89 0 0 0-.833-2.621c-.52-.77-1.247-1.363-2.091-1.705a4.44 4.44 0 0 0-2.651-.219 4.56 4.56 0 0 0-2.325 1.34 4.84 4.84 0 0 0-1.222 2.452c-.166.924-.066 1.879.288 2.744a4.74 4.74 0 0 0 1.704 2.12 4.48 4.48 0 0 0 2.549.787 4.26 4.26 0 0 0 1.816-.32c.577-.238 1.099-.601 1.532-1.063a4.6 4.6 0 0 0 .978-1.62 4.72 4.72 0 0 0 .255-1.894zm23.65 4.007c0 4.614-3.899 6.577-8.033 6.577-1.686.157-3.378-.214-4.859-1.065s-2.681-2.144-3.446-3.711l5.03-2.955c.199.722.631 1.351 1.224 1.782a3.07 3.07 0 0 0 2.032.585c1.384 0 2.086-.445 2.086-1.255 0-2.206-9.495-1.032-9.495-7.973 0-4.371 3.548-6.557 7.565-6.557a8.21 8.21 0 0 1 4.389 1.04c1.345.752 2.47 1.868 3.253 3.23l-5.03 2.752a2.93 2.93 0 0 0-1.045-1.279c-.46-.313-.998-.48-1.548-.482-1.014 0-1.618.405-1.618 1.113 0 2.307 9.495.789 9.495 8.196zm21.193-14.024v20.034h-5.849v-1.882a6.69 6.69 0 0 1-2.463 1.925 6.43 6.43 0 0 1-3.035.564c-3.9 0-7.234-2.894-7.234-8.297V24.009h5.849v11.434c-.046.478.008.961.16 1.415a3.37 3.37 0 0 0 .716 1.215 3.2 3.2 0 0 0 1.142.791 3.09 3.09 0 0 0 1.355.222c2.106 0 3.588-1.295 3.588-4.047v-11.03h5.771zm33.144 7.731v12.304h-5.849V32.266c0-2.024-.917-3.278-2.769-3.278s-3.022 1.396-3.022 3.764v11.292h-5.849V32.266c0-2.024-.916-3.278-2.768-3.278s-3.022 1.396-3.022 3.764v11.292h-5.849V24.009h5.849v1.842c.606-.814 1.396-1.458 2.302-1.875s1.897-.593 2.884-.513a5.54 5.54 0 0 1 2.86.622c.885.461 1.64 1.153 2.19 2.009.643-.894 1.493-1.604 2.472-2.064a6.15 6.15 0 0 1 3.123-.567c4.562 0 7.448 3.278 7.448 8.277zm4.913-7.852c2.369 0 4.289-1.993 4.289-4.452s-1.92-4.452-4.289-4.452-4.289 1.993-4.289 4.452 1.92 4.452 4.289 4.452z"/></svg>