<svg xmlns="http://www.w3.org/2000/svg" width="861" height="582" fill="none" xmlns:v="https://vecta.io/nano"><path d="M3.741 1.814C3.741.825 2.891 0 1.871 0S0 .825 0 1.814.85 3.628 1.871 3.628s1.871-.825 1.871-1.814zm0 36.117c0-.989-.85-1.814-1.871-1.814S0 36.942 0 37.931s.85 1.814 1.871 1.814 1.871-.825 1.871-1.814zm0 36.2c0-.99-.85-1.814-1.871-1.814S0 73.142 0 74.131s.85 1.814 1.871 1.814 1.871-.825 1.871-1.814zm0 36.118c0-.99-.85-1.815-1.871-1.815S0 109.259 0 110.249s.85 1.813 1.871 1.813 1.871-.824 1.871-1.813zm0 36.116c0-.989-.85-1.813-1.871-1.813S0 145.376 0 146.365s.85 1.815 1.871 1.815 1.871-.825 1.871-1.815zm0 36.2c0-.989-.85-1.813-1.871-1.813S0 181.576 0 182.565s.85 1.815 1.871 1.815 1.871-.825 1.871-1.815zm0 36.118c0-.99-.85-1.814-1.871-1.814S0 217.693 0 218.683s.85 1.813 1.871 1.813 1.871-.823 1.871-1.813zm0 36.117c0-.99-.85-1.814-1.871-1.814S0 253.81 0 254.8s.85 1.814 1.871 1.814 1.871-.742 1.871-1.814zm0 36.2c0-.989-.85-1.814-1.871-1.814S0 290.011 0 291s.85 1.814 1.871 1.814 1.871-.825 1.871-1.814zm0 36.117c0-.989-.85-1.814-1.871-1.814S0 326.128 0 327.117s.85 1.815 1.871 1.815 1.871-.825 1.871-1.815zm0 36.2c0-.99-.85-1.814-1.871-1.814S0 362.327 0 363.317s.85 1.814 1.871 1.814c1.02-.083 1.871-.824 1.871-1.814zm0 36.117c0-.989-.85-1.814-1.871-1.814S0 398.445 0 399.434s.85 1.814 1.871 1.814 1.871-.825 1.871-1.814zm0 36.118c0-.99-.85-1.815-1.871-1.815S0 434.562 0 435.552s.85 1.814 1.871 1.814 1.871-.825 1.871-1.814zm0 36.199c0-.989-.85-1.814-1.871-1.814S0 470.762 0 471.751s.85 1.815 1.871 1.815 1.871-.825 1.871-1.815zm0 36.117c0-.989-.85-1.813-1.871-1.813S0 506.879 0 507.868s.85 1.815 1.871 1.815 1.871-.825 1.871-1.815zm0 36.118c0-.99-.85-1.815-1.871-1.815S0 542.996 0 543.986.85 545.8 1.871 545.8s1.871-.824 1.871-1.814zm0 36.2c0-.99-.85-1.815-1.871-1.815S0 579.196 0 580.186.85 582 1.871 582s1.871-.825 1.871-1.814zM861 1.814c0-.99-.851-1.814-1.871-1.814s-1.871.825-1.871 1.814.851 1.814 1.871 1.814S861 2.804 861 1.814zm0 36.117c0-.989-.851-1.814-1.871-1.814s-1.871.825-1.871 1.814.851 1.814 1.871 1.814S861 38.921 861 37.931zm0 36.2c0-.99-.851-1.814-1.871-1.814s-1.871.825-1.871 1.814.851 1.814 1.871 1.814S861 75.121 861 74.131zm0 36.118c0-.99-.851-1.815-1.871-1.815s-1.871.825-1.871 1.815.851 1.813 1.871 1.813 1.871-.824 1.871-1.813zm0 36.116c0-.989-.851-1.813-1.871-1.813s-1.871.824-1.871 1.813.851 1.815 1.871 1.815 1.871-.825 1.871-1.815zm0 36.2c0-.989-.851-1.813-1.871-1.813s-1.871.824-1.871 1.813.851 1.815 1.871 1.815 1.871-.825 1.871-1.815zm0 36.118c0-.99-.851-1.814-1.871-1.814s-1.871.824-1.871 1.814.851 1.813 1.871 1.813 1.871-.823 1.871-1.813zm0 36.117c0-.99-.851-1.814-1.871-1.814s-1.871.824-1.871 1.814.851 1.814 1.871 1.814S861 255.872 861 254.8zm0 36.2c0-.989-.851-1.814-1.871-1.814s-1.871.825-1.871 1.814.851 1.814 1.871 1.814S861 291.989 861 291zm0 36.117c0-.989-.851-1.814-1.871-1.814s-1.871.825-1.871 1.814.851 1.815 1.871 1.815 1.871-.825 1.871-1.815zm0 36.2c0-.99-.851-1.814-1.871-1.814s-1.871.824-1.871 1.814.851 1.814 1.871 1.814c1.02-.083 1.871-.824 1.871-1.814zm0 36.117c0-.989-.851-1.814-1.871-1.814s-1.871.825-1.871 1.814.851 1.814 1.871 1.814 1.871-.825 1.871-1.814zm0 36.118c0-.99-.851-1.815-1.871-1.815s-1.871.825-1.871 1.815.851 1.814 1.871 1.814 1.871-.825 1.871-1.814zm0 36.199c0-.989-.851-1.814-1.871-1.814s-1.871.825-1.871 1.814.851 1.815 1.871 1.815 1.871-.825 1.871-1.815zm0 36.117c0-.989-.851-1.813-1.871-1.813s-1.871.824-1.871 1.813.851 1.815 1.871 1.815 1.871-.825 1.871-1.815zm0 36.118c0-.99-.851-1.815-1.871-1.815s-1.871.825-1.871 1.815.851 1.814 1.871 1.814 1.871-.824 1.871-1.814zm0 36.2c0-.99-.851-1.815-1.871-1.815s-1.871.825-1.871 1.815.851 1.814 1.871 1.814 1.871-.825 1.871-1.814zM823.757 1.814c0-.99-.851-1.814-1.87-1.814s-1.871.825-1.871 1.814.851 1.814 1.871 1.814 1.87-.825 1.87-1.814zm0 36.117c0-.989-.851-1.814-1.87-1.814s-1.871.825-1.871 1.814.851 1.814 1.871 1.814 1.87-.825 1.87-1.814zm0 36.2c0-.99-.851-1.814-1.87-1.814s-1.871.825-1.871 1.814.851 1.814 1.871 1.814 1.87-.825 1.87-1.814zm0 36.118c0-.99-.851-1.815-1.87-1.815s-1.871.825-1.871 1.815.851 1.813 1.871 1.813 1.87-.824 1.87-1.813zm0 36.116c0-.989-.851-1.813-1.87-1.813s-1.871.824-1.871 1.813.851 1.815 1.871 1.815 1.87-.825 1.87-1.815zm0 36.2c0-.989-.851-1.813-1.87-1.813s-1.871.824-1.871 1.813.851 1.815 1.871 1.815 1.87-.825 1.87-1.815zm0 36.118c0-.99-.851-1.814-1.87-1.814s-1.871.824-1.871 1.814.851 1.813 1.871 1.813 1.87-.823 1.87-1.813zm0 36.117c0-.99-.851-1.814-1.87-1.814s-1.871.824-1.871 1.814.851 1.814 1.871 1.814 1.87-.742 1.87-1.814zm0 36.2c0-.989-.851-1.814-1.87-1.814s-1.871.825-1.871 1.814.851 1.814 1.871 1.814 1.87-.825 1.87-1.814zm0 36.117c0-.989-.851-1.814-1.87-1.814s-1.871.825-1.871 1.814.851 1.815 1.871 1.815 1.87-.825 1.87-1.815zm0 36.2c0-.99-.851-1.814-1.87-1.814s-1.871.824-1.871 1.814.851 1.814 1.871 1.814c1.019-.083 1.87-.824 1.87-1.814zm0 36.117c0-.989-.851-1.814-1.87-1.814s-1.871.825-1.871 1.814.851 1.814 1.871 1.814 1.87-.825 1.87-1.814zm0 36.118c0-.99-.851-1.815-1.87-1.815s-1.871.825-1.871 1.815.851 1.814 1.871 1.814 1.87-.825 1.87-1.814zm0 36.199c0-.989-.851-1.814-1.87-1.814s-1.871.825-1.871 1.814.851 1.815 1.871 1.815 1.87-.825 1.87-1.815zm0 36.117c0-.989-.851-1.813-1.87-1.813s-1.871.824-1.871 1.813.851 1.815 1.871 1.815 1.87-.825 1.87-1.815zm0 36.118c0-.99-.851-1.815-1.87-1.815s-1.871.825-1.871 1.815.851 1.814 1.871 1.814 1.87-.824 1.87-1.814zm0 36.2c0-.99-.851-1.815-1.87-1.815s-1.871.825-1.871 1.815.851 1.814 1.871 1.814 1.87-.825 1.87-1.814zM786.43 1.814c0-.99-.851-1.814-1.871-1.814s-1.871.825-1.871 1.814.851 1.814 1.871 1.814c1.105 0 1.871-.825 1.871-1.814zm0 36.117c0-.989-.851-1.814-1.871-1.814s-1.871.825-1.871 1.814.851 1.814 1.871 1.814c1.105 0 1.871-.825 1.871-1.814zm0 36.2c0-.99-.851-1.814-1.871-1.814s-1.871.825-1.871 1.814.851 1.814 1.871 1.814c1.105 0 1.871-.825 1.871-1.814zm0 36.118c0-.99-.851-1.815-1.871-1.815s-1.871.825-1.871 1.815.851 1.813 1.871 1.813c1.105 0 1.871-.824 1.871-1.813zm0 36.116c0-.989-.851-1.813-1.871-1.813s-1.871.824-1.871 1.813.851 1.815 1.871 1.815c1.105 0 1.871-.825 1.871-1.815zm0 36.2c0-.989-.851-1.813-1.871-1.813s-1.871.824-1.871 1.813.851 1.815 1.871 1.815c1.105 0 1.871-.825 1.871-1.815zm0 36.118c0-.99-.851-1.814-1.871-1.814s-1.871.824-1.871 1.814.851 1.813 1.871 1.813c1.105 0 1.871-.823 1.871-1.813zm0 36.117c0-.99-.851-1.814-1.871-1.814s-1.871.824-1.871 1.814.851 1.814 1.871 1.814c1.105 0 1.871-.742 1.871-1.814zm0 36.2c0-.989-.851-1.814-1.871-1.814s-1.871.825-1.871 1.814.851 1.814 1.871 1.814c1.105 0 1.871-.825 1.871-1.814zm0 36.117c0-.989-.851-1.814-1.871-1.814s-1.871.825-1.871 1.814.851 1.815 1.871 1.815c1.105 0 1.871-.825 1.871-1.815zm0 36.2c0-.99-.851-1.814-1.871-1.814s-1.871.824-1.871 1.814.851 1.814 1.871 1.814c1.105-.083 1.871-.824 1.871-1.814zm0 36.117c0-.989-.851-1.814-1.871-1.814s-1.871.825-1.871 1.814.851 1.814 1.871 1.814c1.105 0 1.871-.825 1.871-1.814zm0 36.118c0-.99-.851-1.815-1.871-1.815s-1.871.825-1.871 1.815.851 1.814 1.871 1.814c1.105 0 1.871-.825 1.871-1.814zm0 36.199c0-.989-.851-1.814-1.871-1.814s-1.871.825-1.871 1.814.851 1.815 1.871 1.815c1.105 0 1.871-.825 1.871-1.815zm0 36.117c0-.989-.851-1.813-1.871-1.813s-1.871.824-1.871 1.813.851 1.815 1.871 1.815c1.105 0 1.871-.825 1.871-1.815zm0 36.118c0-.99-.851-1.815-1.871-1.815s-1.871.825-1.871 1.815.851 1.814 1.871 1.814c1.105 0 1.871-.824 1.871-1.814zm0 36.2c0-.99-.851-1.815-1.871-1.815s-1.871.825-1.871 1.815.851 1.814 1.871 1.814c1.105 0 1.871-.825 1.871-1.814zM749.187 1.814c0-.99-.851-1.814-1.87-1.814s-1.871.825-1.871 1.814.85 1.814 1.871 1.814 1.87-.825 1.87-1.814zm0 36.117c0-.989-.851-1.814-1.87-1.814s-1.871.825-1.871 1.814.85 1.814 1.871 1.814 1.87-.825 1.87-1.814zm0 36.2c0-.99-.851-1.814-1.87-1.814s-1.871.825-1.871 1.814.85 1.814 1.871 1.814 1.87-.825 1.87-1.814zm0 36.118c0-.99-.851-1.815-1.87-1.815s-1.871.825-1.871 1.815.85 1.813 1.871 1.813 1.87-.824 1.87-1.813zm0 36.116c0-.989-.851-1.813-1.87-1.813s-1.871.824-1.871 1.813.85 1.815 1.871 1.815 1.87-.825 1.87-1.815zm0 36.2c0-.989-.851-1.813-1.87-1.813s-1.871.824-1.871 1.813.85 1.815 1.871 1.815 1.87-.825 1.87-1.815zm0 36.118c0-.99-.851-1.814-1.87-1.814s-1.871.824-1.871 1.814.85 1.813 1.871 1.813 1.87-.823 1.87-1.813zm0 36.117c0-.99-.851-1.814-1.87-1.814s-1.871.824-1.871 1.814.85 1.814 1.871 1.814 1.87-.742 1.87-1.814zm0 36.2c0-.989-.851-1.814-1.87-1.814s-1.871.825-1.871 1.814.85 1.814 1.871 1.814 1.87-.825 1.87-1.814zm0 36.117c0-.989-.851-1.814-1.87-1.814s-1.871.825-1.871 1.814.85 1.815 1.871 1.815 1.87-.825 1.87-1.815zm0 36.2c0-.99-.851-1.814-1.87-1.814s-1.871.824-1.871 1.814.85 1.814 1.871 1.814c1.019-.083 1.87-.824 1.87-1.814zm0 36.117c0-.989-.851-1.814-1.87-1.814s-1.871.825-1.871 1.814.85 1.814 1.871 1.814 1.87-.825 1.87-1.814zm0 36.118c0-.99-.851-1.815-1.87-1.815s-1.871.825-1.871 1.815.85 1.814 1.871 1.814 1.87-.825 1.87-1.814zm0 36.199c0-.989-.851-1.814-1.87-1.814s-1.871.825-1.871 1.814.85 1.815 1.871 1.815 1.87-.825 1.87-1.815zm0 36.117c0-.989-.851-1.813-1.87-1.813s-1.871.824-1.871 1.813.85 1.815 1.871 1.815 1.87-.825 1.87-1.815zm0 36.118c0-.99-.851-1.815-1.87-1.815s-1.871.825-1.871 1.815.85 1.814 1.871 1.814 1.87-.824 1.87-1.814zm0 36.2c0-.99-.851-1.815-1.87-1.815s-1.871.825-1.871 1.815.85 1.814 1.871 1.814 1.87-.825 1.87-1.814zM711.945 1.814c0-.99-.851-1.814-1.871-1.814s-1.871.825-1.871 1.814.85 1.814 1.871 1.814 1.871-.825 1.871-1.814zm0 36.117c0-.989-.851-1.814-1.871-1.814s-1.871.825-1.871 1.814.85 1.814 1.871 1.814 1.871-.825 1.871-1.814zm0 36.2c0-.99-.851-1.814-1.871-1.814s-1.871.825-1.871 1.814.85 1.814 1.871 1.814 1.871-.825 1.871-1.814zm0 36.118c0-.99-.851-1.815-1.871-1.815s-1.871.825-1.871 1.815.85 1.813 1.871 1.813 1.871-.824 1.871-1.813zm0 36.116c0-.989-.851-1.813-1.871-1.813s-1.871.824-1.871 1.813.85 1.815 1.871 1.815 1.871-.825 1.871-1.815zm0 36.2c0-.989-.851-1.813-1.871-1.813s-1.871.824-1.871 1.813.85 1.815 1.871 1.815 1.871-.825 1.871-1.815zm0 36.118c0-.99-.851-1.814-1.871-1.814s-1.871.824-1.871 1.814.85 1.813 1.871 1.813 1.871-.823 1.871-1.813zm0 36.117c0-.99-.851-1.814-1.871-1.814s-1.871.824-1.871 1.814.85 1.814 1.871 1.814 1.871-.742 1.871-1.814zm0 36.2c0-.989-.851-1.814-1.871-1.814s-1.871.825-1.871 1.814.85 1.814 1.871 1.814 1.871-.825 1.871-1.814zm0 36.117c0-.989-.851-1.814-1.871-1.814s-1.871.825-1.871 1.814.85 1.815 1.871 1.815 1.871-.825 1.871-1.815zm0 36.2c0-.99-.851-1.814-1.871-1.814s-1.871.824-1.871 1.814.85 1.814 1.871 1.814c1.02-.083 1.871-.824 1.871-1.814zm0 36.117c0-.989-.851-1.814-1.871-1.814s-1.871.825-1.871 1.814.85 1.814 1.871 1.814 1.871-.825 1.871-1.814zm0 36.118c0-.99-.851-1.815-1.871-1.815s-1.871.825-1.871 1.815.85 1.814 1.871 1.814 1.871-.825 1.871-1.814zm0 36.199c0-.989-.851-1.814-1.871-1.814s-1.871.825-1.871 1.814.85 1.815 1.871 1.815 1.871-.825 1.871-1.815zm0 36.117c0-.989-.851-1.813-1.871-1.813s-1.871.824-1.871 1.813.85 1.815 1.871 1.815 1.871-.825 1.871-1.815zm0 36.118c0-.99-.851-1.815-1.871-1.815s-1.871.825-1.871 1.815.85 1.814 1.871 1.814 1.871-.824 1.871-1.814zm0 36.2c0-.99-.851-1.815-1.871-1.815s-1.871.825-1.871 1.815.85 1.814 1.871 1.814 1.871-.825 1.871-1.814zM674.617 1.814c0-.99-.851-1.814-1.87-1.814s-1.871.825-1.871 1.814.85 1.814 1.871 1.814c1.105 0 1.87-.825 1.87-1.814zm0 36.117c0-.989-.851-1.814-1.87-1.814s-1.871.825-1.871 1.814.85 1.814 1.871 1.814c1.105 0 1.87-.825 1.87-1.814zm0 36.2c0-.99-.851-1.814-1.87-1.814s-1.871.825-1.871 1.814.85 1.814 1.871 1.814c1.105 0 1.87-.825 1.87-1.814zm0 36.118c0-.99-.851-1.815-1.87-1.815s-1.871.825-1.871 1.815.85 1.813 1.871 1.813c1.105 0 1.87-.824 1.87-1.813zm0 36.116c0-.989-.851-1.813-1.87-1.813s-1.871.824-1.871 1.813.85 1.815 1.871 1.815c1.105 0 1.87-.825 1.87-1.815zm0 36.2c0-.989-.851-1.813-1.87-1.813s-1.871.824-1.871 1.813.85 1.815 1.871 1.815c1.105 0 1.87-.825 1.87-1.815zm0 36.118c0-.99-.851-1.814-1.87-1.814s-1.871.824-1.871 1.814.85 1.813 1.871 1.813c1.105 0 1.87-.823 1.87-1.813zm0 36.117c0-.99-.851-1.814-1.87-1.814s-1.871.824-1.871 1.814.85 1.814 1.871 1.814c1.105 0 1.87-.742 1.87-1.814zm0 36.2c0-.989-.851-1.814-1.87-1.814s-1.871.825-1.871 1.814.85 1.814 1.871 1.814c1.105 0 1.87-.825 1.87-1.814zm0 36.117c0-.989-.851-1.814-1.87-1.814s-1.871.825-1.871 1.814.85 1.815 1.871 1.815c1.105 0 1.87-.825 1.87-1.815zm0 36.2c0-.99-.851-1.814-1.87-1.814s-1.871.824-1.871 1.814.85 1.814 1.871 1.814c1.105-.083 1.87-.824 1.87-1.814zm0 36.117c0-.989-.851-1.814-1.87-1.814s-1.871.825-1.871 1.814.85 1.814 1.871 1.814c1.105 0 1.87-.825 1.87-1.814zm0 36.118c0-.99-.851-1.815-1.87-1.815s-1.871.825-1.871 1.815.85 1.814 1.871 1.814c1.105 0 1.87-.825 1.87-1.814zm0 36.199c0-.989-.851-1.814-1.87-1.814s-1.871.825-1.871 1.814.85 1.815 1.871 1.815c1.105 0 1.87-.825 1.87-1.815zm0 36.117c0-.989-.851-1.813-1.87-1.813s-1.871.824-1.871 1.813.85 1.815 1.871 1.815c1.105 0 1.87-.825 1.87-1.815zm0 36.118c0-.99-.851-1.815-1.87-1.815s-1.871.825-1.871 1.815.85 1.814 1.871 1.814c1.105 0 1.87-.824 1.87-1.814zm0 36.2c0-.99-.851-1.815-1.87-1.815s-1.871.825-1.871 1.815.85 1.814 1.871 1.814c1.105 0 1.87-.825 1.87-1.814zM637.375 1.814c0-.99-.851-1.814-1.871-1.814s-1.871.825-1.871 1.814.85 1.814 1.871 1.814 1.871-.825 1.871-1.814zm0 36.117c0-.989-.851-1.814-1.871-1.814s-1.871.825-1.871 1.814.85 1.814 1.871 1.814 1.871-.825 1.871-1.814zm0 36.2c0-.99-.851-1.814-1.871-1.814s-1.871.825-1.871 1.814.85 1.814 1.871 1.814 1.871-.825 1.871-1.814zm0 36.118c0-.99-.851-1.815-1.871-1.815s-1.871.825-1.871 1.815.85 1.813 1.871 1.813 1.871-.824 1.871-1.813zm0 36.116c0-.989-.851-1.813-1.871-1.813s-1.871.824-1.871 1.813.85 1.815 1.871 1.815 1.871-.825 1.871-1.815zm0 36.2c0-.989-.851-1.813-1.871-1.813s-1.871.824-1.871 1.813.85 1.815 1.871 1.815 1.871-.825 1.871-1.815zm0 36.118c0-.99-.851-1.814-1.871-1.814s-1.871.824-1.871 1.814.85 1.813 1.871 1.813 1.871-.823 1.871-1.813zm0 36.117c0-.99-.851-1.814-1.871-1.814s-1.871.824-1.871 1.814.85 1.814 1.871 1.814 1.871-.742 1.871-1.814zm0 36.2c0-.989-.851-1.814-1.871-1.814s-1.871.825-1.871 1.814.85 1.814 1.871 1.814 1.871-.825 1.871-1.814zm0 36.117c0-.989-.851-1.814-1.871-1.814s-1.871.825-1.871 1.814.85 1.815 1.871 1.815 1.871-.825 1.871-1.815zm0 36.2c0-.99-.851-1.814-1.871-1.814s-1.871.824-1.871 1.814.85 1.814 1.871 1.814c1.02-.083 1.871-.824 1.871-1.814zm0 36.117c0-.989-.851-1.814-1.871-1.814s-1.871.825-1.871 1.814.85 1.814 1.871 1.814 1.871-.825 1.871-1.814zm0 36.118c0-.99-.851-1.815-1.871-1.815s-1.871.825-1.871 1.815.85 1.814 1.871 1.814 1.871-.825 1.871-1.814zm0 36.199c0-.989-.851-1.814-1.871-1.814s-1.871.825-1.871 1.814.85 1.815 1.871 1.815 1.871-.825 1.871-1.815zm0 36.117c0-.989-.851-1.813-1.871-1.813s-1.871.824-1.871 1.813.85 1.815 1.871 1.815 1.871-.825 1.871-1.815zm0 36.118c0-.99-.851-1.815-1.871-1.815s-1.871.825-1.871 1.815.85 1.814 1.871 1.814 1.871-.824 1.871-1.814zm0 36.2c0-.99-.851-1.815-1.871-1.815s-1.871.825-1.871 1.815.85 1.814 1.871 1.814 1.871-.825 1.871-1.814zM600.132 1.814c0-.99-.851-1.814-1.87-1.814s-1.871.825-1.871 1.814.85 1.814 1.871 1.814 1.87-.825 1.87-1.814zm0 36.117c0-.989-.851-1.814-1.87-1.814s-1.871.825-1.871 1.814.85 1.814 1.871 1.814 1.87-.825 1.87-1.814zm0 36.2c0-.99-.851-1.814-1.87-1.814s-1.871.825-1.871 1.814.85 1.814 1.871 1.814 1.87-.825 1.87-1.814zm0 36.118c0-.99-.851-1.815-1.87-1.815s-1.871.825-1.871 1.815.85 1.813 1.871 1.813 1.87-.824 1.87-1.813zm0 36.116c0-.989-.851-1.813-1.87-1.813s-1.871.824-1.871 1.813.85 1.815 1.871 1.815 1.87-.825 1.87-1.815zm0 36.2c0-.989-.851-1.813-1.87-1.813s-1.871.824-1.871 1.813.85 1.815 1.871 1.815 1.87-.825 1.87-1.815zm0 36.118c0-.99-.851-1.814-1.87-1.814s-1.871.824-1.871 1.814.85 1.813 1.871 1.813 1.87-.823 1.87-1.813zm0 36.117c0-.99-.851-1.814-1.87-1.814s-1.871.824-1.871 1.814.85 1.814 1.871 1.814 1.87-.742 1.87-1.814zm0 36.2c0-.989-.851-1.814-1.87-1.814s-1.871.825-1.871 1.814.85 1.814 1.871 1.814 1.87-.825 1.87-1.814zm0 36.117c0-.989-.851-1.814-1.87-1.814s-1.871.825-1.871 1.814.85 1.815 1.871 1.815 1.87-.825 1.87-1.815zm0 36.2c0-.99-.851-1.814-1.87-1.814s-1.871.824-1.871 1.814.85 1.814 1.871 1.814c1.019-.083 1.87-.824 1.87-1.814zm0 36.117c0-.989-.851-1.814-1.87-1.814s-1.871.825-1.871 1.814.85 1.814 1.871 1.814 1.87-.825 1.87-1.814zm0 36.118c0-.99-.851-1.815-1.87-1.815s-1.871.825-1.871 1.815.85 1.814 1.871 1.814 1.87-.825 1.87-1.814zm0 36.199c0-.989-.851-1.814-1.87-1.814s-1.871.825-1.871 1.814.85 1.815 1.871 1.815 1.87-.825 1.87-1.815zm0 36.117c0-.989-.851-1.813-1.87-1.813s-1.871.824-1.871 1.813.85 1.815 1.871 1.815 1.87-.825 1.87-1.815zm0 36.118c0-.99-.851-1.815-1.87-1.815s-1.871.825-1.871 1.815.85 1.814 1.871 1.814 1.87-.824 1.87-1.814zm0 36.2c0-.99-.851-1.815-1.87-1.815s-1.871.825-1.871 1.815.85 1.814 1.871 1.814 1.87-.825 1.87-1.814zM562.805 1.814c0-.99-.851-1.814-1.871-1.814s-1.871.825-1.871 1.814.85 1.814 1.871 1.814 1.871-.825 1.871-1.814zm0 36.117c0-.989-.851-1.814-1.871-1.814s-1.871.825-1.871 1.814.85 1.814 1.871 1.814 1.871-.825 1.871-1.814zm0 36.2c0-.99-.851-1.814-1.871-1.814s-1.871.825-1.871 1.814.85 1.814 1.871 1.814 1.871-.825 1.871-1.814zm0 36.118c0-.99-.851-1.815-1.871-1.815s-1.871.825-1.871 1.815.85 1.813 1.871 1.813 1.871-.824 1.871-1.813zm0 36.116c0-.989-.851-1.813-1.871-1.813s-1.871.824-1.871 1.813.85 1.815 1.871 1.815 1.871-.825 1.871-1.815zm0 36.2c0-.989-.851-1.813-1.871-1.813s-1.871.824-1.871 1.813.85 1.815 1.871 1.815 1.871-.825 1.871-1.815zm0 36.118c0-.99-.851-1.814-1.871-1.814s-1.871.824-1.871 1.814.85 1.813 1.871 1.813 1.871-.823 1.871-1.813zm0 36.117c0-.99-.851-1.814-1.871-1.814s-1.871.824-1.871 1.814.85 1.814 1.871 1.814 1.871-.742 1.871-1.814zm0 36.2c0-.989-.851-1.814-1.871-1.814s-1.871.825-1.871 1.814.85 1.814 1.871 1.814 1.871-.825 1.871-1.814zm0 36.117c0-.989-.851-1.814-1.871-1.814s-1.871.825-1.871 1.814.85 1.815 1.871 1.815 1.871-.825 1.871-1.815zm0 36.2c0-.99-.851-1.814-1.871-1.814s-1.871.824-1.871 1.814.85 1.814 1.871 1.814c1.02-.083 1.871-.824 1.871-1.814zm0 36.117c0-.989-.851-1.814-1.871-1.814s-1.871.825-1.871 1.814.85 1.814 1.871 1.814 1.871-.825 1.871-1.814zm0 36.118c0-.99-.851-1.815-1.871-1.815s-1.871.825-1.871 1.815.85 1.814 1.871 1.814 1.871-.825 1.871-1.814zm0 36.199c0-.989-.851-1.814-1.871-1.814s-1.871.825-1.871 1.814.85 1.815 1.871 1.815 1.871-.825 1.871-1.815zm0 36.117c0-.989-.851-1.813-1.871-1.813s-1.871.824-1.871 1.813.85 1.815 1.871 1.815 1.871-.825 1.871-1.815zm0 36.118c0-.99-.851-1.815-1.871-1.815s-1.871.825-1.871 1.815.85 1.814 1.871 1.814 1.871-.824 1.871-1.814zm0 36.2c0-.99-.851-1.815-1.871-1.815s-1.871.825-1.871 1.815.85 1.814 1.871 1.814 1.871-.825 1.871-1.814zM525.562 1.814c0-.99-.851-1.814-1.87-1.814s-1.871.825-1.871 1.814.85 1.814 1.871 1.814 1.87-.825 1.87-1.814zm0 36.117c0-.989-.851-1.814-1.87-1.814s-1.871.825-1.871 1.814.85 1.814 1.871 1.814 1.87-.825 1.87-1.814zm0 36.2c0-.99-.851-1.814-1.87-1.814s-1.871.825-1.871 1.814.85 1.814 1.871 1.814 1.87-.825 1.87-1.814zm0 36.118c0-.99-.851-1.815-1.87-1.815s-1.871.825-1.871 1.815.85 1.813 1.871 1.813 1.87-.824 1.87-1.813zm0 36.116c0-.989-.851-1.813-1.87-1.813s-1.871.824-1.871 1.813.85 1.815 1.871 1.815 1.87-.825 1.87-1.815zm0 36.2c0-.989-.851-1.813-1.87-1.813s-1.871.824-1.871 1.813.85 1.815 1.871 1.815 1.87-.825 1.87-1.815zm0 36.118c0-.99-.851-1.814-1.87-1.814s-1.871.824-1.871 1.814.85 1.813 1.871 1.813 1.87-.823 1.87-1.813zm0 36.117c0-.99-.851-1.814-1.87-1.814s-1.871.824-1.871 1.814.85 1.814 1.871 1.814 1.87-.742 1.87-1.814zm0 36.2c0-.989-.851-1.814-1.87-1.814s-1.871.825-1.871 1.814.85 1.814 1.871 1.814 1.87-.825 1.87-1.814zm0 36.117c0-.989-.851-1.814-1.87-1.814s-1.871.825-1.871 1.814.85 1.815 1.871 1.815 1.87-.825 1.87-1.815zm0 36.2c0-.99-.851-1.814-1.87-1.814s-1.871.824-1.871 1.814.85 1.814 1.871 1.814c1.019-.083 1.87-.824 1.87-1.814zm0 36.117c0-.989-.851-1.814-1.87-1.814s-1.871.825-1.871 1.814.85 1.814 1.871 1.814 1.87-.825 1.87-1.814zm0 36.118c0-.99-.851-1.815-1.87-1.815s-1.871.825-1.871 1.815.85 1.814 1.871 1.814 1.87-.825 1.87-1.814zm0 36.199c0-.989-.851-1.814-1.87-1.814s-1.871.825-1.871 1.814.85 1.815 1.871 1.815 1.87-.825 1.87-1.815zm0 36.117c0-.989-.851-1.813-1.87-1.813s-1.871.824-1.871 1.813.85 1.815 1.871 1.815 1.87-.825 1.87-1.815zm0 36.118c0-.99-.851-1.815-1.87-1.815s-1.871.825-1.871 1.815.85 1.814 1.871 1.814 1.87-.824 1.87-1.814zm0 36.2c0-.99-.851-1.815-1.87-1.815s-1.871.825-1.871 1.815.85 1.814 1.871 1.814 1.87-.825 1.87-1.814zM488.32 1.814c0-.99-.851-1.814-1.871-1.814s-1.871.825-1.871 1.814.85 1.814 1.871 1.814 1.871-.825 1.871-1.814zm0 36.117c0-.989-.851-1.814-1.871-1.814s-1.871.825-1.871 1.814.85 1.814 1.871 1.814 1.871-.825 1.871-1.814zm0 36.2c0-.99-.851-1.814-1.871-1.814s-1.871.825-1.871 1.814.85 1.814 1.871 1.814 1.871-.825 1.871-1.814zm0 36.118c0-.99-.851-1.815-1.871-1.815s-1.871.825-1.871 1.815.85 1.813 1.871 1.813 1.871-.824 1.871-1.813zm0 36.116c0-.989-.851-1.813-1.871-1.813s-1.871.824-1.871 1.813.85 1.815 1.871 1.815 1.871-.825 1.871-1.815zm0 36.2c0-.989-.851-1.813-1.871-1.813s-1.871.824-1.871 1.813.85 1.815 1.871 1.815 1.871-.825 1.871-1.815zm0 36.118c0-.99-.851-1.814-1.871-1.814s-1.871.824-1.871 1.814.85 1.813 1.871 1.813 1.871-.823 1.871-1.813zm0 36.117c0-.99-.851-1.814-1.871-1.814s-1.871.824-1.871 1.814.85 1.814 1.871 1.814 1.871-.742 1.871-1.814zm0 36.2c0-.989-.851-1.814-1.871-1.814s-1.871.825-1.871 1.814.85 1.814 1.871 1.814 1.871-.825 1.871-1.814zm0 36.117c0-.989-.851-1.814-1.871-1.814s-1.871.825-1.871 1.814.85 1.815 1.871 1.815 1.871-.825 1.871-1.815zm0 36.2c0-.99-.851-1.814-1.871-1.814s-1.871.824-1.871 1.814.85 1.814 1.871 1.814c1.02-.083 1.871-.824 1.871-1.814zm0 36.117c0-.989-.851-1.814-1.871-1.814s-1.871.825-1.871 1.814.85 1.814 1.871 1.814 1.871-.825 1.871-1.814zm0 36.118c0-.99-.851-1.815-1.871-1.815s-1.871.825-1.871 1.815.85 1.814 1.871 1.814 1.871-.825 1.871-1.814zm0 36.199c0-.989-.851-1.814-1.871-1.814s-1.871.825-1.871 1.814.85 1.815 1.871 1.815 1.871-.825 1.871-1.815zm0 36.117c0-.989-.851-1.813-1.871-1.813s-1.871.824-1.871 1.813.85 1.815 1.871 1.815 1.871-.825 1.871-1.815zm0 36.118c0-.99-.851-1.815-1.871-1.815s-1.871.825-1.871 1.815.85 1.814 1.871 1.814 1.871-.824 1.871-1.814zm0 36.2c0-.99-.851-1.815-1.871-1.815s-1.871.825-1.871 1.815.85 1.814 1.871 1.814 1.871-.825 1.871-1.814zM450.992 1.814c0-.99-.851-1.814-1.87-1.814s-1.871.825-1.871 1.814.85 1.814 1.871 1.814 1.87-.825 1.87-1.814zm0 36.117c0-.989-.851-1.814-1.87-1.814s-1.871.825-1.871 1.814.85 1.814 1.871 1.814 1.87-.825 1.87-1.814zm0 36.2c0-.99-.851-1.814-1.87-1.814s-1.871.825-1.871 1.814.85 1.814 1.871 1.814 1.87-.825 1.87-1.814zm0 36.118c0-.99-.851-1.815-1.87-1.815s-1.871.825-1.871 1.815.85 1.813 1.871 1.813 1.87-.824 1.87-1.813zm0 36.116c0-.989-.851-1.813-1.87-1.813s-1.871.824-1.871 1.813.85 1.815 1.871 1.815 1.87-.825 1.87-1.815zm0 36.2c0-.989-.851-1.813-1.87-1.813s-1.871.824-1.871 1.813.85 1.815 1.871 1.815 1.87-.825 1.87-1.815zm0 36.118c0-.99-.851-1.814-1.87-1.814s-1.871.824-1.871 1.814.85 1.813 1.871 1.813 1.87-.823 1.87-1.813zm0 36.117c0-.99-.851-1.814-1.87-1.814s-1.871.824-1.871 1.814.85 1.814 1.871 1.814 1.87-.742 1.87-1.814zm0 36.2c0-.989-.851-1.814-1.87-1.814s-1.871.825-1.871 1.814.85 1.814 1.871 1.814 1.87-.825 1.87-1.814zm0 36.117c0-.989-.851-1.814-1.87-1.814s-1.871.825-1.871 1.814.85 1.815 1.871 1.815 1.87-.825 1.87-1.815zm0 36.2c0-.99-.851-1.814-1.87-1.814s-1.871.824-1.871 1.814.85 1.814 1.871 1.814c1.019-.083 1.87-.824 1.87-1.814zm0 36.117c0-.989-.851-1.814-1.87-1.814s-1.871.825-1.871 1.814.85 1.814 1.871 1.814 1.87-.825 1.87-1.814zm0 36.118c0-.99-.851-1.815-1.87-1.815s-1.871.825-1.871 1.815.85 1.814 1.871 1.814 1.87-.825 1.87-1.814zm0 36.199c0-.989-.851-1.814-1.87-1.814s-1.871.825-1.871 1.814.85 1.815 1.871 1.815 1.87-.825 1.87-1.815zm0 36.117c0-.989-.851-1.813-1.87-1.813s-1.871.824-1.871 1.813.85 1.815 1.871 1.815 1.87-.825 1.87-1.815zm0 36.118c0-.99-.851-1.815-1.87-1.815s-1.871.825-1.871 1.815.85 1.814 1.871 1.814 1.87-.824 1.87-1.814zm0 36.2c0-.99-.851-1.815-1.87-1.815s-1.871.825-1.871 1.815.85 1.814 1.871 1.814 1.87-.825 1.87-1.814zM413.749 1.814c0-.99-.85-1.814-1.871-1.814s-1.871.825-1.871 1.814.851 1.814 1.871 1.814 1.871-.825 1.871-1.814zm0 36.117c0-.989-.85-1.814-1.871-1.814s-1.871.825-1.871 1.814.851 1.814 1.871 1.814 1.871-.825 1.871-1.814zm0 36.2c0-.99-.85-1.814-1.871-1.814s-1.871.825-1.871 1.814.851 1.814 1.871 1.814 1.871-.825 1.871-1.814zm0 36.118c0-.99-.85-1.815-1.871-1.815s-1.871.825-1.871 1.815.851 1.813 1.871 1.813 1.871-.824 1.871-1.813zm0 36.116c0-.989-.85-1.813-1.871-1.813s-1.871.824-1.871 1.813.851 1.815 1.871 1.815 1.871-.825 1.871-1.815zm0 36.2c0-.989-.85-1.813-1.871-1.813s-1.871.824-1.871 1.813.851 1.815 1.871 1.815 1.871-.825 1.871-1.815zm0 36.118c0-.99-.85-1.814-1.871-1.814s-1.871.824-1.871 1.814.851 1.813 1.871 1.813 1.871-.823 1.871-1.813zm0 36.117c0-.99-.85-1.814-1.871-1.814s-1.871.824-1.871 1.814.851 1.814 1.871 1.814 1.871-.742 1.871-1.814zm0 36.2c0-.989-.85-1.814-1.871-1.814s-1.871.825-1.871 1.814.851 1.814 1.871 1.814 1.871-.825 1.871-1.814zm0 36.117c0-.989-.85-1.814-1.871-1.814s-1.871.825-1.871 1.814.851 1.815 1.871 1.815 1.871-.825 1.871-1.815zm0 36.2c0-.99-.85-1.814-1.871-1.814s-1.871.824-1.871 1.814.851 1.814 1.871 1.814c1.021-.083 1.871-.824 1.871-1.814zm0 36.117c0-.989-.85-1.814-1.871-1.814s-1.871.825-1.871 1.814.851 1.814 1.871 1.814 1.871-.825 1.871-1.814zm0 36.118c0-.99-.85-1.815-1.871-1.815s-1.871.825-1.871 1.815.851 1.814 1.871 1.814 1.871-.825 1.871-1.814zm0 36.199c0-.989-.85-1.814-1.871-1.814s-1.871.825-1.871 1.814.851 1.815 1.871 1.815 1.871-.825 1.871-1.815zm0 36.117c0-.989-.85-1.813-1.871-1.813s-1.871.824-1.871 1.813.851 1.815 1.871 1.815 1.871-.825 1.871-1.815zm0 36.118c0-.99-.85-1.815-1.871-1.815s-1.871.825-1.871 1.815.851 1.814 1.871 1.814 1.871-.824 1.871-1.814zm0 36.2c0-.99-.85-1.815-1.871-1.815s-1.871.825-1.871 1.815.851 1.814 1.871 1.814 1.871-.825 1.871-1.814zM376.421 1.814c0-.99-.85-1.814-1.87-1.814s-1.871.825-1.871 1.814.851 1.814 1.871 1.814c1.106 0 1.87-.825 1.87-1.814zm0 36.117c0-.989-.85-1.814-1.87-1.814s-1.871.825-1.871 1.814.851 1.814 1.871 1.814c1.106 0 1.87-.825 1.87-1.814zm0 36.2c0-.99-.85-1.814-1.87-1.814s-1.871.825-1.871 1.814.851 1.814 1.871 1.814c1.106 0 1.87-.825 1.87-1.814zm0 36.118c0-.99-.85-1.815-1.87-1.815s-1.871.825-1.871 1.815.851 1.813 1.871 1.813c1.106 0 1.87-.824 1.87-1.813zm0 36.116c0-.989-.85-1.813-1.87-1.813s-1.871.824-1.871 1.813.851 1.815 1.871 1.815c1.106 0 1.87-.825 1.87-1.815zm0 36.2c0-.989-.85-1.813-1.87-1.813s-1.871.824-1.871 1.813.851 1.815 1.871 1.815c1.106 0 1.87-.825 1.87-1.815zm0 36.118c0-.99-.85-1.814-1.87-1.814s-1.871.824-1.871 1.814.851 1.813 1.871 1.813c1.106 0 1.87-.823 1.87-1.813zm0 36.117c0-.99-.85-1.814-1.87-1.814s-1.871.824-1.871 1.814.851 1.814 1.871 1.814c1.106 0 1.87-.742 1.87-1.814zm0 36.2c0-.989-.85-1.814-1.87-1.814s-1.871.825-1.871 1.814.851 1.814 1.871 1.814c1.106 0 1.87-.825 1.87-1.814zm0 36.117c0-.989-.85-1.814-1.87-1.814s-1.871.825-1.871 1.814.851 1.815 1.871 1.815c1.106 0 1.87-.825 1.87-1.815zm0 36.2c0-.99-.85-1.814-1.87-1.814s-1.871.824-1.871 1.814.851 1.814 1.871 1.814c1.106-.083 1.87-.824 1.87-1.814zm0 36.117c0-.989-.85-1.814-1.87-1.814s-1.871.825-1.871 1.814.851 1.814 1.871 1.814c1.106 0 1.87-.825 1.87-1.814zm0 36.118c0-.99-.85-1.815-1.87-1.815s-1.871.825-1.871 1.815.851 1.814 1.871 1.814c1.106 0 1.87-.825 1.87-1.814zm0 36.199c0-.989-.85-1.814-1.87-1.814s-1.871.825-1.871 1.814.851 1.815 1.871 1.815c1.106 0 1.87-.825 1.87-1.815zm0 36.117c0-.989-.85-1.813-1.87-1.813s-1.871.824-1.871 1.813.851 1.815 1.871 1.815c1.106 0 1.87-.825 1.87-1.815zm0 36.118c0-.99-.85-1.815-1.87-1.815s-1.871.825-1.871 1.815.851 1.814 1.871 1.814c1.106 0 1.87-.824 1.87-1.814zm0 36.2c0-.99-.85-1.815-1.87-1.815s-1.871.825-1.871 1.815.851 1.814 1.871 1.814c1.106 0 1.87-.825 1.87-1.814zM339.179 1.814c0-.99-.85-1.814-1.871-1.814s-1.871.825-1.871 1.814.851 1.814 1.871 1.814 1.871-.825 1.871-1.814zm0 36.117c0-.989-.85-1.814-1.871-1.814s-1.871.825-1.871 1.814.851 1.814 1.871 1.814 1.871-.825 1.871-1.814zm0 36.2c0-.99-.85-1.814-1.871-1.814s-1.871.825-1.871 1.814.851 1.814 1.871 1.814 1.871-.825 1.871-1.814zm0 36.118c0-.99-.85-1.815-1.871-1.815s-1.871.825-1.871 1.815.851 1.813 1.871 1.813 1.871-.824 1.871-1.813zm0 36.116c0-.989-.85-1.813-1.871-1.813s-1.871.824-1.871 1.813.851 1.815 1.871 1.815 1.871-.825 1.871-1.815zm0 36.2c0-.989-.85-1.813-1.871-1.813s-1.871.824-1.871 1.813.851 1.815 1.871 1.815 1.871-.825 1.871-1.815zm0 36.118c0-.99-.85-1.814-1.871-1.814s-1.871.824-1.871 1.814.851 1.813 1.871 1.813 1.871-.823 1.871-1.813zm0 36.117c0-.99-.85-1.814-1.871-1.814s-1.871.824-1.871 1.814.851 1.814 1.871 1.814 1.871-.742 1.871-1.814zm0 36.2c0-.989-.85-1.814-1.871-1.814s-1.871.825-1.871 1.814.851 1.814 1.871 1.814 1.871-.825 1.871-1.814zm0 36.117c0-.989-.85-1.814-1.871-1.814s-1.871.825-1.871 1.814.851 1.815 1.871 1.815 1.871-.825 1.871-1.815zm0 36.2c0-.99-.85-1.814-1.871-1.814s-1.871.824-1.871 1.814.851 1.814 1.871 1.814c1.021-.083 1.871-.824 1.871-1.814zm0 36.117c0-.989-.85-1.814-1.871-1.814s-1.871.825-1.871 1.814.851 1.814 1.871 1.814 1.871-.825 1.871-1.814zm0 36.118c0-.99-.85-1.815-1.871-1.815s-1.871.825-1.871 1.815.851 1.814 1.871 1.814 1.871-.825 1.871-1.814zm0 36.199c0-.989-.85-1.814-1.871-1.814s-1.871.825-1.871 1.814.851 1.815 1.871 1.815 1.871-.825 1.871-1.815zm0 36.117c0-.989-.85-1.813-1.871-1.813s-1.871.824-1.871 1.813.851 1.815 1.871 1.815 1.871-.825 1.871-1.815zm0 36.118c0-.99-.85-1.815-1.871-1.815s-1.871.825-1.871 1.815.851 1.814 1.871 1.814 1.871-.824 1.871-1.814zm0 36.2c0-.99-.85-1.815-1.871-1.815s-1.871.825-1.871 1.815.851 1.814 1.871 1.814 1.871-.825 1.871-1.814zM301.936 1.814c0-.99-.85-1.814-1.87-1.814s-1.871.825-1.871 1.814.851 1.814 1.871 1.814 1.87-.825 1.87-1.814zm0 36.117c0-.989-.85-1.814-1.87-1.814s-1.871.825-1.871 1.814.851 1.814 1.871 1.814 1.87-.825 1.87-1.814zm0 36.2c0-.99-.85-1.814-1.87-1.814s-1.871.825-1.871 1.814.851 1.814 1.871 1.814 1.87-.825 1.87-1.814zm0 36.118c0-.99-.85-1.815-1.87-1.815s-1.871.825-1.871 1.815.851 1.813 1.871 1.813 1.87-.824 1.87-1.813zm0 36.116c0-.989-.85-1.813-1.87-1.813s-1.871.824-1.871 1.813.851 1.815 1.871 1.815 1.87-.825 1.87-1.815zm0 36.2c0-.989-.85-1.813-1.87-1.813s-1.871.824-1.871 1.813.851 1.815 1.871 1.815 1.87-.825 1.87-1.815zm0 36.118c0-.99-.85-1.814-1.87-1.814s-1.871.824-1.871 1.814.851 1.813 1.871 1.813 1.87-.823 1.87-1.813zm0 36.117c0-.99-.85-1.814-1.87-1.814s-1.871.824-1.871 1.814.851 1.814 1.871 1.814 1.87-.742 1.87-1.814zm0 36.2c0-.989-.85-1.814-1.87-1.814s-1.871.825-1.871 1.814.851 1.814 1.871 1.814 1.87-.825 1.87-1.814zm0 36.117c0-.989-.85-1.814-1.87-1.814s-1.871.825-1.871 1.814.851 1.815 1.871 1.815 1.87-.825 1.87-1.815zm0 36.2c0-.99-.85-1.814-1.87-1.814s-1.871.824-1.871 1.814.851 1.814 1.871 1.814c1.02-.083 1.87-.824 1.87-1.814zm0 36.117c0-.989-.85-1.814-1.87-1.814s-1.871.825-1.871 1.814.851 1.814 1.871 1.814 1.87-.825 1.87-1.814zm0 36.118c0-.99-.85-1.815-1.87-1.815s-1.871.825-1.871 1.815.851 1.814 1.871 1.814 1.87-.825 1.87-1.814zm0 36.199c0-.989-.85-1.814-1.87-1.814s-1.871.825-1.871 1.814.851 1.815 1.871 1.815 1.87-.825 1.87-1.815zm0 36.117c0-.989-.85-1.813-1.87-1.813s-1.871.824-1.871 1.813.851 1.815 1.871 1.815 1.87-.825 1.87-1.815zm0 36.118c0-.99-.85-1.815-1.87-1.815s-1.871.825-1.871 1.815.851 1.814 1.871 1.814 1.87-.824 1.87-1.814zm0 36.2c0-.99-.85-1.815-1.87-1.815s-1.871.825-1.871 1.815.851 1.814 1.871 1.814 1.87-.825 1.87-1.814zM264.609 1.814c0-.99-.85-1.814-1.871-1.814s-1.871.825-1.871 1.814.851 1.814 1.871 1.814c1.106 0 1.871-.825 1.871-1.814zm0 36.117c0-.989-.85-1.814-1.871-1.814s-1.871.825-1.871 1.814.851 1.814 1.871 1.814c1.106 0 1.871-.825 1.871-1.814zm0 36.2c0-.99-.85-1.814-1.871-1.814s-1.871.825-1.871 1.814.851 1.814 1.871 1.814c1.106 0 1.871-.825 1.871-1.814zm0 36.118c0-.99-.85-1.815-1.871-1.815s-1.871.825-1.871 1.815.851 1.813 1.871 1.813c1.106 0 1.871-.824 1.871-1.813zm0 36.116c0-.989-.85-1.813-1.871-1.813s-1.871.824-1.871 1.813.851 1.815 1.871 1.815c1.106 0 1.871-.825 1.871-1.815zm0 36.2c0-.989-.85-1.813-1.871-1.813s-1.871.824-1.871 1.813.851 1.815 1.871 1.815c1.106 0 1.871-.825 1.871-1.815zm0 36.118c0-.99-.85-1.814-1.871-1.814s-1.871.824-1.871 1.814.851 1.813 1.871 1.813c1.106 0 1.871-.823 1.871-1.813zm0 36.117c0-.99-.85-1.814-1.871-1.814s-1.871.824-1.871 1.814.851 1.814 1.871 1.814c1.106 0 1.871-.742 1.871-1.814zm0 36.2c0-.989-.85-1.814-1.871-1.814s-1.871.825-1.871 1.814.851 1.814 1.871 1.814c1.106 0 1.871-.825 1.871-1.814zm0 36.117c0-.989-.85-1.814-1.871-1.814s-1.871.825-1.871 1.814.851 1.815 1.871 1.815c1.106 0 1.871-.825 1.871-1.815zm0 36.2c0-.99-.85-1.814-1.871-1.814s-1.871.824-1.871 1.814.851 1.814 1.871 1.814c1.106-.083 1.871-.824 1.871-1.814zm0 36.117c0-.989-.85-1.814-1.871-1.814s-1.871.825-1.871 1.814.851 1.814 1.871 1.814c1.106 0 1.871-.825 1.871-1.814zm0 36.118c0-.99-.85-1.815-1.871-1.815s-1.871.825-1.871 1.815.851 1.814 1.871 1.814c1.106 0 1.871-.825 1.871-1.814zm0 36.199c0-.989-.85-1.814-1.871-1.814s-1.871.825-1.871 1.814.851 1.815 1.871 1.815c1.106 0 1.871-.825 1.871-1.815zm0 36.117c0-.989-.85-1.813-1.871-1.813s-1.871.824-1.871 1.813.851 1.815 1.871 1.815c1.106 0 1.871-.825 1.871-1.815zm0 36.118c0-.99-.85-1.815-1.871-1.815s-1.871.825-1.871 1.815.851 1.814 1.871 1.814c1.106 0 1.871-.824 1.871-1.814zm0 36.2c0-.99-.85-1.815-1.871-1.815s-1.871.825-1.871 1.815.851 1.814 1.871 1.814c1.106 0 1.871-.825 1.871-1.814zM227.366 1.814c0-.99-.85-1.814-1.87-1.814s-1.871.825-1.871 1.814.851 1.814 1.871 1.814 1.87-.825 1.87-1.814zm0 36.117c0-.989-.85-1.814-1.87-1.814s-1.871.825-1.871 1.814.851 1.814 1.871 1.814 1.87-.825 1.87-1.814zm0 36.2c0-.99-.85-1.814-1.87-1.814s-1.871.825-1.871 1.814.851 1.814 1.871 1.814 1.87-.825 1.87-1.814zm0 36.118c0-.99-.85-1.815-1.87-1.815s-1.871.825-1.871 1.815.851 1.813 1.871 1.813 1.87-.824 1.87-1.813zm0 36.116c0-.989-.85-1.813-1.87-1.813s-1.871.824-1.871 1.813.851 1.815 1.871 1.815 1.87-.825 1.87-1.815zm0 36.2c0-.989-.85-1.813-1.87-1.813s-1.871.824-1.871 1.813.851 1.815 1.871 1.815 1.87-.825 1.87-1.815zm0 36.118c0-.99-.85-1.814-1.87-1.814s-1.871.824-1.871 1.814.851 1.813 1.871 1.813 1.87-.823 1.87-1.813zm0 36.117c0-.99-.85-1.814-1.87-1.814s-1.871.824-1.871 1.814.851 1.814 1.871 1.814 1.87-.742 1.87-1.814zm0 36.2c0-.989-.85-1.814-1.87-1.814s-1.871.825-1.871 1.814.851 1.814 1.871 1.814 1.87-.825 1.87-1.814zm0 36.117c0-.989-.85-1.814-1.87-1.814s-1.871.825-1.871 1.814.851 1.815 1.871 1.815 1.87-.825 1.87-1.815zm0 36.2c0-.99-.85-1.814-1.87-1.814s-1.871.824-1.871 1.814.851 1.814 1.871 1.814c1.02-.083 1.87-.824 1.87-1.814zm0 36.117c0-.989-.85-1.814-1.87-1.814s-1.871.825-1.871 1.814.851 1.814 1.871 1.814 1.87-.825 1.87-1.814zm0 36.118c0-.99-.85-1.815-1.87-1.815s-1.871.825-1.871 1.815.851 1.814 1.871 1.814 1.87-.825 1.87-1.814zm0 36.199c0-.989-.85-1.814-1.87-1.814s-1.871.825-1.871 1.814.851 1.815 1.871 1.815 1.87-.825 1.87-1.815zm0 36.117c0-.989-.85-1.813-1.87-1.813s-1.871.824-1.871 1.813.851 1.815 1.871 1.815 1.87-.825 1.87-1.815zm0 36.118c0-.99-.85-1.815-1.87-1.815s-1.871.825-1.871 1.815.851 1.814 1.871 1.814 1.87-.824 1.87-1.814zm0 36.2c0-.99-.85-1.815-1.87-1.815s-1.871.825-1.871 1.815.851 1.814 1.871 1.814 1.87-.825 1.87-1.814zM190.124 1.814c0-.99-.85-1.814-1.871-1.814s-1.871.825-1.871 1.814.851 1.814 1.871 1.814 1.871-.825 1.871-1.814zm0 36.117c0-.989-.85-1.814-1.871-1.814s-1.871.825-1.871 1.814.851 1.814 1.871 1.814 1.871-.825 1.871-1.814zm0 36.2c0-.99-.85-1.814-1.871-1.814s-1.871.825-1.871 1.814.851 1.814 1.871 1.814 1.871-.825 1.871-1.814zm0 36.118c0-.99-.85-1.815-1.871-1.815s-1.871.825-1.871 1.815.851 1.813 1.871 1.813 1.871-.824 1.871-1.813zm0 36.116c0-.989-.85-1.813-1.871-1.813s-1.871.824-1.871 1.813.851 1.815 1.871 1.815 1.871-.825 1.871-1.815zm0 36.2c0-.989-.85-1.813-1.871-1.813s-1.871.824-1.871 1.813.851 1.815 1.871 1.815 1.871-.825 1.871-1.815zm0 36.118c0-.99-.85-1.814-1.871-1.814s-1.871.824-1.871 1.814.851 1.813 1.871 1.813 1.871-.823 1.871-1.813zm0 36.117c0-.99-.85-1.814-1.871-1.814s-1.871.824-1.871 1.814.851 1.814 1.871 1.814 1.871-.742 1.871-1.814zm0 36.2c0-.989-.85-1.814-1.871-1.814s-1.871.825-1.871 1.814.851 1.814 1.871 1.814 1.871-.825 1.871-1.814zm0 36.117c0-.989-.85-1.814-1.871-1.814s-1.871.825-1.871 1.814.851 1.815 1.871 1.815 1.871-.825 1.871-1.815zm0 36.2c0-.99-.85-1.814-1.871-1.814s-1.871.824-1.871 1.814.851 1.814 1.871 1.814c1.021-.083 1.871-.824 1.871-1.814zm0 36.117c0-.989-.85-1.814-1.871-1.814s-1.871.825-1.871 1.814.851 1.814 1.871 1.814 1.871-.825 1.871-1.814zm0 36.118c0-.99-.85-1.815-1.871-1.815s-1.871.825-1.871 1.815.851 1.814 1.871 1.814 1.871-.825 1.871-1.814zm0 36.199c0-.989-.85-1.814-1.871-1.814s-1.871.825-1.871 1.814.851 1.815 1.871 1.815 1.871-.825 1.871-1.815zm0 36.117c0-.989-.85-1.813-1.871-1.813s-1.871.824-1.871 1.813.851 1.815 1.871 1.815 1.871-.825 1.871-1.815zm0 36.118c0-.99-.85-1.815-1.871-1.815s-1.871.825-1.871 1.815.851 1.814 1.871 1.814 1.871-.824 1.871-1.814zm0 36.2c0-.99-.85-1.815-1.871-1.815s-1.871.825-1.871 1.815.851 1.814 1.871 1.814 1.871-.825 1.871-1.814zM152.796 1.814c0-.99-.85-1.814-1.87-1.814s-1.871.825-1.871 1.814.851 1.814 1.871 1.814 1.87-.825 1.87-1.814zm0 36.117c0-.989-.85-1.814-1.87-1.814s-1.871.825-1.871 1.814.851 1.814 1.871 1.814 1.87-.825 1.87-1.814zm0 36.2c0-.99-.85-1.814-1.87-1.814s-1.871.825-1.871 1.814.851 1.814 1.871 1.814 1.87-.825 1.87-1.814zm0 36.118c0-.99-.85-1.815-1.87-1.815s-1.871.825-1.871 1.815.851 1.813 1.871 1.813 1.87-.824 1.87-1.813zm0 36.116c0-.989-.85-1.813-1.87-1.813s-1.871.824-1.871 1.813.851 1.815 1.871 1.815 1.87-.825 1.87-1.815zm0 36.2c0-.989-.85-1.813-1.87-1.813s-1.871.824-1.871 1.813.851 1.815 1.871 1.815 1.87-.825 1.87-1.815zm0 36.118c0-.99-.85-1.814-1.87-1.814s-1.871.824-1.871 1.814.851 1.813 1.871 1.813 1.87-.823 1.87-1.813zm0 36.117c0-.99-.85-1.814-1.87-1.814s-1.871.824-1.871 1.814.851 1.814 1.871 1.814 1.87-.742 1.87-1.814zm0 36.2c0-.989-.85-1.814-1.87-1.814s-1.871.825-1.871 1.814.851 1.814 1.871 1.814 1.87-.825 1.87-1.814zm0 36.117c0-.989-.85-1.814-1.87-1.814s-1.871.825-1.871 1.814.851 1.815 1.871 1.815 1.87-.825 1.87-1.815zm0 36.2c0-.99-.85-1.814-1.87-1.814s-1.871.824-1.871 1.814.851 1.814 1.871 1.814c1.02-.083 1.87-.824 1.87-1.814zm0 36.117c0-.989-.85-1.814-1.87-1.814s-1.871.825-1.871 1.814.851 1.814 1.871 1.814 1.87-.825 1.87-1.814zm0 36.118c0-.99-.85-1.815-1.87-1.815s-1.871.825-1.871 1.815.851 1.814 1.871 1.814 1.87-.825 1.87-1.814zm0 36.199c0-.989-.85-1.814-1.87-1.814s-1.871.825-1.871 1.814.851 1.815 1.871 1.815 1.87-.825 1.87-1.815zm0 36.117c0-.989-.85-1.813-1.87-1.813s-1.871.824-1.871 1.813.851 1.815 1.871 1.815 1.87-.825 1.87-1.815zm0 36.118c0-.99-.85-1.815-1.87-1.815s-1.871.825-1.871 1.815.851 1.814 1.871 1.814 1.87-.824 1.87-1.814zm0 36.2c0-.99-.85-1.815-1.87-1.815s-1.871.825-1.871 1.815.851 1.814 1.871 1.814 1.87-.825 1.87-1.814zM115.554 1.814c0-.99-.85-1.814-1.871-1.814s-1.871.825-1.871 1.814.851 1.814 1.871 1.814 1.871-.825 1.871-1.814zm0 36.117c0-.989-.85-1.814-1.871-1.814s-1.871.825-1.871 1.814.851 1.814 1.871 1.814 1.871-.825 1.871-1.814zm0 36.2c0-.99-.85-1.814-1.871-1.814s-1.871.825-1.871 1.814.851 1.814 1.871 1.814 1.871-.825 1.871-1.814zm0 36.118c0-.99-.85-1.815-1.871-1.815s-1.871.825-1.871 1.815.851 1.813 1.871 1.813 1.871-.824 1.871-1.813zm0 36.116c0-.989-.85-1.813-1.871-1.813s-1.871.824-1.871 1.813.851 1.815 1.871 1.815 1.871-.825 1.871-1.815zm0 36.2c0-.989-.85-1.813-1.871-1.813s-1.871.824-1.871 1.813.851 1.815 1.871 1.815 1.871-.825 1.871-1.815zm0 36.118c0-.99-.85-1.814-1.871-1.814s-1.871.824-1.871 1.814.851 1.813 1.871 1.813 1.871-.823 1.871-1.813zm0 36.117c0-.99-.85-1.814-1.871-1.814s-1.871.824-1.871 1.814.851 1.814 1.871 1.814 1.871-.742 1.871-1.814zm0 36.2c0-.989-.85-1.814-1.871-1.814s-1.871.825-1.871 1.814.851 1.814 1.871 1.814 1.871-.825 1.871-1.814zm0 36.117c0-.989-.85-1.814-1.871-1.814s-1.871.825-1.871 1.814.851 1.815 1.871 1.815 1.871-.825 1.871-1.815zm0 36.2c0-.99-.85-1.814-1.871-1.814s-1.871.824-1.871 1.814.851 1.814 1.871 1.814c1.021-.083 1.871-.824 1.871-1.814zm0 36.117c0-.989-.85-1.814-1.871-1.814s-1.871.825-1.871 1.814.851 1.814 1.871 1.814 1.871-.825 1.871-1.814zm0 36.118c0-.99-.85-1.815-1.871-1.815s-1.871.825-1.871 1.815.851 1.814 1.871 1.814 1.871-.825 1.871-1.814zm0 36.199c0-.989-.85-1.814-1.871-1.814s-1.871.825-1.871 1.814.851 1.815 1.871 1.815 1.871-.825 1.871-1.815zm0 36.117c0-.989-.85-1.813-1.871-1.813s-1.871.824-1.871 1.813.851 1.815 1.871 1.815 1.871-.825 1.871-1.815zm0 36.118c0-.99-.85-1.815-1.871-1.815s-1.871.825-1.871 1.815.851 1.814 1.871 1.814 1.871-.824 1.871-1.814zm0 36.2c0-.99-.85-1.815-1.871-1.815s-1.871.825-1.871 1.815.851 1.814 1.871 1.814 1.871-.825 1.871-1.814zM78.311 1.814c0-.99-.85-1.814-1.871-1.814S74.57.825 74.57 1.814s.85 1.814 1.871 1.814 1.871-.825 1.871-1.814zm0 36.117c0-.989-.85-1.814-1.871-1.814s-1.871.825-1.871 1.814.85 1.814 1.871 1.814 1.871-.825 1.871-1.814zm0 36.2c0-.99-.85-1.814-1.871-1.814s-1.871.825-1.871 1.814.85 1.814 1.871 1.814 1.871-.825 1.871-1.814zm0 36.118c0-.99-.85-1.815-1.871-1.815s-1.871.825-1.871 1.815.85 1.813 1.871 1.813 1.871-.824 1.871-1.813zm0 36.116c0-.989-.85-1.813-1.871-1.813s-1.871.824-1.871 1.813.85 1.815 1.871 1.815 1.871-.825 1.871-1.815zm0 36.2c0-.989-.85-1.813-1.871-1.813s-1.871.824-1.871 1.813.85 1.815 1.871 1.815 1.871-.825 1.871-1.815zm0 36.118c0-.99-.85-1.814-1.871-1.814s-1.871.824-1.871 1.814.85 1.813 1.871 1.813 1.871-.823 1.871-1.813zm0 36.117c0-.99-.85-1.814-1.871-1.814s-1.871.824-1.871 1.814.85 1.814 1.871 1.814 1.871-.742 1.871-1.814zm0 36.2c0-.989-.85-1.814-1.871-1.814s-1.871.825-1.871 1.814.85 1.814 1.871 1.814 1.871-.825 1.871-1.814zm0 36.117c0-.989-.85-1.814-1.871-1.814s-1.871.825-1.871 1.814.85 1.815 1.871 1.815 1.871-.825 1.871-1.815zm0 36.2c0-.99-.85-1.814-1.871-1.814s-1.871.824-1.871 1.814.85 1.814 1.871 1.814c1.02-.083 1.871-.824 1.871-1.814zm0 36.117c0-.989-.85-1.814-1.871-1.814s-1.871.825-1.871 1.814.85 1.814 1.871 1.814 1.871-.825 1.871-1.814zm0 36.118c0-.99-.85-1.815-1.871-1.815s-1.871.825-1.871 1.815.85 1.814 1.871 1.814 1.871-.825 1.871-1.814zm0 36.199c0-.989-.85-1.814-1.871-1.814s-1.871.825-1.871 1.814.85 1.815 1.871 1.815 1.871-.825 1.871-1.815zm0 36.117c0-.989-.85-1.813-1.871-1.813s-1.871.824-1.871 1.813.85 1.815 1.871 1.815 1.871-.825 1.871-1.815zm0 36.118c0-.99-.85-1.815-1.871-1.815s-1.871.825-1.871 1.815.85 1.814 1.871 1.814 1.871-.824 1.871-1.814zm0 36.2c0-.99-.85-1.815-1.871-1.815s-1.871.825-1.871 1.815.85 1.814 1.871 1.814 1.871-.825 1.871-1.814zM40.984 1.814c0-.99-.85-1.814-1.871-1.814s-1.871.825-1.871 1.814.85 1.814 1.871 1.814 1.871-.825 1.871-1.814zm0 36.117c0-.989-.85-1.814-1.871-1.814s-1.871.825-1.871 1.814.85 1.814 1.871 1.814 1.871-.825 1.871-1.814zm0 36.2c0-.99-.85-1.814-1.871-1.814s-1.871.825-1.871 1.814.85 1.814 1.871 1.814 1.871-.825 1.871-1.814zm0 36.118c0-.99-.85-1.815-1.871-1.815s-1.871.825-1.871 1.815.85 1.813 1.871 1.813 1.871-.824 1.871-1.813zm0 36.116c0-.989-.85-1.813-1.871-1.813s-1.871.824-1.871 1.813.85 1.815 1.871 1.815 1.871-.825 1.871-1.815zm0 36.2c0-.989-.85-1.813-1.871-1.813s-1.871.824-1.871 1.813.85 1.815 1.871 1.815 1.871-.825 1.871-1.815zm0 36.118c0-.99-.85-1.814-1.871-1.814s-1.871.824-1.871 1.814.85 1.813 1.871 1.813 1.871-.823 1.871-1.813zm0 36.117c0-.99-.85-1.814-1.871-1.814s-1.871.824-1.871 1.814.85 1.814 1.871 1.814 1.871-.742 1.871-1.814zm0 36.2c0-.989-.85-1.814-1.871-1.814s-1.871.825-1.871 1.814.85 1.814 1.871 1.814 1.871-.825 1.871-1.814zm0 36.117c0-.989-.85-1.814-1.871-1.814s-1.871.825-1.871 1.814.85 1.815 1.871 1.815 1.871-.825 1.871-1.815zm0 36.2c0-.99-.85-1.814-1.871-1.814s-1.871.824-1.871 1.814.85 1.814 1.871 1.814c1.02-.083 1.871-.824 1.871-1.814zm0 36.117c0-.989-.85-1.814-1.871-1.814s-1.871.825-1.871 1.814.85 1.814 1.871 1.814 1.871-.825 1.871-1.814zm0 36.118c0-.99-.85-1.815-1.871-1.815s-1.871.825-1.871 1.815.85 1.814 1.871 1.814 1.871-.825 1.871-1.814zm0 36.199c0-.989-.85-1.814-1.871-1.814s-1.871.825-1.871 1.814.85 1.815 1.871 1.815 1.871-.825 1.871-1.815zm0 36.117c0-.989-.85-1.813-1.871-1.813s-1.871.824-1.871 1.813.85 1.815 1.871 1.815 1.871-.825 1.871-1.815zm0 36.118c0-.99-.85-1.815-1.871-1.815s-1.871.825-1.871 1.815.85 1.814 1.871 1.814 1.871-.824 1.871-1.814zM39.113 582c-1.02 0-1.871-.825-1.871-1.814s.85-1.815 1.871-1.815 1.871.825 1.871 1.815-.85 1.814-1.871 1.814z" fill="#ddd"/></svg>