<svg xmlns="http://www.w3.org/2000/svg" width="35" height="35" fill="#faeef1" xmlns:v="https://vecta.io/nano"><path d="M3.214.098C1.395.488 0 2.225 0 4.092c0 1.887 1.402 3.611 3.248 4 .267.055.663.103.896.103a4.93 4.93 0 0 0 1.744-.41l.287-.15 1.313 1.313L8.8 10.26l.738-.732.732-.739-1.313-1.313-1.313-1.313.15-.287a4.93 4.93 0 0 0 .41-1.744C8.198 2.198 6.817.481 4.957.092c-.588-.123-1.156-.123-1.744.007zm26.803 0c-1.511.321-2.79 1.614-3.111 3.139a5.26 5.26 0 0 0-.102.896 4.93 4.93 0 0 0 .41 1.744l.15.287-1.313 1.313-1.313 1.313.732.739.732.739 1.32-1.32 1.313-1.313.287.15a4.93 4.93 0 0 0 1.744.41c1.935-.007 3.651-1.388 4.041-3.248a3.98 3.98 0 0 0-1.121-3.734C32.766.194 31.412-.203 30.017.098zm-13.47 8.206c-2.202.274-4.041 1.169-5.573 2.722a9.01 9.01 0 0 0-2.544 4.759c-.164.807-.164 2.612 0 3.419.349 1.675 1.156 3.31 2.181 4.411l.376.404.041-.65c.048-.773.178-1.306.486-1.942a5.08 5.08 0 0 1 2.209-2.304c.232-.123.424-.239.41-.26-.007-.021-.13-.267-.274-.547-.602-1.21-.595-2.585.034-3.782a5.16 5.16 0 0 1 1.675-1.675c.54-.287 1.354-.492 1.935-.492a4.69 4.69 0 0 1 1.935.492c.554.287 1.388 1.121 1.675 1.675.629 1.197.636 2.571.034 3.782l-.274.547c-.014.021.178.137.41.26a5.15 5.15 0 0 1 2.209 2.304c.308.643.438 1.169.486 1.942l.041.65.376-.404c1.026-1.101 1.832-2.735 2.181-4.411.164-.807.164-2.612 0-3.419a10.01 10.01 0 0 0-1.45-3.487c-.431-.65-1.764-1.99-2.4-2.407-1.101-.732-2.291-1.231-3.46-1.457a14.83 14.83 0 0 0-2.721-.13zm.294 6.237c-1.716.615-1.86 2.954-.239 3.754a2.09 2.09 0 0 0 1.805 0c.732-.362 1.114-.985 1.114-1.826 0-.581-.144-.971-.506-1.388-.492-.554-1.456-.8-2.174-.54zm-1.518 6.14c-1.06.28-1.88 1.115-2.161 2.181-.075.287-.103.745-.103 1.58v1.176l.636.274c1.415.609 2.284.793 3.774.8 1.538 0 2.434-.185 3.85-.8l.629-.274v-1.176c0-.834-.027-1.292-.103-1.58-.287-1.08-1.108-1.901-2.188-2.188-.561-.144-3.788-.144-4.335.007zM7.48 26.049l-1.306 1.306-.287-.151a4.93 4.93 0 0 0-1.744-.41C1.88 26.801 0 28.668 0 30.897c0 1.887 1.402 3.61 3.248 4 1.395.294 2.715-.109 3.733-1.121.8-.8 1.217-1.805 1.224-2.92a4.93 4.93 0 0 0-.41-1.744l-.15-.287 1.313-1.313 1.32-1.32-.732-.725-.745-.725c-.007 0-.602.588-1.32 1.306zm17.963-.574l-.711.718 1.32 1.32 1.313 1.313-.15.287a4.93 4.93 0 0 0-.41 1.744C26.81 33.12 28.677 35 30.906 35c1.887 0 3.61-1.402 4-3.248a3.98 3.98 0 0 0-1.121-3.734c-.8-.8-1.805-1.217-2.92-1.224a4.93 4.93 0 0 0-1.744.41l-.287.15-1.306-1.306-1.34-1.299c-.02 0-.356.328-.745.725z"/></svg>