<svg xmlns="http://www.w3.org/2000/svg" width="30" height="30" fill="none" xmlns:v="https://vecta.io/nano"><path fill-rule="evenodd" d="M15 30c8.284 0 15-6.716 15-15S23.284 0 15 0 0 6.716 0 15s6.716 15 15 15zm7.163-18.27c0-.164 0-.327-.012-.491.719-.541 1.345-1.203 1.849-1.957a7.25 7.25 0 0 1-2.124.586 3.76 3.76 0 0 0 1.622-2.086 7.16 7.16 0 0 1-2.341.914c-.674-.739-1.633-1.195-2.695-1.195-.485 0-.964.097-1.412.287s-.854.469-1.197.821a3.77 3.77 0 0 0-.599.808 3.92 3.92 0 0 0-.201.42 3.86 3.86 0 0 0-.281 1.449 4.38 4.38 0 0 0 .092.867c-1.468-.077-2.903-.469-4.214-1.152a10.55 10.55 0 0 1-3.394-2.809 3.83 3.83 0 0 0-.501 1.909c-.001.624.149 1.238.435 1.788a3.75 3.75 0 0 0 1.21 1.364c-.605-.024-1.176-.199-1.667-.48v.047c-.001.875.293 1.722.832 2.4a3.67 3.67 0 0 0 2.125 1.315c-.308.082-.64.129-.971.129-.24 0-.469-.023-.697-.058.139.442.356.852.639 1.21.196.25.423.475.677.669.618.471 1.365.731 2.134.746a7.27 7.27 0 0 1-4.581 1.617A7.52 7.52 0 0 1 6 20.8a10.23 10.23 0 0 0 5.666 1.7c6.784 0 10.497-5.766 10.497-10.77z" fill="#1da1f2"/></svg>