<svg xmlns="http://www.w3.org/2000/svg" xmlns:xlink="http://www.w3.org/1999/xlink" width="203" height="200" fill="none" xmlns:v="https://vecta.io/nano"><style><![CDATA[.B{fill:#27debf}.C{fill:#455a64}.D{fill:#e0e0e0}.E{fill:#000}.F{fill:#37474f}.G{fill:#263238}.H{fill:#ffa8a7}.I{fill:#f0f0f0}]]></style><path d="M101.5 200c56.057 0 101.5-25.935 101.5-57.927s-45.443-57.927-101.5-57.927S0 110.081 0 142.073 45.443 200 101.5 200z" class="I"/><path d="M133.979 157.343a5.45 5.45 0 0 0-.811-2.816l-.347-.525-.021-.026-.377-.459-.04-.039c-.128-.139-.264-.271-.408-.394l-.039-.031a4.14 4.14 0 0 0-.438-.329l-.263-.143-.119-.052-.136-.061-.193-.06h-.052a1.48 1.48 0 0 0-.228-.044c-.286-.041-.578.005-.837.13-2.319 1.149-15.681 9.555-21.831 13.343l-3.047 1.828a.7.7 0 0 0-.228.208c-.006.013-.013.024-.022.035-.027.041-.05.085-.07.13-.013.029-.023.06-.031.091a.93.93 0 0 0-.035.117v.078l-.504.273-.438.242a17.59 17.59 0 0 0-3.472-2.548c-4.217-2.404-9.802-3.73-15.729-3.73s-11.512 1.326-15.729 3.73c-4.384 2.492-6.768 5.859-6.768 9.477s2.402 6.981 6.768 9.477c4.217 2.405 9.802 3.727 15.729 3.727s11.512-1.322 15.729-3.727c4.384-2.496 6.768-5.858 6.768-9.477-.014-1.664-.51-3.289-1.429-4.684l.404-.212a.91.91 0 0 0 .876.082c2.087-1.135 22.427-9.706 26.587-11.912.439-.29.75-.862.781-1.699zM98.033 181.93c-3.638 2.076-8.544 3.22-13.804 3.22s-10.166-1.144-13.804-3.22c-3.126-1.785-4.848-3.982-4.848-6.183s1.723-4.403 4.848-6.184c3.638-2.08 8.539-3.224 13.804-3.224s10.166 1.144 13.804 3.224c3.126 1.781 4.849 3.978 4.849 6.184s-1.736 4.398-4.87 6.183h.022zm39.058-75.49l-20.629-11.799a4.24 4.24 0 0 0-1.899-.449c-.659 0-1.31.154-1.898.449L7.856 154.44c-1.048.598-1.048 1.569 0 2.167l20.634 11.799c.588.295 1.239.449 1.898.449s1.31-.154 1.898-.449L71.56 145.99l6.041 3.467c3.196 1.824 8.377 1.824 11.577 0l17.995-10.196c3.201-1.825 3.201-4.767 0-6.609l-6.036-3.466 35.946-20.601c1.053-.576 1.053-1.538.009-2.145zm34.605 55.856c11.173 0 20.231-5.17 20.231-11.548s-9.058-11.548-20.231-11.548-20.231 5.17-20.231 11.548 9.058 11.548 20.231 11.548z" class="D"/><use xlink:href="#B" class="B"/><use xlink:href="#B" class="E"/><path d="M184.124 139.616c.045-.009.086-.034.114-.069s.045-.08.044-.126c-.316-7.696 2.218-14.088 7.325-18.477.018-.016.034-.036.045-.058s.017-.046.019-.071-.002-.049-.01-.072-.02-.045-.037-.064-.036-.033-.058-.044-.047-.017-.072-.019-.049.002-.073.01-.045.02-.064.036c-5.199 4.468-7.777 10.959-7.452 18.776.002.05.024.097.061.131s.085.052.136.051l.022-.004z" fill="#fff"/><path d="M182.682 147.39c1.461.852 3.124 1.31 4.822 1.326 2.932.069 4.015-1.456 4.015-1.456s-1.495-2.509-3.222-3.034c1.818.156 3.597.615 5.261 1.357 0 0 1.753-.204 2.095-2.942 0 0-1.254-1.452-4.853-1.851a11.73 11.73 0 0 1 5.204-.433c.241.061.754-3.467.837-5.105s-.557-1.512-1.846-1.677-5.549.191-6.238.971-.767 3.146-.767 3.146-.925-1.213-.903-2.405a4.54 4.54 0 0 0-2.63.433c-1.315.668-1.753 1.201-1.824 2.21s-.153 2.527.259 3.701c0 0-1.214-1.937-1.153-3.618a17.74 17.74 0 0 0-1.249 2.53c-.575 1.474.105 5.04 2.192 6.847z" class="B"/><path d="M182.743 147.572c.031-.008.059-.023.082-.044s.04-.048.049-.078c1.666-5.057 9.517-11.699 12.516-12.713.024-.008.046-.02.065-.036s.035-.036.046-.058.018-.047.019-.072-.003-.049-.012-.073-.019-.046-.036-.065-.036-.034-.059-.045-.047-.017-.072-.018-.05.002-.074.011c-3.068 1.019-11.056 7.8-12.756 12.952-.016.048-.011.1.012.144s.062.079.11.095c.036.01.074.01.11 0z" fill="#fff"/><path d="M89.169 147.78l15.509-8.866c1.596-.91 2.394-2.106 2.394-3.302v-2.132l-14.594-8.186a3.4 3.4 0 0 1-1.09-1.14 3.36 3.36 0 0 1-.453-1.503v-18.923l-27.052 15.474v18.897a3.34 3.34 0 0 0 .453 1.505 3.38 3.38 0 0 0 1.094 1.139l12.16 7.037c3.196 1.802 8.382 1.802 11.577 0z" class="F"/><path d="M70.363 141.445v2.123l-4.962-2.825a3.4 3.4 0 0 1-1.091-1.14c-.268-.459-.423-.974-.452-1.504v-18.897l5.16-2.942.329 3.938-3.617 2.067v14.768c.027.53.181 1.046.449 1.506s.643.849 1.094 1.138l3.091 1.768z" class="G"/><path d="M65.729 137.038c.029.529.184 1.044.452 1.503a3.39 3.39 0 0 0 1.091 1.14l10.319 5.932c3.196 1.824 8.377 1.824 11.577 0l15.514-8.861c3.195-1.825 3.195-4.767 0-6.604l-10.324-5.941a3.38 3.38 0 0 1-1.094-1.139c-.269-.459-.424-.975-.453-1.505v-14.767L65.729 122.27v14.768z" class="C"/><path d="M97.502 126.005l-3.143-1.794a3.39 3.39 0 0 1-1.094-1.138 3.34 3.34 0 0 1-.453-1.505v-14.772L65.729 122.27v14.768c.029.529.184 1.044.452 1.503a3.39 3.39 0 0 0 1.091 1.14l3.091 1.759 27.14-15.435z" class="E"/><path d="M107.076 133.48v2.132c0 1.2-.802 2.388-2.398 3.306l-15.509 8.857c-1.699.899-3.597 1.365-5.523 1.357v-2.124c1.927.009 3.825-.458 5.523-1.356l15.509-8.866c1.596-.931 2.398-2.127 2.398-3.306z" class="F"/><path d="M22.239 157.426a4.2 4.2 0 0 0 1.878.405 4.19 4.19 0 0 0 1.861-.475l104.77-59.799c.562-.361 1.029-.849 1.364-1.423s.529-1.218.565-1.879V3.642a4.05 4.05 0 0 0-.515-1.83c-.314-.562-.758-1.042-1.296-1.402-.584-.28-1.228-.42-1.877-.409s-1.288.174-1.862.474L22.357 60.274a4.24 4.24 0 0 0-1.364 1.423 4.18 4.18 0 0 0-.565 1.879v90.613a4.06 4.06 0 0 0 .514 1.832 4.12 4.12 0 0 0 1.296 1.405z" class="C"/><path d="M25.978 157.352l104.77-59.777a4.25 4.25 0 0 0 1.364-1.423 4.19 4.19 0 0 0 .565-1.879V3.642c0-1.218-.877-1.712-1.929-1.101L26 62.341c-.561.362-1.029.849-1.364 1.423a4.18 4.18 0 0 0-.565 1.879v90.608c-.022 1.218.842 1.712 1.907 1.101z" class="F"/><use xlink:href="#C" class="B"/><use xlink:href="#C" fill="#fff"/><path d="M78.153 123.795c-.203.003-.403-.048-.579-.147-.219-.148-.394-.351-.506-.588a1.45 1.45 0 0 1-.134-.76c.031-.659.222-1.302.556-1.873s.802-1.056 1.364-1.412c.207-.17.461-.274.729-.297s.537.036.77.169.42.333.534.573a1.29 1.29 0 0 1 .106.773c-.031.66-.221 1.303-.555 1.875a4.15 4.15 0 0 1-1.365 1.414 1.88 1.88 0 0 1-.92.273zm1.617-4.615c-.247.012-.487.086-.697.217-.495.319-.906.749-1.202 1.255s-.466 1.074-.499 1.657c-.059.188-.052.39.021.573a.87.87 0 0 0 .378.435c.172.098.374.136.57.106s.377-.125.512-.269c.495-.319.907-.749 1.202-1.255a3.69 3.69 0 0 0 .498-1.657c.02-.186-.01-.373-.087-.544a1.07 1.07 0 0 0-.351-.427c-.106-.059-.225-.09-.346-.091z" class="B"/><path d="M146.24 22.878L44.227 81.047v74.303c.004.224.066.444.181.638s.278.354.475.467a1.33 1.33 0 0 0 .646.175c.227.002.451-.054.649-.162l1.819-1.036 96.34-54.911c.554-.357 1.016-.838 1.346-1.404a4.12 4.12 0 0 0 .557-1.854V22.878z" class="I"/><path d="M145.802 23.627v73.635c-.037.576-.208 1.136-.5 1.636s-.697.926-1.184 1.246l-98.159 55.947c-.133.078-.284.118-.438.117a.88.88 0 0 1-.601-.243.83.83 0 0 1-.263-.615V81.281l101.136-57.633.009-.022zm.429-.728L44.227 81.047v74.303a1.29 1.29 0 0 0 .385.919 1.32 1.32 0 0 0 .93.381c.228.001.452-.059.649-.173l98.146-55.956c.554-.357 1.016-.838 1.346-1.404a4.12 4.12 0 0 0 .557-1.854V22.878l-.009.022z" class="D"/><path d="M143.82 21.495L41.803 79.643l2.424 1.387L146.24 22.878l-2.42-1.382z" class="C"/><path d="M44.911 156.485a1.3 1.3 0 0 1-.499-.475 1.29 1.29 0 0 1-.185-.66V81.047l-2.429-1.387v73.895c-.006.091-.006.182 0 .273.042.301.153.589.325.842a2.01 2.01 0 0 0 .666.614l2.003 1.148.101.052h.017z" fill="#ebebeb"/><use xlink:href="#D" class="B"/><use xlink:href="#D" class="E"/><use xlink:href="#E" class="B"/><use xlink:href="#E" class="E"/><use xlink:href="#F" class="B"/><use xlink:href="#F" class="E"/><path d="M141.786 22.691c0 .559.399.789.877.507a1.94 1.94 0 0 0 .622-.659 1.92 1.92 0 0 0 .255-.866c0-.559-.399-.789-.877-.507a1.95 1.95 0 0 0-.622.659 1.92 1.92 0 0 0-.255.866zm-3.559 2.024c0 .559.398.789.876.507a1.95 1.95 0 0 0 .622-.659 1.92 1.92 0 0 0 .255-.866c0-.559-.399-.789-.877-.507a1.96 1.96 0 0 0-.622.66 1.93 1.93 0 0 0-.254.866zm-3.564 2.041c0 .559.399.789.876.507a1.96 1.96 0 0 0 .623-.659 1.93 1.93 0 0 0 .254-.866c0-.559-.399-.789-.877-.507a1.94 1.94 0 0 0-.622.659 1.92 1.92 0 0 0-.254.866zM44.227 81.047v74.303c.004.224.066.444.181.638s.278.354.475.467a1.33 1.33 0 0 0 .646.175c.227.002.451-.054.649-.162l1.819-1.036 22.291-12.709V66.206L44.227 81.047zm27.841-13.584v72.154l72.033-41.11V26.353l-72.033 41.11z" fill="#fafafa"/><use xlink:href="#G" class="B"/><use xlink:href="#G" fill="#fafafa"/><g class="C"><path d="M68.022 75.605l-.487-.468a2.15 2.15 0 0 0 .153-.771.9.9 0 0 0-.07-.464.91.91 0 0 0-.294-.368.57.57 0 0 0-.596.026 1.93 1.93 0 0 0-.576.695 1.91 1.91 0 0 0-.195.878.9.9 0 0 0 .072.465.91.91 0 0 0 .297.367.49.49 0 0 0 .259.069.68.68 0 0 0 .338-.095 1.35 1.35 0 0 0 .438-.433l.403.381a.19.19 0 0 0 .059.043c.022.01.047.014.072.014s.052-.006.076-.016.046-.026.064-.044a.18.18 0 0 0 .043-.065c.009-.025.014-.05.013-.077s-.008-.052-.02-.075-.029-.044-.049-.061zm-1.293 0c-.03.022-.065.037-.102.041s-.075-.001-.109-.015c-.083-.048-.175-.208-.175-.503a1.55 1.55 0 0 1 .145-.687 1.57 1.57 0 0 1 .434-.556.26.26 0 0 1 .136-.043c.024-.006.05-.006.075 0 .079.048.171.204.171.503.007.24-.041.479-.14.698s-.248.413-.434.567v-.004zM47.546 92.427l-.373.212s-.039 0-.039-.03v-.997c0-.015.004-.03.011-.044a.1.1 0 0 1 .029-.034l.373-.212s.04 0 .04.03v.997c0 .015-.004.03-.011.043a.1.1 0 0 1-.029.035z"/><path d="M48.102 92.106l-.373.212c-.022 0-.039 0-.039-.03v-.997c0-.014.004-.029.011-.041s.017-.024.029-.032l.373-.204c.022 0 .039 0 .039.026v1.001c-.002.013-.006.025-.013.037s-.016.021-.027.029zm.561-.321l-.373.217c-.022 0-.039 0-.039-.03v-1.001c.001-.014.004-.029.011-.041s.017-.024.028-.032l.373-.212c.022 0 .039 0 .039.03v.997c.001.015-.003.029-.01.042s-.017.024-.03.032zm-1.117 1.929l-.373.212s-.039 0-.039-.03v-.997c0-.015.004-.03.011-.043a.12.12 0 0 1 .029-.035l.373-.212s.04 0 .04.03v.997c0 .015-.004.03-.011.044a.1.1 0 0 1-.029.034z"/><path d="M48.102 93.393l-.373.212c-.022 0-.039 0-.039-.03v-.997c0-.014.004-.029.011-.042s.017-.024.029-.032l.373-.191c.022 0 .039 0 .039.026v1.001c-.007.021-.02.04-.039.052z"/><path d="M48.663 93.072l-.373.217c-.022 0-.039 0-.039-.03v-1.001a.1.1 0 0 1 .011-.041c.007-.013.017-.024.028-.032l.373-.212c.022 0 .039 0 .039.03V93c.001.015-.003.029-.01.042s-.017.024-.03.032zm-1.06 4.039l-.438-.273v-.082l.438-.802c0-.039.057-.035.057 0v1.079c.004.048-.035.091-.057.078z"/><path d="M47.41 96.5l.605-.342v.282l-.605.347c-.048.03-.092 0-.092-.091 0-.037.008-.074.024-.108s.039-.064.068-.088zm.719-.412l.207-.117v.286l-.207.117v-.286z"/><path d="M48.891 95.781v1.044a.24.24 0 0 1-.023.109.23.23 0 0 1-.073.086c-.048.03-.092 0-.092-.087v-.901l-.254.143v-.282l.346-.199c.053-.013.096.026.096.087zm-1.109 3.674c-.235.211-.415.475-.525.769s-.148.61-.11.921c.075.542.399.52.438.771 0 .031.022.039.039.031l.408-.23a.13.13 0 0 0 .03-.032.11.11 0 0 0 .014-.042c.044-.333.46-.736.46-1.547.004-.619-.342-.923-.754-.641z"/><path d="M48.028 102.367l-.395.225c-.026 0-.048 0-.048-.039v-.355c0-.018.005-.037.013-.053s.02-.031.035-.042l.395-.226c.026 0 .048 0 .048.039v.364a.12.12 0 0 1-.014.049c-.008.015-.02.028-.034.038zm-.149-11.353a2.36 2.36 0 0 0-.715 1.499 1.57 1.57 0 0 0 .101.815l-.132.685c0 .056 0 .082.053.048l.399-.433a.63.63 0 0 0 .311-.008.62.62 0 0 0 .268-.157 2.36 2.36 0 0 0 .715-1.499c.101-.949-.408-1.421-.999-.949zm.14 2.236c-.364.208-.662-.074-.662-.633a1.72 1.72 0 0 1 .167-.77c.115-.24.284-.452.495-.617.368-.208.666.074.666.633.006.268-.052.533-.167.775s-.286.454-.499.62v-.009zm-.14 10.924a2.34 2.34 0 0 0-.715 1.495 1.58 1.58 0 0 0 .101.819l-.132.68c0 .057 0 .087.053.052l.399-.433a.62.62 0 0 0 .579-.165 2.37 2.37 0 0 0 .715-1.499c.101-.949-.408-1.43-.999-.949zm.14 2.236c-.364.208-.662-.074-.662-.633a1.72 1.72 0 0 1 .167-.769c.114-.24.284-.452.495-.617.368-.208.666.073.666.632a1.72 1.72 0 0 1-.169.771 1.74 1.74 0 0 1-.497.616zm.421 2.583a.9.9 0 0 1-.088.407.91.91 0 0 1-.262.325c-.193.113-.351-.039-.351-.334a.91.91 0 0 1 .09-.406.93.93 0 0 1 .261-.326c.193-.108.351.039.351.334z"/><path d="M49.04 109.097c.002.093-.018.186-.058.271s-.1.16-.174.218c-.132.074-.237-.026-.237-.221a.6.6 0 0 1 .237-.489c.127-.074.232.026.232.221z"/><path d="M48.501 111.094l-.837.468v-1.048a.71.71 0 0 1 .083-.32c.052-.098.128-.183.219-.248l.228-.13c.162-.091.298 0 .298.225l.009 1.053z"/><path d="M48.843 109.708l-.228.13v1.191l.438-.247v-.927c-.009-.147-.101-.208-.21-.147zm-1.705.476c0 .195.105.295.232.221.074-.058.133-.131.173-.216a.6.6 0 0 0 .059-.269c0-.199-.105-.299-.232-.225a.62.62 0 0 0-.232.489z"/><path d="M47.335 110.566l.224-.13v1.196l-.438.242v-.927a.47.47 0 0 1 .215-.381z"/></g><g class="D"><path d="M51.171 90.087l9.741-5.573c.263-.152.473-.043.473.238a1 1 0 0 1-.142.446 1.01 1.01 0 0 1-.331.334l-9.741 5.573c-.263.147-.473.043-.473-.238.011-.158.06-.311.142-.446a1.01 1.01 0 0 1 .331-.334z"/><path d="M51.171 94.615l9.736-5.555c.263-.147.473-.043.473.238a1 1 0 0 1-.142.446 1.01 1.01 0 0 1-.331.334l-9.736 5.555c-.263.147-.473.043-.473-.238.011-.158.06-.31.142-.446a1.01 1.01 0 0 1 .331-.334z"/><path d="M51.171 99.147l9.741-5.534c.263-.152.473-.043.473.234-.011.158-.06.311-.142.446s-.196.25-.331.334l-9.741 5.533c-.263.152-.473.044-.473-.238a.99.99 0 0 1 .142-.444c.082-.135.196-.248.331-.332z"/><path d="M51.171 103.676l9.736-5.556c.263-.152.473-.043.473.238a.99.99 0 0 1-.142.444 1 1 0 0 1-.331.332l-9.736 5.56c-.263.147-.473.043-.473-.238.011-.158.06-.311.142-.447a1.01 1.01 0 0 1 .331-.333z"/><path d="M51.171 108.204l9.736-5.555c.263-.148.473-.044.473.238a1 1 0 0 1-.142.446c-.082.136-.196.25-.331.334l-9.736 5.547c-.263.147-.473.043-.473-.239a1 1 0 0 1 .144-.441 1.01 1.01 0 0 1 .329-.33z"/></g><path d="M52.955 111.905l9.736-5.556c.263-.151.473-.043.473.234-.011.158-.06.311-.142.447a1 1 0 0 1-.331.333l-9.736 5.556c-.263.151-.473.043-.473-.234.011-.158.06-.311.142-.447a1 1 0 0 1 .331-.333z" class="C"/><path d="M52.955 114.964l9.736-5.555c.263-.152.473-.044.473.238a.99.99 0 0 1-.142.444 1.01 1.01 0 0 1-.331.332l-9.736 5.555c-.263.152-.473.043-.473-.234.011-.158.06-.311.142-.446s.196-.25.331-.334zm0 3.059l9.736-5.555c.263-.152.473-.043.473.238-.011.157-.06.31-.142.444a1 1 0 0 1-.331.332l-9.736 5.559c-.263.148-.473.044-.473-.238a1 1 0 0 1 .142-.446c.082-.135.196-.25.331-.334zm1.894 1.946l9.736-5.555c.263-.152.474-.044.474.234a1 1 0 0 1-.142.446c-.082.136-.196.25-.331.334l-9.736 5.555c-.259.151-.473.043-.473-.234a1.01 1.01 0 0 1 .143-.446c.082-.136.196-.25.331-.334z" class="D"/><path d="M52.574 122.599l.794-1.378c.031-.052.031-.121 0-.139l-.794-.476c-.035-.022-.092.047-.092.121v1.855c.004.065.057.086.092.017z" class="C"/><path d="M54.849 123.015l9.736-5.568c.263-.147.474-.043.474.238-.011.158-.06.311-.142.446s-.196.25-.331.334l-9.736 5.568c-.259.152-.473.044-.473-.238a1.01 1.01 0 0 1 .144-.445 1.03 1.03 0 0 1 .33-.335z" class="D"/><path d="M52.574 125.65l.794-1.378c.031-.052.031-.122 0-.143l-.794-.477c-.035-.022-.092.052-.092.126v1.854c.004.074.057.083.092.018z" class="C"/><path d="M54.849 126.066l9.736-5.556c.263-.151.474-.043.474.239a1 1 0 0 1-.142.446c-.082.135-.196.25-.331.334l-9.736 5.555c-.259.147-.473.043-.473-.238.012-.158.062-.31.144-.445a1.02 1.02 0 0 1 .33-.335z" class="D"/><path d="M52.574 128.713l.794-1.382c.031-.052.031-.121 0-.139l-.794-.476c-.035-.022-.092.052-.092.125v1.855c.004.061.057.069.092.017z" class="C"/><path d="M54.849 129.116l9.736-5.555c.263-.152.474-.043.474.234a.99.99 0 0 1-.142.446c-.082.136-.196.25-.331.334l-9.736 5.555c-.259.152-.473.044-.473-.234a1 1 0 0 1 .143-.445 1.02 1.02 0 0 1 .331-.335z" class="D"/><path d="M52.574 131.747l.794-1.378c.031-.052.031-.122 0-.139l-.794-.477c-.035-.026-.092.048-.092.122v1.872c.004.056.057.069.092 0z" class="C"/><path d="M54.849 132.18l9.736-5.555c.263-.148.474-.044.474.238a1 1 0 0 1-.142.446c-.082.136-.196.25-.331.334l-9.736 5.555c-.259.148-.473.044-.473-.238a1.01 1.01 0 0 1 .144-.445 1.02 1.02 0 0 1 .33-.335z" class="D"/><path d="M52.574 134.78l.794-1.378c.031-.052.031-.121 0-.143l-.794-.477c-.035-.021-.092.052-.092.126v1.872c.004.074.057.082.092 0z" class="C"/><path d="M54.849 135.213l9.736-5.555c.263-.152.474-.043.474.238-.011.157-.06.31-.142.444a1 1 0 0 1-.331.332l-9.736 5.56c-.259.147-.473.043-.473-.239a1.01 1.01 0 0 1 .144-.445 1.03 1.03 0 0 1 .33-.335z" class="D"/><path d="M52.574 137.848l.794-1.382c.031-.052.031-.122 0-.139l-.794-.477c-.035-.021-.092.052-.092.126v1.837c.004.091.057.1.092.035z" class="C"/><path d="M54.849 138.247l9.736-5.556c.263-.151.474-.043.474.234-.011.158-.06.311-.142.447a1.01 1.01 0 0 1-.331.333l-9.736 5.556c-.259.151-.473.043-.473-.239a1 1 0 0 1 .473-.775z" class="D"/><path d="M52.574 140.894l.794-1.378c.031-.052.031-.121 0-.138l-.794-.477c-.035-.026-.092.048-.092.121v1.855c.004.074.057.087.092.017z" class="C"/><path d="M54.849 141.31l9.736-5.555c.263-.147.474-.043.474.238-.011.158-.06.311-.142.446s-.196.25-.331.334l-9.736 5.555c-.259.148-.473.044-.473-.238a1.01 1.01 0 0 1 .144-.445 1.03 1.03 0 0 1 .33-.335z" class="D"/><path d="M52.574 143.945l.789-1.365c.031-.052.031-.121 0-.143l-.793-.477c-.035-.021-.092.052-.092.126v1.855c.009.06.061.069.096.004z" class="C"/><path d="M74.326 77.355l32-18.26c.138-.089.253-.209.335-.349a1.03 1.03 0 0 0 .139-.461v-8.064c0-.299-.215-.433-.474-.269l-32 18.256c-.139.088-.254.208-.338.348a1.02 1.02 0 0 0-.14.462v8.069c0 .299.215.42.478.269z" class="I"/><g class="C"><path d="M77.114 71.666l.21-.867-.289.165v-.026-.156c-.002-.01-.002-.02 0-.03v-.026l.465-.264c.002.008.002.017 0 .026v.139a.71.71 0 0 1 0 .082l-.21.867c.001.01.001.02 0 .03s.002.014 0 .022l-.14.078c-.019-.005-.023-.008-.026-.012-.009-.017-.009-.023-.009-.027z"/><path d="M77.911 70.214c.037-.027.082-.041.127-.039.032 0 .064.013.088.035.025.028.041.063.048.1.005.047.005.096 0 .143v.264a1.13 1.13 0 0 1 0 .165.71.71 0 0 1-.048.156.93.93 0 0 1-.088.139.6.6 0 0 1-.127.104.26.26 0 0 1-.127.039.15.15 0 0 1-.083-.039c-.028-.027-.046-.062-.053-.1-.005-.047-.005-.096 0-.143v-.26a.91.91 0 0 1 0-.165.53.53 0 0 1 .053-.16.7.7 0 0 1 .083-.134.47.47 0 0 1 .127-.104zm.105.598v-.251c.002-.022.002-.043 0-.065.002-.014.002-.029 0-.043-.021-.004-.026-.002-.031 0h-.048a.23.23 0 0 0-.048.043.21.21 0 0 0-.031.052.37.37 0 0 0 0 .065v.074.247.065c-.003.014-.003.029 0 .043.01.004.021.004.031 0 .016.005.033.005.048 0 .019-.011.035-.026.048-.043s.025-.033.031-.052.004-.043 0-.065a.38.38 0 0 0-.022-.074l.022.004zm.549-.658v-.113a.31.31 0 0 0 0-.069l-.026-.052c-.016-.006-.033-.006-.048 0-.021-.006-.044-.006-.066 0-.025.012-.048.03-.066.052s-.036.047-.048.074-.022.054-.026.082-.004.058 0 .087v.113c-.005.026-.005.052 0 .078.002.019.012.036.026.048.008.003.016.005.024.005s.016-.002.024-.005c.022.004.044.004.066 0a.28.28 0 0 0 .066-.056c.019-.021.035-.045.048-.069s.022-.054.026-.082a.66.66 0 0 0 0-.091z"/><path d="M78.806 69.699v.03l-.482 1.252.079-.043c.009-.005.017-.012.022-.022v-.026l.482-1.239-.079.048c-.007-.002-.015-.002-.022 0zm-1.697-.516l-.32-.49c-.369.626-.626 1.311-.758 2.024l.517-.043a4.7 4.7 0 0 1 .561-1.491z"/><path d="M78.017 68.212v-.828a3.55 3.55 0 0 0-1.227 1.3l.32.49a2.66 2.66 0 0 1 .907-.962zm-1.543 3.233a4.22 4.22 0 0 1 .075-.771l-.517.043c-.069.342-.105.691-.105 1.04a3.72 3.72 0 0 0 .105.923l.517-.555a2.94 2.94 0 0 1-.075-.68z"/></g><path d="M80.002 68.446c-.04-.234-.127-.457-.258-.656s-.301-.37-.501-.501c-.195-.092-.411-.131-.627-.115a1.24 1.24 0 0 0-.601.21v.828a.92.92 0 0 1 .907-.065c.149.098.277.225.373.375a1.26 1.26 0 0 1 .188.492 2.91 2.91 0 0 1 .075.68 4.18 4.18 0 0 1-.075.771c-.103.524-.292 1.028-.561 1.491-.217.392-.529.726-.907.971a.91.91 0 0 1-.445.154c-.159.011-.319-.019-.463-.089-.15-.097-.278-.225-.374-.374a1.25 1.25 0 0 1-.187-.493l-.517.555c.037.235.124.459.255.658s.302.369.504.499a1.23 1.23 0 0 0 1.227-.095c.512-.325.934-.772 1.227-1.3.368-.625.624-1.308.758-2.019.066-.344.1-.694.101-1.044a3.95 3.95 0 0 0-.101-.932z" class="B"/><path d="M83.229 66.176l9.732-5.555c.263-.152.478-.043.478.234-.012.158-.061.311-.144.447a1.01 1.01 0 0 1-.334.333l-9.732 5.547c-.263.152-.478.043-.478-.234a1 1 0 0 1 .146-.442 1.01 1.01 0 0 1 .332-.329z" class="C"/><path d="M83.229 68.225l16.855-9.62c.263-.152.474-.043.474.238a1 1 0 0 1-.474.776l-16.855 9.62c-.263.152-.478.043-.478-.238.012-.157.062-.31.145-.445s.197-.248.333-.331z" class="D"/><path d="M109.036 57.539l32.001-18.26c.138-.09.252-.21.335-.352s.129-.3.138-.463V30.4c0-.299-.21-.433-.473-.269l-32.001 18.256c-.138.089-.253.21-.336.351s-.129.3-.138.463v8.064c.009.299.219.42.474.273z" class="I"/><g class="C"><path d="M111.99 51.109a.57.57 0 0 1 .026-.169c.014-.053.034-.104.062-.152a.62.62 0 0 1 .092-.126.63.63 0 0 1 .105-.087c.034-.016.069-.028.105-.035s.065.005.092.022.052.047.066.078a.41.41 0 0 1 .022.143c.002.027.002.055 0 .082a.51.51 0 0 1 0 .078c-.005.025-.013.05-.022.074l-.026.069-.184.494c-.002.009-.002.017 0 .026-.005.009-.013.017-.022.022l-.154.087c-.002-.015-.001-.018 0-.022l.127-.334a.22.22 0 0 1-.092 0c-.027-.001-.054-.012-.074-.03a.18.18 0 0 1-.053-.078c-.033-.042-.057-.091-.07-.143zm.39-.221c.003-.017.003-.035 0-.052-.012-.02-.016-.023-.022-.026h-.035a.07.07 0 0 0-.039 0l-.04.03-.03.048c-.012.017-.02.036-.027.056-.002.019-.002.038 0 .056s-.002.035 0 .052c0 0 0 .022.027.026h.03c.013.004.027.004.04 0 .015-.009.029-.021.039-.035s.026-.027.035-.043.018-.037.022-.056.002-.038 0-.056z"/><path d="M112.928 50.208c.035-.027.079-.04.123-.039.016 0 .032.003.047.009s.029.015.041.026a.27.27 0 0 1 .052.1.49.49 0 0 1 0 .143v.13.134a.65.65 0 0 1 0 .165c-.013.053-.031.105-.052.156a.69.69 0 0 1-.088.139.57.57 0 0 1-.123.104.28.28 0 0 1-.127.039c-.033-.003-.063-.017-.087-.039-.026-.029-.044-.063-.053-.1-.005-.046-.005-.093 0-.139v-.13-.134c-.005-.055-.005-.11 0-.165.013-.055.03-.108.053-.16s.051-.094.087-.134.079-.078.127-.104zm.101.598a2.11 2.11 0 0 0 0-.251c.002-.02.002-.041 0-.061.003-.016.003-.032 0-.048-.01-.004-.021-.004-.031 0h-.048c-.019.011-.035.026-.048.043s-.025.034-.035.052v.065.074.247.065c-.002.014-.002.029 0 .043.024.004.03.003.035 0h.048l.048-.039a.21.21 0 0 0 .031-.056c.002-.022.002-.043 0-.065a.4.4 0 0 0 0-.069z"/><path d="M113.599 50.039a.53.53 0 0 1 0 .113.69.69 0 0 1 0 .091.61.61 0 0 1-.031.082.31.31 0 0 1-.044.069c-.018.021-.043.041-.07.056a.13.13 0 0 1-.065.022c-.015.005-.03.005-.044 0-.014-.015-.024-.033-.031-.052a.34.34 0 0 1 0-.078c-.002-.017-.002-.035 0-.052s-.002-.041 0-.061a.63.63 0 0 1 0-.087c.008-.028.018-.056.031-.082s.025-.052.044-.074a.32.32 0 0 1 .065-.052c.023-.005.047-.005.07 0 .007-.003.015-.004.022-.004s.015.002.022.004c.014.015.024.033.031.052a.45.45 0 0 1 0 .052zm.245-.312v-.03h.022l.079-.048-.478 1.239c.001.009.001.017 0 .026v.022l-.078.043.455-1.252zm-.438.529v.052c0 .009 0 0 .026 0 .008-.002.015-.007.021-.013s.009-.014.01-.022v-.16c.002-.017.002-.035 0-.052h-.031c-.013.009-.022.023-.026.039s-.003.041 0 .061v.095zm.644.043c.005.037.005.075 0 .113a.46.46 0 0 1 0 .091c-.008.028-.018.056-.03.082s-.028.049-.048.069-.039.044-.066.056c-.022.006-.044.006-.066 0-.007.003-.014.005-.022.005s-.015-.002-.022-.005a.15.15 0 0 1-.03-.052c-.003-.024-.003-.049 0-.074-.006-.037-.006-.075 0-.113a.46.46 0 0 1 0-.091.41.41 0 0 1 .03-.082c.01-.026.025-.05.044-.069a.36.36 0 0 1 .066-.056c.022-.004.044-.004.066 0 .007-.003.015-.005.024-.005s.016.002.024.005a.15.15 0 0 1 .03.052c.002.019.002.038 0 .056v.017zm-.192.217v.052c0 .009 0 0 .026 0a.04.04 0 0 0 .02-.013c.006-.006.009-.014.011-.022.003-.022.003-.044 0-.065a.38.38 0 0 0 0-.095c.003-.017.003-.035 0-.052h-.031c-.013.009-.023.023-.026.039s-.004.041 0 .061v.095zm-.833-2.289V47.4c-.515.323-.937.77-1.228 1.3l.32.49a2.66 2.66 0 0 1 .908-.962z"/></g><path d="M115.011 48.461a1.72 1.72 0 0 0-.759-1.157 1.23 1.23 0 0 0-.627-.117c-.215.017-.423.09-.6.212v.828a.91.91 0 0 1 .907-.065c.15.098.277.225.374.375s.16.317.187.492c.052.223.077.452.075.68a4.16 4.16 0 0 1-.075.771 4.68 4.68 0 0 1-.561 1.491c-.217.392-.529.726-.907.971-.132.089-.286.142-.445.154s-.319-.019-.463-.089c-.15-.097-.277-.225-.374-.374s-.16-.317-.187-.493a2.94 2.94 0 0 1-.074-.68 4.16 4.16 0 0 1 .074-.771c.097-.524.282-1.028.548-1.491l-.32-.49c-.369.625-.625 1.308-.758 2.019a5.55 5.55 0 0 0-.105 1.044 3.88 3.88 0 0 0 .105.923c.037.235.124.459.255.658a1.7 1.7 0 0 0 .503.499 1.23 1.23 0 0 0 1.228-.095c.513-.324.935-.771 1.227-1.3a6.32 6.32 0 0 0 .758-2.019c.066-.344.1-.694.101-1.044a3.94 3.94 0 0 0-.087-.932z" class="B"/><path d="M118.241 46.191l9.736-5.56c.259-.147.474-.043.474.238a1.01 1.01 0 0 1-.143.446c-.082.136-.195.25-.331.334l-9.736 5.555c-.263.152-.473.043-.473-.238a.99.99 0 0 1 .142-.444 1.01 1.01 0 0 1 .331-.332z" class="C"/><path d="M118.241 48.236l16.856-9.615c.263-.152.477-.043.477.238a.99.99 0 0 1-.144.444c-.083.135-.198.248-.333.331l-16.856 9.62c-.263.147-.473.043-.473-.238.011-.158.06-.31.142-.446a1.02 1.02 0 0 1 .331-.334z" class="D"/><path d="M77.583 79.57l6.83-3.9c.263-.152.473-.043.473.234-.011.158-.06.311-.142.446s-.196.25-.331.334l-6.83 3.9c-.263.152-.474.043-.474-.238a.99.99 0 0 1 .142-.444 1 1 0 0 1 .331-.332z" class="C"/><path d="M141.076 45.857v51.566c-.008.086-.036.169-.079.244a.61.61 0 0 1-.175.189l-66.536 37.96V84.25a.62.62 0 0 1 .083-.244c.044-.075.104-.139.175-.19l.828-.472c.205-.127.376-.301.497-.508s.19-.44.2-.679v-2.973a.59.59 0 0 1 .079-.244c.044-.075.103-.139.175-.189l9.552-5.451v2.773a.7.7 0 0 0 .182.535.72.72 0 0 0 .235.17.73.73 0 0 0 .284.063c.154-.002.306-.043.438-.121l54.069-30.857-.009-.004zm.175-.546a.44.44 0 0 0-.21.065L86.788 76.337c-.063.039-.136.061-.21.065-.158 0-.263-.126-.263-.334v-2.986c0-.212-.11-.334-.263-.334a.44.44 0 0 0-.211.065l-9.736 5.555c-.138.09-.253.21-.335.352a1.03 1.03 0 0 0-.138.463v2.981a1.02 1.02 0 0 1-.14.462 1.03 1.03 0 0 1-.338.348l-.828.477a1.05 1.05 0 0 0-.338.348 1.02 1.02 0 0 0-.14.462v51.761c0 .212.11.338.263.338a.45.45 0 0 0 .215-.065l66.712-38.077c.137-.089.252-.208.335-.349a1.03 1.03 0 0 0 .138-.461V45.645c0-.212-.105-.334-.263-.334h.004zM78.139 86.512a.48.48 0 0 1-.232-.056.55.55 0 0 1-.192-.214c-.044-.087-.064-.183-.058-.28v-1.963a1.25 1.25 0 0 1 .17-.571 1.26 1.26 0 0 1 .417-.43l5.291-3.033a.55.55 0 0 1 .272-.091c.098-.006.194.014.281.057a.55.55 0 0 1 .192.214c.044.087.064.183.058.28v1.963a1.25 1.25 0 0 1-.17.571 1.26 1.26 0 0 1-.417.43l-5.287 3.033a.67.67 0 0 1-.324.091zm.324-3.137a.81.81 0 0 0-.259.269.8.8 0 0 0-.109.355v1.963c-.005.041.006.083.031.117.042.003.085-.009.118-.035l5.291-3.012a.83.83 0 0 0 .255-.273c.063-.109.1-.23.109-.355v-1.963c.005-.041-.006-.083-.031-.117-.042-.003-.085.009-.118.035l-5.287 3.016zm.325.805l3.45-1.976c.175-.1.316-.03.316.156a.66.66 0 0 1-.094.298c-.055.09-.131.167-.222.222l-3.45 1.98c-.175.1-.316.026-.316-.16.008-.105.04-.207.095-.297s.13-.167.221-.223z" class="D"/><path d="M83.027 81.879l.285.403s.031 0 .044-.026l.285-.728v-.052l-.57.325a.07.07 0 0 0-.036.031c-.008.014-.011.031-.008.047z" class="C"/><g class="B"><path d="M77.412 105.556c.254-.143.438-.026.438.26a.98.98 0 0 1-.124.444c-.076.136-.184.253-.314.341-.254.143-.438.026-.438-.26a.98.98 0 0 1 .125-.444c.076-.136.184-.253.314-.341zm3.568-4.064c.254-.143.46-.026.46.26a.99.99 0 0 1-.135.447 1 1 0 0 1-.326.337c-.25.143-.438.026-.438-.26a.99.99 0 0 1 .125-.443 1 1 0 0 1 .313-.341zm3.555-2.033c.25-.143.438-.026.438.26a.98.98 0 0 1-.126.444 1.01 1.01 0 0 1-.313.341c-.254.143-.46.026-.46-.26a.98.98 0 0 1 .135-.447 1 1 0 0 1 .326-.337zm3.56-1.139c.254-.143.438-.026.438.26a.98.98 0 0 1-.124.444c-.076.136-.184.253-.314.34-.254.143-.438.026-.438-.26.006-.156.048-.308.124-.444s.184-.253.314-.341zm3.564-3.662c.254-.143.438-.026.438.264-.006.155-.049.306-.125.441s-.183.251-.313.339c-.25.147-.438.03-.438-.26.007-.155.051-.307.127-.443a1.02 1.02 0 0 1 .312-.342zm3.559-1.295c.254-.143.438-.026.438.26-.006.156-.048.308-.124.444s-.184.253-.314.34c-.254.143-.438.026-.438-.26.006-.156.048-.308.125-.444s.184-.253.314-.341zm3.56-4.082c.254-.147.46-.03.46.26a1 1 0 0 1-.46.785c-.25.143-.438.026-.438-.264a.99.99 0 0 1 .126-.441 1.01 1.01 0 0 1 .312-.339zm3.564-1.001c.25-.143.438-.026.438.264a.99.99 0 0 1-.126.441 1.01 1.01 0 0 1-.312.339c-.255.147-.439.03-.439-.26a1 1 0 0 1 .439-.784zm3.559-11.18c.254-.143.439-.026.439.264a1 1 0 0 1-.127.443 1.01 1.01 0 0 1-.312.341c-.254.143-.438.026-.438-.264a1 1 0 0 1 .126-.443 1.01 1.01 0 0 1 .312-.341zm3.573 6.114c.25-.147.438-.03.438.26a1 1 0 0 1-.126.443 1.02 1.02 0 0 1-.312.342c-.254.143-.46.026-.46-.264.008-.157.055-.309.135-.445a.99.99 0 0 1 .325-.335z"/><use xlink:href="#H"/><path d="M116.584 83.214c.255-.147.439-.03.439.26a1 1 0 0 1-.127.443 1.01 1.01 0 0 1-.312.341c-.25.143-.438.026-.438-.264a.99.99 0 0 1 .126-.441 1.01 1.01 0 0 1 .312-.339zm3.564-6.11c.25-.147.439-.03.439.26-.008.155-.051.307-.127.443a1.02 1.02 0 0 1-.312.342c-.254.143-.46.026-.46-.264.009-.157.055-.309.135-.445a.99.99 0 0 1 .325-.335zm3.56-1.17c.254-.143.438-.026.438.26a.99.99 0 0 1-.124.444 1.01 1.01 0 0 1-.314.34c-.254.143-.439.026-.439-.26a.99.99 0 0 1 .125-.444c.076-.136.184-.253.314-.341zm3.572-4.931c.255-.143.461-.026.461.264-.009.157-.055.309-.135.445s-.192.251-.326.335c-.249.147-.438.03-.438-.26.008-.155.051-.307.127-.443a1.03 1.03 0 0 1 .311-.342zm3.877.716c.179-.307.18-.638.002-.74s-.468.065-.647.371-.18.638-.002.74.468-.065.647-.371zm3.564-.001c.179-.307.18-.638.002-.74s-.468.065-.648.371-.179.638-.001.74.468-.065.647-.371z"/><use xlink:href="#I"/><path d="M77.403 106.18c-.027 0-.053-.009-.075-.026s-.032-.049-.032-.078.011-.057.032-.078l3.595-4.082.031-.026 3.533-2.015 3.555-1.14 3.542-3.644.044-.026 3.533-1.3 3.542-4.043c.015-.014.033-.026.053-.035l3.507-1.001 3.533-11.106c.006-.02.018-.038.035-.052s.036-.023.057-.026.044.003.063.013.035.025.047.043l3.529 6.04h7.013l3.512-6.019c.006-.012.015-.023.025-.032s.023-.016.036-.02l3.529-1.157 3.538-4.901c.011-.013.025-.024.041-.032s.033-.011.051-.011h7.093l3.533-2.019c.025-.014.056-.018.084-.011s.054.025.069.05.016.055.008.082-.027.051-.052.065l-3.559 2.037c-.019.004-.038.004-.057 0h-7.067l-3.529 4.884c-.012.019-.031.032-.052.039l-3.507 1.157-3.542 6.067c-.01.016-.025.029-.042.038s-.035.014-.055.014h-7.123c-.019-.001-.037-.006-.053-.015s-.029-.022-.039-.037l-3.437-5.885-3.485 10.954c-.006.017-.016.032-.029.045s-.028.022-.046.029l-3.533 1.005-3.538 4.043-.044.03-3.542 1.3-3.542 3.644c-.012.013-.027.022-.044.026l-3.564 1.139-3.507 2.002-3.599 4.043c-.02.017-.044.026-.07.026z"/></g><path d="M77.412 108.347c-.038 0-.076-.01-.109-.029s-.061-.047-.08-.079a.22.22 0 0 1-.022-.166c.015-.056.051-.104.101-.133l60.543-34.549c.05-.022.106-.025.157-.009s.096.051.123.097.036.101.025.154-.042.099-.086.13l-60.543 34.536c-.031.027-.069.043-.11.048z" class="D"/><g class="B"><use xlink:href="#J"/><use xlink:href="#K"/><use xlink:href="#L"/><use xlink:href="#M"/><use xlink:href="#N"/><use xlink:href="#O"/><use xlink:href="#P"/><use xlink:href="#Q"/><use xlink:href="#R"/><use xlink:href="#S"/><use xlink:href="#H" y="-4.078"/><use xlink:href="#T"/><use xlink:href="#U"/><use xlink:href="#V"/><use xlink:href="#W"/><use xlink:href="#X"/><use xlink:href="#Y"/><use xlink:href="#I" y="-2.033"/><use xlink:href="#Z"/></g><g class="E"><use xlink:href="#J"/><use xlink:href="#K"/><use xlink:href="#L"/><use xlink:href="#M"/><use xlink:href="#N"/><use xlink:href="#O"/><use xlink:href="#P"/><use xlink:href="#Q"/><use xlink:href="#R"/><use xlink:href="#S"/><use xlink:href="#H" y="-4.078"/><use xlink:href="#T"/><use xlink:href="#U"/><use xlink:href="#V"/><use xlink:href="#W"/><use xlink:href="#X"/><use xlink:href="#Y"/><use xlink:href="#I" y="-2.033"/><use xlink:href="#Z"/></g><path d="M79.275 88.444l3.459-1.98c.175-.1.316-.03.316.16-.008.105-.04.206-.095.295s-.13.165-.221.22l-3.45 1.98c-.171.1-.316.03-.316-.16a.67.67 0 0 1 .093-.293.68.68 0 0 1 .214-.222z" class="D"/><use xlink:href="#a" class="B"/><use xlink:href="#a" class="E"/><path d="M79.275 90.468l3.45-1.976c.175-.1.316-.03.316.156a.66.66 0 0 1-.094.298c-.055.09-.131.167-.222.222l-3.45 1.98c-.171.1-.316.026-.316-.16.008-.105.041-.206.096-.297s.13-.167.22-.223z" class="D"/><path d="M77.412 91.33c.254-.143.438-.03.438.26-.006.156-.048.308-.124.444s-.184.253-.314.34c-.254.143-.46.026-.46-.26a.99.99 0 0 1 .135-.447 1 1 0 0 1 .326-.337zm0 27.083c-.028-.001-.054-.011-.075-.03-.011-.01-.019-.022-.025-.036s-.009-.028-.009-.042a.11.11 0 0 1 .034-.078l1.806-1.837 1.754-.221 1.793-2.288 1.793.242 1.754-1.555 1.78-1.053 1.81-2.483 1.802.559 1.732-1.53a.11.11 0 0 1 .153 0c.011.009.02.021.026.034s.009.027.009.042-.003.028-.009.042-.015.024-.026.034l-1.824 1.612-1.754-.551-1.754 2.405-1.78 1.053-1.802 1.612-1.754-.238-1.753 2.258-1.867.216-1.754 1.781c-.014.024-.035.043-.061.052z" class="B"/><g class="C"><path d="M78.117 112.468c.013-.015.027-.028.044-.039a.3.3 0 0 1 .048-.035c.08-.051.172-.078.267-.078.079-.002.156.026.215.078.065.061.114.137.14.221a1.06 1.06 0 0 1 .053.351c0 .136-.018.272-.053.403a1.82 1.82 0 0 1-.14.386c-.056.118-.128.227-.215.325a1 1 0 0 1-.267.225c-.082.051-.175.08-.272.083a.34.34 0 0 1-.211-.083c-.067-.06-.117-.136-.145-.221-.034-.114-.05-.232-.048-.351-.007-.073-.007-.147 0-.221a1.68 1.68 0 0 1 .044-.212c0-.069.039-.134.061-.199l.066-.191.473-1.335a.43.43 0 0 0 .031-.065c.004-.013.011-.025.02-.035s.02-.019.032-.025l.149-.083c.021-.008.024-.008.027-.006s.008.032.008.058v.035.022l-.329.992zm-.338 1.127a.75.75 0 0 0 .031.208c.016.054.047.103.088.143.035.034.082.054.132.056.064-.001.126-.019.18-.052a.83.83 0 0 0 .18-.152 1.05 1.05 0 0 0 .132-.208c.076-.15.115-.317.114-.485.001-.07-.008-.14-.026-.208-.017-.054-.047-.104-.088-.143-.035-.034-.082-.054-.132-.056a.38.38 0 0 0-.18.052c-.068.04-.128.092-.18.151a.95.95 0 0 0-.132.213 1.08 1.08 0 0 0-.088.238 1.2 1.2 0 0 0-.031.243z"/><path d="M79.327 112.958c.009.036.021.073.035.108s.04.054.07.069c.04.014.083.014.123 0 .072-.015.14-.043.202-.082.056-.032.108-.072.153-.117a.79.79 0 0 0 .127-.165.85.85 0 0 0 .118-.45c.004-.068-.007-.136-.031-.2-.014-.041-.044-.075-.083-.095-.041-.013-.086-.013-.127 0-.056.015-.109.039-.158.069l-.215.122c-.007.006-.017.01-.026.01s-.019-.004-.026-.01c-.007-.02-.007-.042 0-.061v-.143c-.004-.024-.004-.049 0-.074l.026-.069.469-1.04-.75.433c-.015.011-.019.012-.024.012-.017-.005-.021-.008-.024-.012s-.022-.03-.022-.06v-.143a.15.15 0 0 1 .022-.087c.009-.025.026-.046.048-.061l1.026-.585h.048c.005.01.007.022.007.033s-.002.022-.007.032v.122c.004.025.004.052 0 .078a.35.35 0 0 1-.035.082l-.46 1.023a.5.5 0 0 1 .241-.074c.033-.003.066 0 .098.01s.061.025.086.046c.058.049.099.114.118.187.032.099.047.203.044.307 0 .133-.017.266-.053.395a1.55 1.55 0 0 1-.14.351 1.49 1.49 0 0 1-.206.286 1.08 1.08 0 0 1-.25.199.76.76 0 0 1-.302.113.31.31 0 0 1-.206-.044.33.33 0 0 1-.123-.156c-.029-.075-.044-.154-.044-.234-.006-.022-.006-.046 0-.069s.022-.036.04-.048l.118-.069h.048c.022.014.038.036.044.061z"/><path d="M80.879 112.074c.005.038.017.074.035.108s.039.056.07.069c.04.014.083.014.123 0 .072-.015.14-.043.202-.082.056-.032.108-.072.153-.117.051-.05.093-.107.127-.169s.066-.133.088-.204a.85.85 0 0 0 .031-.242.49.49 0 0 0-.031-.2c-.015-.04-.045-.074-.083-.095-.041-.013-.086-.013-.127 0a.75.75 0 0 0-.158.065l-.219.126c-.007.005-.015.008-.024.008s-.017-.003-.024-.008c-.007-.02-.007-.041 0-.061v-.143c-.007-.024-.007-.05 0-.074s.016-.047.026-.069l.469-1.04-.75.433c-.007.007-.017.01-.026.01s-.019-.003-.026-.01c-.007-.019-.007-.041 0-.06v-.143c-.006-.029-.006-.059 0-.087.004-.013.011-.025.02-.036s.02-.019.032-.025l1.026-.589c.007-.005.015-.008.024-.008s.017.003.024.008a.09.09 0 0 1 .022.065v.143a.29.29 0 0 1 0 .078c0 .026-.022.052-.035.082l-.46 1.023c.072-.043.153-.069.237-.078a.28.28 0 0 1 .188.061c.054.049.095.112.118.182.031.101.045.206.044.312a1.5 1.5 0 0 1-.053.394 1.66 1.66 0 0 1-.14.347c-.055.104-.124.2-.206.286-.072.08-.157.148-.25.203s-.195.097-.302.113c-.073.007-.146-.008-.21-.043a.4.4 0 0 1-.123-.156.66.66 0 0 1-.04-.234.14.14 0 0 1 0-.07c.007-.021.021-.039.04-.052l.118-.065c.007-.006.015-.009.024-.009s.018.003.024.009c.011.013.018.028.022.044z"/></g><path d="M77.732 119.813l15.391-8.818c.171-.1.316-.026.316.16a.68.68 0 0 1-.096.297.69.69 0 0 1-.22.223l-15.391 8.805c-.171.1-.316.03-.316-.16a.67.67 0 0 1 .098-.29.68.68 0 0 1 .217-.217zm0-10.166l3.45-1.976c.175-.1.316-.03.316.156-.008.105-.04.207-.095.297a.67.67 0 0 1-.221.223l-3.45 1.976c-.171.1-.316.03-.316-.156.008-.105.041-.207.096-.297a.69.69 0 0 1 .22-.223z" class="D"/><use xlink:href="#b" class="B"/><use xlink:href="#b" class="E"/><g class="C"><path d="M78.319 126.278c.006.03.006.061 0 .091-.01.024-.029.044-.053.056l-.105.061c-.006.006-.015.01-.024.01s-.018-.004-.024-.01a.09.09 0 0 1 0-.065v-2.167l-.438.728c-.017.032-.035.05-.053.052-.007.006-.015.01-.024.01s-.018-.004-.024-.01l-.061-.086c-.005-.011-.007-.023-.007-.035s.002-.024.007-.035c0-.03.009-.061.026-.086l.557-.971a.17.17 0 0 1 .044-.052l.039-.026.105-.061c.007-.006.017-.01.026-.01s.019.004.026.01a.08.08 0 0 1 0 .061l-.018 2.535zm1.14-2.002a1.6 1.6 0 0 0 .118-.282 1.09 1.09 0 0 0 .039-.312c.01-.109-.019-.218-.083-.307-.053-.061-.136-.061-.254 0a.48.48 0 0 0-.153.13.85.85 0 0 0-.11.169 1.72 1.72 0 0 0-.066.199 1.75 1.75 0 0 0-.04.208c-.004.029-.013.057-.026.082-.011.019-.026.035-.044.048l-.118.065h-.039c-.007-.017-.007-.035 0-.052.003-.109.017-.218.044-.325.028-.118.067-.232.118-.342a1.74 1.74 0 0 1 .193-.312.92.92 0 0 1 .259-.226.51.51 0 0 1 .254-.078c.068.003.132.031.18.078a.46.46 0 0 1 .114.208c.024.101.036.205.035.308a1.97 1.97 0 0 1 0 .238 1.89 1.89 0 0 1-.039.221l-.079.226c-.031.078-.07.156-.114.242l-.583 1.157.798-.455c.007-.006.015-.009.024-.009s.018.003.024.009v.061.143a.16.16 0 0 1 0 .087.1.1 0 0 1-.018.035c-.008.01-.019.019-.03.025l-1.122.642c-.007.005-.015.008-.024.008s-.017-.003-.024-.008c-.015-.017-.023-.039-.022-.061v-.143a.25.25 0 0 1 0-.082c.012-.036.027-.071.044-.104l.745-1.491z"/><path d="M81.519 122.842v.333.334c0 .153-.013.305-.039.455a2.3 2.3 0 0 1-.123.433c-.051.125-.121.242-.206.347s-.18.187-.294.251c-.088.059-.192.089-.298.087-.04-.004-.078-.017-.112-.036s-.065-.045-.089-.077c-.062-.081-.104-.176-.123-.277a2.18 2.18 0 0 1-.044-.407v-.685c.004-.154.018-.307.044-.459s.064-.295.123-.434a1.61 1.61 0 0 1 .202-.346 1.05 1.05 0 0 1 .298-.256.5.5 0 0 1 .294-.082c.041.004.08.016.116.036s.066.048.09.081c.06.083.102.177.123.277.029.14.043.282.039.425zm-1.083 1.3c-.017.17.022.342.109.489.07.083.175.083.311 0a.72.72 0 0 0 .307-.355 1.62 1.62 0 0 0 .114-.62v-.667a.81.81 0 0 0-.114-.494c-.07-.082-.171-.082-.307 0s-.25.206-.311.355c-.076.198-.113.409-.109.62v.672z"/></g><path d="M77.732 131.994l15.391-8.814c.171-.1.316-.031.316.16a.68.68 0 0 1-.316.516l-15.391 8.818c-.171.1-.316.026-.316-.16.008-.105.041-.207.096-.297a.68.68 0 0 1 .22-.223zm0-10.166l3.45-1.981c.175-.099.316-.026.316.161-.008.105-.04.207-.095.297s-.13.167-.221.223l-3.45 1.976c-.171.099-.316.03-.316-.156a.67.67 0 0 1 .096-.297.68.68 0 0 1 .22-.223z" class="D"/><path d="M98.778 106.18c-.016-.001-.032-.005-.046-.012s-.027-.018-.037-.031-.019-.021-.025-.035-.009-.027-.009-.041.003-.028.009-.041.014-.025.025-.035l1.78-1.404 1.793-2.023 1.819-.265 1.754-.385 1.802-2.098 1.753.308 1.754-2.777 1.806.026 1.753-1.538c.01-.01.023-.019.036-.025s.028-.009.043-.009.029.003.043.009.026.014.036.025c.02.02.031.047.031.076s-.011.056-.031.076l-1.811 1.599-1.753-.03-1.784 2.799-1.793-.312-1.754 2.058-1.819.407-1.753.252-1.754 1.976-1.797 1.451c-.023.008-.047.008-.07 0z" class="B"/><g class="C"><path d="M99.484 100.248l.044-.039.048-.035a.5.5 0 0 1 .254-.06c.079-.002.156.026.215.078.063.061.112.137.14.221a1.19 1.19 0 0 1 .048.351c-.001.135-.017.271-.048.403a2.11 2.11 0 0 1-.14.385c-.058.117-.13.226-.215.325-.077.091-.169.167-.272.226a.53.53 0 0 1-.267.082c-.079-.002-.155-.031-.215-.082a.51.51 0 0 1-.123-.256 1.04 1.04 0 0 1-.053-.351 1.85 1.85 0 0 1 0-.221c0-.074.026-.143.044-.212l.061-.204.07-.186.473-1.335.026-.065c.011-.025.03-.046.053-.061l.149-.082h.04c.006.017.006.035 0 .052.002.011.002.023 0 .035s.002.015 0 .022l-.333 1.01zm-.333 1.127c-.002.07.009.141.031.208a.33.33 0 0 0 .083.143c.036.035.085.055.136.056a.34.34 0 0 0 .175-.052.74.74 0 0 0 .18-.152 1.16 1.16 0 0 0 .136-.212c.035-.077.063-.156.083-.238a1.12 1.12 0 0 0 .03-.243c0-.07-.01-.14-.03-.208-.017-.053-.045-.102-.083-.143-.038-.033-.085-.053-.136-.056-.063.003-.125.02-.18.052-.066.041-.126.092-.175.151-.056.064-.102.136-.136.213a1.1 1.1 0 0 0-.083.238c-.021.079-.031.161-.031.243z"/><path d="M101.29 99.611c.048-.091.088-.187.118-.286s.039-.207.039-.312c.009-.108-.021-.215-.083-.303-.052-.065-.14-.061-.254 0-.059.033-.112.076-.158.126a.98.98 0 0 0-.105.173c-.029.062-.051.128-.066.195 0 .069-.031.139-.044.208-.002.029-.011.057-.026.082-.008.019-.022.036-.04.048l-.118.069c-.006.005-.014.008-.022.008s-.015-.003-.022-.008c-.006-.017-.006-.035 0-.052.001-.108.016-.216.044-.321.027-.118.067-.233.118-.342a1.47 1.47 0 0 1 .193-.312.93.93 0 0 1 .259-.23c.075-.047.161-.072.25-.074a.26.26 0 0 1 .1.02c.032.013.06.033.084.058.054.057.092.127.11.204.027.102.041.207.039.312.005.078.005.156 0 .234a1.28 1.28 0 0 1-.044.221c-.019.077-.044.152-.074.225l-.114.243-.583 1.157.798-.455c.006-.005.015-.008.024-.008s.017.003.024.008c.015.018.023.042.022.065v.143c-.002.03-.009.06-.022.087s-.028.044-.048.061l-1.123.637h-.052c-.008-.021-.008-.044 0-.065v-.143c-.005-.028-.005-.055 0-.083.011-.034.026-.067.044-.099l.732-1.491z"/><path d="M103.061 97.284c.006-.006.015-.009.024-.009s.017.003.024.009.015.019.019.03a.07.07 0 0 1 .003.035v.165a.51.51 0 0 1 0 .078v.095l-.579 2.6c-.008.028-.018.056-.031.082-.008.024-.025.044-.048.057l-.118.069c-.006.005-.014.008-.022.008s-.016-.003-.022-.008c-.008-.018-.008-.038 0-.056-.002-.012-.002-.023 0-.035l.579-2.6-.877.49c-.007.005-.015.008-.024.008s-.017-.003-.024-.008c-.016-.018-.024-.041-.022-.065v-.143c.001-.03.009-.059.022-.087s.027-.045.048-.061l1.048-.654z"/></g><path d="M99.102 107.593l15.387-8.818c.175-.1.315-.026.315.16-.007.105-.04.207-.095.297a.67.67 0 0 1-.22.223l-15.387 8.814c-.175.1-.316.026-.316-.16a.66.66 0 0 1 .095-.296.67.67 0 0 1 .22-.22zm0-10.17l3.446-1.976c.175-.1.32-.03.32.156a.67.67 0 0 1-.098.298.68.68 0 0 1-.222.222l-3.446 1.976c-.175.1-.316.03-.316-.156.008-.105.04-.207.095-.297a.68.68 0 0 1 .22-.223z" class="D"/><use xlink:href="#c" class="B"/><use xlink:href="#c" class="E"/><g class="C"><path d="M99.602 113.265l-.035.026h-.035a.53.53 0 0 1-.241.078.32.32 0 0 1-.21-.065c-.059-.051-.103-.117-.127-.19-.043-.118-.062-.244-.057-.369a1.59 1.59 0 0 1 .053-.403 2.03 2.03 0 0 1 .14-.377c.058-.111.128-.216.21-.312.07-.086.154-.159.25-.216a.58.58 0 0 1 .272-.087c.077.001.15.031.206.082a.5.5 0 0 1 .132.221 1.13 1.13 0 0 1 .043.347 1.25 1.25 0 0 1 0 .212c0 .074-.035.148-.052.226s-.044.147-.07.221l-.066.195-.474 1.334-.031.065c-.004.013-.011.025-.02.036s-.02.019-.032.025l-.149.087c-.024.006-.03.004-.035 0-.006-.019-.006-.038 0-.057v-.03c.001-.009.001-.017 0-.026l.329-1.023zm.338-1.122c.002-.072-.008-.144-.031-.212-.016-.046-.043-.086-.079-.117-.017-.017-.037-.029-.059-.037s-.045-.012-.069-.011c-.059.003-.116.019-.167.048-.062.037-.119.084-.167.138a.87.87 0 0 0-.127.195c-.075.148-.112.312-.11.477-.002.073.007.146.026.217.016.051.044.097.083.134.035.031.08.047.127.048.059.001.117-.016.167-.048a.71.71 0 0 0 .167-.139 1.13 1.13 0 0 0 .127-.195 1.03 1.03 0 0 0 .083-.229.97.97 0 0 0 .026-.269z"/><path d="M100.614 112.966c.009.038.022.074.04.109a.16.16 0 0 0 .07.073c.04.012.083.012.123 0a.61.61 0 0 0 .201-.082c.056-.032.108-.072.154-.117s.091-.106.127-.165a1.12 1.12 0 0 0 .088-.208c.021-.079.032-.161.03-.242.004-.068-.006-.136-.03-.2-.016-.04-.045-.074-.084-.095-.041-.011-.085-.011-.127 0-.055.015-.109.039-.158.069l-.219.122c-.006.006-.015.009-.024.009s-.017-.003-.024-.009-.006-.02-.006-.031a.08.08 0 0 1 .006-.03v-.143a.23.23 0 0 1 0-.074l.031-.069.469-1.04-.754.433c-.007.006-.015.01-.024.01s-.018-.004-.024-.01c-.015-.018-.023-.041-.022-.065v-.143a.2.2 0 0 1 .022-.086c.01-.025.026-.046.048-.061l1.03-.585c.006-.006.015-.01.024-.01s.018.004.024.01c.015.017.023.038.022.061v.143c.004.025.004.052 0 .078a.65.65 0 0 1-.035.082l-.46 1.023c.071-.044.153-.069.236-.074.067-.005.133.015.185.056.058.05.1.114.122.187.031.099.045.203.044.307a1.47 1.47 0 0 1-.052.395c-.035.121-.082.239-.141.351-.057.103-.126.199-.206.286-.072.078-.156.145-.25.199s-.194.097-.302.113c-.073.009-.147-.006-.21-.044a.39.39 0 0 1-.123-.156.64.64 0 0 1-.04-.229.23.23 0 0 1 0-.074.12.12 0 0 1 .044-.048l.119-.069h.043c.006.006.01.013.012.02s.003.016.001.023z"/></g><path d="M99.102 119.774l15.387-8.827c.175-.1.315-.03.315.16a.65.65 0 0 1-.095.296.67.67 0 0 1-.22.22l-15.387 8.818c-.175.1-.316.026-.316-.16.01-.103.043-.202.098-.29s.129-.162.218-.217zm0-10.166l3.446-1.98c.175-.1.32-.026.32.16a.68.68 0 0 1-.098.298c-.055.09-.132.166-.222.222l-3.446 1.976c-.175.1-.316.03-.316-.156a.66.66 0 0 1 .094-.298.68.68 0 0 1 .221-.222z" class="D"/><g class="B"><path d="M121.928 86.412c.291-.201.63-.322.984-.35s.708.035 1.028.186l-2.03 5.408.018-5.243z"/><path d="M119.898 88.579c.482-.879 1.18-1.624 2.03-2.167v5.261l-2.03-3.094z"/><path d="M118.64 91.924a10.51 10.51 0 0 1 1.258-3.345l2.03 3.094-3.288.251z"/></g><path d="M119.898 88.579a10.51 10.51 0 0 0-1.258 3.345l3.288-.251v-5.261c-.85.543-1.548 1.288-2.03 2.167z" class="E"/><g class="B"><path d="M123.94 86.247c.333.213.617.493.833.822a2.78 2.78 0 0 1 .425 1.085l-3.288 3.501 2.03-5.408z"/><path d="M118.64 95.174a6.51 6.51 0 0 1-.171-1.53c.002-.582.06-1.162.171-1.733l3.288-.251-3.288 3.514zm6.576-3.753a10.51 10.51 0 0 1-1.258 3.345l-2.03-3.094 3.288-.251z"/><path d="M121.928 96.933c-.294.201-.638.321-.995.347a2.03 2.03 0 0 1-1.035-.199l2.03-5.408v5.261z"/><path d="M118.64 95.174l3.288-3.501-2.03 5.408c-.332-.213-.616-.493-.833-.822s-.361-.698-.425-1.085zm6.576-7.003a6.46 6.46 0 0 1 .166 1.53 9.17 9.17 0 0 1-.166 1.733l-3.288.251 3.288-3.514z"/><path d="M123.94 94.767c-.482.879-1.18 1.624-2.03 2.167v-5.261l2.03 3.094z"/></g><path d="M120.205 99.615l3.446-1.976c.175-.1.315-.03.315.156-.007.105-.04.207-.095.297s-.13.167-.22.223l-3.446 1.976c-.175.1-.315.031-.315-.156.007-.105.04-.206.095-.297a.67.67 0 0 1 .22-.223z" class="C"/><path d="M119.442 102.09l4.972-2.843c.175-.1.315-.03.315.16a.65.65 0 0 1-.095.295.67.67 0 0 1-.22.22l-4.972 2.851c-.175.1-.315.031-.315-.156a.65.65 0 0 1 .092-.302.67.67 0 0 1 .223-.226zm0 2.036l4.972-2.851c.175-.1.315-.026.315.16a.65.65 0 0 1-.095.296.67.67 0 0 1-.22.22l-4.972 2.851c-.175.1-.315.031-.315-.156.007-.105.039-.207.094-.297s.131-.167.221-.223zm0 2.054l4.972-2.851c.175-.1.315-.026.315.16-.008.105-.04.207-.095.298s-.13.166-.22.222l-4.972 2.847c-.175.1-.315.031-.315-.156.007-.105.04-.207.095-.297a.68.68 0 0 1 .22-.223z" class="D"/><g class="B"><path d="M134.391 79.271c.294-.201.638-.321.994-.347a2.03 2.03 0 0 1 1.036.199l-2.03 5.391v-5.243z"/><path d="M132.361 81.437a6.03 6.03 0 0 1 2.03-2.167v5.243l-2.03-3.077z"/><path d="M131.107 84.783c.224-1.177.647-2.308 1.254-3.345l2.03 3.094-3.284.251z"/><path d="M136.421 79.123c.332.213.616.493.833.822a2.81 2.81 0 0 1 .425 1.085l-3.288 3.501 2.03-5.408zm-5.314 8.91a6.57 6.57 0 0 1-.171-1.53 9.34 9.34 0 0 1 .171-1.733l3.284-.251-3.284 3.514z"/><path d="M137.679 84.28a10.48 10.48 0 0 1-1.258 3.345l-2.03-3.111 3.288-.234z"/><path d="M134.391 89.792c-.294.201-.638.321-.994.347a2.04 2.04 0 0 1-1.036-.196l2.03-5.43v5.278z"/><path d="M131.107 88.033l3.284-3.501-2.03 5.412a2.84 2.84 0 0 1-.83-.825c-.216-.329-.36-.699-.424-1.086z"/></g><path d="M132.361 81.437c-.607 1.037-1.03 2.168-1.254 3.345a9.34 9.34 0 0 0-.171 1.733c-.003.515.054 1.028.171 1.53.064.387.208.757.424 1.086a2.85 2.85 0 0 0 .83.825l2.03-5.443v-5.243a6.03 6.03 0 0 0-2.03 2.167z" class="E"/><g class="B"><path d="M137.679 81.047a6.51 6.51 0 0 1 .171 1.53c-.002.582-.06 1.162-.171 1.733l-3.288.251 3.288-3.514z"/><path d="M136.421 87.625c-.481.88-1.18 1.625-2.03 2.167v-5.278l2.03 3.111z"/></g><path d="M132.668 92.5l3.45-1.976c.175-.1.316-.03.316.156a.67.67 0 0 1-.094.298c-.055.09-.131.167-.222.222l-3.45 1.98c-.175.1-.316.026-.316-.16a.68.68 0 0 1 .316-.52z" class="C"/><path d="M131.91 94.975l4.966-2.851c.176-.1.316-.026.316.16a.67.67 0 0 1-.316.52l-4.966 2.847c-.176.1-.32.03-.32-.156a.67.67 0 0 1 .097-.298c.056-.09.132-.166.223-.222zm0 2.036l4.966-2.847c.176-.1.316-.03.316.156a.67.67 0 0 1-.316.52l-4.966 2.847c-.176.104-.32.03-.32-.156a.67.67 0 0 1 .097-.298c.056-.09.132-.167.223-.222zm0 2.037l4.966-2.834c.176-.1.316-.03.316.156a.67.67 0 0 1-.316.52l-4.966 2.851c-.176.1-.32.026-.32-.16a.67.67 0 0 1 .094-.305.68.68 0 0 1 .226-.228z" class="D"/><path d="M134.325 149.808a5.75 5.75 0 0 0-.686-2.61c-.434-.804-1.053-1.496-1.808-2.018-.71-.434-1.364-.499-1.85-.252-2.933 1.456-23.541 14.521-24.86 15.167-.143.088-.259.213-.336.361a.9.9 0 0 0-.102.48 2.88 2.88 0 0 0 .345 1.311 2.93 2.93 0 0 0 .908 1.016c.132.102.289.168.455.189a.94.94 0 0 0 .488-.068c2.086-1.135 22.431-9.707 26.587-11.908.517-.26.833-.836.859-1.668z" class="B"/><path d="M133.514 146.991c-.406-.728-.984-1.349-1.683-1.811-.706-.434-1.359-.499-1.841-.256l-.062.03c-2.678 1.357-18.017 11.029-23.176 14.175h-.035l-.211.13-.061.039-.259.151c-.543.33-.916.542-1.056.611a.61.61 0 0 0-.119.096 1 1 0 0 0-.227.342 1.01 1.01 0 0 0-.071.403 2.34 2.34 0 0 0 0 .29v.117c0 .039 0 .117.035.178l.04.143c0 .056.035.108.057.165a.98.98 0 0 0 .044.125l28.625-14.928z" class="E"/><path d="M105.941 163.271c-.379-.261-.69-.608-.907-1.011s-.334-.851-.343-1.307c.027-.836.632-1.157 1.355-.715a2.92 2.92 0 0 1 .896 1.014 2.89 2.89 0 0 1 .34 1.304c0 .824-.622 1.157-1.341.715z" class="B"/><path d="M99.782 163.835a2.21 2.21 0 0 0 .265 1.003c.167.31.405.576.695.777a.72.72 0 0 0 .346.142.74.74 0 0 0 .373-.046l4.988-2.622c.105-.07.19-.166.245-.278a.7.7 0 0 0 .071-.363c-.008-.351-.099-.694-.265-1.004s-.405-.575-.695-.777c-.101-.077-.221-.126-.347-.142s-.255.002-.372.051l-4.984 2.622a.71.71 0 0 0-.32.637z" class="F"/><path d="M100.106 163.189c-.107.069-.194.166-.251.279a.71.71 0 0 0-.074.367 1.9 1.9 0 0 0 .149.758l6.431-3.38a1.93 1.93 0 0 0-.553-.546c-.101-.077-.221-.126-.347-.142a.73.73 0 0 0-.372.051l-4.984 2.622v-.009z" class="G"/><path d="M106.177 168.207c0-3.159-2.113-6.314-6.334-8.723-8.443-4.819-22.133-4.819-30.576 0-4.222 2.409-6.334 5.564-6.334 8.723v5.819c0 3.155 2.113 6.314 6.334 8.723 8.443 4.819 22.133 4.819 30.576 0 4.221-2.409 6.334-5.568 6.334-8.723v-5.819zm-35.863-6.933c3.77-2.167 8.829-3.337 14.243-3.337s10.473 1.183 14.243 3.337c3.41 1.945 5.286 4.406 5.286 6.933s-1.876 4.992-5.286 6.933c-3.77 2.167-8.829 3.337-14.243 3.337s-10.473-1.188-14.243-3.337c-3.411-1.946-5.291-4.411-5.291-6.933s1.881-4.988 5.291-6.933z" class="B"/><path d="M69.267 176.934c8.443 4.819 22.133 4.819 30.576 0s8.443-12.631 0-17.45-22.133-4.819-30.576 0-8.452 12.631 0 17.45zm-4.243-8.727c0-2.526 1.876-4.988 5.287-6.933 3.77-2.167 8.829-3.337 14.243-3.337s10.473 1.183 14.247 3.337c3.406 1.945 5.286 4.407 5.286 6.933s-1.88 4.992-5.286 6.933c-3.774 2.167-8.833 3.337-14.247 3.337s-10.473-1.188-14.243-3.337c-3.406-1.941-5.287-4.394-5.287-6.933z" fill="#fff"/><use xlink:href="#d" class="B"/><use xlink:href="#d" class="E"/><path d="M70.31 163.904c3.77-2.167 8.829-3.337 14.243-3.337s10.473 1.188 14.247 3.337c2.81 1.608 4.576 3.566 5.111 5.633-.535 2.054-2.301 4.013-5.111 5.633-3.774 2.167-8.833 3.337-14.247 3.337S74.08 177.32 70.31 175.17c-2.814-1.607-4.581-3.566-5.111-5.633.531-2.067 2.297-4.025 5.111-5.633z" fill="#fff"/><path d="M79.459 180.206v5.811a28.49 28.49 0 0 1-10.192-3.268c-4.222-2.409-6.334-5.568-6.334-8.727v-5.815c.002-.644.089-1.285.259-1.907-1.026 3.757.999 7.735 6.071 10.634 3.159 1.718 6.619 2.829 10.197 3.272z" class="E"/><path d="M182.511 144.686c.258.104.311.589.328 1.555 0 .733.141 2.015-.727 2.249s-2.14.078-2.679-.624c-.675-.866-1.126-1.642-2.091-2.717-.837-.927-1.753-1.798-2.064-3.08-.285-1.162 0-1.656.793-1.976 1.105-.434 2.788 1.109 3.643 1.365.732.221 2.529 3.124 2.797 3.228z" class="G"/><path d="M182.533 143.793l-.027 1.183a2.95 2.95 0 0 1-3.033 0c-.053-.113-.276-1.703-.276-1.703l3.336.52z" class="H"/><path d="M172.639 151.307a20.24 20.24 0 0 0 .486 1.946c.132.719.316 1.924.048 2.457s-1.267.866-2.801.814c-.995-.03-2.56.603-3.638 1.166s-3.398.771-4.555.611c-1.363-.191-2.762-1.005-2.968-1.569s.097-1.139 3.349-2.426c.031 0 4.516-1.344 6.111-3.008l3.968.009z" class="G"/><path d="M172.669 150.024l-.035 1.383c-.009.515-.622 1.239-2.192 1.148-1.091-.061-1.85-.368-1.784-1.257l.031-1.3 3.98.026z" class="H"/><path d="M183.672 128.068a31.79 31.79 0 0 0-1.275-6.21s.548-5.321.876-10.374c.347-5.451.671-8.259-.416-16.137 0 0-16.917-1.504-17.377 4.801s.193 22.39.342 25.168.574 5.239 1.052 9.746 1.837 14.954 1.837 14.954a4.26 4.26 0 0 0 1.983.489c.692 0 1.373-.168 1.984-.489 0 0 1.539-12.593 1.482-15.791a27.12 27.12 0 0 0-1.07-7.011l.877-9.715.877-8.667.385-.177.364 10.59c.149 2.791.531 5.447 1.223 10.612.605 4.49 2.464 14.023 2.464 14.023 2.012 1.131 3.253-.07 3.253-.07s1.6-11.855 1.139-15.742z" class="F"/><path d="M174.822 108.854s4.383-2.011 6.575-3.861c0 0-2.069 2.752-4.734 3.935l-1.153 9.485-.325-9.563-.363.004z" class="G"/><path d="M171.792 72.879l.658 5.772 5.515-.277-.61-6.738-5.563 1.244z" class="H"/><path d="M180.051 75.089c2.052-.095 3.095.212 4.02 1.963s1.28 6.981 1.605 9.681.399 4.598-.724 4.875-5.497.399-5.497.399l.596-16.917z" class="F"/><path d="M183.51 78.079c-.294-1.612-2.446-3.311-4.458-2.99l-1.363.23c-.242.971-2.933 1.577-5.506.979l-3.976.888c-1.846.607-2.631 2.405-2.898 8.363l.075 16.184c4.563 1.907 9.354 1.955 12.015 1.443 5.541-1.066 6.256-3.31 6.256-3.31l-.824-6.175s1.354-11.955.679-15.613z" class="C"/><path d="M172.007 74.781l.044.364a8.26 8.26 0 0 0 3.384 0c1.793-.394 2.157-.893 2.157-.893l-.039-.433s.438-.16.679.516a7.77 7.77 0 0 1 .263.828s.206 1.244-1.902 1.876a6.6 6.6 0 0 1-2.691.267 6.58 6.58 0 0 1-2.57-.834l-.824.173.929-1.959a.55.55 0 0 1 .518-.286l.052.381z" class="F"/><path d="M155.17 68.589l-10.938 5.642 5.436 14.69 10.205-5.651-4.703-14.681z" class="C"/><path d="M154.67 70.028l-9.18 4.732 4.814 12.632 8.561-4.745-4.195-12.618z" fill="#f5f5f5"/><path d="M152.732 71.393l-.18-.433c-.1-.23-.876-.1-1.705.329l-1.613.828c-.846.433-1.451.979-1.35 1.226l.175.433 4.673-2.383z" class="E"/><g class="B"><path d="M152.552 69.595c-.057-.156-.39-.13-.74.056l-.632.338s-.39-.971-1.845-.299-1.122 1.798-1.122 1.798l-.671.364c-.373.204-.636.494-.592.65l.083.286 5.633-2.903-.114-.29z"/><use xlink:href="#e"/></g><use xlink:href="#e" class="E"/><path d="M152.837 71.415l-.175-.433c-.101-.251-.877-.104-1.705.329l-1.618.823c-.841.433-1.446.979-1.35 1.231l.18.433 4.668-2.383z" class="B"/><g class="H"><path d="M168.215 77.186c-2.525.217-3.599.672-5.492 4.047-2.061 3.67-6.015 10.305-6.515 11.145-.697 1.166-.828 2.938-.227 4.008.561 1.001 2.345 1.456 4.383-.802 2.407-2.687 6.883-9.247 6.883-9.247s3.778-4.957.968-9.152z"/><path d="M157.019 97.154c-1.937-.23-6.457-6.292-7.741-8.272-1.016-1.608-2.349-2.998-3.919-4.086-2.047-1.495-1.754-3.796-.855-5.902.307-.728 1.359-.256 1.359-.256l.368 1.001.64 1.733c.439.399.684.529.71.412.057-.225-.315-1.157-.306-2.128 0-1.166.837-.399 1.082 0a13.97 13.97 0 0 1 .877 1.928c.412 1.044.246 2.102.745 2.812s7.246 7.102 7.246 7.102l-.206 5.655z"/></g><path d="M168.693 77.052c-1.53-.035-3.366.208-4.791 2.037s-7.124 11.769-7.124 11.769l-3.195-2.834c-1.247.775-2.133 2.005-2.464 3.423.871 1.365 1.838 2.669 2.893 3.9 1.355 1.465 2.863 2.483 4.099 2.032s2.499-1.417 5.16-5.083 5.567-7.986 5.567-7.986 1.837-4.221-.145-7.258z" class="F"/><path d="M167.904 65.812s-1.376 2.063-1.218 2.266 1.17.386 1.17.386l.048-2.652z" fill="#f28f8f"/><path d="M168.549 67.138c-.326 0-.644-.096-.914-.274a1.63 1.63 0 0 1-.606-.73 1.61 1.61 0 0 1 .359-1.771c.23-.227.523-.381.843-.444a1.66 1.66 0 0 1 .95.094c.3.124.556.333.737.6a1.61 1.61 0 0 1-.209 2.05 1.65 1.65 0 0 1-1.16.475zm0-2.886a1.29 1.29 0 0 0-.713.211c-.211.139-.376.336-.473.567s-.124.486-.075.731a1.26 1.26 0 0 0 .35.649 1.28 1.28 0 0 0 .655.347c.248.049.506.024.74-.071a1.28 1.28 0 0 0 .575-.466c.141-.208.216-.453.216-.703a1.26 1.26 0 0 0-.373-.893 1.29 1.29 0 0 0-.902-.372z" class="G"/><path d="M171.722 60.096c-2.788.581-3.594 1.794-3.857 6.166-.272 4.576.201 6.01.806 6.626.412.433 2.692.494 3.84.178 1.443-.39 4.695-1.53 6.216-3.831 1.793-2.704 2.262-6.374.347-7.878-2.692-2.119-6.212-1.499-7.352-1.261z" class="H"/><path d="M171.828 73.196l-.132-.841a5.53 5.53 0 0 1-2.854.637c.531.256 1.916.334 2.986.204z" fill="#f28f8f"/><g class="G"><path d="M167.062 65.175l4.954.633-.197.347-4.757-.611v-.368z"/><path d="M167.4 61.864a1.63 1.63 0 0 0 .631-.039.97.97 0 0 0-.029.631.98.98 0 0 0 .367.517 1.42 1.42 0 0 0 .605.228c.217.029.437.007.644-.063a1.18 1.18 0 0 0-.136.867 1.38 1.38 0 0 0 .533.773c.264.188.585.28.91.258.03.641.039 1.265.727 1.556 0 0 .439-1.69 1.885-1.478s1.644 2.041.732 3.155-1.753.689-1.753.685c.083.039.114.581.14.68.094.32.218.631.373.927a4.42 4.42 0 0 0 1.315 1.508 3.22 3.22 0 0 0 1.234.65c.454.124.931.148 1.396.07a2.84 2.84 0 0 0 1.127-.542 2.8 2.8 0 0 0 .78-.971 1.57 1.57 0 0 1 .307-.55 1.85 1.85 0 0 1 .71-.303 2.09 2.09 0 0 0 .767-.455 2.05 2.05 0 0 0 .504-.731c.113-.277.163-.574.148-.872a2.04 2.04 0 0 0-.235-.853 1.92 1.92 0 0 0 .901-.519 1.89 1.89 0 0 0 .492-.909 1.87 1.87 0 0 0-.063-1.029 1.89 1.89 0 0 0-.598-.844c.403-.257.715-.633.892-1.074a2.25 2.25 0 0 0 .094-1.387 2.31 2.31 0 0 0-.618-.992 2.35 2.35 0 0 0-1.03-.568c-.566-.16-.347-.247-.522-.793a2.03 2.03 0 0 0-.649-.958c-.266-.209-.579-.35-.913-.411a2.1 2.1 0 0 0-1.002.06 1.92 1.92 0 0 0-.485-.934c-.247-.261-.561-.449-.909-.543a1.89 1.89 0 0 0-.982-.039c-.233.056-.706.269-.794.49-.294-.286-.39-.663-.745-.919-.242-.178-.519-.303-.813-.367a2.14 2.14 0 0 0-.893-.003c-.295.062-.573.185-.815.362s-.444.402-.592.662c-.249-.262-.551-.468-.886-.607a2.62 2.62 0 0 0-1.06-.199c-.364.013-.718.119-1.029.306s-.568.451-.746.764c-.169.319-.236.681-.193 1.038a1.77 1.77 0 0 0 .434.964c-.457.173-.838.498-1.079.919-.121.228-.171.486-.144.742a1.29 1.29 0 0 0 .298.696c.135.187.325.328.543.403.074.019.149.034.224.043z"/><path d="M171.626 67.541l.048-1.915c-.257-.006-.506.089-.692.264s-.294.416-.301.67.09.5.267.684.421.291.678.297z"/></g><defs ><path id="B" d="M183.19 137.714c0-2.709-.543-7.696 1.754-12.376 1.683-3.393 4.686-6.686 7.483-6.357 2.599.303 2.836 4.259.346 6.968s-5.655 6.456-6.348 12.441l-1.793 4.445-1.442-5.121z"/><path id="C" d="M27.67 144.278v-77.47c.02-.396.134-.781.333-1.125a2.54 2.54 0 0 1 .811-.855L127.885 8.3c.636-.364 1.158-.069 1.158.659v77.475a2.51 2.51 0 0 1-.339 1.127 2.54 2.54 0 0 1-.819.853l-99.071 56.527c-.627.364-1.144.07-1.144-.663z"/><path id="D" d="M41.799 79.678v-5.013c.018-.326.113-.643.277-.926s.394-.524.67-.703l100.128-57.06c.294-.147.618-.224.947-.224a2.11 2.11 0 0 1 .947.224l.522.299c.276.178.507.418.672.7s.261.599.279.925v5.018L44.227 81.047l-2.429-1.369z"/><path id="E" d="M44.227 76.047a2.06 2.06 0 0 1 .277-.926 2.09 2.09 0 0 1 .67-.703l100.119-57.069c.522-.303.947-.061.947.537v5.031L44.227 81.047v-5.001z"/><path id="F" d="M44.503 75.119a1.92 1.92 0 0 0-.276.927v5.001l-2.424-1.382V74.66c.011-.326.106-.644.276-.923l2.424 1.382z"/><path id="G" d="M64.322 74.924l-16.627 9.499a1.22 1.22 0 0 0-.394.411c-.097.166-.152.352-.163.543v1.712c0 .351.25.49.557.316l16.627-9.499a1.22 1.22 0 0 0 .394-.411c.097-.166.152-.352.163-.543v-1.707c0-.351-.25-.494-.557-.321z"/><path id="H" d="M113.025 83.214c.254-.147.438-.03.438.26a1 1 0 0 1-.126.443 1.01 1.01 0 0 1-.312.341c-.255.143-.439.026-.439-.264a.98.98 0 0 1 .125-.442 1 1 0 0 1 .314-.338z"/><path id="I" d="M137.968 68.971c.25-.143.438-.026.438.264a.99.99 0 0 1-.126.441c-.076.135-.183.251-.312.339-.254.147-.46.03-.46-.26.009-.157.056-.31.136-.446a1.02 1.02 0 0 1 .324-.338z"/><path id="J" d="M77.412 103.524c.254-.143.438-.026.438.26a.98.98 0 0 1-.124.444c-.076.136-.184.253-.314.34-.254.143-.438.026-.438-.26a.98.98 0 0 1 .125-.443c.076-.137.184-.253.314-.341z"/><path id="K" d="M80.98 97.427c.254-.143.46-.026.46.26-.008.157-.055.311-.135.447a1 1 0 0 1-.326.337c-.25.143-.438.026-.438-.26a.99.99 0 0 1 .125-.443c.076-.136.183-.253.313-.341z"/><path id="L" d="M84.861 97.377c.179-.307.18-.638.002-.74s-.468.064-.647.371-.18.638-.002.739.468-.064.647-.371z"/><path id="M" d="M88.095 89.281c.254-.147.438-.03.438.26-.006.156-.049.307-.125.444a1 1 0 0 1-.313.341c-.254.143-.438.026-.438-.264a.98.98 0 0 1 .125-.442.99.99 0 0 1 .313-.338z"/><path id="N" d="M91.659 91.33c.254-.143.438-.026.438.26a.99.99 0 0 1-.125.444 1 1 0 0 1-.313.341c-.25.143-.438.026-.438-.26a.99.99 0 0 1 .125-.443c.076-.136.183-.253.313-.341z"/><path id="O" d="M95.218 90.312c.254-.143.438-.026.438.264a.98.98 0 0 1-.125.442.99.99 0 0 1-.313.338c-.254.147-.438.03-.438-.26.007-.155.05-.307.126-.443a1.01 1.01 0 0 1 .313-.341z"/><path id="P" d="M98.778 87.266c.254-.147.46-.03.46.26-.009.157-.055.31-.135.447s-.191.252-.325.338c-.25.143-.438.026-.438-.26a.99.99 0 0 1 .125-.443c.076-.136.183-.253.313-.341z"/><path id="Q" d="M102.342 83.214c.25-.147.438-.03.438.26a1 1 0 0 1-.127.443c-.076.136-.182.253-.311.342-.255.143-.439.026-.439-.264.007-.155.05-.306.126-.442a.99.99 0 0 1 .313-.338z"/><path id="R" d="M105.901 82.183c.254-.143.439-.026.439.26a.99.99 0 0 1-.125.444 1.01 1.01 0 0 1-.314.341c-.254.143-.438.026-.438-.26a.99.99 0 0 1 .124-.444 1.01 1.01 0 0 1 .314-.34z"/><path id="S" d="M109.474 79.136c.254-.147.438-.03.438.26a1 1 0 0 1-.126.443c-.076.136-.183.253-.312.341-.25.143-.438.026-.438-.264a.99.99 0 0 1 .126-.441c.076-.135.183-.251.312-.339z"/><path id="T" d="M116.584 71.003c.255-.143.439-.026.439.264-.007.155-.05.306-.126.441a.99.99 0 0 1-.313.339c-.25.147-.438.03-.438-.26a1 1 0 0 1 .127-.443c.076-.136.182-.253.311-.342z"/><path id="U" d="M120.148 75.041c.25-.143.439-.03.439.26a1 1 0 0 1-.439.784c-.254.143-.46.026-.46-.26a.98.98 0 0 1 .135-.447 1 1 0 0 1 .325-.338z"/><path id="V" d="M123.708 71.003c.254-.143.438-.026.438.264a.98.98 0 0 1-.125.441 1 1 0 0 1-.313.339c-.254.147-.439.03-.439-.26a1 1 0 0 1 .126-.443c.076-.136.183-.253.313-.341z"/><path id="W" d="M127.272 68.971c.25-.143.438-.026.438.264a.99.99 0 0 1-.126.441c-.076.135-.183.251-.312.339-.255.147-.461.03-.461-.26.01-.157.057-.31.137-.446a1 1 0 0 1 .324-.338z"/><path id="X" d="M130.831 68.971c.255-.143.439-.026.439.264a.98.98 0 0 1-.125.442 1 1 0 0 1-.314.338c-.254.147-.438.03-.438-.26a1 1 0 0 1 .126-.443c.076-.136.183-.253.312-.341z"/><path id="Y" d="M134.391 66.938c.254-.143.46-.026.46.264-.009.157-.055.309-.135.445s-.191.251-.325.335c-.25.147-.439.03-.439-.26.008-.155.051-.307.127-.443a1.02 1.02 0 0 1 .312-.342z"/><path id="Z" d="M77.412 104.157a.11.11 0 0 1-.057 0c-.025-.015-.043-.038-.05-.066s-.004-.057.011-.082l3.586-6.109a.1.1 0 0 1 .075-.052l3.481-.737 3.538-7.323c.007-.014.017-.026.029-.035s.026-.017.041-.021.029-.009.044-.009.03.003.044.009l3.507 2.011 3.507-1.001 3.538-3.033 3.555-4.056c.013-.018.032-.03.053-.035l3.538-1.01 3.542-3.033c.02-.018.047-.027.074-.026h3.507l3.516-8.064c.008-.017.021-.031.036-.043s.033-.019.052-.022.036 0 .053.007.032.018.043.032l3.481 3.969 3.476-3.969c.008-.011.018-.02.031-.026l3.572-2.037c.017-.006.036-.006.053 0h3.533l3.507-2.011c.017-.004.035-.004.053 0h3.59c.029 0 .057.011.077.032s.033.048.033.077-.012.056-.033.077-.048.032-.077.032h-3.533l-3.507 2.011h-3.586l-3.533 2.015-3.547 4.052c-.01.011-.023.02-.038.026s-.029.009-.045.009-.031-.003-.045-.009-.028-.015-.038-.026l-3.45-3.935-3.507 7.973c-.009.019-.023.036-.041.047s-.039.018-.06.018h-3.507l-3.564 2.999h-.044l-3.529 1.005-3.546 4.043-3.568 3.059-.039.022-3.56 1.018c-.013.006-.027.009-.042.009s-.029-.003-.042-.009l-3.463-1.976-3.507 7.267c-.006.015-.016.028-.029.038s-.029.016-.045.018l-3.507.737-3.564 6.067c-.004.018-.012.034-.025.048s-.028.024-.046.03z"/><path id="a" d="M77.412 89.281c.254-.147.438-.03.438.26-.006.156-.048.308-.124.444s-.184.253-.314.341c-.254.143-.46.026-.46-.26a.99.99 0 0 1 .135-.447 1 1 0 0 1 .326-.337z"/><path id="b" d="M77.412 130.598c-.014 0-.028-.003-.041-.009a.11.11 0 0 1-.033-.025c-.011-.01-.019-.022-.025-.035s-.009-.027-.009-.041.003-.028.009-.041.014-.025.025-.035l1.806-1.837 1.789-.221 1.797-1.556 1.754-.468 1.811-3.558 1.81.867 1.754-1.525h.031l1.732-.325 1.753-2.995c.006-.013.015-.026.027-.036s.025-.017.039-.022.03-.006.045-.005a.13.13 0 0 1 .043.014c.013.008.025.018.034.031s.015.026.018.041.003.03 0 .045-.01.029-.019.041l-1.802 3.081-1.802.338-1.815 1.577-1.754-.867-1.753 3.467-1.802.485-1.788 1.556-1.775.225-1.754 1.781c-.011.017-.027.031-.046.04s-.039.013-.06.012z"/><path id="c" d="M98.778 118.374c-.019.004-.038.004-.057 0-.024-.016-.04-.041-.047-.069s-.002-.057.012-.082l1.819-2.947 1.832.334 1.723-.468 1.78-2.145 1.753-.434 1.798-3.172 1.841.529 1.727-.325 1.753-1.543c.011-.011.023-.021.037-.027s.03-.01.046-.01.031.003.045.009.027.016.037.027.018.025.023.04.006.03.004.045-.007.03-.015.044-.019.024-.032.033l-1.802 1.586h-.026l-1.815.338-1.696-.49-1.754 3.103-1.793.433-1.779 2.145h-.031l-1.806.49h-.026l-1.706-.312-1.753 2.821c-.01.014-.024.027-.04.035s-.034.012-.052.012z"/><path id="d" d="M65.023 168.207c.014 1.027.304 2.032.842 2.912.877-1.469 2.367-2.847 4.449-4.03 3.766-2.167 8.824-3.337 14.243-3.337s10.473 1.183 14.238 3.337c2.078 1.183 3.59 2.561 4.45 4.03a5.73 5.73 0 0 0 .841-2.912c0-2.527-1.876-4.988-5.291-6.933-3.765-2.167-8.829-3.337-14.238-3.337s-10.477 1.187-14.243 3.337c-3.415 1.945-5.291 4.406-5.291 6.933z"/><path id="e" d="M151.948 70.245c-.527.256-.733.381-.584.763l.334.75-2.49 1.3-.298-.767c-.092-.212-.277-.316-.671-.113l-.149-.156 3.945-1.98-.087.204z"/></defs></svg>