<svg xmlns="http://www.w3.org/2000/svg" xmlns:xlink="http://www.w3.org/1999/xlink" width="257" height="200" fill="none" xmlns:v="https://vecta.io/nano"><style><![CDATA[.B{fill:#ffb68e}.C{fill:#fff}.D{fill:#000538}.E{fill:#172755}.F{fill:#de5f12}.G{fill:#003b64}.H{fill:#063638}.I{fill:#f0fffc}.J{fill:#003351}.K{fill:#0a5558}.L{fill:#98d8c9}.M{fill:#009297}.N{fill:#003d68}.O{fill:#b2f7e9}.P{fill:#00a098}.Q{fill:#ffa600}.R{fill:#11b7ae}]]></style><g class="I"><path d="M46.232 146.653s-27.961-23.509-25.851-29.599 11.064 1.747 12.073.891-13.768-7.48-11.658-17.365 17.639 3.905 17.639 3.905l7.798 42.168z"/><path d="M56.215 170.861s-18.403-38.595-25.875-61.696C23.217 87.14 9.46 28.268 68.617 19.323c35.808-5.413 49.476 19.585 55.182 41.548 2.589 9.965 17.852-9.879 32.058 1.808s18.204 54.8 39.384 56.774c12.458 1.16 41.434-4.864 50.637 24.117 4.931 15.53-.774 29.33-.774 29.33l-188.889-2.039z"/></g><path d="M176.062 173.709c-9.434-39.318 11.264-41.891 16.089-33.536 4.174 7.227 10.651 4.278 13.1 2.979 14.172-7.522 22.972-14.713 32.361-7.792 7.439 5.484 1.008 20.912 2.264 29.26.54 3.59 3.223 6.486 3.223 6.486s-2.152-7.456-1.015-8.979 1.704 1.717 2.897 1.562-.149-4.653 2.39-4.078c4.032.913 1.028 8.601 1.865 8.464s4.551-4.878 5.908-3.865c4.918 3.675-7.389 9.646-7.389 9.646l-71.693-.147zm66.323-14.04s-.296-2.297 1.676-3.712 4.223-.177 3.548.41-2.507.163-3.161 1.536-1.235 3.392-2.063 1.766zm7.82 4.374s-.042-2.316 2.074-3.506 4.217.29 3.483.798-2.511-.116-3.312 1.179-1.601 3.236-2.245 1.529z" class="O"/><path d="M188.346 145.885h45.198a.25.25 0 0 1 .25.251v28.617h-45.698v-28.617a.25.25 0 0 1 .25-.251z" class="C"/><path d="M232.569 148.818H189.42v24.695h43.149v-24.695z" fill="#00fff1"/><path d="M223.806 153.727h-26.897a.34.34 0 0 1-.231-.575c.06-.063.143-.101.231-.104h26.897a.34.34 0 0 1 .134.021c.043.017.082.041.115.073s.059.07.077.112a.34.34 0 0 1 .027.133.34.34 0 0 1-.027.134c-.018.042-.044.08-.077.112a.33.33 0 0 1-.115.072.34.34 0 0 1-.134.022zm0 3.045h-26.897a.34.34 0 0 1-.24-.1c-.064-.063-.099-.15-.099-.24s.035-.176.099-.24.15-.099.24-.099h26.897c.044 0 .089.009.13.026s.078.042.11.073.056.069.073.11.026.086.026.13a.34.34 0 0 1-.209.314c-.041.017-.086.026-.13.026zm0 3.044h-26.897a.34.34 0 0 1-.24-.1c-.064-.063-.099-.15-.099-.24s.035-.176.099-.24.15-.099.24-.099h26.897c.09 0 .176.036.24.099s.099.15.099.24a.34.34 0 0 1-.339.34zm0 3.044h-26.897c-.09 0-.176-.035-.24-.099s-.099-.15-.099-.24.035-.176.099-.24.15-.099.24-.099h26.897c.044 0 .089.009.13.026s.078.042.11.073.056.069.073.11a.34.34 0 0 1 0 .26c-.017.041-.042.078-.073.11s-.069.056-.11.073-.086.026-.13.026zm0 3.046h-26.897c-.088-.004-.171-.041-.231-.105s-.095-.147-.095-.235.034-.172.095-.235.143-.101.231-.105h26.897a.36.36 0 0 1 .134.022.33.33 0 0 1 .115.073c.033.031.059.07.077.112s.027.087.027.133-.009.091-.027.133-.044.081-.077.112a.33.33 0 0 1-.115.073.34.34 0 0 1-.134.022zm0 3.044h-26.897a.34.34 0 0 1-.13-.026c-.041-.017-.079-.042-.11-.074a.34.34 0 0 1-.099-.24c0-.044.009-.088.026-.13a.34.34 0 0 1 .313-.209h26.897c.044 0 .089.009.13.026s.078.042.11.073.056.069.073.11.026.086.026.13a.34.34 0 0 1-.209.314c-.041.017-.086.026-.13.026z" fill="#00d3cd"/><path d="M241.8 173.391h-53.704v1.362H241.8v-1.362z" fill="#d7fff7"/><path d="M241.8 174.753h-38.513v2.17H241.8v-2.17z" class="P"/><path d="M203.287 174.753h-15.191v2.17h15.191v-2.17z" fill="#00776e"/><g class="L"><path d="M246.505 174.008c-.023 0-.045-.006-.065-.016s-.037-.024-.051-.042c-.038-.046-.922-1.16-.654-5.046.301-4.371 1.844-7.902 1.86-7.938.008-.018.02-.034.034-.048s.032-.025.051-.032.038-.011.058-.01.04.005.058.013.035.02.049.034.024.032.032.051.01.038.01.058-.005.04-.013.059c-.016.034-1.537 3.519-1.835 7.834-.257 3.733.579 4.823.586 4.833.025.031.037.072.033.112s-.024.077-.055.103-.063.035-.098.035z"/><path d="M246.115 173.017c-.032-.001-.064-.011-.091-.031s-.045-.047-.055-.079l-2.845-9.57c-.006-.02-.008-.04-.006-.06s.008-.039.018-.057a.14.14 0 0 1 .038-.046c.015-.013.033-.022.053-.028s.039-.008.059-.006.039.008.057.018a.14.14 0 0 1 .046.038c.012.016.021.034.027.053l2.792 9.397a44.17 44.17 0 0 0 4.403-2.726c2.358-1.669 4.547-4.641 4.569-4.671a.16.16 0 0 1 .044-.042c.017-.011.036-.018.056-.021a.14.14 0 0 1 .061.002c.02.004.038.013.055.025s.03.027.04.045.017.037.02.057.002.04-.003.06-.015.038-.027.054c-.022.031-2.24 3.042-4.639 4.74a43.88 43.88 0 0 1-4.602 2.838c-.022.008-.046.012-.07.01zm-10.746-3.668a.18.18 0 0 1-.085-.022c-.027-.014-.049-.035-.066-.059-.018-.031-.026-.067-.02-.103s.023-.067.05-.091c.181-.983.143-12.729-1.641-20.971-1.846-8.526-6.933-11.738-6.985-11.769a.16.16 0 0 1-.068-.095c-.009-.04-.003-.081.019-.116.01-.017.024-.032.04-.044s.034-.02.054-.025.04-.005.06-.002a.16.16 0 0 1 .055.021c.052.032 5.248 3.304 7.125 11.966 1.674 7.731 2.024 21.098 1.516 21.301a.14.14 0 0 1-.054.009z"/><path d="M232.793 144.954c-.232 0-1.325-.128-5.716-1.835-4.932-1.918-7.994-4.199-8.023-4.221-.017-.012-.031-.027-.041-.045s-.018-.036-.022-.057-.002-.041.003-.06.014-.039.026-.055.028-.03.046-.041.037-.017.057-.019a.18.18 0 0 1 .061.004.14.14 0 0 1 .054.028c.029.022 3.06 2.279 7.949 4.18 4.762 1.852 5.583 1.827 5.613 1.815.039-.001.077.013.107.038s.051.059.058.097a.15.15 0 0 1-.029.11c-.023.031-.058.052-.097.058-.015.002-.031.003-.046.003zm1.528 6.35c-.031 0-.061-.009-.087-.027a.15.15 0 0 1-.056-.072c-.011-.029-.012-.06-.005-.091s.024-.057.048-.077c.029-.026 2.983-2.648 4.777-6.052 1.453-2.756.502-6.358.492-6.394-.005-.02-.006-.04-.004-.06s.009-.039.019-.056.023-.033.039-.045.034-.021.053-.027.04-.006.06-.004.039.009.056.019.033.024.045.039.021.034.027.054c.041.151.992 3.752-.517 6.616-1.821 3.456-4.816 6.113-4.846 6.139s-.063.038-.101.038zm-.76-3.914c-.023 0-.047-.005-.068-.016-.036-.018-.064-.05-.076-.089s-.01-.08.008-.117c.013-.026 1.323-2.668 1.772-6.554.363-3.139-.988-5.152-1.001-5.172a.15.15 0 0 1-.024-.054c-.004-.019-.004-.04-.001-.06s.011-.039.022-.055.026-.032.042-.043c.034-.023.074-.031.114-.024s.075.03.098.063c.058.086 1.429 2.129 1.053 5.379-.454 3.942-1.788 6.629-1.802 6.656s-.032.047-.056.062-.052.024-.081.024z"/></g><path d="M100.081 78.323s-2.705-26.06.904-26.899 3.845 13.43 8.213 13.685 11.444-4.646 16.845-.079c4.18 3.538 2.82 8.087 5.667 9.816s6.661-11.145 10.067-9.322c2.362 1.264-1.853 4.153-.137 6.948 1.087 1.772 2.581-2.222 7.005-2.222 6.529 0 6.336 7.43 2.268 8.85s-7.85.84-9.136 3.81c-2.138 4.939 6.759 3.036 10.833 4.317 19.668 6.186 10 32.037 18.537 31.555 9.144-.518-53.777 3.132-53.777 3.132l-17.289-43.591z" class="O"/><g class="L"><path d="M123.59 98.362c-.019 0-.038-.003-.055-.009-.044-.015-.08-.046-.101-.087s-.024-.089-.01-.133c.038-.116 3.859-11.508 10.683-17.439s16.651-6.608 16.75-6.612a.16.16 0 0 1 .069.005c.022.007.043.018.06.034s.032.034.041.056.014.044.014.068-.002.046-.009.067a.17.17 0 0 1-.034.059c-.015.017-.034.031-.054.041s-.043.016-.066.017c-.096.006-9.8.671-16.542 6.531-6.752 5.867-10.543 17.169-10.582 17.285-.012.034-.034.064-.063.085s-.065.032-.101.032z"/><path d="M137.496 78.168c-.041.001-.082-.014-.114-.041s-.053-.064-.06-.105c-.012-.077-.293-1.914.716-5.183 1.005-3.252 2.446-5.411 2.46-5.433a.16.16 0 0 1 .049-.048c.019-.013.04-.022.062-.026s.046-.004.068 0a.17.17 0 0 1 .063.026c.019.013.036.029.048.048s.022.04.026.063.005.046 0 .068-.013.044-.026.063-1.427 2.141-2.415 5.341c-.985 3.18-.709 5.006-.705 5.025.007.045-.004.092-.031.129s-.068.062-.114.07l-.027.002zm10.455 44.728l-.249-.243.124.123h-.173v-.058c-.062-1.561-.237-9.705 2.448-16.834 2.945-7.822 9.543-10.91 9.61-10.94a.19.19 0 0 1 .067-.018c.024-.002.046.002.068.01a.17.17 0 0 1 .059.036c.017.016.031.035.041.056s.015.044.015.068a.16.16 0 0 1-.012.068c-.008.022-.021.041-.037.058s-.036.03-.058.039c-.065.03-6.536 3.063-9.428 10.745-2.661 7.067-2.488 15.15-2.426 16.698.001.092.003.138-.049.192z"/><path d="M160.205 99.072h-.026l-4.733-.71c-.027-.004-.052-.014-.074-.03a.18.18 0 0 1-.053-.06c-.013-.024-.02-.05-.021-.077a.18.18 0 0 1 .016-.079l2.549-5.5a.17.17 0 0 1 .04-.056c.017-.016.036-.028.058-.036a.17.17 0 0 1 .067-.011c.023.001.046.006.067.016a.18.18 0 0 1 .055.04c.016.017.027.037.035.059s.011.045.01.068a.17.17 0 0 1-.017.066l-2.452 5.286 4.504.675c.046.003.089.025.119.06s.045.081.042.127-.025.089-.06.119-.081.045-.127.042l.001-.001zm-.946 4.019h-.007l-7.389-.29c-.046-.002-.089-.022-.12-.055s-.048-.078-.047-.124l.16-5.931c.001-.046.021-.09.054-.122s.078-.049.124-.047a.18.18 0 0 1 .122.054.17.17 0 0 1 .047.124l-.155 5.759 7.218.286c.023 0 .045.005.066.014s.04.022.056.039.028.036.036.057a.17.17 0 0 1 .012.067c-.001.023-.005.045-.014.066s-.022.04-.039.056a.18.18 0 0 1-.057.037.19.19 0 0 1-.067.012v-.003zm-9.605 5.485c-.038 0-.075-.012-.106-.036s-.052-.056-.061-.093l-1.907-7.121c-.01-.043-.002-.089.021-.127s.06-.066.103-.078.09-.006.129.015.068.058.082.101l1.872 6.987 9.171-.269a.18.18 0 0 1 .123.048c.033.032.053.075.056.12 0 .023-.003.046-.011.067s-.021.041-.036.058-.035.03-.055.04-.044.014-.066.015l-9.309.273h-.006z"/></g><path d="M82.91 37.32H28.029c-.079 0-.144.064-.144.144v33.829c0 .079.064.144.144.144H82.91c.079 0 .144-.064.144-.144V37.464c0-.079-.064-.144-.144-.144z" fill="#d4fff5"/><path d="M38.115 56.476h-4.281v14.98h4.281v-14.98zm6.659-5.736h-4.281v20.716h4.281V50.74zm26.385.057h-4.281v20.716h4.281V50.797zm-19.726 8.132h-4.281v12.527h4.281V58.929zm26.422.056h-4.281v12.527h4.281V58.985zm-19.763-8.544h-4.281v21.015h4.281V50.441zm6.992-8.009h-4.945v29.302h4.945V42.432z" class="C"/><g class="L"><use xlink:href="#r"/><use xlink:href="#r" y="-1.138"/><use xlink:href="#r" y="-2.277"/><use xlink:href="#r" x="6.736" y="-4.763"/><use xlink:href="#r" x="6.736" y="-5.901"/><use xlink:href="#r" x="6.736" y="-7.04"/><use xlink:href="#r" x="13.416" y="2.937"/><use xlink:href="#r" x="13.416" y="1.799"/><use xlink:href="#r" x="13.416" y="0.661"/><path d="M57.821 47.547H53.54v.348h4.281v-.348zm0-1.138H53.54v.348h4.281v-.348zm0-1.139H53.54v.348h4.281v-.348zm6.93-4.222H60.47v.348h4.281v-.348zm0-1.138H60.47v.348h4.281v-.348zm0-1.139H60.47v.348h4.281v-.348z"/><use xlink:href="#r" x="33.491" y="-5.165"/><use xlink:href="#r" x="33.491" y="-6.303"/><use xlink:href="#r" x="33.491" y="-7.442"/><use xlink:href="#r" x="40.186" y="1.978"/><use xlink:href="#r" x="40.186" y="0.84"/><use xlink:href="#r" x="40.186" y="-0.298"/><path d="M52.496 64.752c-2.581 0-4.399-1.002-6.305-2.055-1.535-.846-3.122-1.721-5.271-2.153-4.974-.994-8.953 3.079-8.993 3.12-.062.069-.138.125-.222.164s-.176.061-.269.064-.186-.012-.272-.045-.166-.084-.233-.148-.12-.142-.157-.227-.056-.178-.056-.271.018-.185.053-.271.088-.164.155-.229c.183-.191 4.552-4.669 10.269-3.521 2.362.474 4.12 1.443 5.67 2.299 2.123 1.17 3.957 2.181 6.878 1.798 2.251-.296 3.569-1.65 4.964-3.084 1.702-1.749 3.631-3.73 7.415-3.73 7.103 0 10.676 6.116 10.824 6.376.085.16.105.347.056.521s-.166.322-.323.412-.343.115-.518.07-.326-.157-.421-.312c-.033-.058-3.336-5.676-9.616-5.676-3.195 0-4.759 1.608-6.416 3.31-1.499 1.541-3.049 3.132-5.778 3.493a10.86 10.86 0 0 1-1.431.095z"/></g><path d="M237.133 93.404h-54.384c-.077 0-.139.062-.139.139v31.872c0 .076.062.138.139.138h54.384c.077 0 .139-.062.139-.138V93.542c0-.076-.062-.139-.139-.139z" fill="#d4fff5"/><g class="C"><path d="M184.192 125.526l9.033-10.204 2.372 2.818 5.972-9.793 3.877 9.138 8.998-14.85 5.933 14.028 8.841-19.401v28.274l-45.026-.009z"/><path d="M230.545 98.97l-1.731-3.068-2.061 2.915 3.792.153z"/></g><g class="L"><path d="M185.087 122.525c-.121 0-.24-.032-.345-.093a.69.69 0 0 1-.253-.251.7.7 0 0 1-.096-.345c-.001-.121.029-.241.089-.347l4.807-8.632c.068-.12.169-.217.291-.28s.26-.087.396-.071.265.072.37.161a.7.7 0 0 1 .218.339l.534 1.889 4.756-6.636c.066-.093.154-.169.256-.219a.69.69 0 0 1 .33-.071c.114.004.225.035.324.092s.182.137.243.233l5.119 8.133 6.908-13.105c.062-.116.155-.213.268-.278s.244-.098.375-.093.259.048.367.122.193.179.245.3l4.865 11.347 10.055-18.293c.093-.154.242-.266.416-.312s.358-.024.515.063.275.231.328.403.038.357-.042.518l-10.741 19.541a.67.67 0 0 1-.267.277c-.114.064-.245.092-.376.082a.69.69 0 0 1-.363-.124c-.106-.074-.19-.177-.242-.297l-4.856-11.317-6.792 12.881a.69.69 0 0 1-.588.371.68.68 0 0 1-.351-.078c-.108-.057-.199-.142-.263-.246l-5.214-8.279-4.988 6.97a.7.7 0 0 1-.302.238c-.121.049-.254.064-.383.041s-.248-.081-.345-.169a.69.69 0 0 1-.204-.327l-.469-1.658-3.987 7.163c-.06.108-.148.198-.255.261s-.229.096-.353.096z"/><use xlink:href="#s"/><path d="M203.336 106.535h-3.627v.348h3.627v-.348zm-5.349.498h-3.627v.348h3.627v-.348z"/><use xlink:href="#s" x="5.97" y="-0.612"/><use xlink:href="#s" x="17.44" y="-4.706"/><use xlink:href="#s" x="23.853" y="0.07"/><use xlink:href="#s" x="23.853" y="2.142"/><use xlink:href="#s" x="23.853" y="4.215"/><use xlink:href="#s" x="23.853" y="6.287"/><use xlink:href="#s" x="23.853" y="8.36"/><use xlink:href="#s" x="23.853" y="10.431"/><use xlink:href="#s" x="23.853" y="12.504"/><use xlink:href="#s" x="23.853" y="14.577"/><use xlink:href="#s" x="23.853" y="16.649"/><use xlink:href="#s" x="23.853" y="18.722"/></g><path d="M64.799 178.618H49.124s-23.845-26.001-17.752-34.662 12.94 1.407 15.756.295-16.371-21.19-3.331-33.627c10.694-10.199 38.122 2.629 38.122 2.629l6.031 65.212-23.152.153zm-26.166-47.091s2.855 4.712 1.49 5.282-5.834-4.466-4.593-6.238 3.103.956 3.103.956z" class="O"/><path d="M37.033 154.743s-10.722-15.05-18.392-8.609c-5.229 4.391 1.08 15.658-.368 17.196s-8.441-5.226-14.603.005 7.958 21.852 7.958 21.852l18.029.043 7.377-30.487z" fill="url(#A)"/><path d="M10.53 162.153s-4.206-9.049-7.807-8.948c-3.587.101-3.338 3.634-.949 5.662 2.337 1.98 8.756 3.286 8.756 3.286z" fill="url(#B)"/><path d="M11.135 162.681s2.696-12.072-.476-15.429c-3.16-3.347-4.915.586-3.978 5.003.916 4.319 4.455 10.426 4.455 10.426z" fill="url(#C)"/><g class="C"><path d="M19.018 185.374c-.047-.001-.091-.019-.125-.051s-.054-.076-.058-.122.011-.093.04-.129.071-.061.117-.068c.678-.101 2.504-.532 2.815-1.317.105-.265.027-.557-.238-.892-.806-1.019-3.981.363-5.136.982-.039.021-.084.027-.127.018a.19.19 0 0 1-.108-.07c-.027-.035-.04-.079-.037-.123s.021-.086.052-.118c.061-.063 6.151-6.357 8.145-9.37 2.433-3.679 2.286-6.327 1.332-7.58-.645-.849-1.68-1.121-2.833-.744-3.08 1.004-6.757 15.056-6.794 15.197-.01.047-.038.089-.079.116s-.09.037-.138.028a.19.19 0 0 1-.117-.078c-.027-.04-.038-.09-.029-.138.014-.111 1.457-11.189-1.802-15.038-1.726-2.038-4.225-2.947-5.941-2.163-1.47.673-2.097 2.46-1.719 4.903.956 6.178 9.007 16.041 9.088 16.14.031.038.046.088.041.137s-.029.095-.068.126-.088.046-.137.041-.095-.029-.126-.068c-.334-.406-8.196-10.04-9.168-16.319-.405-2.62.299-4.551 1.932-5.298 1.894-.87 4.518.063 6.378 2.262 2.495 2.946 2.362 9.691 2.101 13.174 1.172-4.036 3.92-12.546 6.461-13.375 1.295-.422 2.508-.096 3.244.874 1.028 1.353 1.221 4.168-1.321 8.01-1.597 2.414-5.778 6.893-7.466 8.669 1.378-.621 3.81-1.499 4.66-.424.348.442.448.866.29 1.26-.454 1.144-2.998 1.531-3.107 1.546-.007.001-.014.002-.02.002z"/><path d="M15.879 185.839c-.035 0-.07-.01-.099-.029s-.053-.047-.067-.079c-.028-.063-.645-1.612 2.752-8.689 3.377-7.036 6.088-9.33 6.202-9.425.038-.029.086-.041.134-.036s.091.029.122.066.046.084.042.132-.025.093-.061.125c-.027.023-2.769 2.35-6.104 9.3-3.265 6.804-2.75 8.366-2.745 8.381.017.045.016.096-.003.14s-.055.08-.1.099c-.023.01-.047.015-.072.015z"/><path d="M15.881 183.37c-.026 0-.051-.006-.075-.016s-.045-.026-.062-.045c-.072-.08-1.796-1.999-3.712-6.528-1.912-4.515-3.575-11.499-3.592-11.569-.007-.024-.009-.05-.006-.075s.011-.049.024-.071.03-.04.05-.055a.19.19 0 0 1 .068-.032c.024-.006.05-.006.075-.002s.048.014.07.027a.19.19 0 0 1 .053.053c.014.021.024.044.028.069.017.07 1.674 7.023 3.573 11.509 1.89 4.464 3.627 6.404 3.644 6.423.033.037.05.085.048.134s-.024.096-.061.129-.079.049-.125.049z"/><path d="M10.093 170.807c-.025 0-.05-.005-.073-.015a.19.19 0 0 1-.061-.043l-3.271-3.43a.2.2 0 0 1-.042-.062c-.01-.023-.015-.048-.015-.073s.005-.05.015-.073.024-.044.042-.061.039-.031.063-.039.048-.013.073-.012.05.007.072.018.043.026.059.045l3.271 3.43c.025.026.042.059.049.095s.002.073-.012.107-.038.062-.069.082-.066.031-.103.031zm1.516 4.589c-.036 0-.071-.011-.101-.031L8.12 173.14a.18.18 0 0 1-.052-.05c-.014-.021-.023-.043-.028-.067a.2.2 0 0 1-.001-.073c.004-.024.014-.047.027-.067s.031-.038.051-.052.043-.024.067-.029a.18.18 0 0 1 .073 0c.024.005.047.014.067.027l3.388 2.225c.033.022.059.054.072.092s.015.079.003.117-.035.072-.067.096-.071.037-.111.037zm1.946 4.36c-.029 0-.058-.006-.084-.019l-2.638-1.339c-.042-.024-.072-.062-.086-.108s-.009-.095.012-.138.059-.076.104-.092.095-.013.138.006l2.638 1.338c.038.019.068.05.086.088a.19.19 0 0 1 .013.122c-.009.041-.033.077-.066.103a.18.18 0 0 1-.116.039zm1.528 2.559c-.013 0-.026-.002-.038-.004l-1.53-.316c-.048-.01-.091-.039-.118-.08s-.037-.092-.027-.14.039-.091.08-.118.091-.037.14-.027l1.528.316c.045.01.085.035.112.073a.19.19 0 0 1 .035.128c-.004.046-.026.088-.06.119a.19.19 0 0 1-.124.049h.002z"/></g><path d="M139.043 127.663s1.478-14.362 19.708-11.891c3.522.478 3.718 1.029 6.604-1.052 7.434-5.361 14.551 4.113 10.408 15.185-4.314 11.527-2.282 8.087 1.633 9.56s-4.261 18.277-4.261 18.277l-34.092-30.079z" class="P"/><g class="C"><path d="M165.62 139.928a6.38 6.38 0 0 1-2.771-.631c-.864-.416-1.624-1.023-2.221-1.774a6.39 6.39 0 0 1-1.225-5.411 6.4 6.4 0 0 1 1.24-2.56c.601-.749 1.363-1.352 2.229-1.765s1.814-.625 2.773-.62a6.37 6.37 0 0 1 2.767.649.16.16 0 0 1 .082.093c.014.041.011.085-.007.124l-2.611 5.354h5.954c.021 0 .042.004.062.012s.037.02.052.035.027.033.035.053.012.041.012.062a6.39 6.39 0 0 1-1.868 4.509c-1.194 1.196-2.814 1.868-4.503 1.87zm0-12.435c-1.189 0-2.352.351-3.343 1.009a6.06 6.06 0 0 0-2.6 6.168c.22 1.171.78 2.25 1.609 3.103a6.05 6.05 0 0 0 3.055 1.695 6.03 6.03 0 0 0 3.48-.279 6.04 6.04 0 0 0 2.747-2.159 6.06 6.06 0 0 0 1.097-3.319h-6.045c-.027 0-.054-.007-.078-.02s-.044-.033-.058-.056-.023-.05-.025-.077.004-.055.016-.079l2.651-5.44c-.787-.358-1.641-.543-2.506-.544v-.002zm1.332 5.152l2.428-4.347s1.452.387 2.29 2.174a3.94 3.94 0 0 1 .328 2.173h-5.046z"/><path d="M166.688 128.46a.16.16 0 0 1-.09-.026c-.027-.018-.048-.043-.06-.073s-.016-.062-.01-.094.022-.06.044-.083l3.52-3.525a.18.18 0 0 1 .053-.035c.02-.008.042-.012.063-.012h3.18c.041.002.08.02.108.05s.044.07.044.112-.015.081-.044.111-.067.048-.108.051h-3.113l-3.475 3.48a.16.16 0 0 1-.112.044zm8.713-4.504h-5.005c-.042 0-.084-.017-.114-.047s-.047-.072-.047-.115.017-.084.047-.114.072-.047.114-.047h5.005c.043 0 .084.017.114.047s.047.072.047.114-.017.085-.047.115-.071.047-.114.047zm0-.981h-5.005a.16.16 0 0 1-.114-.048c-.03-.03-.047-.071-.047-.114s.017-.084.047-.114a.16.16 0 0 1 .114-.048h5.005c.021 0 .042.004.062.012s.037.021.052.036.027.032.035.052.012.041.012.062-.004.042-.012.062-.02.037-.035.052-.033.027-.052.035-.041.013-.062.013zm0-.981h-5.005c-.042 0-.084-.017-.114-.047s-.047-.072-.047-.115.017-.084.047-.114a.16.16 0 0 1 .114-.048h5.005c.043 0 .084.017.114.048s.047.071.047.114-.017.084-.047.115-.071.047-.114.047zm0-.98h-5.005c-.041-.003-.08-.021-.108-.051s-.044-.07-.044-.111.016-.082.044-.112.067-.048.108-.051h5.005c.041.003.08.021.108.051s.044.07.044.112-.016.081-.044.111-.067.048-.108.051zm-11.463 2.659c-.03-.001-.06-.009-.085-.025s-.046-.039-.06-.066-.018-.058-.015-.088.014-.058.032-.082l1.42-1.842a.17.17 0 0 1 .052-.044c.02-.01.042-.017.064-.019s.046.003.068.011.041.021.057.037l1.56 1.566 1.222-1.55c.016-.02.036-.036.059-.047a.16.16 0 0 1 .072-.015c.026.001.05.007.072.019s.042.029.056.049l1.057 1.505c.025.035.035.078.027.121a.16.16 0 0 1-.066.104c-.035.025-.079.035-.121.027s-.08-.031-.104-.066l-.932-1.326-1.201 1.522a.15.15 0 0 1-.051.043c-.02.011-.042.017-.065.019s-.045-.003-.067-.011-.04-.021-.057-.037l-1.558-1.562-1.307 1.692c-.015.02-.034.036-.057.048s-.047.017-.072.017z"/><path d="M168.479 123.629c-.023 0-.045-.005-.066-.014a.17.17 0 0 1-.055-.04l-1.387-1.567-1.326 1.393c-.029.029-.067.047-.108.049s-.081-.01-.112-.036l-1.589-1.314c-.017-.013-.03-.03-.04-.049a.16.16 0 0 1-.018-.06c-.003-.021 0-.043.006-.063a.16.16 0 0 1 .079-.096c.018-.01.039-.016.06-.018s.042 0 .063.006.039.017.055.03l1.474 1.218 1.344-1.413c.015-.017.034-.03.054-.038s.043-.013.066-.012.043.006.063.015a.17.17 0 0 1 .053.039l1.506 1.701c.02.023.034.052.039.083s0 .062-.013.091a.16.16 0 0 1-.06.069c-.026.017-.057.026-.088.026zm3.462 4.879a.84.84 0 0 1-.469-.142c-.139-.093-.247-.225-.311-.379s-.081-.325-.048-.489.113-.314.231-.432a.84.84 0 0 1 .432-.232c.164-.032.334-.015.488.048a.85.85 0 0 1 .521.781c0 .224-.089.439-.248.598a.84.84 0 0 1-.596.247zm0-1.366a.52.52 0 0 0-.29.088c-.086.057-.152.139-.192.234a.52.52 0 0 0 .38.712c.101.02.206.01.301-.03a.51.51 0 0 0 .234-.192.52.52 0 0 0-.433-.812zm.704-.652h-1.476c-.043 0-.084-.017-.114-.047s-.047-.072-.047-.114.017-.085.047-.115.071-.047.114-.047h1.476c.043 0 .084.017.114.047a.16.16 0 0 1 0 .229c-.03.03-.071.047-.114.047zm-7.245 8.263a.16.16 0 0 1-.062-.013c-.02-.008-.038-.02-.053-.035s-.026-.033-.035-.052-.012-.041-.012-.062a.16.16 0 0 1 .012-.062c.009-.02.02-.038.035-.053s.033-.027.053-.035a.16.16 0 0 1 .062-.012h3.524c.043 0 .084.017.114.047s.047.072.047.115-.017.084-.047.114-.071.048-.114.048H165.4zm5.858-20.132h-.862v5.034h.862v-5.034zm-1.819 2.517h-.808v2.517h.808v-2.517zm3.611 0h-.809v2.517h.809v-2.517zm-5.323-1.367h-.862v3.884h.862v-3.884zm-1.765 1.367h-.862v2.517h.862v-2.517z"/></g><path d="M168.132 115.236s1.75-7.831-.309-10.013-3.189.381-2.581 3.248c.594 2.803 2.89 6.765 2.89 6.765zm.832-1.002s3.324-2.325 2.967-3.821-1.725-.922-2.313.345c-.574 1.239-.654 3.476-.654 3.476z" class="P"/><path d="M104.107 53.473L86.262 24.635h-4.345L70.572 56.839l3.565-.021 16.891 26.643 7.27 97.737V53.494l5.809-.021z" fill="url(#D)"/><g class="G"><path d="M120.892 75.163H98.298l-7.272 2.901v103.135h29.866V75.163zm43.979 47.613h-22.067l.14 58.423h22.068l-.141-58.423z"/><path d="M186.586 144.722h-22.051v36.477h22.051v-36.477zm-43.641-46.534h-22.052l-.001 83.011h22.052l.001-83.011z"/></g><path d="M116.547 78.314H93.955V181.2h22.593V78.314z" fill="#008184"/><path d="M99.692 51.147L81.917 24.635 62.94 51.332l6.852-.021v129.888h24.161V51.168l5.739-.021z" fill="url(#E)"/><path d="M81.996 38.632c-5.259 0-11.185-.444-11.565-2.123a1.52 1.52 0 0 1 .352-1.407c1.117-1.26 4.28-1.294 4.413-1.295l.005.558c-.03 0-3.008.033-3.942 1.088-.236.267-.311.575-.228.943.07.312.856 1.35 8.003 1.624 4.139.158 8.72-.027 10.591-.29 2.375-.334 4.033-.993 4.542-1.81.19-.305.21-.616.058-.954-.546-1.233-2.833-1.241-2.866-1.242v-.558c.105 0 2.735.009 3.436 1.591a1.48 1.48 0 0 1-.097 1.439c-.611.98-2.38 1.721-4.982 2.088-1.132.158-4.284.347-7.719.347z" fill="url(#F)"/><path d="M84.133 32.483c-4.248 0-8.133-.912-8.388-2.225a1.13 1.13 0 0 1 .257-.973c.748-.901 2.812-1.102 2.9-1.107l.061.556c-.521.048-1.987.302-2.473.889-.064.072-.111.159-.136.252a.62.62 0 0 0-.007.286c.224 1.156 6.082 2.326 11.69 1.487 1.529-.232 2.586-.642 2.974-1.16a.79.79 0 0 0 .154-.329c.025-.12.022-.244-.009-.363-.386-1.666-2.825-1.632-2.848-1.632l-.014-.558c1.028-.021 3.07.383 3.46 2.074.049.193.052.395.011.589s-.127.377-.249.534c-.62.828-2.18 1.218-3.38 1.396a27.28 27.28 0 0 1-4.003.285z" fill="url(#G)"/><path d="M160.666 125.09h-22.067v56.109h22.067V125.09z" fill="#00d3cd"/><path d="M182.718 148.116h-22.052v33.083l22.052.001v-33.084z" fill="#00fff1"/><path d="M138.599 100.583h-22.052V181.2l22.052-.001v-80.616z" class="M"/><path d="M160.666 148.116l-10.211 33.047h10.211v-33.047z" fill="url(#H)"/><path d="M138.599 124.951l-17.189 55.631 17.189.617v-56.248z" fill="url(#I)"/><path d="M116.547 78.314l-22.361 72.37 22.361 4.059V78.314z" fill="url(#J)"/><path d="M93.923 51.016l-23.351 75.573 23.351.857v-76.43z" fill="url(#K)"/><g class="F"><path d="M109.126 75.67a.31.31 0 0 1-.29-.183L92.977 36.075c-.013-.035-.019-.073-.017-.111s.012-.075.029-.108.041-.064.07-.088.063-.041.099-.052a.31.31 0 0 1 .228.007c.072.031.131.088.164.159l15.861 39.412c.014.035.02.073.017.111s-.011.075-.029.108a.26.26 0 0 1-.07.088.27.27 0 0 1-.099.052.33.33 0 0 1-.105.017zm4.166 0c-.061.002-.121-.014-.173-.047a.31.31 0 0 1-.117-.136L97.144 36.075c-.013-.035-.019-.073-.017-.111s.012-.075.029-.108.041-.064.07-.088.063-.041.099-.052a.31.31 0 0 1 .228.006.32.32 0 0 1 .164.16l15.861 39.412a.28.28 0 0 1 .017.111c-.002.038-.012.075-.029.108a.28.28 0 0 1-.07.087c-.029.024-.063.042-.1.052a.39.39 0 0 1-.105.017z"/><path d="M98.832 39.738H94.68a.28.28 0 0 1-.309-.279.28.28 0 0 1 .309-.279h4.152a.28.28 0 0 1 .309.279.28.28 0 0 1-.024.114c-.016.036-.039.068-.068.094a.28.28 0 0 1-.216.071zm1.713 4.321h-4.152a.28.28 0 0 1-.282-.165.28.28 0 0 1 .067-.32c.029-.026.063-.046.099-.059a.28.28 0 0 1 .115-.014h4.152a.28.28 0 0 1 .115.014c.037.013.07.032.099.059a.27.27 0 0 1 .067.094c.015.036.024.074.024.113s-.008.078-.024.113-.038.068-.067.094a.29.29 0 0 1-.099.059.28.28 0 0 1-.115.013zm1.714 4.322h-4.005a.27.27 0 0 1-.116-.013.28.28 0 0 1-.193-.267.28.28 0 0 1 .193-.267c.037-.012.077-.016.116-.013h4.005a.27.27 0 0 1 .116.013.28.28 0 0 1 .169.153.28.28 0 0 1 .024.114.28.28 0 0 1-.093.208.28.28 0 0 1-.216.071zm1.713 4.321h-3.935c-.038.004-.077-.001-.114-.013a.28.28 0 0 1-.167-.379.28.28 0 0 1 .281-.167h3.935a.28.28 0 0 1 .115.014.29.29 0 0 1 .099.059c.029.026.052.058.067.094s.024.074.024.113-.008.078-.024.113-.038.068-.067.094-.063.046-.099.059a.28.28 0 0 1-.115.013zm1.713 4.322h-4.063a.28.28 0 0 1-.115-.014.27.27 0 0 1-.099-.059c-.029-.026-.052-.058-.068-.094s-.023-.074-.023-.113a.29.29 0 0 1 .023-.113c.015-.035.039-.068.068-.094a.27.27 0 0 1 .099-.059.28.28 0 0 1 .115-.013h4.063a.28.28 0 0 1 .115.013.27.27 0 0 1 .099.059c.029.026.052.058.068.094s.024.074.024.113-.008.077-.024.113-.039.068-.068.094a.27.27 0 0 1-.099.059c-.037.012-.076.017-.115.014zm1.714 4.322h-4.039a.28.28 0 0 1-.115-.014.27.27 0 0 1-.099-.059c-.029-.026-.052-.058-.068-.094s-.024-.074-.024-.113.009-.077.024-.113.039-.068.068-.094a.27.27 0 0 1 .099-.059c.037-.012.076-.017.115-.014h4.038a.28.28 0 0 1 .114.014c.037.012.071.032.1.059s.051.058.067.094.024.074.024.113-.008.077-.024.113-.039.068-.067.094-.063.046-.1.059-.076.017-.114.014h.001zm1.713 4.322H105.1a.28.28 0 0 1-.115-.012c-.037-.012-.072-.032-.101-.058s-.052-.058-.068-.094a.28.28 0 0 1-.025-.114.28.28 0 0 1 .025-.114c.016-.036.039-.068.068-.094s.063-.046.101-.059.076-.016.115-.013h4.012c.039-.004.079 0 .116.013s.072.032.101.059.052.058.068.094a.28.28 0 0 1 .024.114.28.28 0 0 1-.024.114c-.016.036-.039.068-.068.094s-.064.046-.101.058a.28.28 0 0 1-.116.012zm1.771 4.321h-3.948c-.038.004-.077-.001-.114-.013s-.071-.032-.1-.059-.051-.058-.067-.094-.024-.074-.024-.113.008-.077.024-.113.039-.068.067-.094.063-.046.1-.059a.28.28 0 0 1 .114-.013h3.948c.039-.003.078.001.115.013s.071.032.099.059.052.058.068.094.023.074.023.113a.29.29 0 0 1-.023.113c-.015.035-.039.068-.068.094a.27.27 0 0 1-.099.059.28.28 0 0 1-.115.013z"/></g><path d="M88.548 28.218c-.255-.003-6.243-.086-6.88-2.465-.357-1.334-.023-7.722-.008-7.993l.611.027c-.121 2.27-.278 6.827-.009 7.834.436 1.628 4.692 2.024 6.292 2.039l-.006.559z" fill="url(#L)"/><path d="M87.259 11.409c0-2.575-2.288-3.828-5.11-3.828s-5.11 1.254-5.11 3.828a4.29 4.29 0 0 0 .042.588c.026.484.198.944.445 1.4a4.56 4.56 0 0 0 .269.455l1.497 2.221c.794 1.4.611 1.701.611 1.701h4.509s-.202-.3.592-1.701 2.129-2.629 2.207-4.032v-.007a4.27 4.27 0 0 0 .047-.625z" fill="url(#M)"/><path d="M84.427 17.377s-.886.393-2.267.396-2.267-.396-2.267-.396-.709.501-.527.7.273.166.273.166-.128 1.991.49 2.522c.574.492 1.894.471 2.081.464.174.006 1.406.027 1.98-.464.618-.531.49-2.522.49-2.522s.092.034.273-.166-.527-.7-.527-.7z" fill="url(#N)"/><g fill="#000"><path d="M80.703 17.74a47.98 47.98 0 0 0-.294-3.287c-.147.025-.298.024-.445-.003-.141-.026-.272-.088-.383-.179s-.196-.209-.248-.343c-.439-1.044-.311-1.881.061-2.059.096-.046.353-.112.649.282.232.304.406 1.137.538 2.07a2.05 2.05 0 0 0 .681-.375 1.75 1.75 0 0 1-.188-.597c-.064-.504.054-1.096.332-1.172.031-.009.064-.011.095-.006s.062.018.088.037c.248.178.212.986.202 1.147-.009.236-.108.46-.277.625a1.05 1.05 0 0 0 .298.31.47.47 0 0 0 .345.079l.045.181a.67.67 0 0 1-.505-.112 1.23 1.23 0 0 1-.331-.33c-.223.179-.479.314-.753.397l.298 3.323-.21.011zm-1.151-5.722c-.022 0-.043.005-.063.014-.219.106-.396.807.034 1.828.039.104.104.195.189.266s.186.119.295.14c.124.023.252.023.376 0-.127-.917-.295-1.729-.508-2.012-.057-.077-.193-.236-.323-.236zm1.912.235c-.1.029-.25.459-.185.974a1.61 1.61 0 0 0 .138.473c.106-.128.168-.288.174-.455.034-.563-.051-.957-.126-.992z"/><path d="M83.441 17.74l-.204-.009.298-3.323c-.275-.082-.532-.217-.757-.397a1.21 1.21 0 0 1-.331.33.67.67 0 0 1-.505.113l.045-.182c.12.018.243-.011.342-.083.12-.081.221-.186.298-.309a.93.93 0 0 1-.277-.625c-.009-.161-.045-.97.202-1.147.026-.019.056-.032.088-.038a.21.21 0 0 1 .096.006c.277.076.396.668.332 1.172a1.76 1.76 0 0 1-.188.597c.201.167.432.294.681.375.133-.933.309-1.766.538-2.07.297-.394.553-.328.649-.282.372.178.501 1.016.061 2.059-.052.134-.137.252-.248.343a.84.84 0 0 1-.383.179c-.147.027-.298.028-.445.003l-.294 3.288zm.319-3.473c.124.023.252.023.376 0a.64.64 0 0 0 .295-.139c.085-.071.15-.163.189-.267.43-1.021.254-1.723.034-1.828-.145-.068-.318.133-.386.223-.213.282-.381 1.095-.508 2.013v-.002zm-1.08-2.013c-.072.034-.157.428-.123.991a.76.76 0 0 0 .174.455 1.59 1.59 0 0 0 .138-.473c.062-.514-.089-.945-.189-.973z"/></g><path d="M78.926 14.83s-2.79-3.897 0-6.028 6.617.208 6.617.208-3.568-.116-5.255 1.302-1.501 3.655-1.362 4.518z" fill="url(#O)"/><g fill="#000"><path d="M82.351 18.645h-.21c-1.522-.032-2.4-.299-2.436-.31l.066-.174c.009.003.889.269 2.375.301s2.498-.296 2.508-.3l.069.174c-.04.01-.963.31-2.371.31z"/><use xlink:href="#t"/><path d="M82.042 19.896c-.597-.004-1.191-.079-1.77-.224l.058-.179c.01 0 1.043.278 2.089.204s1.59-.274 1.596-.277l.078.174c-.023.009-.575.213-1.658.29-.132.012-.264.012-.393.012z"/><use xlink:href="#t" y="0.846"/></g><path d="M88.557 12.105a.55.55 0 0 1-.236-.053c-.249-.12-.348-.401-.214-.628l.719-1.251c.069-.11.176-.191.301-.228s.259-.027.377.028l.98.443.542-.999a.5.5 0 0 1 .294-.232c.128-.039.267-.031.389.024l1.169.528.579-1.067c.068-.114.175-.198.301-.237s.262-.03.382.026l1.655.748c.253.116.356.393.232.624-.068.113-.175.198-.301.237s-.262.03-.382-.026l-1.199-.541-.579 1.067c-.068.113-.175.198-.301.236s-.262.03-.382-.026l-1.169-.528-.542.999c-.125.232-.431.324-.684.211l-.99-.447-.488.849c-.047.077-.114.14-.194.183a.52.52 0 0 1-.259.063z" fill="url(#P)"/><path d="M74.074 12.105a.52.52 0 0 1-.452-.249l-.488-.849-.99.447c-.12.056-.256.065-.382.026s-.233-.123-.301-.237l-.54-.999-1.169.528c-.12.056-.256.065-.382.026s-.234-.123-.301-.237l-.579-1.067-1.199.539c-.252.116-.558.02-.683-.211s-.022-.509.232-.624l1.655-.748c.253-.116.558-.019.683.211l.579 1.067 1.169-.528c.123-.055.261-.063.389-.024a.5.5 0 0 1 .294.232l.542.999.98-.443c.118-.055.252-.064.376-.028s.232.118.301.228l.719 1.251c.131.227.035.509-.214.628a.55.55 0 0 1-.238.058z" fill="url(#Q)"/><path d="M83.136 7.47a.55.55 0 0 1-.268-.07.44.44 0 0 1-.226-.284c-.016-.061-.018-.124-.007-.185s.034-.12.069-.172l.554-.812-.926-.552a.44.44 0 0 1-.218-.289.44.44 0 0 1-.003-.185c.012-.061.038-.119.074-.17l.67-.932-1.091-.653a.44.44 0 0 1-.14-.121c-.038-.05-.064-.107-.078-.168a.44.44 0 0 1-.002-.185c.012-.061.037-.119.074-.17l.715-.998-1.119-.669a.44.44 0 0 1-.218-.289.44.44 0 0 1 .072-.355.54.54 0 0 1 .327-.201.54.54 0 0 1 .378.067l1.544.924a.44.44 0 0 1 .218.289.44.44 0 0 1-.072.355l-.715.996 1.091.653a.44.44 0 0 1 .218.289.44.44 0 0 1-.071.355l-.67.933.914.546c.054.03.101.07.138.119a.44.44 0 0 1 .084.347.44.44 0 0 1-.069.169l-.815 1.201c-.049.069-.115.125-.19.163s-.159.057-.244.056z" fill="url(#R)"/><path d="M87.554 7.826c-.133.001-.262-.047-.361-.136-.047-.041-.084-.092-.11-.148s-.039-.118-.039-.181.013-.124.039-.181.063-.107.11-.148l4.234-3.864c.1-.088.228-.136.36-.136s.261.048.36.136c.047.041.085.091.11.148s.039.118.039.181-.013.124-.039.181-.063.107-.11.148l-4.234 3.864c-.099.089-.227.137-.359.136z" fill="url(#S)"/><path d="M77.686 7.616c-.133.001-.262-.047-.361-.136l-3.597-3.282c-.047-.041-.085-.091-.11-.148s-.039-.118-.039-.181.013-.124.039-.181.063-.107.11-.148c.1-.088.228-.136.36-.136s.261.048.36.136l3.597 3.282c.047.041.085.091.11.148s.039.118.039.181-.013.124-.039.181-.063.107-.11.148c-.099.089-.227.137-.359.136z" fill="url(#T)"/><path d="M47.561 96.038H35.512c-2.923 0-5.55-2.082-5.933-4.984-.106-.803-.023-1.586.387-2.249 3.023-4.89 7.498 1.566 8.993 0 .511-.537-1.714-6.346 3.339-6.422 5.12-.078 5.109 4.976 3.099 9.001-1.082 2.168 3.173-.835 4.602.284.714.56.84 1.375.612 2.188-.374 1.33-1.672 2.182-3.049 2.182z" class="C"/><path d="M183.69 85.705h12.049c2.924 0 5.55-2.082 5.934-4.984.105-.802.022-1.586-.388-2.249-3.023-4.89-7.498 1.566-8.993 0-.511-.537 1.714-6.345-3.338-6.422-5.121-.078-5.109 4.976-3.099 9.001 1.083 2.168-3.172-.835-4.601.284-.715.56-.841 1.375-.613 2.189.374 1.327 1.673 2.182 3.049 2.182zm1.078 3.535a1.02 1.02 0 0 0 1.017-1.018 1.02 1.02 0 0 0-1.017-1.018c-.562 0-1.016.456-1.016 1.018s.455 1.018 1.016 1.018zm-2.662-11.351a1.61 1.61 0 0 1-.99 1.485 1.6 1.6 0 0 1-.927.091c-.312-.062-.597-.215-.822-.44a1.61 1.61 0 0 1 .243-2.472 1.6 1.6 0 0 1 2.026.2 1.61 1.61 0 0 1 .47 1.136z" class="I"/><path d="M44.93 98.531c0 .264-.078.522-.224.741s-.355.39-.598.491a1.33 1.33 0 0 1-1.452-.289c-.186-.187-.313-.424-.365-.683a1.33 1.33 0 0 1 .076-.771 1.34 1.34 0 0 1 .491-.599 1.33 1.33 0 0 1 1.682.166c.25.25.39.59.39.943zm5.361-19.127c0 .622-.184 1.229-.529 1.746a3.14 3.14 0 0 1-3.223 1.337 3.14 3.14 0 0 1-1.607-.86c-.439-.44-.738-1-.859-1.609s-.059-1.242.179-1.816a3.14 3.14 0 0 1 2.9-1.941 3.13 3.13 0 0 1 1.201.239 3.14 3.14 0 0 1 1.018.681c.291.292.523.639.681 1.02a3.15 3.15 0 0 1 .239 1.203z" class="C"/><path d="M104.87 32.628l-2.447 3.273-4.129 2.119c-.181-.035-.367-.032-.547.009s-.349.12-.496.23c-.489.375-.556 1.207-.432 1.298s.338-.094.338-.094.501-.816 1.269-.948c.28-.048 4.093-1.734 4.421-1.87 1.222-.506 3.152-3.069 3.152-3.069l-1.13-.948z" class="B"/><path d="M107.584 42.146l-2.128 10.233.909 7.244 1.029-.116s.423-3.311.423-6.308c0-3.071 4.154-9.645 3.747-10.818s-4.207-3-3.98-.234z" fill="#003251"/><path d="M106.491 60.476l.938-.056-.039-1.04-1.025.241.126.855z" class="B"/><path d="M104.593 61.346l2.945-.12-.044-.906s-1.046-.232-1.68.078-1.18.449-1.221.947z" class="D"/><path d="M106.411 41.245l-5.349 7.019 2.438 6.693 1.168-.325s-.021-2.436-.773-5.336c-.463-1.792 8.061-5.136 7.655-6.31s-5.369-4.506-5.139-1.741z" class="N"/><path d="M103.769 55.73l.938-.057-.039-1.039-1.025.241.126.855z" class="B"/><path d="M101.871 56.599l2.946-.12-.045-.906s-1.046-.235-1.683.078-1.178.448-1.218.947z" class="D"/><path d="M105.234 26.79s-1.109 1.578-.998 2.013c.102.401 1.001.427.933.661s-.825 1.43-.825 1.43.967-.336 1.354-.034a4.15 4.15 0 0 1 .32.277s1.085-3.67.133-4.251-.917-.096-.917-.096z" class="B"/><path d="M106.18 30.478s2.277.276 4.529 6.42c1.033 2.818.841 6.091.841 6.091l-5.841-1.609c.481-3.48-2.309-9.719-1.485-10.721.346-.422 1.584-.45 1.956-.18z" fill="#00c0c5"/><path d="M103.557 31.479l-4.628-3.484c-.927-.879-1.846-2.821-2.051-3.552-.073-.247-.053-.513.058-.746 0 0-.451-.082-.673-.789-.127-.406-.111-.939-.255-.804s-.244 1.066.112 1.909.876 2.807 1.874 4.453c1.324 2.183 5.715 4.837 5.715 4.837l-.152-1.824z" class="B"/><g fill="#00c0c5"><path d="M97.416 25.543l-.872.53s.94 2.635 2.741 4.521c1.849 1.936 4.413 3.593 4.882 3.427.926-.328 2.112-1.798 1.695-2.647-.093-.191-3.086-.63-5.207-2.196-2.019-1.49-3.239-3.635-3.239-3.635z"/><path d="M98.677 37.825l3.746-2.6c.409-.164 1.003-3.874 2.838-4.079s.962 3.142.962 3.142-2.201 1.966-3.457 2.698c-.953.556-4.355 1.715-4.355 1.715l.266-.875z"/></g><path d="M106.467 29.042s-.377-.336-.305-.536.405-.696.215-.834-.253.025-.374-.046-1.354-.353-1.709-1.362.792-1.395 1.306-.989-.053.799-.053.799c.526.216 1.005.529 1.413.925.636.633-.493 2.044-.493 2.044z" class="E"/><path d="M147.649 188.339c5.92 0 10.719-.284 10.719-.635s-4.799-.635-10.719-.635-10.719.284-10.719.635 4.799.635 10.719.635zm-22.202-.871c5.727 0 10.37-.3 10.37-.67s-4.643-.67-10.37-.67-10.37.3-10.37.67 4.643.67 10.37.67zm92.59-4.536c0 .37-4.643.67-10.369.67s-10.369-.3-10.369-.67 4.643-.67 10.369-.67 10.369.3 10.369.67zm-47.068 4.578c0 .241-2.599.435-5.806.435s-5.806-.194-5.806-.435 2.599-.434 5.806-.434 5.806.194 5.806.434z" class="G"/><path d="M167.333 165.777l.861 10.176-.47 9.621 1.761-.195s1.498-8.092 1.675-10.356c.072-.922-.473-13.229-.473-13.229s-3.582-.715-3.354 3.983z" fill="#008184"/><path d="M169.239 186.754s-.315-.113-.411-.249.232-1.077.232-1.077l-1.141.126v1.24l1.399.373-.036-.49-.043.077z" class="B"/><path d="M167.922 186.605s-.122.726 0 .88 2.722.219 2.722.219l.043-.38s-.548-.128-.869-.293a1.13 1.13 0 0 1-.463-.464l-.213.348-1.22-.31z" class="D"/><path d="M164.568 164.935l.272 11.021-.47 9.621 1.761-.195s1.499-8.092 1.676-10.355l1.177-14.082s-4.645-.71-4.416 3.99z" class="M"/><path d="M166.225 152.179c-.374.001-.736.129-1.027.363a1.65 1.65 0 0 0-.575.927c-.212.968-.438 2.534-.438 4.811 0 4.213.323 6.227.323 6.227l6.483-.986s-.524-4.633.74-8.838c.684-2.272-3.377-2.524-5.506-2.504z" class="N"/><path d="M168.933 145.632s-1.473 1.223-1.594 2.569c-.058.612 1.056.905 1.056.905.015 1.504-1.584 2.992-1.584 2.992s.795.712 1.845.923c1.581.317 1.496-.348 1.448-.527-.513-1.939 1.493-4.733.616-6.044s-1.787-.818-1.787-.818z" class="B"/><path d="M169.387 146.032a3.41 3.41 0 0 0-1.05-.879c-.637-.326-.032-2.113.195-2.083s.735 1.13 1.213 1.645 1.672 1.262 1.54 2.735-1.328 2.765-1.328 2.765-.413-.492-.425-.751.706-.727.655-1.035-.442-.054-.61-.124.607-1.054-.19-2.273z" class="E"/><path d="M168.433 154.966l-1.622-2.868-.464-.004.852-.681s.891.464 1.325.912.615.768.615.768l.801-.944.86.286.19.389-2.557 2.142zm2.515 1.154s3.666 1.334 4.298.551c.539-.668-.675-3.422-3.236-6.326-.912-1.033-1.548-1.445-1.548-1.445l-.602.723 3.476 5.233-2.172-1.667c-.202-.196-.615 1.559-.216 2.931z" fill="#0089ce"/><path d="M169.86 149.623l-.876-.48 1.063-2.42 1.164.607-1.351 2.293z" fill="#63717d"/><path d="M170.069 149.52s-.484-.265-.372-.761.319-1.068.369-1.31.311-.119.303.103c-.013.182-.037.362-.073.54 0 0 .328-.429.351-.76s-.126-.911.102-.824.595 1.392.483 1.782-.6.812-.6.812l-.563.418zm-4.184 37.234s-.314-.113-.41-.249.232-1.077.232-1.077l-1.141.126v1.24l1.398.373-.035-.49-.044.077z" class="B"/><path d="M164.568 186.605s-.122.726 0 .88 2.723.219 2.723.219l.043-.38s-.548-.128-.869-.293a1.13 1.13 0 0 1-.463-.464l-.212.348-1.222-.31z" class="D"/><path d="M165.452 154.917s-2.178 2.876-4.518 2.03-4.145-4.32-4.145-4.32l.61-.672s1.541 2.132 3.866 2.9c1.535.509 2.521-1.456 3.366-2.166 1.38-1.161 2.533.314.821 2.228z" fill="#0089ce"/><path d="M128.674 153.725l-5.116-.622c-.789-.084-4.493-3.098-4.493-3.098l-1.861-.604 1.586-.146c.553-.068.598.348.598.348l4.196 2.168 5.092.331c.294.392-.002 1.623-.002 1.623z" class="B"/><g fill="#ffb600"><path d="M127.763 163.372s-2.746 10.48-1.666 13.743c.402 1.218 1.013 7.818 1.013 7.818s-.032 1.368-.695 1.624c-.422.162.719.089.719.089s1.131-2.015.597-2.425.503-7.286.085-8.072c-.377-.707 2.564-13.066 2.564-13.066l-2.617.289z"/><path d="M128.818 163.421s1.126 10.575 2.205 13.838c.402 1.218 1.014 7.818 1.014 7.818s-.032 1.368-.695 1.624c-.422.162.719.089.719.089s1.131-2.015.597-2.426.503-7.286.085-8.071c-.377-.708-1.308-13.16-1.308-13.16l-2.617.288z"/></g><path d="M127.429 160.653l-1.718 12.109 3.396.239 2.008.126.295-5.754.641 5.818 1.007-.077s-.735-9.968-1.616-11.25-.985-1.342-.985-1.342l-3.028.131z" class="E"/><path d="M127.23 161.219l3.684-.426s-.695-2.677-.772-4.105c-.033-.527-.029-1.056.012-1.582.093-.993.471-2.699-1.179-2.989-.382-.068-.71-.047-.848.262l-1.689 3.45c.159.557.82.892.82.892.141 1.284-.116 3.957-.028 4.498z" class="C"/><path d="M131.081 186.775c.151-.092.308-.175.469-.248 0 0 .04.256.351.03s.787-2.146.787-2.146.489.072.659.361c.128.219-.081.759-.081.759l-.024.004-.158 1.557h-.143l.032-1.46a.57.57 0 0 0-.191.146.58.58 0 0 0-.114.213c-.155.593-.227.836-.4 1.022s-1.351-.014-1.351-.014-.052-.089.164-.224zm-4.926-.145a4.36 4.36 0 0 1 .468-.248s.04.256.351.03.787-2.146.787-2.146.489.072.659.361c.129.219-.081.759-.081.759l-.024.004-.157 1.557h-.144l.032-1.46c-.073.035-.138.085-.191.146s-.091.135-.113.213c-.155.593-.228.836-.402 1.022s-1.35-.014-1.35-.014-.052-.088.165-.224zm14.143-23.336l-2.86 1.781-.738-1.189c-.22-.354-.291-.782-.196-1.188a1.58 1.58 0 0 1 .7-.98l.19-.116c.354-.22.781-.29 1.186-.196a1.58 1.58 0 0 1 .979.701l.739 1.187zm-2.71 1.138l2.066-1.288-.492-.792c-.155-.249-.402-.426-.688-.493a1.1 1.1 0 0 0-.834.138l-.19.116a1.11 1.11 0 0 0-.354 1.524l.492.795z" class="F"/><path d="M140.575 161.864l-4.758 2.964 1.746 4.489 6.105-3.803-3.093-3.65z" class="Q"/><path d="M136.552 166.673l-.094-.151 1.912-1.192.372.598 1.489-.927-.372-.598 1.888-1.177.094.152-1.736 1.082.371.598-1.791 1.116-.372-.598-1.761 1.097z" class="F"/><g fill="#001abd"><path d="M139.262 164.523c.028.044.041.095.04.146s-.019.102-.049.144a.26.26 0 0 1-.271.102.26.26 0 0 1-.131-.076c-.035-.037-.059-.085-.067-.135s-.002-.104.02-.151a.26.26 0 0 1 .099-.114c.029-.018.062-.03.095-.036a.27.27 0 0 1 .195.045.26.26 0 0 1 .069.075z"/><path d="M139.083 164.519l-.199.124.474.762.198-.124-.473-.762z"/></g><path d="M143.668 165.514l.395-.699-3.253-3.097-.291.181 3.149 3.615z" class="F"/><g class="B"><path d="M129.079 153.716l5.156 4.068 2.535 3.639s-.34 1.009-.003 1.227c.742.481 1.183-.786 1.183-.786-.313 0-.501.252-.65.087-.045-.049.089-.67.089-.67l-2.083-4.359s-5.372-4.902-5.944-4.56c-.193.117-.351.284-.457.483-.075.143-.099.308-.067.467s.117.301.241.404z"/><path d="M130.092 146.545s-1.4 1.171-1.597 2.585c-.058.416.978.907.978.907-.058 1.026-1.206 2.117-1.206 2.117s.521-.258 1.021.286c.289.314.695.238.668.117-.267-1.347 1.788-4.123 1.237-5.059s-1.101-.953-1.101-.953z"/></g><path d="M130.206 147.056c-.058-.052-.457-.28-.94 0s0 .535 0 .535-1.21-.26-.999-1.044 1.177-1.143 1.939-.736.637.967.637.967 1.668.251 2.144 1.238c.645 1.344.19 2.511-.684 2.942-.78.384-2.169.081-2.169.081l-.661-1.793s1.343-.127 1.343-.406-.381-.152-.381-.152.307-1.13-.229-1.632z" class="E"/><path d="M151.624 186.525l-1.089-9.197.371-12.504s-.691-2.817 2.201.601-.44 12.1-.332 12.542c.166.679.332 8.722.332 8.722l-1.483-.164z" class="J"/><path d="M156.727 186.919l-1.013-.062-.824.532s-1.052.232-1.332.464 3.249-.062 3.249-.062l-.08-.872z" class="D"/><path d="M155.326 186.525l-1.089-9.197-2.051-12.856s.906-1.541 4.622.953c.342.229-.441 12.1-.333 12.542.167.679.333 8.722.333 8.722l-1.482-.164z" class="N"/><path d="M155.686 186.565l1.055.117-.021.349-1.006-.174-.028-.292z" class="B"/><path d="M153.025 186.919l-1.013-.062-.824.532s-1.052.232-1.332.464 3.249-.062 3.249-.062l-.08-.872z" class="D"/><path d="M151.985 186.565l1.054.117-.02.349-1.007-.174-.027-.292z" class="B"/><path d="M139.957 151.863l5.338 1.573 6.533-2.044.068 2.901-6.116 1.364c-.794.047-2.936-.198-4.439-1.258l-1.969-1.521.585-1.015z" class="C"/><path d="M151.888 146.445s-.947 1.505-.666 2.726c.127.556 1.192.494 1.192.494.447 1.322-.075 3.1-.075 3.1s.541-.158 1.435.278c.515.252 1.042-1.052.948-1.197-1.012-1.562.131-4.292-1.021-5.199s-1.813-.202-1.813-.202z" class="B"/><path d="M152.467 146.735s-.031-.563-.8-.547c-.664.012-1.517-1.485-.72-1.941.927-.529 1.612.489 2.167 1.117.661.749.953.793 1.341.911.298.091.851.221.969.838.068.36-.322.766-.468.963.118.029.227.087.318.167a.76.76 0 0 1 .203.297c.125.343-1.162 1.583-1.162 1.583s-.648-.18-.733-.406.413-.846.28-1.103-.449-.045-.576.068c-.052.046-.274-.146-.231-.604.013-.135.239-.381.239-.381s-.484-.03-.711-.302c-.304-.365-.116-.66-.116-.66z" class="E"/><path d="M157.014 159.513c-.222-2.266.007-5.991-.102-6.592s-1.97-2.795-4.988-1.547c-.315.13-.672.371-1.018.711-.834.821-.142 5.562-.204 8.237l-.167 5.241 1.082 1.064.846-1.812 1.337 2.077 3.597-1.329-.383-6.05z" class="C"/><path d="M157.397 151.953s-.743-.53-1.506-.619c-.659-.076-1.289.094-1.372.237-.178.31 1.648.486 1.648.486s-.996.054-.629.281c.165.102 1.619.343 1.619.343l.24-.728z" class="B"/><path d="M153.507 151.592l-.284.956.722 10.832-1.332-.116.349-10.676-.349-.88.894-.116z" fill="url(#U)"/><path d="M159.797 173.002l6.744-3.835-2.699-4.76-6.744 3.835 2.699 4.76z" class="F"/><path d="M159.166 169.872l5.106-2.903-.326-2.577-.207.026.308 2.438-4.868 2.768-2.019-1.47-.123.17 2.129 1.548z" fill="#000"/><path d="M159.045 173.427l.753-.428-2.637-4.65-.266.151 2.15 4.927z" class="G"/><path d="M161.37 168.818l1.165-.662-.491-.866-1.165.662.491.866z" class="Q"/><path d="M157.808 165.922l3.322-1.889 1.27 2.239-3.322 1.889-1.27-2.239zm3.165-1.319l-2.595 1.476.857 1.511 2.595-1.476-.857-1.511z" class="F"/><path d="M160.191 166.519s1.032-.069.792-1.374c-.126-.684-.772-1.206-.772-1.206l-2.072-6.013c-.33-.714-1.654.516-1.095.715s2.017 5.042 2.193 6.237c.083.562-.237 1.023.014 1.126.341.139.412-1.106.412-1.106s.161.995.528 1.621z" class="B"/><path d="M159.144 164.392l-2.177-4.686-2.085-6.521 1.904-.56 1.796 5.447c.434.668 1.87 5.917 1.87 5.917l-1.308.403z" class="C"/><path d="M139.957 151.863s-3.537-1.497-3.453-1.149.602.648.719.893-.031 1.075.695 1.305 1.455-.034 1.455-.034l.584-1.015z" class="B"/><path d="M21.292 153.965h71.971l5.775 2.1H30.63l-9.337-2.1z" class="C"/><path d="M99.038 187.774H30.63v-31.709h68.409v2.531l-4.284 1.864 4.284 1.577v1.798l-1.171 2.425 1.171 1.644v1.608l-3.816 1.881h3.816v2.911l-2.018 1.342 2.018 2.545-1.595 2.626 1.595 2.173v2.268l-.98.877.98.978v.661z" fill="#9df4e8"/><path d="M30.63 187.774l-4.385-1.051-.295-31.709 4.68 1.051v31.709z" class="R"/><path d="M52.643 164.894H30.63l11.007 2.732 11.006-2.732z" class="I"/><g class="R"><path d="M30.63 181.199l8.057-1.675H30.63l1.353-4.406-1.868-2.828.515 8.909zm0-17.81h10.476l-11.494-1.352 1.018 1.352zm-1.859-5.829h16.52l-15.679-1.181-.84 1.181zm0 24.821l16.52-.591-15.679-.591-.84 1.182z"/><path d="M27.996 186.439h9.034l-8.193-1.181-.841 1.181zm2.576-24.012l1.069-2.068-2.03-1.866.96 3.934z"/><path d="M21.292 185.686v-2.791l4.952 1.102-4.952-1.498v-3.601l2.729.136-2.729-.728v-6.386l.98-1.515-1.055-1.45v-2.114l4.505-.131-4.58-1.198v-3.475l.718-1.237-.567-1.208v-2.623l4.218 1.173-4.218-2.077v-2.1l6.703 1.509v31.639l-6.703-1.427z"/></g><path d="M72.523 181.199h-28.91l14.872 1.791 14.038-1.791zm23.056-8.476H75.386l18.851 2.923 1.342-2.923zm3.459-10.686l-19.364-.109 23.65 1.907-4.286-1.798zM60.55 174.52H31.641l8.88 1.792 20.03-1.792zm21.123-7.511H60.931l13.374 1.389 7.368-1.389zm11.319 18.974H72.25l13.601.695 7.141-.695z" class="I"/><path d="M86.192 170.192l-38.383-.105L75.83 171.2l10.363-1.008zm13.123-11.595l-24.674-.104 21.828 1.112 2.846-1.008zm-15.452 24.93l-21.559.071 16.405.837 5.154-.908z" class="R"/><path d="M51.035 160.331H31.641l5.389 1.087 14.005-1.087zm-1.252 25.26H30.389l5.39 1.087 14.005-1.087z" class="I"/><path d="M28.437 164.811l-7.213-1.952-2.283 1.315 9.496.637zm2.193 10.767l-8.644-1.96 2.287 2.028 6.356-.068z" class="C"/><path d="M99.901 198.395l-31.599-10.499v-29.59l52.364 26.756-2.617 7.176-18.148 6.157z" class="G"/><path d="M68.302 158.306s-.046 17.575 6.777 25.417C85.071 195.208 105.343 200 105.343 200l12.709-7.762 2.617-13.243c-4.692-2.436-9.739-5.781-12.802-9.943-6.52-8.867-5.482-17.358-5.482-17.358l-34.083 6.612z" fill="#dcfeff"/><path d="M116.206 182.208l-3.682 2.471s2.587.489 4.022 3.217 1.503 4.342 1.503 4.342l.398-9.644-2.241-.386z" class="G"/><path d="M83.21 159.861c-.097 0-.191-.036-.264-.102a.4.4 0 0 1 .173-.685l15.472-3.664c.051-.013.104-.016.156-.007s.102.026.147.054a.4.4 0 0 1 .178.249.4.4 0 0 1-.297.48l-15.472 3.665c-.03.007-.061.01-.092.01zm1.4 2.653a.4.4 0 0 1-.331-.62c.053-.08.134-.139.226-.165l14.312-3.937a.4.4 0 0 1 .478.283.4.4 0 0 1-.035.297c-.05.091-.133.16-.232.19L84.716 162.5a.42.42 0 0 1-.106.014zm1.006 2.581c-.095 0-.187-.035-.259-.098a.4.4 0 0 1-.076-.514.4.4 0 0 1 .22-.169l14.242-4.368a.4.4 0 0 1 .479.271.4.4 0 0 1-.025.296c-.047.092-.126.162-.223.197l-14.242 4.371a.38.38 0 0 1-.116.014zM75.57 176.78a.4.4 0 0 1-.347-.594.39.39 0 0 1 .204-.178l26.498-10.239a.4.4 0 0 1 .306.007c.097.043.173.122.211.221a.4.4 0 0 1-.006.306c-.043.097-.122.173-.221.212l-26.499 10.239c-.047.017-.096.026-.146.026zm2.54 4.461a.4.4 0 0 1-.356-.578.4.4 0 0 1 .19-.185l25.214-11.543a.4.4 0 0 1 .529.197.4.4 0 0 1-.197.529l-25.213 11.546c-.053.023-.109.034-.167.034zm3.817 3.074c-.091 0-.179-.03-.25-.086a.4.4 0 0 1-.111-.487.4.4 0 0 1 .187-.186l23.7-11.291c.047-.024.099-.039.152-.043a.4.4 0 0 1 .157.021.41.41 0 0 1 .137.079c.04.036.072.079.095.127a.39.39 0 0 1 .038.154c.002.053-.006.106-.024.156a.39.39 0 0 1-.084.135c-.037.039-.08.07-.129.092l-23.7 11.29a.39.39 0 0 1-.168.039zm3.689 2.82a.4.4 0 0 1-.245-.087c-.07-.056-.119-.133-.139-.22a.4.4 0 0 1 .206-.447l22.79-11.485c.047-.023.098-.037.15-.041s.105.002.154.019.096.042.136.076a.38.38 0 0 1 .095.123c.023.047.038.098.042.15a.41.41 0 0 1-.019.155.37.37 0 0 1-.077.135.38.38 0 0 1-.122.096l-22.791 11.485c-.056.028-.117.042-.179.041zm4.875 2.385a.4.4 0 0 1-.391-.303c-.022-.088-.013-.18.024-.261a.4.4 0 0 1 .181-.19l21.421-11.311c.094-.049.203-.06.304-.028a.4.4 0 0 1 .068.734l-21.422 11.311a.4.4 0 0 1-.185.048zm10.688 6.916c-.086 0-.17-.028-.239-.08a.4.4 0 0 1-.135-.46c.03-.08.086-.149.159-.196l9.685-6.23a.4.4 0 0 1 .145-.059c.052-.01.105-.009.157.002a.41.41 0 0 1 .144.062c.043.03.08.068.109.113a.4.4 0 0 1 .057.146c.009.052.008.106-.004.157a.39.39 0 0 1-.178.251l-9.685 6.23c-.064.042-.139.064-.215.064z" fill="#006370"/><path d="M103.831 195.959c-.467 0-.927-.242-1.34-.717-.805-.928-1.32-2.635-1.249-4.025l-2.037 1.021c-.092.047-.199.056-.298.025s-.181-.099-.231-.191c-.57-1.044-.389-3.623.627-5.031.55-.763 1.27-1.089 2.085-.941 1.151.21 1.796 1.247 2.231 2.375.478-.365.927-.337 1.234-.239a1.57 1.57 0 0 1 .293.131l1.296-.65c.102-.194.245-.364.418-.498.22-.164.598-.328 1.144-.166.077.023.146.068.196.13s.082.138.089.218-.009.16-.049.23a.39.39 0 0 1-.17.162l-1.025.514c-.25.674-.256 1.809-.26 2.368l-.006.396c-.004.097-.043.189-.111.259a.39.39 0 0 1-.255.121c-.097.007-.192-.022-.27-.08a.41.41 0 0 1-.153-.236c-.116-.572-.487-1.382-.929-1.833l-.602.304c1.097 1.201 1.761 3.632 1.363 4.726a.4.4 0 0 1-.164.203c-.076.047-.165.068-.254.058l-.129-.02c-.037.454-.195.838-.541 1.08-.262.193-.578.3-.904.306zm-1.738-5.168c-.211 1.143.202 3.005 1.001 3.929.596.688 1.022.39 1.183.278.188-.133.237-.441.206-.828-.579-.486-1.017-1.31-1.274-2.08a6.14 6.14 0 0 1-.312-1.703l-.804.404zm2.24-.017l.024.073.156.432.627 1.955c-.063-.754-.373-1.722-.807-2.457v-.003zm-3.315-3.909c-.406 0-.753.212-1.067.643-.753 1.04-.927 2.874-.704 3.817l2.167-1.087c.086-.275.23-.529.422-.743.337-.36.706-.564 1.087-.605-.358-.972-.86-1.856-1.677-2.004a1.24 1.24 0 0 0-.228-.021zm4.781 2.068a3.95 3.95 0 0 1 .247.331l.063-.487-.31.156zm12.25 3.305l5.039-11.73s-1.181-1.16-2.422-1.513c-3.561-1.009-7.601 1.682-7.601 1.682s4.851 1.917 4.984 11.561z" fill="#ffb600"/><path d="M51.536 188.41s1.068-4.498 3.948-5.573 4.93 1.665 4.589 3.57-2.734-.878-4.93 0-3.946 4.682-3.946 4.682-.192-.431.339-2.679z" fill="url(#V)"/><path d="M51.051 190.606s-1.659-9.835-6.966-9.49c-4.38.284-7.921 2.288-10.056-1.536-2.64-4.729 4.968-11.724 14.023-6.026 7.919 4.984 2.998 17.052 2.998 17.052z" fill="url(#W)"/><path d="M42.381 187.798c-1.39-.576-2.122-2.167-1.552-3.562a2.16 2.16 0 0 1 .54-.802c.238-.224.524-.39.835-.487 2.342-.781 4.341 1.139 6.808 3.921 1.248 1.408 2.151 4.042 2.151 4.042l-8.782-3.112z" fill="url(#X)"/><g class="C"><path d="M50.878 191.299c-.025 0-.05-.004-.074-.013s-.05-.024-.071-.043-.037-.042-.049-.067-.018-.053-.019-.081.003-.055.013-.082c.026-.069 2.511-7.007-2.268-11.707s-12.062-1.661-12.135-1.63c-.026.013-.054.02-.083.022a.22.22 0 0 1-.084-.013c-.027-.01-.052-.026-.072-.046s-.037-.043-.049-.07a.21.21 0 0 1-.017-.083c0-.029.006-.058.017-.084s.028-.05.049-.07.045-.035.072-.045c.076-.033 7.617-3.182 12.599 1.717s2.395 12.085 2.368 12.157a.21.21 0 0 1-.078.1c-.036.025-.078.039-.121.038z"/><path d="M51.163 191.125c-.043 0-.085-.013-.12-.037a.22.22 0 0 1-.078-.098c0-.006-.381-.873-2.805-2.918-2.473-2.088-5.851-3.364-5.885-3.378-.026-.01-.05-.025-.07-.044s-.037-.042-.048-.067-.018-.053-.019-.081.004-.055.013-.081a.2.2 0 0 1 .043-.071c.019-.02.042-.037.067-.048s.053-.018.081-.019.056.003.082.013c.035.013 3.48 1.316 6.011 3.451 1.581 1.334 2.322 2.189 2.66 2.654.492-1.586 2.278-6.714 4.924-7.211.959-.181 1.746-.036 2.341.43.963.754 1.05 2.064 1.053 2.12s-.016.111-.053.153a.21.21 0 0 1-.146.071c-.056.003-.111-.016-.153-.053s-.067-.09-.071-.147c0-.011-.082-1.178-.893-1.811-.494-.386-1.168-.502-2-.348-2.81.528-4.71 7.294-4.729 7.362-.012.043-.037.081-.072.109a.21.21 0 0 1-.122.046l-.01.003zm-12.436-9.9c-.039 0-.078-.01-.111-.03s-.061-.05-.079-.085-.026-.074-.023-.113a.22.22 0 0 1 .039-.108l3.281-4.554c.016-.024.036-.044.06-.06s.051-.026.079-.032a.22.22 0 0 1 .085.002.2.2 0 0 1 .077.035c.023.017.043.038.058.063s.024.051.028.08a.22.22 0 0 1-.005.085c-.007.028-.02.053-.038.076l-3.281 4.553c-.019.027-.045.049-.074.064a.2.2 0 0 1-.095.024zm5.547-.39c-.045 0-.089-.015-.125-.041s-.063-.065-.077-.108-.013-.089.002-.132.042-.08.079-.106l3.308-2.305a.22.22 0 0 1 .077-.037c.028-.007.057-.008.085-.004s.055.015.08.03.045.035.062.059.028.05.034.078.006.057 0 .085-.017.055-.033.078-.037.044-.061.059l-3.305 2.305a.21.21 0 0 1-.123.039zm6.501 1.825h-.023l-2.823-.303a.21.21 0 0 1-.142-.078c-.035-.044-.052-.1-.046-.156s.034-.107.078-.143a.21.21 0 0 1 .156-.045l2.823.302a.21.21 0 0 1 .189.223c-.003.054-.027.105-.066.143s-.092.058-.146.058v-.001z"/><path d="M51.556 186.292a.21.21 0 0 1-.116-.035l-1.864-1.222a.21.21 0 0 1-.08-.133c-.009-.053.002-.108.032-.153s.075-.077.127-.09.107-.006.154.02l1.865 1.226c.038.025.067.062.083.105a.21.21 0 0 1 .004.133c-.013.044-.04.082-.076.109s-.081.043-.126.043l-.001-.003zm-5.029 3.267c-.049 0-.097-.016-.135-.048a.21.21 0 0 1-.074-.123c-.01-.048-.002-.098.021-.142a.21.21 0 0 1 .107-.096l2.13-.879-.821-2.003c-.02-.052-.019-.109.003-.16a.21.21 0 0 1 .114-.113c.051-.021.109-.021.16 0s.093.061.115.112l.901 2.199a.21.21 0 0 1 .016.081c0 .028-.006.055-.017.081s-.026.049-.046.069-.043.035-.069.045l-2.325.961c-.026.011-.053.016-.081.016zm-5.092-2.939a.21.21 0 0 1-.209-.181c-.007-.051.003-.101.03-.144s.069-.075.117-.09l2.879-.88-.575-2.197c-.007-.027-.009-.055-.005-.082s.013-.055.027-.079.033-.045.055-.062.047-.029.074-.036a.21.21 0 0 1 .083-.005c.028.004.054.013.078.027s.045.033.062.055.029.047.036.074l.626 2.395a.21.21 0 0 1-.143.256l-3.074.939c-.02.007-.041.01-.062.01zm1.595 1.5c-.051.001-.101-.018-.14-.051s-.065-.081-.072-.132.005-.103.033-.146.071-.074.121-.088l3.635-1.009-.604-2.167c-.008-.027-.01-.055-.007-.082a.21.21 0 0 1 .026-.079.2.2 0 0 1 .054-.063c.022-.018.047-.031.074-.038a.21.21 0 0 1 .083-.007c.028.003.054.012.079.026s.046.032.063.053.03.047.038.074l.661 2.372c.008.027.01.055.006.083s-.012.054-.026.079-.032.045-.054.063-.047.029-.074.037l-3.84 1.065c-.018.006-.036.009-.055.01z"/></g><path d="M129 98.413c-.479.141-5.277-4.274-3.592-5.858 1.322-1.244 3.123 3.541 3.592 5.858z" fill="url(#Y)"/><path d="M129.173 98.645s5.387-8.433 2.549-11.931-5.095 1.882-2.549 11.931z" fill="url(#Z)"/><path d="M129.906 98.645s6.994-1.849 5.519-5.695-3.689.721-5.519 5.695z" fill="url(#a)"/><g class="C"><path d="M126.043 93.14l-.27.161 3.091 5.202.27-.161-3.091-5.202zm9.329 1.426l-2.881 1.098.112.294 2.88-1.098-.111-.294zm-.001-1.271l-2.014.777.113.293 2.014-.777-.113-.293zm-.244-.977l-1.22.719.159.271 1.221-.719-.16-.272z"/><path d="M134.263 95.99l-2.183.399.057.31 2.182-.399-.056-.31zm-1.195 1.179h-1.536v.314h1.536v-.314zm-1.108.545l-1.294.28.066.307 1.294-.28-.066-.307zm-2.633.964l-.308-.065c.008-.036.753-3.625 1.129-7.114.347-3.248.005-5.465 0-5.487l.309-.049c.004.023.355 2.279 0 5.569-.373 3.506-1.123 7.11-1.13 7.147z"/><path d="M130.479 89.304l-1.803-1.875.226-.219 1.562 1.625 1.375-1.618.24.204-1.6 1.882zm-.19 2.437l-1.75-2.054.239-.204 1.541 1.808 1.876-1.686.209.235-2.115 1.9zm-.234 1.911l-1.628-1.386.203-.239 1.443 1.228 1.729-1.236.183.255-1.93 1.379zm-.247 1.873l-1.257-1.182.214-.23 1.063.998 1.238-.959.193.249-1.451 1.123zm.155 3.267l-.116-.293c.011-.005 1.092-.457 2.508-2.68 1.438-2.256 1.8-3.757 1.804-3.77l.306.071c-.015.063-.375 1.566-1.845 3.87-1.48 2.324-2.61 2.783-2.657 2.802z"/></g><path d="M141.583 111.13v-1.781s-.278-1.302-.56-1.441-.469.806-.469.806l.101 2.416h.928zm-.023-9.609s.143-1.91-.191-2.325c-.107-.134-.405-.669-.489-.762 0 0-.33 0-.364.277a1.63 1.63 0 0 0 0 .342c.068.725.039 2.467.039 2.467h1.005z" class="D"/><path d="M141.56 101.375l6.872-5.473c2.248 1.705 7.298 7.645 7.298 7.645l2.455-4.212s-7.183-5.439-9.587-6.053l-7.039 6.787.001 1.307z" fill="#005e7e"/><g class="B"><path d="M155.363 90.015s.591 1.037.435.894l-6.43-6.386c-.104-.754-2.313-5.02-2.749-5.336s-.194-.313-.496-.237-.679-1.421-.679-1.421 1.543.506 2.102 1.226c.075.098 3.422 4.69 3.722 5.524.202.562 4.637 3.777 4.637 3.777s2.002 2.878-.542 1.959z"/><use xlink:href="#u"/></g><use xlink:href="#v" class="E"/><use xlink:href="#u" class="B"/><use xlink:href="#v" class="E"/><path d="M141.583 110.024l6.689-8.38c2.073-.442 9.183-3.618 9.183-3.618s3.971.833 1.935 4.115c-1.36 2.19-9.892 2.456-10.28 2.405s-7.511 6.563-7.511 6.563l-.016-1.085z" fill="#0072a2"/><g fill="#00d19d"><path d="M154.365 97.121l-.031 1.184.606-.448.105 1.345a12.52 12.52 0 0 0 1.762.504c2.755.522 3.72-.846 3.72-.846s.217-6.708-3.545-10.56c-1.112-1.139-2.263-1.154-2.885-.948-.26.086-.182 1.837-.182 1.837s2.902 4.629.45 7.933z"/><path d="M154.406 87.312h.039a4.75 4.75 0 0 1 1.058.124c.477.109 1.066.696 1.066.696l.281-.55s-.406-.384-1.173-.464c-.235-.019-.47-.012-.703.019l-.727-.428-.307.711.466-.108z"/></g><path d="M154.972 99.022l5.693-3.011 1.959 3.828-5.693 3.011-1.959-3.828z" class="C"/><path d="M160.378 96.712l-.156.08 1.535 2.999.155-.08-1.534-2.999zm-.841.447l-.156.08 1.535 2.999.156-.08-1.535-2.998zm-.84.436l-.155.08 1.534 2.999.156-.08-1.535-2.999zm-.84.44l-.156.08 1.535 2.999.155-.08-1.534-2.999zm-.841.443l-.156.08 1.535 2.999.155-.08-1.534-2.999zm-.839.434l-.156.08 1.534 2.999.156-.08-1.534-2.999z" fill="#2f375f"/><path d="M156.811 88.488l3.697 4.002c-.564 2.19-2.549 4.954-2.549 4.954l.542.593c.181.159 1.24.216.028.413-1.087.174-1.396-.763-1.24-1.207l1.487-4.225c.025-.151-4.677-2.775-4.277-4.331.464-1.807 2.312-.198 2.312-.198zm-14.532 10.907l.28 1.206-.999.795v-1.308l.719-.693zm.055 9.71l.106 1.249-.841.776-.016-1.085.751-.94zm-24.359-60.021c.077-.357.169-.644-.149-.825-1.194-.681-4.203-3.038-4.477-3.526-.34-.602-1.314-3.46-1.314-3.46l.051-.859s-.549-.961-.733-.916.183.838.211 1.456c.032.706.377 3.581 1.305 4.922s3.489 4.361 4.518 3.967c.296-.114.523-.458.588-.758z" class="B"/><path d="M118.902 74.06l-1.711-7.233c-.198-.585-.307-8.875-.307-8.875l2.697.56-.28 7.715.637 7.743-1.036.09z" class="K"/><path d="M115.875 74.06l-1.622-7.233c-.196-.585 1.421-9.253 1.421-9.253l3.908.937-3.219 7.715.637 7.743-1.125.092z" fill="#0f6d6d"/><path d="M115.859 76.051s-.71.026-.406-.174c1.137-.738.766-1.831.766-1.831l.777-.109-.015 1.033-.637.882s.162.267-.485.198z" class="B"/><path d="M121.133 76.208c0 .314-4.199.569-9.379.569s-9.379-.255-9.379-.569 4.199-.569 9.379-.569 9.379.255 9.379.569z" class="G"/><path d="M116.632 76.267l.038-.853.488-.562-.202 1.415h-.324z" fill="url(#b)"/><path d="M116.954 74.633s.084-.088.232.167c.116.194-.072.672-.072.672-.116.018-.227.062-.324.127a.8.8 0 0 0-.238.254c-.087.163-.191.316-.311.456-.154.164-1.348-.013-1.348-.013s-.046-.08.145-.2c.134-.081.273-.155.415-.22 0 0 .308.227.583.027s.918-1.271.918-1.271z" fill="url(#c)"/><path d="M118.816 76.051s-.71.026-.406-.174c1.137-.738.767-1.831.767-1.831l.776-.109-.015 1.033-.637.882s.162.267-.485.198z" class="B"/><path d="M119.59 76.267l.037-.853.488-.562-.202 1.415h-.323z" fill="url(#d)"/><path d="M119.911 74.633s.084-.088.232.167c.116.194-.072.672-.072.672a.8.8 0 0 0-.562.381c-.087.163-.191.316-.31.456-.154.164-1.349-.013-1.349-.013s-.046-.08.145-.2c.134-.081.273-.155.415-.22 0 0 .308.227.583.027s.918-1.271.918-1.271z" fill="url(#e)"/><path d="M116.634 47.834c-.644.101-.887.377-1.18.96-.225.447-.731 1.514-1.217 2.041-.321.348 1.225 7.425 1.225 7.425l4.529.25s-1.125-3.095-1.2-5.104-.159-4.466-.544-4.93c-.579-.695-1.035-.731-1.613-.642z" fill="url(#f)"/><path d="M116.188 49.952c.099-.352.208-.633-.097-.832-1.151-.754-4.009-3.292-4.253-3.795-.301-.622-.84-4.002-.84-4.002s.552-.736.361-.863c-.143-.095-.516.476-.516.476s-.12-1.113-.307-1.08-.705.68-.357 1.294.267 3.891 1.111 5.286 3.214 4.567 4.264 4.238c.303-.096.55-.426.634-.72zm-.701-6.143s-.637 1.247-.354 2.304c.084.312.962.348.962.348.265.743-.354 1.856-.354 1.856s.474-.608.991-.374c.297.135.695-.021.637-.102-.592-.87.753-3.292.087-3.787s-1.969-.245-1.969-.245z" class="B"/><path d="M115.748 44.237c-.481-.024-.891-.412-.883-.894a1.05 1.05 0 0 1 .195-.58c.553-.82 1.354.267 1.371.499s.659-1.206 2.189.092-.017 3.061.587 3.97 1.192.517 1.352 1.301-.871.855-.871.855.267.464-.321.855-1.441-.125-1.441-.125-.204.733-.836.784-1.316-1.819-.897-3.4c.501-1.892.927-2.189.946-2.653s-.249-.16-.373-.143c-.112.019.055-.508-1.018-.563z" class="E"/><path d="M51.784 118.196c-.009.067.116.453.383.633s.864.206.864.206l.102.799s-.646-.161-1.031-.551-.475-.577-.475-.577l.155-.51zm1.576 1.026s.551-.101.695-.516-.131-.638-.131-.638l.48.574s.049.213-.4.58l-.77.612.126-.612z" class="C"/><path d="M75.966 155.105c0 .327-9.016.592-20.137.592s-20.137-.265-20.137-.592 9.016-.593 20.137-.593 20.137.268 20.137.593z" class="G"/><path d="M57.781 124.947H55.03v1.111l2.512.541.238-1.652z" class="B"/><path d="M63.1 153.638l.295-10.372 1.408-11.907s-.692-2.816 2.201.602-1.478 11.503-1.369 11.945c.166.679-1.051 9.897-1.051 9.897l-1.483-.165z" class="J"/><path d="M64.503 154.033l-1.013-.062-.824.532s-1.052.232-1.332.464 3.249-.063 3.249-.063l-.081-.871z" class="D"/><path d="M63.463 153.678l1.054.117-.02.35-1.007-.174-.027-.293z" class="B"/><path d="M72.097 153.638l-1.738-9.495.763-11.394s.861-3.168-2.93-.788c-2.239 1.405-.259 10.512-.197 12.475.058 1.887 2.618 9.367 2.618 9.367l1.484-.165z" class="J"/><path d="M71.9 154.033l-1.013-.062-.824.532s-1.052.232-1.332.464 3.249-.063 3.249-.063l-.081-.871z" class="D"/><path d="M70.869 153.775l.987-.11.038.48-1.006-.174-.019-.196z" class="B"/><path d="M57.404 124.526l2.516-.486 4.866-4.818 1.39 2.544-4.808 4.024c-.685.405-2.699 1.174-4.518.923-1.189-.165.27.028.27.028l.284-2.215z" class="C"/><path d="M65.811 113.558s-.947 1.508-.666 2.727c.128.555 1.193.493 1.193.493.447 1.322-.075 3.101-.075 3.101s.54-.159 1.434.277c.515.252 1.043-1.051.949-1.196-1.013-1.563.131-4.292-1.022-5.199s-1.813-.203-1.813-.203z" class="B"/><path d="M66.391 113.848s-.031-.562-.8-.547c-.663.013-1.516-1.485-.719-1.94.927-.529 1.611.488 2.166 1.116.662.75.954.794 1.342.911.298.091.851.221.969.838.069.361-.322.766-.468.963a.75.75 0 0 1 .521.467c.126.343-1.159 1.583-1.159 1.583s-.648-.179-.734-.406.413-.846.28-1.102-.448-.047-.575.066c-.052.047-.275-.145-.232-.602.012-.136.239-.383.239-.383s-.485-.029-.711-.302c-.307-.366-.119-.662-.119-.662z" class="E"/><path d="M70.938 126.624c-.222-2.265.007-5.991-.102-6.591s-1.97-2.796-4.987-1.548c-.315.131-.533.244-.879.584-.835.82-.281 5.689-.342 8.365l-.167 5.24 1.082 1.065.846-1.812 1.336 2.077 3.598-1.33-.383-6.05z" class="C"/><path d="M67.431 118.706l-.284.956.721 10.831-1.331-.116.348-10.675-.348-.881.894-.115z" fill="url(#g)"/><path d="M76.383 132.569s.985-.31.447-1.522c-.283-.638-1.033-.991-1.033-.991l-3.425-5.357c-.488-.617-1.641 1.16-1.051 1.224s3.297 4.155 3.749 5.275c.212.527.009 1.05.277 1.091.365.058.141-1.172.141-1.172s.39.933.894 1.452z" class="B"/><path d="M72.634 127.621l-1.951-2.35-1.558-5.469 1.572-.081 2.129 4.967c.434.668 1.39 2.473 1.39 2.473l-1.583.46z" class="C"/><path d="M57.119 153.638l-1.328-11.518-.375-10.761s.691-2.816-2.201.602.446 10.355.337 10.797c-.166.68 2.085 11.045 2.085 11.045l1.482-.165z" class="J"/><path d="M55.718 154.033l1.013-.062.824.532s1.052.232 1.332.464-3.249-.063-3.249-.063l.08-.871z" class="D"/><path d="M56.759 153.678l-1.054.117.02.35 1.006-.174.028-.293z" class="B"/><path d="M48.124 153.638l.94-10.125.034-10.764s-.861-3.166 2.929-.788c2.239 1.405-.537 9.881-.599 11.845-.058 1.886-1.822 9.997-1.822 9.997l-1.482-.165z" class="J"/><path d="M48.321 154.033l1.013-.062.824.532s1.052.232 1.332.464-3.249-.063-3.249-.063l.081-.871z" class="D"/><path d="M49.352 153.775l-.986-.11-.038.48 1.006-.174.019-.196z" class="B"/><g class="M"><path d="M61.69 120.257l-2.111.87-5.11-2.62-.067 2.9s3.84 1.902 4.634 1.948 2.186-1.145 2.186-1.145l.468-1.953z"/><path d="M49.283 126.624c.222-2.265-.007-5.991.102-6.591s1.97-2.796 4.988-1.548c.315.131.533.244.879.584.834.82.28 5.689.342 8.365l.167 5.24-1.363.464-.567-1.21-.695 1.089-4.234-.341.381-6.052z"/></g><path d="M52.756 112.511s1.364 1.139 1.472 2.39c.05.568-.985.837-.985.837-.018 1.396 1.026 2.926 1.026 2.926s-.043.112-.758.803c-.412.398-1.836-.775-1.792-.941.482-1.798-1.448-4.045-.628-5.261s1.664-.754 1.664-.754z" class="B"/><path d="M52.293 112.964s-.274-.232.463-.453c.637-.193.092-1.938-.807-2.126-1.043-.218-1.875.317-2.195 1.607-.242.971.839.917.507 1.149-.255.178-.742.472-.664 1.095.046.366.542.63.742.772-.103.065-.19.154-.252.26s-.097.224-.103.347c-.014.364 1.592 1.146 1.592 1.146s.562-.37.573-.61-.653-.677-.605-.963.412-.182.567-.116c.064.028.217-.223.035-.645-.053-.125-.345-.29-.345-.29s.452-.177.583-.507c.176-.442-.093-.666-.093-.666z" class="E"/><path d="M52.791 118.706l.283.956-.743 6.111h1.606l-.601-6.071.348-.881-.893-.115z" class="C"/><path d="M43.838 132.569s-.985-.31-.447-1.522c.283-.638 1.033-.991 1.033-.991l3.425-5.357c.488-.617 1.641 1.16 1.051 1.224s-3.297 4.155-3.749 5.275c-.213.527-.009 1.05-.278 1.091-.364.058-.141-1.172-.141-1.172s-.39.933-.894 1.452z" class="B"/><path d="M48.124 126.972l1.413-1.703 1.568-5.511c.14-.493-.132-1.357-.546-1.055-.402.124-.767.346-1.064.645a2.57 2.57 0 0 0-.636 1.071l-1.467 4.266c-.434.668-.937.951-.937.951l1.668 1.336z" class="M"/><path d="M61.526 120.324s3.225-2.016 4.022-2.016 1.308.282 1.148.398-1.159.338-1.364.516.648.308.375.499-1.572.146-1.9.47-2.529 1.777-2.529 1.777l.247-1.644z" class="B"/><path d="M64.439 117.699l-.116-9.615-.239-11.626s-.53-4.832-3.048-.924 1.119 13.04 1.067 13.509c-.08.722.829 9.025.829 9.025l1.506-.37z" class="H"/><path d="M54.826 119.167l1.053.032.801.628s1.065.34 1.332.608-3.353-.373-3.353-.373l.167-.895z" class="D"/><path d="M56.312 118.892l1.997-9.406 3.755-9.851s.152-5.112-3.927-2.886c-.374.205-2.049 12.739-2.201 13.186-.236.687-1.17 8.986-1.17 8.986l1.547-.029z" class="K"/><path d="M55.935 118.899l-1.101.021-.012.363 1.057-.084.056-.3z" class="B"/><path d="M63.05 118.294l1.034-.2.92.437s1.114.096 1.433.3-3.354.374-3.354.374l-.033-.911z" class="D"/><path d="M64.074 117.789l-1.069.263.067.357 1.013-.315-.01-.305zm8.009-41.512s.862.638-.076 1.645c-.492.528-1.349.622-1.349.622s-2.909 5.898-4.433 6.874c-.687.44-6.502.793-6.502.793l.042-2.283 5.903.251c.6.139 3.841-6.055 4.663-7.001.386-.445.364-1.028.642-.977.377.069-.258 1.197-.258 1.197s.699-.782 1.368-1.121z" class="B"/><path d="M69.293 78.683l-3.562 5.206-6.327-.147.071 2.928 6.877-.504c.753-.34 2.012-2.784 2.885-4.483l1.082-2.349-1.026-.652z" class="H"/><path d="M69.601 78.187l-.308.496 1.026.652.255-.593-.973-.555z" class="C"/><path d="M57.645 78.777s1.404 1.198 1.502 2.498c.045.59-1.029.858-1.029.858-.035 1.45 1.032 3.05 1.032 3.05s-.585.01-1.336.72c-.433.406-1.358-.72-1.31-.892.521-1.862-1.456-4.217-.593-5.47s1.734-.764 1.734-.764z" class="B"/><path d="M57.16 79.242s.276.244.894-.062.748-1.349-.029-1.901c-.213-.151-1.047-.458-1.518.712 0 0-.6-.331-.968.085-.521.592-.111 1.372-.111 1.372s-.852.076-.793 1.044c.015.166.065.328.146.474s.192.274.325.374c-.108.066-.199.158-.264.266s-.103.232-.111.359c-.018.379.521.771.889.624l.222.336c.27.348.529.25.529.25s.587-.378.602-.628-.671-.711-.617-1.006.43-.184.59-.112c.066.03.309-.335.126-.776-.054-.13-.282-.284-.282-.284 0-.138.389-.29.457-.434.212-.448-.088-.693-.088-.693z" class="E"/><path d="M57.945 97.216l.174.216s1.309 1.276 2.339 1.434c3.339.504 3.481-2.142 3.481-2.142s-3.161-10.847-3.726-11.829c-.956-1.661-2.87-1.117-3.576-.766-.695.344-1.216.903-1.585 1.427a1.7 1.7 0 0 0 .165 2.153c1.516 1.569 4.825 6.441 2.728 9.507z" class="C"/><path d="M56.636 84.128l3.747 6.206-2.081-6.686c.276-.029.554-.021.828.022a3.93 3.93 0 0 1 1.229.39c1.08.554 1.857 5.469 2.745 8.101l1.783 5.143-1.274 1.938-.869-2.083-.684 2.473-4.643-.238-.821-6.081c-.479-2.314-1.857-5.936-1.934-6.565s.307-2.143 1.974-2.621z" class="H"/><path d="M57.455 83.818l.503.555.468 2.719 1.959 3.245-.806-3.444-1.391-2.593-.006-.545-.725.063z" fill="url(#h)"/><path d="M61.369 92.001H89.97V77.244H61.369v14.758z" class="C"/><g fill="#00445b"><path d="M87.999 91.384c.081 0 .158-.032.215-.089s.089-.135.089-.215V79.274c-.003-.078-.037-.153-.093-.207s-.132-.085-.21-.085-.154.03-.21.085-.09.128-.094.207V91.08c0 .081.032.158.089.215s.134.089.215.089z"/><path d="M63.411 89.839h25.725c.041.002.082-.005.12-.019s.074-.037.103-.065.053-.063.069-.1.024-.078.024-.12-.008-.082-.024-.12-.04-.072-.069-.1-.065-.051-.103-.065-.079-.021-.12-.019H63.411c-.041-.002-.082.005-.12.019s-.074.037-.103.065-.053.063-.069.1-.025.079-.025.12.008.082.025.12.04.072.069.1.065.05.103.065.079.021.12.019z"/></g><path d="M85.969 88.409c.049 0 .098-.012.141-.035.035-.019.067-.044.092-.075s.045-.066.056-.104.016-.078.012-.118-.015-.078-.034-.114l-1.543-2.928c-.024-.045-.059-.084-.102-.112s-.092-.045-.143-.049-.102.005-.149.027-.087.054-.118.095l-1.592 2.129-2.71-3.828c-.028-.039-.064-.071-.106-.093s-.089-.034-.137-.035h-.005c-.047 0-.093.011-.135.032s-.079.051-.107.089l-2.787 3.688-2.77-5.403c-.025-.049-.063-.09-.11-.119s-.1-.045-.155-.046-.11.01-.158.038-.087.069-.112.118l-3.229 5.807-3.203-8.817c-.013-.039-.033-.075-.06-.106s-.059-.056-.096-.074-.077-.028-.117-.031-.082.004-.12.018-.074.036-.103.064-.054.061-.07.099-.026.078-.026.119.007.081.022.119l3.43 9.445c.02.055.055.103.102.138s.102.057.16.061.116-.008.168-.035.094-.069.122-.12l3.276-5.892 2.731 5.327c.024.046.058.085.101.113s.092.046.143.05.103-.004.15-.025.088-.053.119-.094l2.829-3.743 2.711 3.828c.028.039.064.071.107.093s.089.034.137.035a.31.31 0 0 0 .247-.122l1.554-2.08 1.318 2.502c.025.049.064.091.111.12s.102.044.157.045z" fill="url(#i)"/><path d="M65.83 80.865c.063 0 .124-.02.176-.056s.09-.088.111-.147l.622-1.763 1.611 1.024c.034.021.071.036.111.043s.079.006.118-.003.076-.025.108-.048a.3.3 0 0 0 .082-.086c.021-.034.036-.071.043-.111s.006-.08-.003-.119-.025-.076-.048-.109-.052-.06-.086-.082l-1.934-1.229c-.039-.025-.082-.04-.128-.045s-.091 0-.135.015-.082.04-.115.072-.057.072-.072.115l-.748 2.122c-.013.038-.019.078-.017.118s.012.079.029.115.041.068.071.095.065.047.102.06c.032.012.066.018.101.018z" fill="url(#j)"/><g fill="#00445b"><path d="M78.997 80.535h-2.311c-.041.002-.082-.005-.12-.019a.31.31 0 0 1-.103-.065.3.3 0 0 1-.069-.1c-.016-.037-.024-.078-.024-.12s.008-.082.024-.12.04-.072.069-.1a.3.3 0 0 1 .103-.065c.038-.014.079-.021.12-.019h2.311a.3.3 0 0 1 .206.094c.054.057.084.132.084.211s-.03.154-.084.211-.128.09-.206.094zm-.612 1.982h2.311c.041.002.082-.005.12-.019a.3.3 0 0 0 .103-.065c.029-.028.053-.063.069-.1s.024-.079.024-.12a.31.31 0 0 0-.024-.12c-.016-.038-.04-.072-.069-.1a.3.3 0 0 0-.103-.065c-.038-.014-.079-.021-.12-.019h-2.311c-.041-.002-.082.005-.12.019a.31.31 0 0 0-.103.065.3.3 0 0 0-.069.1c-.016.037-.025.078-.025.12a.29.29 0 0 0 .025.12.32.32 0 0 0 .069.1c.029.028.065.05.103.065s.079.021.12.019zm5.184 1.831h2.311c.081 0 .158-.032.215-.089s.089-.135.089-.215-.032-.158-.089-.215-.134-.089-.215-.089h-2.311c-.081 0-.158.032-.215.089s-.089.135-.089.215.032.158.089.215.134.089.215.089z"/><use xlink:href="#w"/><use xlink:href="#w" y="1.423"/><path d="M62.931 85.771h2.313c.041.002.082-.005.12-.019a.3.3 0 0 0 .103-.065c.029-.028.053-.063.069-.1s.024-.078.024-.12-.008-.082-.024-.12-.04-.072-.069-.1-.065-.05-.103-.065-.079-.021-.12-.019h-2.311c-.041-.002-.082.005-.12.019a.3.3 0 0 0-.103.065c-.029.028-.053.063-.069.1s-.024.079-.024.12a.31.31 0 0 0 .024.12c.016.038.04.072.069.1s.065.05.103.065.079.021.12.019h-.001zm0 1.424h2.313c.041.002.082-.005.12-.019a.3.3 0 0 0 .103-.065c.029-.028.053-.063.069-.1s.024-.078.024-.12-.008-.082-.024-.12-.04-.072-.069-.1a.3.3 0 0 0-.103-.065c-.038-.014-.079-.021-.12-.019h-2.311c-.041-.002-.082.005-.12.019a.3.3 0 0 0-.103.065c-.029.028-.053.063-.069.1s-.024.079-.024.12a.31.31 0 0 0 .024.12c.016.038.04.072.069.1s.065.05.103.065.079.021.12.019h-.001z"/></g><path d="M69.659 91.658s-.046 1.073-1.405.857c-.713-.116-1.27-.773-1.27-.773s-6.51.882-8.168.161c-.748-.325-2.206-3.312-2.206-3.312l-.033-2.078 2.954 4.234c.221.576 7.161-.195 8.404-.041.584.072 1.055-.272 1.168-.013.153.348-1.136.455-1.136.455s1.036.143 1.691.509z" class="B"/><path d="M66.107 90.687l-6.302-.048-4.155-6.016s-.504.29-.86 1.263c-.637 1.74 2.774 6.106 3.476 6.541s3.43.116 5.325-.11l2.549-.414-.032-1.216z" class="K"/><path d="M66.689 90.665l-.583.021.034 1.216.634-.12-.084-1.118z" class="C"/><path d="M68.627 76.777c-.04 0-.08-.01-.116-.029a.25.25 0 0 1-.105-.337l.352-.672a.25.25 0 0 1 .331-.108l.48.238.265-.537a.25.25 0 0 1 .143-.127.25.25 0 0 1 .191.011l.572.284.283-.573c.014-.03.034-.056.059-.078a.25.25 0 0 1 .181-.063.25.25 0 0 1 .095.025l.811.401a.25.25 0 0 1 .104.331.25.25 0 0 1-.326.117l-.586-.29-.283.573a.25.25 0 0 1-.059.078c-.025.022-.053.039-.084.05s-.064.015-.097.013a.25.25 0 0 1-.094-.025l-.572-.284-.265.537a.25.25 0 0 1-.334.113l-.485-.24-.239.455a.25.25 0 0 1-.222.136z" fill="url(#k)"/><path d="M61.54 76.777c-.046 0-.09-.012-.129-.036s-.071-.058-.092-.098l-.239-.455-.484.24a.25.25 0 0 1-.334-.113l-.265-.536-.572.284a.25.25 0 0 1-.095.025c-.033.002-.066-.002-.097-.013a.25.25 0 0 1-.143-.127l-.283-.573-.587.29a.25.25 0 0 1-.326-.117.25.25 0 0 1 .104-.33l.811-.401c.029-.014.062-.023.094-.025a.25.25 0 0 1 .181.063.25.25 0 0 1 .059.078l.283.573.572-.284a.25.25 0 0 1 .191-.011.25.25 0 0 1 .084.049c.025.022.044.048.059.078l.265.537.479-.238a.25.25 0 0 1 .332.108l.352.672a.25.25 0 0 1 .018.19c-.01.031-.026.06-.047.086s-.047.046-.076.061c-.036.019-.076.028-.117.027z" fill="url(#l)"/><path d="M65.974 74.288a.25.25 0 0 1-.218-.128.25.25 0 0 1 .007-.253l.271-.437-.452-.296a.25.25 0 0 1-.108-.159.25.25 0 0 1-.001-.098c.006-.032.019-.063.037-.091l.328-.501-.534-.348a.25.25 0 0 1-.108-.159.25.25 0 0 1 .037-.189l.348-.535-.547-.359a.25.25 0 0 1-.072-.346.25.25 0 0 1 .345-.072l.756.496a.25.25 0 0 1 .108.159.25.25 0 0 1-.037.189l-.348.535.533.348c.028.018.052.041.07.069a.25.25 0 0 1 .039.189c-.006.032-.019.063-.037.091l-.327.501.447.294a.25.25 0 0 1 .075.34l-.4.644a.25.25 0 0 1-.091.087c-.037.021-.079.032-.121.032z" fill="url(#m)"/><path d="M68.135 74.479a.25.25 0 0 1-.228-.156.25.25 0 0 1 .054-.271l2.072-2.075a.25.25 0 0 1 .179-.081.25.25 0 0 1 .182.073c.024.024.043.052.055.083a.25.25 0 0 1-.004.196c-.014.031-.034.058-.058.081l-2.073 2.075c-.023.023-.051.042-.082.054a.25.25 0 0 1-.097.018z" fill="url(#n)"/><path d="M63.308 74.367c-.065-.001-.128-.027-.174-.074l-1.76-1.762a.25.25 0 0 1-.08-.179.25.25 0 0 1 .073-.182c.024-.024.052-.043.083-.055a.25.25 0 0 1 .196.004.25.25 0 0 1 .081.059l1.76 1.763a.25.25 0 0 1 .054.271.25.25 0 0 1-.228.156h-.005z" fill="url(#o)"/><path d="M193.654 151.965s-4.161-.638-6.251-1.456c-.923-.361-2.464-4.009-3.002-4.773-.315-.447-2.815-1.032-2.954-.973-.277.116 1.13.708 1.13.708-.128.079-.61.018-.659.403-.031.24 1.115-.362 1.875.47s1.016 3.924 2.85 5.424c2.433 1.989 7.936 2.253 7.936 2.253l-.925-2.056z" class="B"/><path d="M198.856 164.29l-.927 9.894 6.166 6.993 1.68.674s-3.676-5.492-4.721-8.604 4.103-7.919 3.636-9.271-6.098-2.873-5.834.314z" fill="#003251"/><path d="M204.876 181.962l.899-.111-.545-.838-1.137.164.783.785z" class="B"/><path d="M202.398 183.001l3.389-.138-.052-1.045s-1.204-.269-1.935.09-1.355.517-1.402 1.093zm8.43-.088l3.388-.138-.051-1.044s-1.204-.27-1.936.09-1.356.517-1.401 1.092z" class="D"/><path d="M190.067 148.428s.452 2.335.932 2.61c.441.252 1.233-.522 1.381-.263s.562 1.955.562 1.955.528-1.145 1.125-1.23c.267-.039.522-.047.522-.047s-2.325-4.105-3.65-3.756-.872.731-.872.731z" class="B"/><path d="M212.522 181.24s-5.878-7.336-6.573-8.593c-.413-.744-4.793-9.071-4.793-9.071h4.997s1.53 3.388 2.645 8.085c.058.254 4.3 8.449 4.3 8.449l-.576 1.13z" class="N"/><path d="M214.165 181.732l-1.127-.042-.427-.692.486-.888 1.068 1.622z" class="B"/><path d="M194.779 151.262s2.755-.618 7.894 5.588c2.357 2.846 3.479 6.726 3.479 6.726l-7.437.542c-.874-4.243-6.675-10.336-6.132-11.84.228-.631 1.653-1.176 2.196-1.016z" class="C"/><path d="M193.691 154.081l3.143 2.696 4.573 3.558c-.056.223-.059.455-.007.679a1.43 1.43 0 0 0 .303.607c.51.607 1.68.696 1.812.546s-.119-.419-.119-.419-1.131-.626-1.287-1.574c-.058-.348-2.759-2.68-3.707-3.872-.799-1.003-2.59-3.314-3.877-3.922a.94.94 0 0 0-1.071.19c-.105.105-.184.234-.23.376a.95.95 0 0 0-.035.44.93.93 0 0 0 .168.407c.087.121.201.22.334.288z" class="B"/><path d="M193.117 149.261s-.621.047-.737-.188-.271-.95-.555-.905-.193.246-.36.29-1.469.9-2.665.353-.56-1.898.239-2.007.662.731.662.731a5.48 5.48 0 0 1 2.028-.464c1.102-.02 1.388 2.19 1.388 2.19z" class="E"/><g class="F"><path d="M219.064 183.317c-.085.023-.175.02-.258-.008s-.156-.081-.21-.151l-35.952-50.078c-.132-.184-.072-.438.133-.568.095-.063.211-.088.324-.07a.46.46 0 0 1 .286.168l35.952 50.079c.132.183.073.437-.133.567a.46.46 0 0 1-.142.061zm5.874-1.441c-.085.023-.175.02-.258-.008a.44.44 0 0 1-.21-.15l-35.952-50.079c-.132-.183-.073-.437.133-.567.095-.064.211-.089.324-.07a.46.46 0 0 1 .286.168l35.952 50.078c.132.184.072.438-.133.568-.044.027-.092.048-.142.06z"/><path d="M192.162 136.22l-5.851 1.436c-.238.058-.474-.071-.527-.29s.096-.441.335-.5l5.854-1.435c.238-.058.474.07.527.29s-.102.44-.338.499zm3.904 5.5l-5.853 1.436c-.239.058-.475-.071-.528-.29s.097-.441.335-.5l5.854-1.435c.238-.058.474.07.527.29s-.097.441-.335.499zm3.906 5.5l-5.646 1.385c-.238.058-.474-.071-.528-.29s.097-.441.335-.5l5.646-1.384c.239-.058.475.07.528.29s-.097.44-.335.499zm3.906 5.5l-5.547 1.36c-.238.058-.474-.07-.527-.29s.097-.441.335-.499l5.546-1.36c.239-.058.475.07.528.29s-.097.44-.335.499zm3.906 5.5l-5.729 1.405c-.238.058-.475-.07-.527-.29s.096-.441.334-.5l5.73-1.404c.238-.058.473.07.527.29s-.097.44-.335.499zm3.906 5.5l-5.693 1.396c-.238.058-.474-.07-.527-.29s.096-.441.335-.499l5.692-1.397c.239-.058.474.071.528.291s-.097.44-.335.499zm3.905 5.5l-5.656 1.387c-.238.059-.474-.07-.527-.29s.096-.44.335-.499l5.656-1.387c.238-.058.475.07.528.29s-.097.44-.336.499zm3.988 5.48l-5.566 1.365c-.238.058-.475-.07-.528-.29s.097-.441.335-.499l5.566-1.365c.238-.058.475.07.528.29s-.097.441-.335.499z"/></g><g class="B"><path d="M198.083 128.604l-3.713 3.686c-.503.589-3.606 3.524-3.606 3.524l-1.813.386s-.251.093 0-.391 1.586-.584 1.586-.584l2.776-3.688 3.503-4.572c.477-.021 1.267 1.639 1.267 1.639zm-1.237 6.947s.66 13.963 2.094 15.167c.957.803 5.222 5.859 5.222 5.859s-.055 1.65-.702 1.898c-.412.159.701.087.701.087s1.104-1.966.582-2.366-3.348-5.869-3.756-6.635c-.367-.691-.168-14.584-.168-14.584l-3.973.574z"/><path d="M196.394 134.305s4.699 12.055 8.539 15.772c.637.614 8.754 5.757 8.754 5.757l.869 1.061s.834-.496-.486-2.118c-.621-.763-.869-.29-.869-.29l-6.789-5.882s-4.287-12.877-4.866-13.365c-2.798-2.36-5.152-.935-5.152-.935z"/></g><path d="M201.518 134.868c-.397-.396-.727-.633-.984-.776l-2-1.471a7.42 7.42 0 0 1-.368-2.251c-.004-.362.019-.928.073-1.496.091-.969.46-2.634-1.15-2.917-.374-.066-.692-.046-.828.256l-1.647 3.364c.154.543.799.87.799.87.363 1.103 1.176 4.396 1.262 4.924l.936 10.157s1.981.569 3.186.561 1.949-.24 1.949-.24l.909-.107 1.644-.44s-2.706-9.363-3.781-10.434z" fill="url(#p)"/><g class="G"><path d="M215.591 156.076l-1.333-1.285-.042-.478 1.47 1.659-.095.104z"/><path d="M213.295 154.387s.375-.304.695-.235c.243.053.491.561.491.561s-.286.338.146.828c.397.448.58.723.596.971s-.902.962-.902.962-.099-.023-.053-.267a4.29 4.29 0 0 1 .132-.501s.209.14.253-.232-1.358-2.087-1.358-2.087zm-8.274 4.474l.041-1.852.321-.355-.222 2.207h-.14z"/><path d="M204.774 156.245s.477.07.642.351c.126.215-.079.742-.079.742s-.48.055-.583.448c-.151.58-.222.816-.391.998s-1.318-.013-1.318-.013-.051-.088.161-.22c.147-.09.3-.171.457-.242 0 0 .039.249.342.029s.769-2.093.769-2.093z"/></g><path d="M208.134 136.863l-2.79 1.74-.721-1.16c-.215-.346-.283-.763-.191-1.159s.338-.74.683-.956l.186-.116a1.53 1.53 0 0 1 1.157-.191c.396.092.739.338.954.683l.722 1.159zm-2.644 1.111l2.016-1.257-.48-.773c-.151-.243-.393-.416-.671-.482a1.08 1.08 0 0 0-.814.134l-.185.116c-.243.151-.416.393-.482.672a1.08 1.08 0 0 0 .134.815l.482.775z" class="F"/><path d="M208.404 135.468l-4.642 2.892 1.703 4.381 5.958-3.712-3.019-3.561z" class="Q"/><path d="M204.479 140.16l-.092-.147 1.866-1.163.362.584 1.453-.905-.362-.584 1.842-1.148.091.148-1.694 1.056.363.583-1.748 1.09-.363-.584-1.718 1.07z" class="F"/><g fill="#001abd"><path d="M207.124 138.062c.026.043.039.093.038.143s-.019.099-.048.14-.07.072-.117.09-.098.021-.147.01-.094-.037-.128-.074a.25.25 0 0 1-.065-.133c-.009-.049-.002-.1.019-.146s.054-.085.097-.111c.028-.018.06-.03.093-.036s.067-.004.099.004.063.021.091.041a.26.26 0 0 1 .068.072z"/><path d="M206.946 138.054l-.193.12.462.744.193-.12-.462-.744z"/></g><path d="M211.423 139.029l.385-.681-3.175-3.022-.284.176 3.074 3.527z" class="F"/><g class="B"><path d="M197.19 127.518l5.029 3.968 2.474 3.552s-.331.986-.003 1.197c.725.469 1.155-.767 1.155-.767-.305 0-.49.245-.637.084-.044-.048.087-.653.087-.653l-2.032-4.254s-5.242-4.782-5.801-4.449a1.24 1.24 0 0 0-.445.472c-.073.14-.096.301-.065.456s.115.294.238.394z"/><path d="M198.175 120.52s-1.366 1.143-1.558 2.523c-.058.406.954.885.954.885-.058 1.002-1.177 2.065-1.177 2.065s.508-.251.997.28c.282.306.676.232.652.111-.261-1.315 1.745-4.023 1.207-4.936s-1.075-.928-1.075-.928z"/></g><path d="M198.287 121.019c-.055-.051-.825-1.04 0-1.218.567-.121 1.443.074 2.709 2.152.758 1.242.396 2.179.297 3.553-.061.847.099 3.483.099 3.483l-3.769-2.853 1.259-3.379c0-.271-.373-.149-.373-.149s.301-1.099-.222-1.589z" class="E"/><path d="M146.026 79.467s1.068.021 1-1.153c-.036-.616-.628-1.13-.628-1.13s.398-.614-.136-2.075c-.241-.659-.677-.106-.61.416.085.666-.401 1.339-.382 2.411.009.504-.383.887-.139.998.331.151.573-.946.573-.946s.03.898.322 1.479z" class="B"/><path d="M145.447 76.371l-1.443-4.329-3.059-5.764 1.388-1.632 3.412 5.842c.355.626.845 2.281.903 3.913v2.067l-1.201-.096z" class="H"/><path d="M145.363 76.869l.084-.498 1.202.099-.187.535-1.099-.136z" class="C"/><path d="M137.781 97.843l-.116-9.615-.237-11.626s-.53-4.832-3.048-.924 1.119 13.04 1.067 13.509c-.08.722.83 9.025.83 9.025l1.504-.369z" class="H"/><path d="M128.167 99.311l1.054.032.801.628s1.066.34 1.332.608-3.354-.373-3.354-.373l.167-.895z" class="D"/><path d="M129.653 99.036l1.997-9.405 3.755-9.852s.429-6.12-3.649-3.894c-.375.204-2.327 13.747-2.481 14.194-.236.687-1.17 8.987-1.17 8.987l1.548-.03z" class="K"/><path d="M129.277 99.043l-1.101.021-.012.363 1.057-.084.056-.299z" class="B"/><path d="M136.392 98.438l1.035-.2.919.437 1.453.638c.319.205-3.373.037-3.373.037l-.034-.912z" class="D"/><path d="M137.416 97.933l-1.07.262.067.357 1.014-.314-.011-.305zm7.194-37.681s.29 1.824-.474 2.877c-.347.479-1.339-.014-1.339-.014-.964 1.081-1.19 2.991-1.19 2.991s-.452-.372-1.483-.319c-.593.03-.567-1.43-.419-1.53 1.602-1.08 1.622-4.155 3.09-4.549s1.815.544 1.815.544z" class="B"/><path d="M143.939 60.292s.053.365.721.533 1.443-.541 1.209-1.467c-.064-.253-.501-1.028-1.617-.443 0 0-.243-.642-.791-.564-.783.111-.973.973-.973.973s-.695-.495-1.281.282a1.21 1.21 0 0 0-.196.456 1.22 1.22 0 0 0 .005.496.78.78 0 0 0-.373.031.79.79 0 0 0-.317.201c-.259.276-.103.924.274 1.052l-.049.4c-.021.443.241.534.241.534s.695.093.866-.087-.051-.976.18-1.166.447.138.522.298c.031.066.452-.054.598-.509.043-.135-.031-.4-.031-.4.09-.103.484.032.628-.033.454-.205.384-.586.384-.586z" class="E"/><path d="M132.898 74.484l-.005.278s.168 1.824.852 2.61c2.215 2.552 4.037.629 4.037.629s4.616-10.311 4.821-11.427c.347-1.886-1.462-2.713-2.226-2.905-.753-.189-1.511-.103-2.131.058a1.69 1.69 0 0 0-.947.645c-.232.319-.345.708-.321 1.102.137 2.182-.498 8.039-4.08 9.01z" class="C"/><path d="M140.375 63.672l-1.167 7.159 2.745-6.438a3.23 3.23 0 0 1 .616.554c.287.325.517.695.683 1.095.463 1.124-2.127 5.37-3.155 7.947l-1.969 5.073-2.225.65.688-2.15-2.124 1.441-3.381-3.196 3.312-5.162c1.134-2.073 2.43-5.725 2.781-6.254s1.62-1.437 3.196-.719z" class="H"/><path d="M141.201 63.967l.024.749-1.405 2.374-.61 3.742 1.616-3.146.62-2.877.348-.419-.593-.423z" fill="url(#q)"/><path d="M145.514 78.945s-.761.757-1.613-.324c-.446-.567-.41-1.429-.41-1.429s-2.911-2.096-3.643-3.752c-.33-.747 1.536-.937 1.307-.364s2.926 3.042 3.735 4.002c.381.45.96.516.869.783-.125.362-1.143-.436-1.143-.436s.664.806.898 1.521z" class="B"/><path d="M143.561 75.818l-2.98-5.505-.965-6.511s-.568-.129-1.488.348c-1.645.847-.511 6.014-.289 6.811s1.223 3.229 2.768 4.35l2.155 1.426.799-.919z" class="K"/><path d="M144.004 76.198l-.443-.379-.799.916.547.343.695-.88z" class="C"/><defs><linearGradient id="A" x1="274.464" y1="83.57" x2="26.79" y2="171.167" xlink:href="#x"><stop offset=".19" stop-color="#ffd234"/><stop offset=".99" stop-color="#ffb000"/></linearGradient><linearGradient id="B" x1="-324234" y1="692468" x2="-282110" y2="727844" xlink:href="#x"><stop offset=".19" stop-color="#ffd234"/><stop offset=".99" stop-color="#ffb000"/></linearGradient><linearGradient id="C" x1="-2559310" y1="364845" x2="-2557920" y2="385528" xlink:href="#x"><stop offset=".19" stop-color="#ffd234"/><stop offset=".99" stop-color="#ffb000"/></linearGradient><linearGradient id="D" x1="312254" y1="354856" x2="460631" y2="354856" xlink:href="#x"><stop offset=".19" stop-color="#ffd234"/><stop offset=".99" stop-color="#ffb000"/></linearGradient><linearGradient id="E" x1="128.154" y1="-31.938" x2="128.154" y2="194.671" xlink:href="#x"><stop offset=".32" stop-color="#004242"/><stop offset=".71" stop-color="#005c5e"/></linearGradient><linearGradient id="F" x1="322370" y1="133982" x2="430999" y2="133982" xlink:href="#x"><stop offset=".19" stop-color="#ffd234"/><stop offset=".99" stop-color="#ffb000"/></linearGradient><linearGradient id="G" x1="345983" y1="113786" x2="417092" y2="113786" xlink:href="#x"><stop offset=".19" stop-color="#ffd234"/><stop offset=".99" stop-color="#ffb000"/></linearGradient><linearGradient id="H" x1="622.216" y1="4.514" x2="535.63" y2="392.175" xlink:href="#x"><stop stop-color="#004e55"/><stop offset=".33" stop-color="#00565e"/><stop offset=".57" stop-color="#1f6869"/><stop offset=".7" stop-color="#528986"/></linearGradient><linearGradient id="I" x1="722500" y1="435650" x2="537249" y2="692262" xlink:href="#x"><stop stop-color="#004e55"/><stop offset=".33" stop-color="#00565e"/><stop offset=".57" stop-color="#1f6869"/><stop offset=".7" stop-color="#528986"/></linearGradient><linearGradient id="J" x1="661392" y1="278884" x2="420403" y2="612704" xlink:href="#x"><stop stop-color="#004e55"/><stop offset=".33" stop-color="#00565e"/><stop offset=".57" stop-color="#1f6869"/><stop offset=".7" stop-color="#528986"/></linearGradient><linearGradient id="K" x1="564011" y1="182464" x2="312360" y2="531058" xlink:href="#x"><stop stop-color="#004e55"/><stop offset=".33" stop-color="#00565e"/><stop offset=".57" stop-color="#1f6869"/><stop offset=".7" stop-color="#528986"/></linearGradient><linearGradient id="L" x1="371565" y1="89462" x2="402762" y2="89462" xlink:href="#x"><stop offset=".19" stop-color="#ffd234"/><stop offset=".99" stop-color="#ffb000"/></linearGradient><linearGradient id="M" x1="351812" y1="53906" x2="397031" y2="53906" xlink:href="#x"><stop offset=".19" stop-color="#ffd234"/><stop offset=".99" stop-color="#ffb000"/></linearGradient><linearGradient id="N" x1="-128.589" y1="-122.317" x2="282.192" y2="129.221" xlink:href="#x"><stop offset=".17" stop-color="#e0f3f4"/><stop offset=".79" stop-color="#4d98a0"/></linearGradient><linearGradient id="O" x1="40.639" y1="-65.36" x2="129.22" y2="126.02" xlink:href="#x"><stop offset=".06" stop-color="#fff"/></linearGradient><linearGradient id="P" x1="471645" y1="-232348" x2="508922" y2="-239763" xlink:href="#x"><stop offset=".19" stop-color="#ffd234"/><stop offset=".99" stop-color="#ffb000"/></linearGradient><linearGradient id="Q" x1="-634815" y1="-279571" x2="-672176" y2="-286992" xlink:href="#x"><stop offset=".19" stop-color="#ffd234"/><stop offset=".99" stop-color="#ffb000"/></linearGradient><linearGradient id="R" x1="-853608" y1="-205871" x2="-854536" y2="-218382" xlink:href="#x"><stop offset=".19" stop-color="#ffd234"/><stop offset=".99" stop-color="#ffb000"/></linearGradient><linearGradient id="S" x1="396078" y1="28914" x2="419325" y2="28914" xlink:href="#x"><stop offset=".19" stop-color="#ffd234"/><stop offset=".99" stop-color="#ffb000"/></linearGradient><linearGradient id="T" x1="336500" y1="29192" x2="356930" y2="29192" xlink:href="#x"><stop offset=".19" stop-color="#ffd234"/><stop offset=".99" stop-color="#ffb000"/></linearGradient><linearGradient id="U" x1="2463830" y1="502001" x2="2463010" y2="507077" xlink:href="#x"><stop offset=".19" stop-color="#ffd234"/><stop offset=".99" stop-color="#ffb000"/></linearGradient><linearGradient id="V" x1="237318" y1="654430" x2="276904" y2="654430" xlink:href="#x"><stop offset=".19" stop-color="#ffd234"/><stop offset=".99" stop-color="#ffb000"/></linearGradient><linearGradient id="W" x1="159163" y1="634332" x2="243510" y2="634332" xlink:href="#x"><stop offset=".19" stop-color="#ffd234"/><stop offset=".99" stop-color="#ffb000"/></linearGradient><linearGradient id="X" x1="190732" y1="654430" x2="237318" y2="654430" xlink:href="#x"><stop offset=".19" stop-color="#ffd234"/><stop offset=".99" stop-color="#ffb000"/></linearGradient><linearGradient id="Y" x1="564242" y1="339084" x2="581717" y2="339084" xlink:href="#x"><stop offset=".19" stop-color="#ffd234"/><stop offset=".99" stop-color="#ffb000"/></linearGradient><linearGradient id="Z" x1="577573" y1="327918" x2="597403" y2="327918" xlink:href="#x"><stop offset=".19" stop-color="#ffd234"/><stop offset=".99" stop-color="#ffb000"/></linearGradient><linearGradient id="a" x1="585726" y1="338036" x2="611048" y2="338036" xlink:href="#x"><stop offset=".19" stop-color="#ffd234"/><stop offset=".99" stop-color="#ffb000"/></linearGradient><linearGradient id="b" x1="-583115" y1="270310" x2="-585439" y2="270310" xlink:href="#x"><stop offset=".19" stop-color="#ffd234"/><stop offset=".99" stop-color="#ffb000"/></linearGradient><linearGradient id="c" x1="-589370" y1="270518" x2="-599701" y2="270518" xlink:href="#x"><stop offset=".19" stop-color="#ffd234"/><stop offset=".99" stop-color="#ffb000"/></linearGradient><linearGradient id="d" x1="-572915" y1="270310" x2="-575240" y2="270310" xlink:href="#x"><stop offset=".19" stop-color="#ffd234"/><stop offset=".99" stop-color="#ffb000"/></linearGradient><linearGradient id="e" x1="-576934" y1="270518" x2="-587266" y2="270518" xlink:href="#x"><stop offset=".19" stop-color="#ffd234"/><stop offset=".99" stop-color="#ffb000"/></linearGradient><linearGradient id="f" x1="-578297" y1="193474" x2="-603950" y2="193474" xlink:href="#x"><stop offset=".19" stop-color="#ffd234"/><stop offset=".99" stop-color="#ffb000"/></linearGradient><linearGradient id="g" x1="942593" y1="299582" x2="941772" y2="304658" xlink:href="#x"><stop offset=".19" stop-color="#ffd234"/><stop offset=".99" stop-color="#ffb000"/></linearGradient><linearGradient id="h" x1="-17792.5" y1="355700" x2="-3846.98" y2="363885" xlink:href="#x"><stop offset=".19" stop-color="#ffd234"/><stop offset=".99" stop-color="#ffb000"/></linearGradient><linearGradient id="i" x1="304185" y1="297702" x2="392664" y2="297702" xlink:href="#x"><stop offset=".19" stop-color="#ffd234"/><stop offset=".99" stop-color="#ffb000"/></linearGradient><linearGradient id="j" x1="300871" y1="284310" x2="315429" y2="284310" xlink:href="#x"><stop offset=".19" stop-color="#ffd234"/><stop offset=".99" stop-color="#ffb000"/></linearGradient><linearGradient id="k" x1="347681" y1="59351.3" x2="365928" y2="55347.1" xlink:href="#x"><stop offset=".19" stop-color="#ffd234"/><stop offset=".99" stop-color="#ffb000"/></linearGradient><linearGradient id="l" x1="-644474" y1="-12786.7" x2="-662767" y2="-16785.8" xlink:href="#x"><stop offset=".19" stop-color="#ffd234"/><stop offset=".99" stop-color="#ffb000"/></linearGradient><linearGradient id="m" x1="-1179910" y1="-73315.6" x2="-1180320" y2="-79424.7" xlink:href="#x"><stop offset=".19" stop-color="#ffd234"/><stop offset=".99" stop-color="#ffb000"/></linearGradient><linearGradient id="n" x1="311313" y1="262564" x2="322688" y2="262564" xlink:href="#x"><stop offset=".19" stop-color="#ffd234"/><stop offset=".99" stop-color="#ffb000"/></linearGradient><linearGradient id="o" x1="282161" y1="262714" x2="292157" y2="262714" xlink:href="#x"><stop offset=".19" stop-color="#ffd234"/><stop offset=".99" stop-color="#ffb000"/></linearGradient><linearGradient id="p" x1="872018" y1="479156" x2="919301" y2="479156" xlink:href="#x"><stop offset=".19" stop-color="#ffd234"/><stop offset=".99" stop-color="#ffb000"/></linearGradient><linearGradient id="q" x1="-378085" y1="248046" x2="-376571" y2="254573" xlink:href="#x"><stop offset=".19" stop-color="#ffd234"/><stop offset=".99" stop-color="#ffb000"/></linearGradient><path id="r" d="M37.669 53.527h-4.281v.348h4.281v-.348z"/><path id="s" d="M210.638 100.705h-3.626v.348h3.626v-.348z"/><path id="t" d="M82.042 19.476c-.597-.004-1.191-.079-1.77-.224l.058-.178c.01.003 1.043.278 2.089.204s1.59-.275 1.596-.277l.078.174c-.023.009-.575.214-1.658.29l-.393.012z"/><path id="u" d="M156.073 82.724s-1.324.773-1.596 1.82c-.124.476.715.854.715.854-.186 1.189-1.293 2.34-1.293 2.34s.477.095.985.786c.293.398 1.216-.388 1.201-.536-.15-1.599 1.813-3.232 1.292-4.383s-1.304-.882-1.304-.882z"/><path id="v" d="M156.401 83.179c-.18-.323-.423-.606-.715-.832-.46-.341.252-1.673.428-1.62s.431.986.741 1.459 1.156 1.218.858 2.363-1.411 2.009-1.411 2.009-.262-.443-.237-.649.653-.481.653-.731-.342-.102-.464-.179.616-.755.147-1.821z"/><path id="w" d="M62.931 82.925h2.313c.081 0 .158-.032.215-.089s.089-.135.089-.215-.032-.158-.089-.215-.134-.089-.215-.089h-2.311c-.081 0-.158.032-.215.089s-.089.135-.089.215.032.158.089.215.134.089.215.089h-.001z"/><linearGradient id="x" gradientUnits="userSpaceOnUse"/></defs></svg>