<svg xmlns="http://www.w3.org/2000/svg" width="246" height="185" fill="none" xmlns:v="https://vecta.io/nano"><style><![CDATA[.B{fill:#292949}.C{fill:#f4c7b3}.D{fill:#babcbe}.E{fill:#efbfa5}.F{fill:#353a85}.G{fill:#eed5d5}.H{fill:#3b3387}]]></style><g clip-path="url(#A)"><g opacity=".5" class="G"><path opacity=".5" d="M112.601 154.397c-7.2-.06-14.397.317-21.55 1.129-2.709.342-5.353 1.093-8.07 1.398-5.411.605-10.735 1.734-16.168 2.251-4.37.422-8.739.67-13.109 1.202-4.224.511-8.502.361-12.679-.445-3.008-.604-6.023-.954-8.98-1.93a32.63 32.63 0 0 0-10.371-1.828c-4.909.037-9.694.044-14.398 1.981-1.852.71-3.531 1.807-4.923 3.219-2.862 3.263-3.255 11.405-.386 14.792 4.821 5.695 15.119 7.931 21.849 8.011 7.407.109 14.609-.51 22.024-.881 6.897-.335 13.779-.823 20.683-.809 14.107.037 28.214 0 42.292-1.063 13.225-1.005 26.487-.663 39.75-.663 13.589 0 27.092.124 40.594 2.185 5.878.896 11.872 1.209 17.778 1.835 5.295.561 10.385 0 15.651-.531 4.499-.435 8.866-1.762 12.847-3.904 3.19-1.726 8.863-7.093 9.839-11.215 2.738-11.551-38.599-11.274-44.914-11.245-7.1 0-14.252.291-21.338 0a44.71 44.71 0 0 1-8.835-1.515c-2.913-.728-5.826-.539-8.739-.845-12.257-1.26-24.543-1.078-36.844-1.078l-12.002-.051z"/></g><g class="E"><path d="M71.387 158.257v10.029h3.605l1.726-11.281-5.331 1.252zm20.509-1.981l1.952 12.621 4.224-.182-.539-12.679-5.637.24z"/></g><g fill="#8cabef"><path d="M69.661 121.581v31.971 5.492l7.523-.321 4.231-22.096 5.025-20.465-16.78 5.419z"/><path d="M98.13 114.662l.939 42.364-8.463-.021-1.843-14.741-7.734-24.966 17.1-2.636z"/></g><path d="M76.434 66.515l-.189.073c-3.044 1.18-5.44 6.496-6.809 9.621-3.532 8.062-5.098 16.467-5.36 25.374-.153 4.799-.095 9.606.058 14.405.044 1.326 1.187 13.197.604 13.481 6.03-2.913 12.162-5.652 18.579-7.283s13.182-2.185 19.664-.728a318.19 318.19 0 0 0-8.951-44.972 39.23 39.23 0 0 0-1.558-5.251c-.838-1.901-2.105-2.462-3.7-3.583a10.51 10.51 0 0 0-1.719-1.056c-3.146-1.398-7.407-1.275-10.618-.08z" class="H"/><path d="M99.128 114.48c-8.011 1.231-21.39 2.185-29.416 3.394-.437-14.523.99-31.317 4.493-45.336.641-2.549 1.58-5.302 3.802-6.598 2.389-1.391 7.45-1.202 8.9 1.5 2.134 3.955 2.556 10.247 3.503 14.639 2.149 9.956 7.385 22.308 8.718 32.402z" fill="#eff5f1"/><path d="M86.324 55.627c-1.194-5.906-8.579-4.799-10.648 0-1.362 3.175.612 7.836 3.809 9.184a30.87 30.87 0 0 0-.481 2.447l2.716.153a.88.88 0 0 0 .779-.218.85.85 0 0 0 .116-.488c0-.568.051-1.143.073-1.719.072-.015.143-.037.211-.066.843-.337 1.593-.869 2.189-1.553s1.022-1.499 1.241-2.38a11.49 11.49 0 0 0-.007-5.36z" class="E"/><g class="F"><path d="M85.596 57.244c.932 1.777.357 3.933-.16 5.783-.459 1.631-.539 2.673 1.318 2.789 1.049.073 2.913.204 3.641-.728.575-.728-.095-2.44-.539-3.11-.342-.503-1.049-.677-1.369-1.194a1.87 1.87 0 0 1-.233-.728 10.12 10.12 0 0 1-.08-3.073 10.55 10.55 0 0 0 .197-2.076c-.08-1.012-.976-2.061-1.493-2.913-.969-1.588-3.736-3.481-5.528-1.814a3.05 3.05 0 0 0-.728 1.457c-.098.318-.135.651-.109.983.204 1.311 1.457 1.34 2.36 1.821 1.167.643 2.115 1.619 2.724 2.804z"/><path d="M76.172 59.101c.08.94.728 1.886.349 2.746-.212.362-.48.689-.794.969a3.32 3.32 0 0 0-.655 3.212l-5.593.728a1.63 1.63 0 0 1-.838 0c-.561-.226-.728-.94-.772-1.537-.124-1.187-.233-2.462.342-3.503.269-.481.677-.881.939-1.362 1.289-2.331-.889-5.688.801-7.734.728-.918 2.032-1.18 3.037-1.806 1.763-1.093 2.68-3.248 4.508-4.224 3.445-1.835 7.713 2.039 6.081 5.644-1.333 2.87-7.713 3.095-7.407 6.868z"/></g><path d="M76.66 66.944s-2.549 36.051 3.044 43.159 8.011 9.788 8.011 9.788l-22.912 9.533S59.006 79.74 76.66 66.944z" class="H"/><g class="F"><path d="M71.387 167.346l-3.758 3.758 1.879 1.886 5.644-3.452v-2.461l-3.765.269zm22.126-.626l4.501.583 4.079 3.59-2.622 1.056-5.885-1.784-.073-3.445z"/></g><path d="M213.433 167.354l.065.64.204 2.134 4.319 1.857 1.857-2.279-2.265-1.996-.211-.087-.022.269-3.947-.538z" class="B"/><path d="M213.214 167.324h.219l-.139-1.456 4.108 1.762 3.423-36.035.422-1.705-10.924.131 2.891 37.303z" class="D"/><path d="M213.433 167.354l3.947.538.022-.269-4.108-1.762.139 1.493z" fill="#909497"/><path d="M195.932 130l.801 9.424 7.975 24.456 3.896-.517.065.473-2.869-25.199 2.454-8.608c-4.501.029-8.921.029-12.322-.029z" class="D"/><path d="M204.708 163.88l-.248.036-1.777 2.447 2.36 1.894 3.852-2.724-.226-1.69-3.809.503-.152-.466z" class="B"/><path d="M204.708 163.88l.152.466 3.809-.503-.065-.481-3.896.518z" fill="#3e3d3b"/><path d="M222.966 75.159c.502 2.36 2.374 4.093 4.195 5.732-1.209-3.106-2.573-6.149-4.086-9.118a8.06 8.06 0 0 0-.109 3.386z" fill="#e0e0e1"/><path d="M230.067 91.277a6.46 6.46 0 0 1-1.603 1.202 10.38 10.38 0 0 1-4.923 1.049c-1.353-.102-2.713-.058-4.057.131-.671.105-1.302.391-1.825.825s-.919 1.002-1.146 1.644c-.189.728-.131 1.639-.728 2.046a1.85 1.85 0 0 1-1.013.218c-1.077.036-2.294 0-3.015-.794-1.121-1.231-.466-3.7-1.973-4.37-.473-.146-.963-.232-1.457-.255-2.039-.342-3.037-2.651-2.84-4.77a5.35 5.35 0 0 1 .277-1.275c.844-2.352 2.796-4.093 4.275-6.11 2.913-3.933 4.843-9.184 3.066-13.838-.183-.435-.341-.88-.474-1.333a2.94 2.94 0 0 1-.109-.728c0-1.384 1.005-2.527 1.675-3.743.058-.117.117-.233.175-.364.14-.327.252-.666.335-1.012l-.284.138a4.64 4.64 0 0 1-2.287 1.085l-8.011 3.816-3.205 13.066-2.184 8.965v.131l-8.274 42.809c.983.124 2.957.204 5.521.248l12.344.036h2.025l10.924-.131 8.477-.138s2.957-22.198.314-38.548z" fill="#474ebb"/><path d="M212.129 60.965a4.64 4.64 0 0 0 2.287-1.085l-2.287 1.085z" fill="#e1cfb5"/><path d="M212.508 49.276a4.13 4.13 0 0 0-2.913-.896c-.51 0-.685.124-.947.08-.165-.038-.321-.107-.459-.204-.435-.364-.754-.848-.918-1.391a4.57 4.57 0 0 0-1.944 3.547 13.25 13.25 0 0 0 .437 5.826 7.2 7.2 0 0 0 1.46 2.617c.665.76 1.483 1.372 2.4 1.796l.313.109c.702.239 1.451.306 2.185.197l2.287-1.085.327-.306c.758-3.241-.058-8.375-2.228-10.291z" class="C"/><path d="M227.911 81.568l-.728-.677.495 1.296.488 1.333.306.881-.306-.881-.488-1.333-.495-1.296c-1.821-1.639-3.693-3.372-4.195-5.732a8.06 8.06 0 0 1 .109-3.387c.386-1.813 1.121-3.641 1.311-5.484a35.68 35.68 0 0 0-.728-10.837 22.84 22.84 0 0 0-4.807-8.936c-2.622-3.175-7.502-6.722-10.925-2.571l-.116.146c-.377-.19-.772-.341-1.18-.452-2.389 2.017-3 5.251-2.753 8.23s1.755 6.365.911 9.322a3.22 3.22 0 0 0-.19.867.74.74 0 0 0 .095.431.73.73 0 0 0 .328.297 1.09 1.09 0 0 0 .531 0c1.457-.189 3.052-.444 4.042-1.537a2.34 2.34 0 0 0 .35-.488l-.313-.109c-.917-.424-1.735-1.036-2.4-1.796s-1.162-1.652-1.46-2.617a13.25 13.25 0 0 1-.437-5.826 4.57 4.57 0 0 1 1.944-3.547c.164.543.483 1.027.918 1.391.138.097.294.166.459.204.262.044.437-.087.947-.08a4.13 4.13 0 0 1 2.913.896c2.185 1.915 2.986 7.05 2.236 10.298a8.08 8.08 0 0 0 2.047-4.111c.27-1.54.088-3.125-.525-4.563a9.93 9.93 0 0 0-.248-.473 9.93 9.93 0 0 1 .248.473c.613 1.438.795 3.023.525 4.563a8.08 8.08 0 0 1-2.047 4.111l-.044.168a6.32 6.32 0 0 1-.335 1.012c-.058.131-.117.248-.175.364-.67 1.216-1.704 2.36-1.675 3.743.005.246.042.491.109.728.133.453.291.898.474 1.333 1.777 4.647-.175 9.898-3.066 13.838-1.457 2.017-3.431 3.758-4.276 6.11-.143.412-.236.84-.276 1.275-.197 2.119.801 4.428 2.84 4.77.494.023.984.109 1.457.255 1.507.728.852 3.175 1.973 4.37.729.801 1.938.83 3.015.794a1.85 1.85 0 0 0 1.013-.218c.626-.408.568-1.318.728-2.046.227-.641.623-1.209 1.146-1.644s1.154-.72 1.825-.825c1.344-.19 2.704-.233 4.057-.131a10.38 10.38 0 0 0 4.923-1.049 6.44 6.44 0 0 0 1.602-1.202l-.182-1.041c.066.342.124.692.182 1.041.726-.734 1.218-1.667 1.413-2.68.437-2.651-1.558-5.127-3.59-6.97zm-15.447-34.572a7.38 7.38 0 0 1 .823.481 7.38 7.38 0 0 0-.823-.481z" class="B"/><path d="M182.233 55.008l-1.137-2.068.605-1.981-.357-.342-.437.415.029-1.792-.91-1.136-1.937.102-1.508 1.318.306 1.908 1.457 1.784 1.434 2.891 2.455-1.1z" class="C"/><path d="M182.014 53.362l-3.445.874 7.451 17.952 16.794 2.964 2.374-9.788-14.981-1.792-8.193-10.211z" fill="#474ebb"/><path d="M48.206 116.439l-1.449 19.787-4.792 32.766h-3.678l-2.331-30.231-1.027-24.463 13.277 2.141z" class="F"/><path d="M38.308 168.555v1.996l3.976 1.988 1.995-1.988-1.995-1.996h-3.976z" class="B"/><path d="M22.118 111.771l1.398 27.74 3.204 31.848h3.773l3.066-30.173 4.479-31.761-15.92 2.346z" class="F"/><path d="M30.472 170.915v2.039l-4.078 2.039-2.039-2.039 2.039-2.039h4.078z" class="B"/><path d="M34.973 67.323l-3.86-.379c-.016-1.031.052-2.061.204-3.081-1.071-.408-2.309-.969-2.527-2.09a3.31 3.31 0 0 1 .058-1.071l.728-4.37a4.05 4.05 0 0 1 .452-1.457 3.28 3.28 0 0 1 2.301-1.245 8.01 8.01 0 0 1 6.474 1.566 3.48 3.48 0 0 1 1.093 1.457 4.77 4.77 0 0 1-.153 2.775l-.663 2.52c-.248.961-.612 2.061-1.544 2.425-.495.197-1.078.138-1.522.422-.743.481-.634 1.653-1.042 2.527z" class="C"/><path d="M44.011 52.379a10.49 10.49 0 0 0-.08-3.343c-.138-.685-1.012-2.833-.728-3.445-.495 1.056-1.835 1.347-2.993 1.457-4.37.43-9.191-.641-13.182 1.588-.722.428-1.329 1.026-1.77 1.741a7.77 7.77 0 0 0 0 8.215 11.54 11.54 0 0 0 1.209 1.522c.91.983 2.003 2.185 3.255 2.571 0-1.121-.998-4.654-.138-5.579 1.209-1.289 3.401-1.034 4.974-.816a22.98 22.98 0 0 0 6.001 0 7.41 7.41 0 0 0 1.923-.408c1.457-.612 1.406-1.959 1.537-3.343l-.007-.16z" class="B"/><path d="M7.786 94.226l-.277 2.425 1.369 1.66-.204.466-.59-.226.743 1.704-.422 1.45-1.894.662-1.966-.655-.466-1.952.685-2.287.24-3.336 2.782.087z" class="C"/><path d="M8.222 95.887l-3.649.517.036-20.137 21.222-9.453-.095 10.961-12.636 4.69-4.88 13.422z" fill="#5d66d3"/><path d="M51.905 41.979l.124-2.44-1.464-1.573.175-.481.605.189-.845-1.653.328-1.471 1.85-.779 2.003.532.583 1.923-.546 2.316-.022 3.35-2.789.087z" class="C"/><g fill="#5d66d3"><path d="M51.366 40.347l3.612-.743.284 13.888-1.42 10.735-9.227 13.546-7.56-10.932 8.776-6.453 5.535-20.042z"/><path d="M38.031 66.296l-12.199.517-6.154 23.429-5.083 32.482 39.248.954-9.227-45.904-6.584-11.478z"/></g><g class="B"><path d="M169.939 166.137l.299 2.331-4.37 2.935-2.629-2.032 2.032-2.636 4.362-2.936.306 2.338z"/><path d="M170.085 165.351l-3.372-29.744 4.056-33.297-.91-7.086-18.091-.685-.655 11.529 3.037 29.583 11.427 31.222 4.508-1.522z"/></g><path d="M150.071 61.628l-9.103 2.476-10.524 18.644 4.989 4.617 7.013-8.31 7.625-17.428z" class="D"/><g class="B"><path d="M138.491 97.868l-.043 30.021 6.037 38.643 4.348-.044 2.396-35.737 5.593-35.766-18.331 2.884z"/><path d="M148.826 168.322l-4.676 2.396-2.374-2.33 2.331-2.375 4.697-.043.022 2.352z"/></g><path d="M172.641 108.107l-.124-2.775c-.094-3.488-.408-6.977-.845-10.436-.393-3.11-.881-10.815-1.412-13.903-.445-2.542-1.974-8.907-3.074-11.267-2.745-5.877-1.901-6.416-13.968-8.164-5.288-.728-6.555 2.534-10.859 6.321-.423.371-.401 2.6-.503 3.19-.174 1.034-.357 2.068-.575 3.102a49.31 49.31 0 0 1-.561 2.425s-3.641 16.518-6.03 20.028-7.356 8.412.939 11.405a30.8 30.8 0 0 0 4.479 1.173s6.781-.728 10.269-.728c3.219.037 6.429.334 9.599.888 2.136.294 4.213.92 6.154 1.857 1.806.94 3.11 2.324 4.938 3.299a.92.92 0 0 0 .561.161c1.049-.175 1.1-3.868 1.012-6.577z" class="D"/><path d="M146.969 88.094l4.311 1.078.539-1.821-2.789-1.391.655-.75-3.801-.466-.816 1.821 1.901 1.529z" fill="#d6c7ac"/><path d="M145.942 88.341l1.121-4.53-10.698-3.947-5.921 2.884 1.828 5.557 13.67.036z" fill="#454446"/><path d="M153.21 63.201c1.162.378 2.423.313 3.54-.182.148-.055.276-.155.366-.285a.77.77 0 0 0 .136-.443c-.014-.909-.087-1.817-.218-2.717 1.121-.401 2.425-.99 2.622-2.185a3.64 3.64 0 0 0-.066-1.121l-.794-4.588a4.09 4.09 0 0 0-.48-1.522 3.4 3.4 0 0 0-2.411-1.304c-1.182-.229-2.4-.201-3.57.083a8.37 8.37 0 0 0-3.21 1.563 3.73 3.73 0 0 0-1.151 1.529c-.233.966-.174 1.98.168 2.913l.728 2.644c.269 1.012.655 2.185 1.631 2.542.517.204 1.129.146 1.595.444.794.517.677 1.748 1.114 2.629z" class="C"/><path d="M139.54 47.951c-.217-.383-.46-.75-.728-1.1-.666-.683-1.282-1.413-1.843-2.185a2.5 2.5 0 0 1-.44-1.351c-.013-.484.115-.96.368-1.373.421-.461.976-.779 1.587-.91 1.978-.581 4.076-.621 6.074-.116 1.894.481 3.583 1.282 5.492.568 1.791-.67 3.08-.393 4.952.27 2.025.728 4.741.896 6.554 1.915.748.447 1.377 1.066 1.836 1.806.803 1.292 1.229 2.783 1.229 4.304s-.426 3.012-1.229 4.304a11.74 11.74 0 0 1-1.246 1.588c-.954 1.041-2.097 2.316-3.415 2.702 0-1.172 1.041-4.879.138-5.826-1.456-1.529-4.668-.998-6.445-.619-1.938.408-3.642 1.777-5.586 2.076-1.384.211-3.146-.466-4.319-1.187-1.457-.903-2.127-3.474-2.979-4.865z" class="B"/><path d="M163.239 63.798l7.53 6.598 8.478 17.945-12.512.073-3.496-24.616z" class="D"/><path d="M147.318 65.473c-9.606-.299-21.39 5.404-23.851 13.714-3.277-8.011-18.207-12.315-27.733-11.063-25.14 3.314-32.278 31.892-20.632 50.289 6.271 9.897 14.988 18.396 24.42 25.941 7.894 6.322 28.112 19.555 28.17 19.504s18.855-15.134 26.087-22.206c8.631-8.448 16.46-17.77 21.718-28.25 9.752-19.46-2.833-47.128-28.178-47.929z" fill="#d67086"/><path d="M225.107 70.542c-5.404-.168-12.024 3.037-13.408 7.705-1.842-4.508-10.196-6.926-15.585-6.22-14.129 1.865-18.142 17.923-11.594 28.265 3.524 5.564 8.426 10.334 13.721 14.565 4.442 3.554 15.796 10.99 15.833 10.961s10.625-8.492 14.66-12.468c4.85-4.749 9.257-9.985 12.206-15.87 5.484-10.939-1.595-26.517-15.833-26.939z" class="G"/><g fill="#d67086"><path d="M39.022 73.339c-4.086-1.1-9.701.16-11.587 3.474-.604-3.765-6.555-7.101-10.764-7.523C5.572 68.19-.342 79.704 2.789 88.749c1.69 4.872 4.566 9.38 7.851 13.561 2.746 3.496 10.072 11.194 10.101 11.179s9.592-4.588 13.393-6.889c4.545-2.753 8.834-5.958 12.133-9.912 6.132-7.356 3.525-20.465-7.246-23.349zm150.333-57.892c-3.707.168-8.076 2.717-8.783 5.994-1.5-3.001-7.378-4.209-11.012-3.437-9.591 2.025-11.492 13.248-6.46 19.992a42.13 42.13 0 0 0 10.196 9.271c3.227 2.185 11.413 6.7 11.435 6.678s6.816-6.394 9.387-9.337a41.95 41.95 0 0 0 7.523-11.514c3.183-7.807-2.49-18.098-12.286-17.646z"/></g><path d="M83.266 4.253c-4.515-1.158-10.691.299-12.731 3.969C69.807 4.086 63.252.481 58.584.066 46.341-1.012 39.947 11.718 43.516 21.681c1.923 5.346 5.156 10.283 8.819 14.85 3.066 3.845 11.237 12.213 11.267 12.199s10.524-5.171 14.69-7.756c4.974-3.088 9.657-6.671 13.247-11.077 6.671-8.179 3.634-22.591-8.273-25.643z" class="G"/><path d="M75.524 66.944l-6.955 3.86-12.694 21.79 1.566 4.224 19.278 8.783 2.6-3.926L65.284 91.48l9.868-13.779.371-10.757z" class="H"/><path d="M78.903 102.303l3.925 1.726.626 4.544-2.352.627-3.576-4.822 1.376-2.075z" class="E"/><g class="C"><path d="M225.107 70.542l3.132-2.039 3.306 1.726-.371 2.971h-4.013l-2.054-2.658zm-51.745 18.324l3.139-2.039 3.299 1.726-.371 2.972h-4.013l-2.054-2.658zm-38.141-22.424l3.139-2.039 3.307 1.726-.379 2.971h-4.006l-2.061-2.658z"/></g><path d="M91.466 68.787l3.139-2.032 3.299 1.726-.371 2.971H93.52l-2.054-2.665z" class="E"/></g><defs><clipPath id="A"><path fill="#fff" d="M0 0h245.433v185H0z"/></clipPath></defs></svg>