<svg xmlns="http://www.w3.org/2000/svg" width="250" height="185" fill="none" xmlns:v="https://vecta.io/nano"><style><![CDATA[.B{stroke-linejoin:round}.C{fill:#2e2854}.D{stroke-width:1.15}.E{stroke:#2e2854}.F{stroke-linecap:round}.G{opacity:.15}.H{fill:#fff}.I{fill:#76c9bf}.J{fill:#ff98aa}.K{fill:#ff8095}.L{fill:#5767bf}.M{fill:#f8c463}.N{fill:#7383d9}]]></style><g clip-path="url(#A)"><path d="M149.847 58.193c-17.859-.159-34.925-6.167-51.426-12.995s-34.466-13.216-51.875-9.242c-15.312 3.524-28.193 15.057-34.783 29.312s-7.207 30.88-3.242 46.078c6.264 24.053 23.638 44.457 45.153 56.915s46.871 17.366 71.725 16.74c26.748-.722 53.946-8.097 74.888-24.731s34.783-43.32 32.096-69.936c-1.04-10.387-5.198-21.365-14.281-26.502-6.291-3.524-13.877-3.727-21.101-3.815-16.634-.247-33.215-1.709-47.153-1.824z" fill="#ceddf0"/><path d="M80.65 179.071c3.356-2.514 6.05-5.807 7.85-9.595-13.55-7.682-22.907-20.977-30.836-34.404s-14.978-27.603-25.77-38.836c-2.326-2.423-5.022-4.793-8.343-5.286-4.802-.714-9.392 2.855-11.577 7.198-3.339 6.652-2.317 14.652-.229 21.806 4.516 15.299 13.395 28.948 25.55 39.277 12.053 10.237 27.18 16.836 43.356 19.841z" class="I"/><path d="M21.718 106.984c14.359 29.454 38.763 52.812 68.818 65.867" class="B D E F"/><g style="mix-blend-mode:multiply" class="G C"><path d="M57.664 135.072c-6.52-11.075-12.475-22.652-20.422-32.678.352 9.859 3.841 44.387 34.898 68.192l-1.181 6.212c3.163.881 6.388 1.665 9.691 2.273 3.356-2.514 6.05-5.807 7.85-9.595-13.568-7.682-22.925-20.977-30.836-34.404z"/></g><path d="M124.904 124.878a77.79 77.79 0 0 1 .732-43.99c4.467-14.176 13.162-27.013 25.849-37.964 12.599 28.035 11.295 61.937-3.418 88.923l.273.52-23.436-7.489z" class="M"/><path d="M148.974 58.193c-2.004 25.833-7.783 51.234-17.153 75.391" class="B D E F"/><g style="mix-blend-mode:multiply" class="G C"><path d="M148.975 86.844c-6.379-8.643-15.507-11.304-21.145-12.106-.834 2.015-1.58 4.07-2.238 6.167-4.472 14.287-4.726 29.562-.731 43.99l23.435 7.489-.273-.52c4.813-8.862 8.239-18.408 10.158-28.308a87.24 87.24 0 0 0-9.206-16.713z"/></g><path d="M138.393 142.534c9.894-1.683 18.81-6.881 27.074-12.563s16.194-11.983 25.224-16.344c5.181-2.502 11.049-4.361 16.652-3.03a18.14 18.14 0 0 1 10.572 7.665c6.344 9.321 4.15 22.457-2.467 31.558s-16.739 14.899-26.915 19.691c-15.198 7.163-31.365 12.731-48.114 13.991l-2.026-40.968z" class="I"/><path d="M137.512 166.313a138.52 138.52 0 0 0 68.14-40.686" class="B D E F"/><g style="mix-blend-mode:multiply" class="G C"><path d="M195.634 142.305c6.59-10.951 7.048-27.013 6.995-32.131a31.4 31.4 0 0 0-11.938 3.453c-9.03 4.405-16.96 10.661-25.224 16.343s-17.18 10.881-27.074 12.564l2.044 40.968c3.885-.296 7.75-.81 11.577-1.542-.159-14.484-2.256-33.479-2.256-33.479 18.784 14.555 37.955 7.004 45.876-6.176z"/></g><path d="M130.746 122.402c14.828-9.347 22.907-26.669 37.003-37.109 4.679-3.463 10.203-6.167 16.026-6.167s11.877 3.313 13.815 8.81c2.009 5.727-.74 12-4.044 17.092-12.264 18.943-32.325 31.497-53.038 40.458-3.78-7.639-7.516-15.286-9.762-23.084z" class="I"/><path d="M136.534 132.825c17.842-8.11 33.489-20.365 45.638-35.744" class="B D E F"/><g style="mix-blend-mode:multiply" class="G C"><path d="M190.189 109.768l-7.533.608c-5.286 14.396-17.532 10.573-20.263 3.674-1.692-4.326-4.044-10.572-7.146-16.739-7.7 8.951-14.598 18.792-24.537 25.057 2.247 7.797 5.983 15.445 9.692 23.092 19.004-8.158 37.4-19.356 49.787-35.691z"/></g><path d="M82.527 176.533a102.93 102.93 0 0 1-34.076-41.2c-7.531-16.496-10.571-34.688-8.812-52.736 17.969 4.61 33.693 15.502 44.325 30.704a77.63 77.63 0 0 1 13.216 52.255l-14.652 10.977z" class="M"/><path d="M48.871 95.522c10.905 28.295 26.5 54.551 46.131 77.663" class="B D E F"/><g style="mix-blend-mode:multiply" class="G C"><path d="M48.492 135.424a103.26 103.26 0 0 0 9.956 17.11c4.368 2.587 9.231 4.229 14.273 4.819l-.881 10.414a103.85 103.85 0 0 0 7.718 6.546l3.639 1.762 14.035-10.493c1.977-18.437-2.711-36.974-13.215-52.254-5.54-7.943-12.529-14.77-20.599-20.123-8.017 7.612-15.066 18.396-18.361 33.629.999 2.907 2.144 5.771 3.436 8.59z"/></g><path d="M78.333 123.653a118.27 118.27 0 0 1-14.317-45.54c-.758-7.542-.661-15.647 3.427-22.026 1.943-3.14 4.894-5.529 8.37-6.775 1.736-.597 3.587-.784 5.408-.545s3.561.895 5.085 1.919c2.951 2.114 4.573 5.612 5.744 9.048 2.793 8.167 3.815 16.819 5.938 25.189s5.577 16.74 12.995 23.418l-32.651 15.312z" class="I"/><path d="M78.633 67.003a95.76 95.76 0 0 0 18.378 55.584" class="B D E F"/><g style="mix-blend-mode:multiply" class="G C"><path d="M97.989 84.923l-1.947-8.881a71.62 71.62 0 0 0-30.026 14.749 118.22 118.22 0 0 0 12.335 32.854l32.651-15.313c-7.445-6.634-10.89-15.048-13.013-23.409z"/></g><path d="M117.09 66.668l-9.595.264-.141 9.551 5.154 4.009 5.146-4.872-.564-8.951z" class="J"/><path d="M117.301 70.007l-.211-3.339-9.595.264v2.872c1.78 1.013 5.753 1.489 9.806.203z" class="K"/><path d="M132.164 50.686a39.66 39.66 0 0 0 2.731-9.233c.521-3.223-.169-6.525-1.938-9.269-1.868-2.643-5.33-4.255-8.44-3.374-2.538-7.489-9.489-12.088-16.493-11.753a17.09 17.09 0 0 0-15.286 12.335 2.9 2.9 0 0 0-2.22-1.709 1.25 1.25 0 0 0-1.172.273c-.104.173-.168.367-.188.569s.005.404.073.594a10.43 10.43 0 0 0 1.313 3.269c-2.467-.458-4.652 1.013-5.876 3.022a10.07 10.07 0 0 0-1.189 6.802c.507 2.581 1.555 5.025 3.075 7.172 6.81 4.008 14.508 6.264 22.405 6.564a46.87 46.87 0 0 0 23.206-5.26z" class="C"/><g class="J"><path d="M130.191 46.677a4.58 4.58 0 0 1 2.807-.63c.979.097 1.9.506 2.629 1.167a6.07 6.07 0 0 1 1.542 2.461c.306.933.382 1.927.22 2.896a9.08 9.08 0 0 1-2.784 5.057 8.13 8.13 0 0 1-3.815 2.203 4.96 4.96 0 0 1-2.211.042 4.95 4.95 0 0 1-2.009-.923l3.621-12.273z"/><path d="M91.108 47.981a2.09 2.09 0 0 0 1.647 1.286c.438-.023.857-.187 1.194-.468s.573-.664.674-1.091c.178-.874.16-1.777-.053-2.643a2.14 2.14 0 0 0 2.775-.969 7.42 7.42 0 0 0 .678-3.278 4.07 4.07 0 0 0 3.225-.15 2.75 2.75 0 0 0 1.762-2.291 12.47 12.47 0 0 0 5.127 5.198c1.241.559 2.581.869 3.941.909a10.35 10.35 0 0 0 3.989-.672c1.859.934 3.929 1.903 5.955 1.392 2.177-.546 3.604-2.643 4.318-4.405a6.62 6.62 0 0 0 4.308 3.128c.492 5.817-.772 11.649-3.63 16.74-1.354 2.572-3.317 4.774-5.718 6.414-2.141 1.294-4.555 2.069-7.048 2.264-2.962.283-5.95-.064-8.768-1.019a21.08 21.08 0 0 1-7.581-4.52c-2.18-2.025-3.906-4.488-5.065-7.228s-1.725-5.694-1.661-8.669l-.07.071z"/></g><g class="K"><path d="M102.597 65.241a4.41 4.41 0 0 0 1.414-2.825c.106-1.084-.194-2.169-.841-3.045a4.41 4.41 0 0 0-2.664-1.699 4.4 4.4 0 0 0-3.116.521 4.47 4.47 0 0 0-1.236 1.443c-.304.564-.483 1.187-.526 1.826a20.31 20.31 0 0 0 5.048 4.661c.706-.123 1.367-.426 1.921-.881zm24.334-4.458a3.33 3.33 0 0 0-.159-.581 4.1 4.1 0 0 0-3.367-2.655 4.09 4.09 0 0 0-2.2.352 4.1 4.1 0 0 0-1.691 1.451c-.419.63-.654 1.365-.681 2.121s.156 1.505.529 2.164a4.1 4.1 0 0 0 3.754 2.073c1.521-1.432 2.808-3.094 3.815-4.925z"/></g><g class="B D E F"><path d="M100.385 49.312a4.67 4.67 0 0 1 7.339.08m12.573-.098c.376-.437.84-.788 1.363-1.031a4.05 4.05 0 0 1 3.341-.034 4.06 4.06 0 0 1 1.384 1.003m-12.071-.361a6.81 6.81 0 0 0 3.34 1.982 5.43 5.43 0 0 1-2.141 1.277h.079m-8.943 4.168c2.898 1.102 6.081 1.198 9.04.273"/></g><path d="M91.108 47.981a6.97 6.97 0 0 0-8.361.767 7.64 7.64 0 0 0-1.709 8.326 8.43 8.43 0 0 0 7.048 4.978 9.46 9.46 0 0 0 7.929-3.524l-4.907-10.546z" class="J"/><g class="B D E F"><path d="M85.425 55.25a4.56 4.56 0 0 1 2.273-2.104c.98-.415 2.074-.475 3.093-.169m-2.652.009a7.68 7.68 0 0 0 1.973 4.405"/></g><path d="M186.207 81.293c.007-2.412-.632-4.782-1.85-6.863-.171-.31-.409-.578-.696-.784a.97.97 0 0 0-.996-.062c-.449.273-.467.881-.414 1.418.308 3.348 1.26 6.74.449 10l3.199 10.361 8.66-.634a20.4 20.4 0 0 0 .185-7.736 26.54 26.54 0 0 0 1.956-6.167c.076-.374.058-.762-.053-1.128a.88.88 0 0 0-.881-.573c-.396.07-.625.476-.802.881-.881 1.859-1.594 3.145-2.475 5.004.15-2.643.22-4.863.22-7.674a3.53 3.53 0 0 0-.176-1.286c-.071-.207-.195-.391-.361-.534s-.367-.238-.582-.277c-.227-.003-.45.056-.647.169a1.27 1.27 0 0 0-.472.475 3.64 3.64 0 0 0-.396 1.286l-.529 2.978c-.106-1.251-.291-2.502-.546-3.938-.059-.543-.243-1.065-.538-1.524a1.24 1.24 0 0 0-.642-.467c-.259-.081-.538-.075-.794.017-.599.291-.687 1.084-.696 1.762l-.123 5.295z" class="J"/><path d="M183.079 86.218s4.802-2.123 11.665.775a26.54 26.54 0 0 0 1.956-6.167c.076-.374.058-.762-.053-1.128a.88.88 0 0 0-.881-.573c-.396.07-.625.476-.802.881l-2.475 5.004.22-7.674a3.53 3.53 0 0 0-.176-1.286c-.071-.207-.195-.391-.361-.534s-.367-.238-.582-.277a1.27 1.27 0 0 0-1.119.643 3.64 3.64 0 0 0-.396 1.286l-.529 2.978c-.106-1.251-.291-2.502-.546-3.938-.059-.543-.243-1.065-.538-1.524a1.24 1.24 0 0 0-.642-.467c-.259-.081-.538-.075-.794.017-.599.291-.687 1.084-.696 1.762l-.123 5.365c.007-2.412-.632-4.782-1.85-6.863-.171-.31-.409-.578-.696-.784a.97.97 0 0 0-.996-.062c-.449.273-.467.881-.414 1.418.308 3.348 1.26 6.74.449 10l.379 1.145z" class="K"/><g class="B D E F"><path d="M189.546 80.086c.111 1.36.131 2.725.062 4.088m-3.401-2.881l.053 2.722"/><path d="M194.559 94.729a20.4 20.4 0 0 0 .185-7.736 26.54 26.54 0 0 0 1.956-6.167c.076-.374.058-.762-.053-1.128a.88.88 0 0 0-.881-.573c-.396.07-.625.476-.802.881l-2.475 5.004.22-7.674a3.53 3.53 0 0 0-.176-1.286c-.071-.207-.195-.391-.361-.534s-.367-.238-.582-.277a1.27 1.27 0 0 0-1.119.643 3.64 3.64 0 0 0-.396 1.286l-.529 2.978c-.106-1.251-.291-2.502-.546-3.938-.059-.543-.243-1.065-.538-1.524a1.24 1.24 0 0 0-.642-.467c-.259-.081-.538-.075-.794.017-.599.291-.687 1.084-.696 1.762l-.123 5.365c.007-2.412-.632-4.782-1.85-6.863-.171-.31-.409-.578-.696-.784a.97.97 0 0 0-.996-.062c-.449.273-.467.881-.414 1.418.308 3.348 1.26 6.74.449 10"/></g><path d="M181.969 95.963a17.88 17.88 0 0 0-1.459-7.248 17.87 17.87 0 0 0-4.268-6.038c-.493-.441-1.057-1.084-.757-1.674s1.039-.529 1.63-.396c2.45.534 4.625 1.936 6.123 3.947a14.52 14.52 0 0 1 10.026.731l-7.365 10.079-3.93.599z" class="J"/><path d="M183.238 84.553c-1.498-2.011-3.673-3.413-6.123-3.947-.591-.132-1.348-.141-1.63.397v.097c1.832.731 5.533 2.432 7.621 5.119 0 0 3.815-1.683 9.506 0l.679-.934a14.52 14.52 0 0 0-10.053-.731z" class="K"/><path d="M181 89.989a17.89 17.89 0 0 0-4.758-7.313c-.493-.441-1.057-1.084-.757-1.674s1.039-.529 1.63-.396c2.45.534 4.625 1.936 6.123 3.947a14.52 14.52 0 0 1 10.026.731" class="B D E F"/><path d="M197 99.17l-.679-5.286c-5.161-.149-10.322.291-15.383 1.313a94.47 94.47 0 0 1 .335 3.612L197 99.17z" class="H"/><path d="M141.856 137.318c5.956 6.247 13.171 11.604 21.506 13.859s17.902 1.022 24.475-4.59c4.846-4.141 7.656-10.203 9.471-16.317 3.13-10.557 3.734-21.703 1.762-32.537-6.167.22-11.982.643-17.788 1.084.352 4.61.352 9.24 0 13.85-.247 3.101-.749 6.405-2.837 8.722-2.934 3.26-8.29 3.419-12.123 1.287s-6.379-6.018-8.158-10.035-2.952-8.282-4.916-12.212a37.89 37.89 0 0 0-16.987-16.537s-2.846 28.572 5.595 53.426z" class="L"/><path d="M184.048 149.177a12.85 12.85 0 0 0-6.07-4.114c-1.385-.429-2.846-.557-4.285-.377s-2.822.667-4.058 1.425c-.992.591-1.815 1.425-2.392 2.425s-.888 2.13-.903 3.284c6.033 1.093 12.258.164 17.708-2.643z" class="N"/><g style="mix-blend-mode:multiply" class="G C"><path d="M187.837 146.587c4.846-4.141 7.656-10.203 9.471-16.317.441-1.48.82-2.969 1.163-4.467-5.533 9.524-14.74 21.374-26.193 21.083-19.154-.449-32.413-22.026-32.413-22.026l-1.348-.149a103.32 103.32 0 0 0 3.356 12.607c5.956 6.247 13.172 11.604 21.506 13.859s17.885 1.022 24.458-4.59z"/></g><path d="M141.856 137.318c5.956 6.247 13.171 11.604 21.506 13.859s17.902 1.022 24.475-4.59c4.846-4.141 7.656-10.203 9.471-16.317" class="B D E F"/><path d="M140.895 114.975l-4.678-31.083c-7.198-3.595-15.506-6.044-23.55-5.912-9.066-.978-18.343.987-26.695 4.661a286.36 286.36 0 0 0-8.81 27.471l-1.762 67.84a146.52 146.52 0 0 0 49.911 6.96 154.42 154.42 0 0 0 22.123-2.176c-.887-22.693-3.07-45.317-6.538-67.761z" class="L"/><g style="mix-blend-mode:multiply" class="G C"><path d="M125.204 166.895c3.524-3.242 1.049-10.731 6.335-26.308 1.683-5.859-3.427-2.643-2.097-8.854.643-17.78 2.317-16.335-17.471-16.74-21.788 1.119-14.978-9.128-17.541 27.893-.308 2.282.793 1.604-1.885 1.763l-16.555.185-.273 11.057c1.603.881 5.11 1.039 13.216 1.762-.352.81-1.181 7.118 2.925 7.585 3.295.855 27.832 7.331 33.347 1.657z"/></g><g style="mix-blend-mode:multiply" class="G C"><path d="M78.721 139.583c5.498-20.264 10.123-26.599 11.735-28.502l-10.951-5.092-1.454.881-.881 3.26-1.048 29.241c.857.157 1.728.227 2.599.212z"/></g><path d="M120.068 107.09l-1.436-28.757a39.93 39.93 0 0 0-5.965-.352 44.04 44.04 0 0 0-7.313-.167l-2.449 30.784 2.458 40.844h9.771l4.934-42.351z" class="H"/><g class="C"><path d="M112.508 74.633a14.7 14.7 0 0 0-2.74 3.304c-.122.195-.2.415-.227.643s-.004.46.069.679a17.5 17.5 0 0 0 2.907 5.286c1.279-1.546 2.211-3.349 2.731-5.286a1.52 1.52 0 0 0 .034-.619c-.032-.206-.107-.404-.219-.58-.81-1.233-1.718-2.379-2.555-3.427z"/><path d="M118.411 96.659c-.483-5.108-2.26-10.008-5.163-14.237l-1.145.097c-2.944 4.387-5.391 9.089-7.295 14.017l2.537 40.616a14.66 14.66 0 0 1 6.547-.062c1.18-13.233 5.858-26.378 4.519-40.43z"/></g><g class="N"><path d="M105.363 77.804c2.211 23.538 3.093 47.181 2.643 70.818l-9.057-38.325 3.868-9.691s-5.357-10.273-5.128-10.494c2.141-4.211 4.705-7.735 7.674-12.308zm13.268.52l-5.286 69.602L125.68 111.9l-3.357-8.81s5.066-12.132 4.405-12.696c-2.458-4.159-5.127-7.78-8.097-12.07z"/></g><g class="H"><path d="M105.354 77.804l2.097-5.832 5.057 2.661-2.493 5.709-4.661-2.537z"/><path d="M117.486 73.056l-4.978 1.577 2.309 5.991 3.815-2.291-1.146-5.278z"/></g><g class="B D E F"><path d="M75.487 178.287c0-22.326.881-45.251 1.762-68.175m63.646 4.863a593.55 593.55 0 0 1 6.538 65.62"/></g><path d="M127.459 118.508c.044 14.576-1.117 29.13-3.471 43.515-.188 1.148-.762 2.198-1.627 2.976s-1.969 1.239-3.13 1.305c-9.354.558-18.739-.129-27.912-2.044-1.178-.239-2.235-.886-2.984-1.827a5.12 5.12 0 0 1-1.113-3.318c.432-14.184 1.198-28.237 2.643-42.122a5.12 5.12 0 0 1 1.601-3.211 5.13 5.13 0 0 1 3.315-1.371 210.3 210.3 0 0 1 28.158 1.04 5.1 5.1 0 0 1 3.222 1.669c.833.932 1.295 2.138 1.297 3.388z" fill="#e35d76"/><g style="mix-blend-mode:multiply" class="G C"><path d="M125.504 151.406l.881-8.528-38.343-3.119-.758 16.651c2.573.335 12.22 1.463 20.872.661 0 0 .299-2.784.273-4.872a14.36 14.36 0 0 0 4.555-.978v-1.216s7.172 3.727 12.52 1.401z"/></g><path d="M111.301 148.296a27.43 27.43 0 0 0 9.842 1.762c2.29 0 4.845-.432 6.167-2.264s1.031-4.652 1.947-6.863c.379-.881.978-1.762 1.366-2.644a3.17 3.17 0 0 0 0-2.854c-.697-1.11-2.221-1.295-3.525-1.313l-8.211.379c1.049-1.13 1.939-2.399 2.643-3.771a1.85 1.85 0 0 0 .309-1.286c-.13-.303-.368-.547-.668-.682a1.31 1.31 0 0 0-.954-.049c-.652.218-1.263.546-1.806.969a26.09 26.09 0 0 1-7.497 3.991 54.24 54.24 0 0 0 .387 14.625z" class="J"/><path d="M127.345 147.838c.419-.604.719-1.283.881-2-6.749 4.264-16.475 1.207-16.475 1.207l-.652.079.167 1.172c3.145 1.185 6.481 1.783 9.841 1.762 2.326.044 4.881-.388 6.238-2.22z" class="K"/><path d="M104.579 151.168a24.13 24.13 0 0 0 7.048-.555c.428-5.64.203-11.31-.669-16.898l-4.229-.071-2.15 17.524z" class="H"/><g style="mix-blend-mode:multiply" class="G C"><path d="M111.601 150.613l.185-3.568a50.23 50.23 0 0 1-6.749.335l-.458 3.788c2.355.16 4.721-.027 7.022-.555z"/></g><path d="M85.936 82.641c-9.273 4.222-17.636 10.207-24.625 17.621-6.361 6.572-11.894 14.396-13.63 23.374s1.057 19.259 8.555 24.493c4.335 3.03 9.691 4.123 14.925 4.916a247.24 247.24 0 0 0 35.92 2.493 128.9 128.9 0 0 0-.37-21.894c-8.81-.149-16.035-.37-24.211-2.757-2.044-.599-4.326-1.613-4.846-3.674-.441-1.762.573-3.463 1.63-4.89 3.339-4.528 6.299-8.44 11.18-11.242l-4.528-28.44z" class="L"/><path d="M58.008 136.041c-1.056-1.927-2.615-3.53-4.511-4.64a12.14 12.14 0 0 0-6.255-1.66c.229 7.172 3.207 14.282 9.031 18.344.291.202.59.396.881.581a12.28 12.28 0 0 0 .855-12.625z" class="N"/><g style="mix-blend-mode:multiply" class="G C"><path d="M107.346 149.336c-4.15.29-11.947.334-26.194-.881-17.682-1.542-28.352-9.348-33.409-14.247 1.093 5.56 3.921 10.687 8.528 13.912 4.335 3.031 9.691 4.114 14.925 4.916 11.885 1.704 23.878 2.541 35.884 2.502a141.66 141.66 0 0 0 .265-6.202z"/></g><path d="M47.717 123.592c-1.762 8.978 1.057 19.259 8.555 24.493 4.335 3.03 9.691 4.123 14.925 4.916 11.884 1.716 23.877 2.564 35.885 2.537a128.9 128.9 0 0 0-.37-21.894c-8.81-.149-16.035-.37-24.211-2.757-2.044-.599-4.326-1.613-4.846-3.674-.441-1.762.573-3.463 1.63-4.89 3.339-4.528 6.299-8.44 11.18-11.242" class="B D E F"/><path d="M240.505 127.689a75.09 75.09 0 0 1-25.373.819 3.1 3.1 0 0 1-1.765-.879c-.477-.477-.785-1.096-.879-1.764a117.09 117.09 0 0 1-1.304-25.224 3.11 3.11 0 0 1 .726-1.841c.435-.518 1.028-.88 1.689-1.031a65.28 65.28 0 0 1 26.298-.326c.632.131 1.207.456 1.645.93s.716 1.073.796 1.713a132.13 132.13 0 0 1 .573 24.669c-.018.687-.265 1.348-.7 1.879a3.1 3.1 0 0 1-1.706 1.055z" class="C"/><path d="M240.505 126.138a75.07 75.07 0 0 1-25.374.811c-.668-.092-1.288-.4-1.766-.878s-.785-1.097-.877-1.766c-1.343-8.336-1.78-16.793-1.304-25.224.035-.676.29-1.323.725-1.841a3.11 3.11 0 0 1 1.689-1.031c8.653-1.896 17.602-2.007 26.299-.326a3.09 3.09 0 0 1 2.441 2.643 132.13 132.13 0 0 1 .572 24.669 3.09 3.09 0 0 1-.699 1.883c-.435.533-1.035.906-1.706 1.06z" class="B D E H"/><g style="mix-blend-mode:multiply" class="G C"><path d="M240.505 126.138a3.1 3.1 0 0 0 2.441-2.872 146.64 146.64 0 0 0 .061-17.912c-2 3.569-7.929 13.286-13.955 14.828-5.762 1.48-13.788.661-17.092.22l.564 3.939c.091.668.399 1.289.877 1.766s1.097.785 1.766.877c8.433 1.156 17.001.87 25.338-.846z"/></g><path d="M220.805 102.641c-.696-.369-1.479-.543-2.266-.506s-1.55.285-2.209.717a5.88 5.88 0 0 0-1.636 1.664 5.87 5.87 0 0 0-.858 2.169 8.75 8.75 0 0 0 .467 4.625c.68 1.942 1.937 3.63 3.604 4.837 1.685 1.199 3.771 1.692 5.815 1.374a8.35 8.35 0 0 0 4.942-3.03 12.98 12.98 0 0 0 2.476-5.287c.564-2.405.528-5.18-1.084-7.048-.583-.644-1.307-1.144-2.116-1.462a5.62 5.62 0 0 0-2.544-.37 7.18 7.18 0 0 0-4.591 2.317z" class="M"/><g class="B D E F"><path d="M222.938 110.376l.405 12.388m3.885-13.374l-4.15 5.383m-3.726-1.075l3.788 3.013"/></g><path d="M233.616 99.037a88.76 88.76 0 0 1 5.673 18.766c-3.873.891-7.897.891-11.77 0 1.316-6.465 3.361-12.761 6.097-18.766z" stroke="#76c9bf" class="B D I"/><g class="E F B D"><path d="M233.21 111.46c.513 3.99.704 8.014.573 12.035m-.211-8.59l1.876-1.762m-4.141 2.22a20.84 20.84 0 0 1 2.379 1.41"/></g><path d="M69.479 49.999c-7.054.841-14.199.508-21.145-.987-.54-.109-1.03-.389-1.398-.799s-.595-.926-.646-1.475c-.578-6.866-.392-13.774.555-20.599.078-.551.333-1.062.727-1.455s.906-.646 1.458-.721a55.75 55.75 0 0 1 21.929 1.418 2.54 2.54 0 0 1 1.314.863c.336.42.529.935.553 1.472a104.43 104.43 0 0 1-1.128 20.105c-.079.556-.34 1.071-.741 1.465s-.921.643-1.479.712z" class="C"/><path d="M69.32 48.439a64.07 64.07 0 0 1-21.145-.978c-.536-.117-1.02-.402-1.382-.815s-.581-.93-.627-1.476a93.05 93.05 0 0 1 .555-20.599c.076-.552.331-1.063.725-1.456s.907-.646 1.459-.72c7.318-.98 14.758-.491 21.885 1.436a2.53 2.53 0 0 1 1.868 2.335c.272 6.72-.105 13.45-1.128 20.096-.076.556-.334 1.072-.734 1.466s-.92.644-1.477.711z" class="B D E H"/><g style="mix-blend-mode:multiply" class="G C"><path d="M59.602 45.55c-7.691.053-12.061-1.956-13.638-2.863 0 .828.106 1.656.167 2.485.046.546.266 1.064.627 1.476s.846.698 1.382.815a64.07 64.07 0 0 0 21.145.978c.558-.067 1.077-.317 1.477-.711a2.54 2.54 0 0 0 .734-1.466c.555-3.903.881-7.621 1.11-11.233-1.648 3.656-5.736 10.467-13.004 10.52z"/></g><path d="M56.941 29.603l.114-2.388c1.609-.045 3.219.053 4.81.291l-.053 2.114-4.872-.018z" class="M"/><path d="M64.668 29.691c-3.388-.417-6.798-.64-10.211-.67l-.432 11.55a3.32 3.32 0 0 0 .194 1.586c.25.38.579.7.966.939s.821.391 1.272.444c1.417.343 2.868.529 4.326.555a3.13 3.13 0 0 0 2.132-.52c.539-.59.851-1.351.881-2.15.562-3.887.854-7.808.872-11.735z" class="L"/><path d="M60.263 32.008c-1.265.606-2.318 1.579-3.022 2.793-.331.615-.471 1.314-.404 2.009s.34 1.354.782 1.894c.487.472 1.098.796 1.762.934.292.087.599.114.902.079s.596-.131.86-.282c.331-.305.559-.706.653-1.146a2.17 2.17 0 0 0-.133-1.312c-.291-.881-.881-1.586-1.189-2.423-.272-.82-.345-1.693-.212-2.546z" class="I"/><path d="M59.435 35.832c-.27 1.82-.311 3.667-.123 5.498" class="B D E F"/><path d="M194.092 31.576c4.92 1.81 9.175 5.071 12.202 9.352a25.89 25.89 0 0 1 4.749 14.621c-.031 3.925-.979 7.789-2.768 11.283a25.19 25.19 0 0 1-7.535 8.842c-3.167 2.32-6.832 3.868-10.702 4.521a25.2 25.2 0 0 1-11.593-.761c-3.753-1.153-7.184-3.167-10.02-5.881a25.2 25.2 0 0 1-7.585-21.299 25.19 25.19 0 0 1 4.046-10.89 25.35 25.35 0 0 1 12.946-9.839c5.278-1.769 10.993-1.751 16.26.051z" fill="#6ee5e5"/><g class="I"><path d="M211.043 55.549v-.467a3.16 3.16 0 0 0-1.321-.289 3.17 3.17 0 0 0-1.322.289c-1.092.546-1.823 1.709-2.995 2.044-1.41.405-2.811-.529-4.229-.881a5.61 5.61 0 0 0-6.37 8.106 11.33 11.33 0 0 0 3.445 3.436 5.08 5.08 0 0 1 2.017 2.423c.141 2.106-1.383 4.07-1.18 6.167 0 .115 0 .22.053.326 3.555-2.292 6.497-5.416 8.571-9.103s3.218-7.823 3.331-12.051zm-25.805 8.027c.15-1.639 1.647-2.766 2.925-3.797s2.581-2.537 2.15-4.114a3.29 3.29 0 0 0-1.203-1.526c-.546-.376-1.192-.578-1.854-.58a15.15 15.15 0 0 0-3.903.538 5.65 5.65 0 0 1-3.851-.352 3.78 3.78 0 0 0 1.058-1.092 1.31 1.31 0 0 0 0-1.427c-.52-.643-1.533-.379-2.353-.52a2.3 2.3 0 0 1-.9-.408 2.29 2.29 0 0 1-.645-.748 2.28 2.28 0 0 1-.272-.95c-.021-.333.031-.666.152-.977.454-.727 1.054-1.351 1.762-1.832a2.38 2.38 0 0 0 .987-2.203c-.291-1.136-1.815-1.471-2.405-2.484a2.58 2.58 0 0 1-.255-1.168c.008-.404.11-.801.299-1.158.381-.713.811-1.399 1.286-2.053a8.56 8.56 0 0 0 1.11-5.656 25.63 25.63 0 0 0-14.449 10.299 24.32 24.32 0 0 0-3.436 8.026c.404.837 1.04 1.541 1.831 2.028a4.87 4.87 0 0 0 2.636.721c1.075 0 2.115-.335 3.181-.405a3.25 3.25 0 0 1 1.575.157c.504.181.956.485 1.314.883.996 1.383 0 3.357.485 4.996.313.656.518 1.358.608 2.079-.088 1.172-1.401 1.806-2.538 2.114s-2.475.678-2.889 1.762c-.538 1.419.837 2.758 1.55 4.097.595 1.326.852 2.779.749 4.229l.053 2.837a26.43 26.43 0 0 0 11.207 5.084 15.77 15.77 0 0 1 2.89-7.401c.986-1.357 2.255-2.722 2.237-4.405s-1.233-3.004-1.092-4.59zm10.431-19.075c.881 0 1.384 1.075 1.234 1.938s-.679 1.63-.881 2.493c-.116.436-.119.894-.008 1.331a2.64 2.64 0 0 0 3.1 1.937 1.33 1.33 0 0 1 .553-.553c.236-.125.504-.174.769-.143.526.078 1.045.202 1.55.37.254.086.524.114.789.08a1.76 1.76 0 0 0 .744-.274c.626-.493.556-1.463.934-2.159a2.77 2.77 0 0 1 .872-.822c.347-.207.735-.335 1.137-.376.793-.132 1.612-.106 2.388-.3.308-.068.605-.181.881-.335a26.1 26.1 0 0 0-5.591-9.405 26.09 26.09 0 0 0-8.955-6.286c.279.905.32 1.867.12 2.793a5.53 5.53 0 0 1-1.265 2.493 22.55 22.55 0 0 0-2.185 2.018c-.591.802-.732 2.088.07 2.643.449.326 1.154.405 1.339.934.3.828-1.092 1.665-.652 2.432.291.511 1.084.352 1.551 0s.925-.784 1.506-.811z"/></g><g style="mix-blend-mode:multiply" class="G C"><path d="M192.762 69.505c-11.401 5.198-23.392 1.762-27.612.247.212.308.423.617.652.881a25.2 25.2 0 0 0 28.014 8.635c4.987-1.663 9.329-4.843 12.418-9.096a25.19 25.19 0 0 0 4.809-14.622c-.003-3.335-.693-6.634-2.026-9.691-1.498 6.229-5.797 18.889-16.255 23.647z"/></g><g class="B D E F"><path d="M164.49 41.973l.396-.608a24.32 24.32 0 0 1 1.63-2.159m38.853 31.814a24.99 24.99 0 0 1-11.541 8.238 25.89 25.89 0 0 1-15.346.052 25.9 25.9 0 0 1-12.68-8.642c-2.816-3.841-4.523-8.382-4.935-13.127a26 26 0 0 1 2.6-13.78m6.476-7.894a25.21 25.21 0 0 1 11.518-5.281c4.227-.751 8.574-.41 12.631.99a25.89 25.89 0 0 1 16.951 23.973 24.89 24.89 0 0 1-3.18 11.824"/></g><g style="mix-blend-mode:soft-light" opacity=".7" class="H"><path d="M179.397 36.211c-.978-2.775-6.494-.282-9.454 2.643s-5.083 9.242-2.951 11.057 2.643-5.163 5.392-7.189 8.361-2.696 7.013-6.511z"/></g><g class="B D E"><path d="M203.678 5.172c-.09-.636-.388-1.224-.847-1.673s-1.053-.734-1.69-.811a136.93 136.93 0 0 0-38.387.978 2.91 2.91 0 0 0-1.841 1.095c-.452.586-.663 1.322-.591 2.059.485 4.855.952 9.815 1.833 14.775.114.66.454 1.26.962 1.697a2.89 2.89 0 0 0 1.822.699c5.615.106 11.224-.021 16.828-.379.975 1.429 2.04 2.795 3.189 4.088.782-1.421 1.411-2.921 1.877-4.476a203.93 203.93 0 0 0 14.493-1.824 2.9 2.9 0 0 0 2.405-2.476 53.16 53.16 0 0 0-.053-13.753z" class="C"/><path d="M203.678 3.903c-.09-.636-.388-1.224-.847-1.673s-1.053-.734-1.69-.811c-12.778-1.484-25.701-1.154-38.387.978a2.91 2.91 0 0 0-1.841 1.095c-.452.586-.663 1.322-.591 2.059.485 4.855.952 9.815 1.833 14.775.116.66.456 1.259.964 1.696s1.15.684 1.82.701a203.57 203.57 0 0 0 16.828-.379c.973 1.444 2.038 2.825 3.189 4.132A22.97 22.97 0 0 0 186.833 22c4.851-.435 9.682-1.043 14.493-1.824a2.9 2.9 0 0 0 1.621-.855c.433-.453.708-1.034.784-1.656a53.14 53.14 0 0 0-.053-13.762z" class="H"/></g><g style="mix-blend-mode:multiply" class="G C"><path d="M203.731 17.665c.315-2.507.45-5.033.405-7.559-3.952 2.573-8.239 4.592-12.74 6-11.453 3.806-22.757 3.797-29.4 3.295.053.317.097.625.159.934a2.89 2.89 0 0 0 .964 1.696c.507.437 1.15.684 1.82.701a203.57 203.57 0 0 0 16.828-.379 40.55 40.55 0 0 0 3.189 4.123c.782-1.421 1.411-2.922 1.877-4.476a203.93 203.93 0 0 0 14.493-1.824c.618-.102 1.187-.402 1.62-.855a2.9 2.9 0 0 0 .785-1.656z"/></g><g class="C"><path d="M175.229 18.678a2.76 2.76 0 0 1-1 .885 2.77 2.77 0 0 1-1.299.313 2.82 2.82 0 0 1-1.361-.128 2.81 2.81 0 0 1-1.141-.753 5.28 5.28 0 0 1-1.031-3.092l-.467-6.361c-.159-2.173.311-3.574 1.41-4.203a3.52 3.52 0 0 1 1.497-.414c2.053-.15 3.181 1.066 3.366 3.656l.15 2.009-2.15.159-.132-1.894a4.73 4.73 0 0 0-.317-1.595c-.063-.148-.174-.271-.314-.349s-.303-.107-.462-.083a.79.79 0 0 0-.463.166.8.8 0 0 0-.277.407 4.41 4.41 0 0 0-.097 1.586l.503 6.828a4.82 4.82 0 0 0 .334 1.665.77.77 0 0 0 .323.355.76.76 0 0 0 .47.094.74.74 0 0 0 .714-.564c.127-.564.157-1.145.088-1.718l-.159-2.097 2.185-.159.15 2.07a5.28 5.28 0 0 1-.52 3.216zm3.745-3.506l-.062-1.304 2.115-.097.07 1.463a5.13 5.13 0 0 0 .291 1.709.77.77 0 0 0 .329.364c.146.082.315.116.481.094a.75.75 0 0 0 .442-.107.74.74 0 0 0 .298-.342c.126-.435.165-.89.115-1.339a3.67 3.67 0 0 0-.405-1.586 5.87 5.87 0 0 0-1.128-1.383l-1.137-1.057c-.498-.462-.922-.996-1.259-1.586a4.32 4.32 0 0 1-.511-1.938c-.123-.945.075-1.904.563-2.722.289-.339.653-.606 1.063-.781a2.87 2.87 0 0 1 1.299-.224 2.43 2.43 0 0 1 2.352.881c.505.904.764 1.925.749 2.96l.044.881-2.053.106-.044-1.048c.001-.517-.088-1.03-.264-1.515a.69.69 0 0 0-.288-.339.68.68 0 0 0-.435-.092.88.88 0 0 0-.414.103c-.128.068-.236.165-.317.285a1.9 1.9 0 0 0-.176 1.057c-.001.386.099.766.291 1.101a5.32 5.32 0 0 0 .881 1.022l1.268 1.251a7.7 7.7 0 0 1 1.48 1.982 5.2 5.2 0 0 1 .573 2.167c.127 1.054-.063 2.121-.546 3.066a2.73 2.73 0 0 1-2.361 1.101c-.46.067-.929.012-1.361-.159a2.64 2.64 0 0 1-1.097-.819c-.561-.956-.853-2.046-.846-3.154zm12.422-3.26h-.713l.167 6.907-2.229.053-.352-14.634 3.682-.097a2.64 2.64 0 0 1 1.762.423c.399.319.674.768.776 1.269a10.44 10.44 0 0 1 .229 2.159 5.61 5.61 0 0 1-.229 2.044 1.61 1.61 0 0 1-.402.605c-.179.168-.394.293-.629.364a1.34 1.34 0 0 1 .691.336c.192.177.329.406.393.66a14.44 14.44 0 0 1 .387 3.7 23.12 23.12 0 0 0 .159 3.022l-2.229.053c-.062-.114-.132-1.859-.212-5.286a2.47 2.47 0 0 0-.264-1.286c-.13-.123-.287-.213-.459-.263s-.352-.06-.528-.027zm-.749-1.762h.881a.88.88 0 0 0 .626-.211c.155-.187.248-.418.264-.661a8.84 8.84 0 0 0 .053-1.427v-.088a3.78 3.78 0 0 0-.238-1.551c-.132-.238-.449-.352-.925-.344h-.758l.097 4.282zm55.426 48.527a53.19 53.19 0 0 1-20.263-.123 2.64 2.64 0 0 1-2-2.432 118.51 118.51 0 0 1-.282-22.748c.022-.575.229-1.127.589-1.576s.854-.77 1.411-.917a46.29 46.29 0 0 1 20.986.59 2.7 2.7 0 0 1 1.868 2.484c.526 7.404.432 14.84-.282 22.229-.017.581-.225 1.139-.591 1.59s-.871.768-1.436.904z"/></g><path d="M246.073 57.311a53.37 53.37 0 0 1-20.263-.123c-.552-.138-1.044-.45-1.405-.889a2.64 2.64 0 0 1-.595-1.551 118.51 118.51 0 0 1-.282-22.748c.016-.578.221-1.135.584-1.586a2.64 2.64 0 0 1 1.424-.908c6.948-1.416 14.128-1.217 20.987.581a2.73 2.73 0 0 1 1.336.981c.333.458.516 1.008.523 1.574a133.07 133.07 0 0 1-.282 22.229c-.037.569-.252 1.111-.617 1.55s-.857.75-1.41.891z" class="B D E H"/><g style="mix-blend-mode:multiply" class="G C"><path d="M248.1 54.845a168.75 168.75 0 0 0 .59-10.572c-2.035 3.877-5.612 8.925-10.819 9.92-6.352 1.225-11.868-1.216-14.37-2.643l.3 3.233c.026.568.235 1.112.596 1.551a2.64 2.64 0 0 0 1.404.889c6.684 1.335 13.563 1.377 20.264.123a2.7 2.7 0 0 0 2.035-2.502z"/></g><g class="I"><path d="M230.426 50.14l1.886-2.132c-.961-.853-1.616-1.996-1.865-3.256a5.89 5.89 0 0 1 .481-3.721l1.304.643-1.462-3.595-3.692 1.066 1.295.634a8.72 8.72 0 0 0 2.053 10.361zm13.559-7.965l.652-4.229-1.198.81a8.71 8.71 0 0 0-4.426-3.388 8.72 8.72 0 0 0-5.574-.013l.881 2.696a5.89 5.89 0 0 1 3.758.015 5.88 5.88 0 0 1 2.982 2.285l-1.207.802 4.132 1.022zm.758 3.172l-2.793-.564a5.85 5.85 0 0 1-5.357 4.679l-.096-1.445-2.705 2.978 3.101 2.793-.097-1.454c1.908-.13 3.721-.884 5.157-2.147a8.71 8.71 0 0 0 2.79-4.84z"/></g><path d="M161.591 105.768c-6.896 1.794-14.041 2.431-21.145 1.886-.546-.044-1.063-.262-1.475-.622a2.55 2.55 0 0 1-.816-1.378 93.28 93.28 0 0 1-2.238-20.484 2.55 2.55 0 0 1 .525-1.541c.339-.442.814-.761 1.352-.908 7.129-1.963 14.578-2.487 21.911-1.542a2.55 2.55 0 0 1 2.168 2.062c1.175 6.623 1.709 13.344 1.594 20.07-.001.559-.185 1.102-.524 1.546a2.56 2.56 0 0 1-1.352.912z" class="C"/><path d="M161.6 104.112c-6.894 1.802-14.041 2.442-21.145 1.894-.542-.049-1.055-.269-1.463-.628a2.56 2.56 0 0 1-.81-1.372c-1.499-6.724-2.25-13.594-2.238-20.484a2.55 2.55 0 0 1 .535-1.524c.338-.437.809-.752 1.342-.899a55.73 55.73 0 0 1 21.911-1.551 2.56 2.56 0 0 1 2.167 2.062c1.165 6.615 1.69 13.328 1.569 20.044a2.56 2.56 0 0 1-.521 1.543 2.55 2.55 0 0 1-1.347.915z" class="B D E H"/><g style="mix-blend-mode:multiply" class="G C"><path d="M163.467 101.654l-.088-5.753c-8.44 7.189-21.488 5.286-25.982 4.308.23 1.269.476 2.529.749 3.797.119.536.407 1.019.821 1.379a2.56 2.56 0 0 0 1.479.621c7.104.548 14.251-.093 21.145-1.894.538-.148 1.013-.469 1.352-.913a2.55 2.55 0 0 0 .524-1.545z"/></g><g class="B D E"><path d="M143.071 86.179l-2.955.291.291 2.955 2.955-.291-.291-2.955z" class="H"/><path d="M145.389 88.932l13.145-1.295" class="F"/><path d="M143.626 91.693l-2.955.291.291 2.955 2.955-.291-.291-2.955z" class="H"/><path d="M145.935 94.447l13.136-1.295" class="F"/><path d="M144.163 97.208l-2.955.291.291 2.955 2.955-.291-.291-2.955z" class="H"/><g class="F"><path d="M146.481 99.962l13.136-1.286"/></g></g><g stroke="#e35d76" stroke-width="2.87" class="B F"><path d="M139.679 87.637l1.815 1.057c.322-1.294.811-2.541 1.454-3.709m-2.881 7.691l2.071 1.128a8.11 8.11 0 0 1 1.286-3.524"/></g><path d="M50.157 88.579a67.48 67.48 0 0 1-22.14 2.758c-.576-.02-1.13-.228-1.577-.593s-.763-.865-.899-1.425a97.99 97.99 0 0 1-3.101-21.436c-.016-.586.16-1.16.5-1.637s.826-.83 1.385-1.006c7.423-2.321 15.234-3.142 22.978-2.414.562.052 1.093.283 1.515.658s.712.877.828 1.43c1.477 6.916 2.286 13.959 2.414 21.03.021.588-.154 1.167-.499 1.644s-.839.826-1.404.99z" class="C"/><path d="M49.92 86.809a67.62 67.62 0 0 1-22.132 2.749c-.576-.02-1.13-.228-1.577-.593s-.762-.865-.899-1.425c-1.826-7.002-2.866-14.186-3.101-21.418-.015-.586.16-1.16.5-1.637s.827-.83 1.385-1.006a58.59 58.59 0 0 1 22.969-2.414 2.69 2.69 0 0 1 1.514.664c.422.375.716.873.839 1.424a110.37 110.37 0 0 1 2.414 21.039c.008.585-.174 1.156-.519 1.628s-.834.819-1.393.989z" class="B D E H"/><g style="mix-blend-mode:multiply" class="G C"><path d="M51.831 84.157l-.379-7.048a15.9 15.9 0 0 1-9.33 5.753c-9.242 2.097-15.348 1.119-17.797.511.3 1.401.626 2.811.987 4.211.144.552.463 1.043.91 1.398s.996.558 1.566.575a67.62 67.62 0 0 0 22.132-2.749c.565-.171 1.058-.524 1.404-1.003s.524-1.058.508-1.649z"/></g><path d="M45.303 76.095a8.01 8.01 0 0 0-.053-2.15l1.427-1.022-.678-1.956-1.762.088c-.358-.624-.793-1.202-1.295-1.718l.546-1.656-1.692-1.181-1.374 1.101a7.93 7.93 0 0 0-2.062-.599l-.537-1.674-2.062.044-.441 1.63a7.41 7.41 0 0 0-1.048.291 7.56 7.56 0 0 0-.987.423l-1.41-1.04-1.648 1.251.617 1.63c-.482.532-.894 1.125-1.225 1.762h-1.762l-.59 1.982 1.454.952a8.07 8.07 0 0 0 .053 2.159l-1.418 1.022.678 1.947 1.762-.088a7.93 7.93 0 0 0 1.304 1.762l-.546 1.656 1.692 1.181 1.366-1.101a7.93 7.93 0 0 0 2.071.626l.52 1.665h2.07l.458-1.692c.353-.069.7-.163 1.04-.282a9.14 9.14 0 0 0 .995-.423l1.41 1.04 1.648-1.251-.625-1.639a8.36 8.36 0 0 0 1.225-1.762h1.762l.599-1.973-1.48-1.004zm-6.846 3.242c-.822.303-1.715.355-2.566.148s-1.621-.663-2.212-1.309-.975-1.454-1.104-2.321.002-1.751.378-2.542.979-1.452 1.733-1.898 1.623-.658 2.497-.608 1.714.359 2.412.889 1.222 1.255 1.505 2.083c.373 1.088.305 2.279-.189 3.318s-1.374 1.843-2.454 2.241z" class="L"/><g class="B D E"><path d="M37.012 82.051c3.786 0 6.855-3.069 6.855-6.855s-3.069-6.855-6.855-6.855-6.854 3.069-6.854 6.855 3.069 6.855 6.854 6.855z"/><path d="M45.303 76.095a8.01 8.01 0 0 0-.053-2.15l1.427-1.022-.678-1.956-1.762.088c-.358-.624-.793-1.202-1.295-1.718l.546-1.656-1.692-1.181-1.374 1.101a7.93 7.93 0 0 0-2.062-.599l-.537-1.674-2.062.044-.441 1.63a7.41 7.41 0 0 0-1.048.291 7.56 7.56 0 0 0-.987.423l-1.41-1.04-1.648 1.251.617 1.63c-.482.532-.894 1.125-1.225 1.762h-1.762l-.59 1.982 1.454.952a8.07 8.07 0 0 0 .053 2.159l-1.418 1.022.678 1.947 1.762-.088a7.93 7.93 0 0 0 1.304 1.762l-.546 1.656 1.692 1.181 1.366-1.101a7.93 7.93 0 0 0 2.071.626l.52 1.665h2.07l.458-1.692c.353-.069.7-.163 1.04-.282a9.14 9.14 0 0 0 .995-.423l1.41 1.04 1.648-1.251-.625-1.639a8.36 8.36 0 0 0 1.225-1.762h1.762l.599-1.973-1.48-1.004z"/><g class="F"><path d="M20.616 43.118l1.797 2.238m-9.189 37.946l-2.273 1.753m233.739-5.973l-2.872-.026m-68.809 19.788l-2.872-.018m26.88 77.725l-2.872-.027m16.714-148.992l-2.274 1.762M33.779 165.617l-2.273 1.754m135.239 1.11l2.476 1.444M145.239 32.008l2.475 1.445"/></g><path d="M31.426 30.475a.8.8 0 0 1-1.366.579.8.8 0 0 1 .564-1.372.8.8 0 0 1 .306.058c.097.039.186.098.26.171s.134.162.174.258a.8.8 0 0 1 .061.306zm106.8-13.48c0 .157-.047.31-.134.441a.79.79 0 0 1-.814.337c-.154-.031-.295-.106-.406-.217s-.186-.252-.217-.406a.8.8 0 0 1 .045-.458c.06-.145.162-.269.292-.356s.284-.134.441-.134c.21 0 .412.083.561.232a.79.79 0 0 1 .232.561h0zm79.487 67.021c.002.159-.044.316-.132.449s-.212.237-.359.299a.8.8 0 0 1-.465.048c-.156-.031-.3-.107-.413-.22a.81.81 0 0 1-.22-.413c-.03-.156-.014-.318.048-.465a.8.8 0 0 1 .299-.359c.133-.087.29-.133.449-.131a.79.79 0 0 1 .793.793h0zm-42.792 30.757c0 .156-.047.31-.134.44a.79.79 0 0 1-.814.337c-.154-.03-.295-.106-.406-.217s-.186-.252-.217-.406a.8.8 0 0 1 .045-.458c.06-.145.162-.269.292-.356s.284-.133.441-.133c.104 0 .207.02.303.06a.79.79 0 0 1 .429.429c.04.096.061.2.061.304zM78.333 13.471a.79.79 0 0 1-.134.441c-.088.131-.211.232-.356.292a.79.79 0 0 1-.458.045c-.154-.031-.295-.106-.406-.217s-.186-.252-.217-.406a.79.79 0 0 1 .045-.458c.06-.145.162-.269.292-.356s.284-.134.441-.134c.21 0 .412.083.561.232a.79.79 0 0 1 .232.561h0zM58.624 75.197c0 .157-.047.31-.134.441a.79.79 0 0 1-.814.337c-.154-.031-.295-.106-.406-.217s-.186-.252-.217-.406a.79.79 0 0 1 .045-.458c.06-.145.162-.269.292-.356s.284-.134.441-.134c.21 0 .412.084.561.232a.79.79 0 0 1 .232.561zM2.097 58.254a.79.79 0 0 1-.134.441c-.088.131-.211.232-.356.292a.79.79 0 0 1-.458.045c-.154-.031-.295-.106-.406-.217s-.186-.252-.217-.406a.79.79 0 0 1 .045-.458c.06-.145.162-.269.292-.356s.284-.134.441-.134c.104 0 .207.02.303.06s.184.098.257.172a.81.81 0 0 1 .172.257c.04.096.06.199.06.303h0zm32.475 63.435a.79.79 0 0 1-1.353.56.79.79 0 0 1-.172-.864.8.8 0 0 1 .292-.356c.13-.087.284-.133.441-.133a.79.79 0 0 1 .793.793h0zm-24.167 20.202a.79.79 0 0 1-.49.733.8.8 0 0 1-.458.045c-.154-.031-.295-.106-.406-.217a.8.8 0 0 1-.217-.406.79.79 0 0 1 .337-.814c.13-.087.284-.134.441-.134.21 0 .412.084.561.232a.79.79 0 0 1 .232.561h0zm213.731 17.903c0 .156-.047.31-.134.44a.79.79 0 0 1-.814.337c-.154-.03-.295-.106-.406-.217s-.186-.252-.217-.406a.79.79 0 0 1 .045-.458c.06-.145.162-.269.292-.356s.284-.133.441-.133a.79.79 0 0 1 .793.793zm-21.709-11.366c0 .157-.047.31-.134.441a.79.79 0 0 1-.814.337c-.154-.031-.295-.106-.406-.217s-.186-.252-.217-.406a.79.79 0 0 1 .045-.458c.06-.145.162-.269.292-.356s.284-.134.441-.134c.21 0 .412.084.561.233a.79.79 0 0 1 .232.56zm-63.241-77.637a.8.8 0 0 1-1.369.567.8.8 0 0 1-.173-.874c.06-.147.163-.272.295-.36a.8.8 0 0 1 1.247.667h0z"/></g></g><defs><clipPath id="A"><path d="M0 0h249.228v185H0z" class="H"/></clipPath></defs></svg>