<svg xmlns="http://www.w3.org/2000/svg" width="512" height="512" fill="red" xmlns:v="https://vecta.io/nano"><path d="M233 1C143.9 9.6 66.3 62.9 27 142.5 11 174.9 3.4 203 .8 239.8c-2.4 33.5 3 72 14.7 103.8C20 355.9 32.2 381 38.6 391c20.8 32.7 52.4 64.1 83.9 83.3 59.4 36.1 130.4 46.6 197.6 29.3 42.9-11 81.1-32.5 113.6-64 81.9-79 101.5-201 48.8-302.3-12.5-24-28.4-45.1-48.8-65-38.5-37.4-86.9-61.4-140.2-69.4C278.4.6 247.3-.3 233 1zm119 160.1c18.4 4.2 34.5 21.4 37.9 40.3 1.5 8.1 1.5 101.1 0 109.2-3.4 18.9-19.5 36.1-37.9 40.3-6.2 1.4-185.8 1.4-192 0-18.4-4.2-34.5-21.4-37.9-40.3-1.5-8.1-1.5-101.1 0-109.2 3.4-18.7 19.5-36.1 37.5-40.3 5.6-1.3 186.7-1.3 192.4 0zM221 296.9l11.3-6.5c6.1-3.7 21.7-12.7 34.5-20.1 12.7-7.4 23.2-13.9 23.2-14.3s-10.5-6.9-23.2-14.3l-34.5-20.1-11.3-6.5v81.8z"/></svg>